<svg aria-hidden="true" focusable="false" role="img" xmlns="http://www.w3.org/2000/svg" viewBox="0 0 18 18"><g><path d="M9,0C4.04,0,0,4.04,0,9s4.04,9,9,9,9-4.04,9-9S13.96,0,9,0Zm0,15.99c-3.86,0-6.99-3.14-6.99-6.99S5.14,2.01,9,2.01s6.99,3.14,6.99,6.99-3.14,6.99-6.99,6.99Z" fill="#059494"/><path d="M13.69,5.55c-.39-.39-1.03-.39-1.42,0l-4.77,4.77-1.78-1.78c-.39-.39-1.03-.39-1.42,0s-.39,1.03,0,1.42l2.49,2.49c.2,.2,.45,.29,.71,.29s.51-.1,.71-.29l5.48-5.48c.39-.39,.39-1.03,0-1.42Z" fill="#059494"/></g></svg>