<?xml version="1.0" encoding="UTF-8"?><svg id="a" xmlns="http://www.w3.org/2000/svg" viewBox="0 0 18 18"><g id="b"><path d="M9,0C4.04,0,0,4.04,0,9s4.04,9,9,9,9-4.04,9-9S13.96,0,9,0Zm0,15.99c-3.86,0-6.99-3.14-6.99-6.99S5.14,2.01,9,2.01s6.99,3.14,6.99,6.99-3.14,6.99-6.99,6.99Z" fill="#e64d54"/><path d="M12.5,5.5c-.39-.39-1.03-.39-1.42,0l-2.08,2.08-2.08-2.08c-.39-.39-1.03-.39-1.42,0s-.39,1.03,0,1.42l2.08,2.08-2.08,2.08c-.39,.39-.39,1.03,0,1.42s1.03,.39,1.42,0l2.08-2.08,2.08,2.08c.2,.2,.45,.29,.71,.29s.51-.1,.71-.29c.39-.39,.39-1.03,0-1.42l-2.08-2.08,2.08-2.08c.39-.39,.39-1.03,0-1.42Z" fill="#e64d54"/></g></svg>