<svg width="96" height="33" viewBox="0 0 96 33" xmlns="http://www.w3.org/2000/svg">
    <g fill="#003C71" fill-rule="evenodd">
        <path d="M67.014 31.474h-2.133v.66h6.404v-.66h-1.722V20.318c-.533.55-1.388.602-2.239.602h-2.12v.654h1.81v9.9M26.544 31.474h-2.132v.66h6.402v-.66h-1.72V20.318c-.535.55-1.384.602-2.239.602h-2.118v.654h1.807v9.9M74.415 31.47h-2.054v.662h6.501v-.662H76.99v-9.9h4.59v9.9h-1.716v.662h6.326v-.662h-2.055V20.313c-.537.549-1.463.603-2.314.603h-4.83v-3.723c0-2.496.916-4.485 3.763-4.485 1.133 0 1.962.46 1.962.935 0 .32-.282.424-.504.546-.341.192-.673.536-.673 1.055 0 .71.683 1.184 1.275 1.184.865 0 1.5-.685 1.5-1.703 0-1.19-1.23-2.697-3.806-2.697-4.48 0-6.092 3.636-6.092 7.084v1.804h-2.32v.653h2.32v9.901M6.565 23.938c2.777.576 4.032 2.248 4.032 4.082 0 2.098-1.684 3.806-4.241 3.806-2.613 0-5.15-2.13-5.556-6.434H.082v6.923H.8c.052-.461.248-.81.798-.81 1.026 0 2.135 1.082 4.8 1.082 3.863 0 5.994-2.34 5.994-5.923 0-2.8-1.407-4.88-5.116-5.789l-1.418-.33c-3.273-.76-4.23-2.261-4.23-3.798 0-2.096 1.626-3.516 3.596-3.516 3.076 0 4.9 2.492 5.277 5.597h.764v-5.744h-.69c-.08.357-.255.706-.805.706-.941 0-1.723-1.337-4.61-1.337-2.873 0-5.16 2.11-5.16 5.229 0 3.355 1.673 5.114 5.183 5.933l1.382.323M58.327 30.024c0 1.875 1.285 2.563 2.993 2.563 2.041 0 2.72-1.117 3.048-1.813l-.523-.357c-.325.566-.848 1.27-1.74 1.27-.688 0-1.235-.348-1.235-1.412V21.57h2.98v-.654h-2.976v-3.413h-.504c-.446 2.659-1.686 3.413-4.19 3.413v.654h2.147v8.455M50.213 31.47h1.903v-8.308c0-1.33-.724-1.874-1.654-1.874-1.671 0-2.923 1.599-3.491 2.384v7.798h1.956v.66h-6.513v-.66h2.007v-9.9h-2.007v-.655h2.106c1.28 0 1.89-.003 2.37-.602v2.222h.057c.55-.657 1.858-2.222 4.128-2.222 2.406 0 3.594 1.565 3.594 3.447v7.71h2.006v.66h-6.462v-.66M22.952 28.435c-.287 1.451-1.444 3.238-3.43 3.238-1.944 0-2.871-1.146-2.871-3.69v-2.576c0-2.497.915-4.273 3.013-4.273 1.251 0 1.948.613 1.948 1.09 0 .26-.174.41-.332.599-.169.194-.336.443-.336.816 0 .576.444 1.138 1.247 1.138.748 0 1.361-.593 1.361-1.512 0-1.356-1.608-2.786-4.107-2.786-3.158 0-5.61 2.417-5.61 6.071 0 3.336 1.716 6.068 5.399 6.068 2.493 0 4.089-2.016 4.426-4.183h-.708M95.293 28.405c-.285 1.452-1.443 3.241-3.43 3.241-1.943 0-2.872-1.147-2.872-3.692v-2.578c0-2.492.916-4.27 3.015-4.27 1.249 0 1.948.614 1.948 1.089 0 .262-.174.411-.334.599-.169.195-.333.444-.333.818 0 .576.44 1.135 1.246 1.135.747 0 1.36-.592 1.36-1.513 0-1.356-1.609-2.784-4.11-2.784-3.153 0-5.608 2.416-5.608 6.071 0 3.336 1.719 6.067 5.398 6.067 2.496 0 4.092-2.017 4.427-4.183h-.707M39.186 24.629c0 .106-.053.188-.18.188h-4.364v-.84c0-1.782.921-2.875 2.303-2.875 1.418 0 2.241 1.012 2.241 2.876v.65m1.607 3.75c-.302 1.625-1.503 3.293-3.383 3.293-1.9 0-2.878-1.163-2.878-3.503v-2.65h6.954c.16 0 .24-.082.24-.247l-.002-.404c0-1.701-1.53-4.416-4.915-4.416-2.954 0-5.115 2.891-5.115 6.07 0 3.793 2.206 6.068 5.233 6.068 2.38 0 4.137-1.682 4.583-4.212h-.717M16.919 7.96h1.239c2.607 0 4.025 1.711 4.025 3.835 0 2.326-1.401 3.99-3.794 3.99h-1.47V7.96zm-2.62 7.826h-1.756v.624h7.116c2.416 0 5.277-1.38 5.277-4.604 0-2.565-2.293-3.94-4.543-4.067v-.117c1.903-.164 3.813-1.39 3.813-3.919 0-2.19-1.863-3.703-5.265-3.703h-6.409v.61h1.766v15.176zM16.918.609h.673c2.586 0 3.958 1.456 3.958 3.26 0 2.582-1.741 3.465-3.868 3.465h-.763V.61zM33.419 12.086c0 2.023-.24 4.02-2.46 4.02-2.223 0-2.46-1.997-2.46-4.02v-1.202c0-2.025.188-4.022 2.46-4.022 2.336 0 2.46 1.997 2.46 4.022v1.202m-7.408-.602c0 2.908 2.051 5.324 4.95 5.324 2.898 0 4.95-2.44 4.95-5.324 0-2.897-2.052-5.322-4.95-5.322-2.899 0-4.95 2.398-4.95 5.322M58.84 12.089c0 2.024-.242 4.022-2.459 4.022-2.225 0-2.462-1.998-2.462-4.022v-1.203c0-2.024.187-4.02 2.462-4.02 2.331 0 2.46 1.996 2.46 4.02v1.203m-7.41-.601c0 2.908 2.053 5.323 4.95 5.323 2.898 0 4.952-2.441 4.952-5.323 0-2.9-2.054-5.324-4.952-5.324-2.897 0-4.95 2.402-4.95 5.324M68.415 15.79h1.407V8.814c0-1.173-.76-1.649-1.563-1.649-1.056 0-2.146 1.018-2.644 2.097v6.528h1.716v.626h-5.978v-.626h1.88V7.197h-1.827v-.612h1.775c1.077 0 1.965 0 2.369-.526v1.907h.045c.925-1.122 2.182-1.907 3.63-1.907 2.263 0 3.05 1.609 3.05 2.955v6.776h1.342v.626h-5.202v-.626M40.647 12.399c1.357.193 1.935.996 1.935 1.861 0 1.23-.996 1.883-2.093 1.883-2.108 0-2.864-1.865-2.984-3.102h-.534l.07 3.622h.518c.041-.375.164-.525.402-.525.49 0 1.077.669 2.562.669 2.208 0 3.552-1.38 3.552-3.457 0-1.486-.841-2.83-2.73-3.105l-1.132-.191c-1.483-.246-2.003-.76-2.003-1.639 0-.86.728-1.597 1.988-1.597 1.459 0 2.306.91 2.54 2.336h.508L43.19 6.3h-.452c-.026.212-.114.43-.353.43-.414 0-.986-.572-2.221-.572-1.75 0-3.099 1.225-3.099 2.953 0 2.19 1.43 2.986 2.93 3.194l.652.094"/>
        <path d="M51.172 14.88c-.23.391-.733.988-1.48.988-.619 0-1.17-.278-1.17-1.259V7.195h2.643v-.61h-2.642v-3.36h-.45c-.382 2.352-1.704 3.359-3.604 3.359v.61h1.67v7.386c0 1.615 1.148 2.24 2.752 2.24 1.482 0 2.255-.755 2.655-1.38l-.374-.56"/>
    </g>
</svg>