<svg xmlns="http://www.w3.org/2000/svg" width="96" height="33" viewBox="0 0 480.5 209.3"><defs><style>.cls-1{fill:#00467f;}.cls-2{fill:#6a737b;}</style></defs><g id="Layer_2" data-name="Layer 2"><g id="Layer_1-2" data-name="Layer 1"><path class="cls-1" d="M319.6,136.8h-9.3v2.9h27.8v-2.9h-7.5V88.3c-2.3,2.4-6,2.6-9.7,2.6h-9.2v2.8h7.9v43.1"/><path class="cls-1" d="M143.7,136.8h-9.3v2.9h27.8v-2.9h-7.5V88.3c-2.3,2.4-6,2.6-9.7,2.6h-9.2v2.8h7.8v43.1"/><path class="cls-1" d="M351.7,136.8h-8.9v2.9H371v-2.9h-8.1v-43h19.9v43h-7.5v2.9h27.5v-2.9H394V88.3c-2.3,2.4-6.4,2.6-10.1,2.6h-21V74.7c0-10.8,4-19.5,16.4-19.5,4.9,0,8.5,2,8.5,4.1,0,1.4-1.2,1.8-2.2,2.4a5.14,5.14,0,0,0-2.9,4.6c0,3.1,3,5.1,5.5,5.1,3.8,0,6.5-3,6.5-7.4,0-5.2-5.3-11.7-16.5-11.7-19.5,0-26.5,15.8-26.5,30.8v7.8H341.6v2.8h10.1v43.1"/><path class="cls-1" d="M56.9,104.1c12.1,2.5,17.5,9.8,17.5,17.7,0,9.1-7.3,16.5-18.4,16.5-11.4,0-22.4-9.3-24.1-28H28.8v30.1h3.1c.2-2,1.1-3.5,3.5-3.5,4.5,0,9.3,4.7,20.9,4.7,16.8,0,26-10.2,26-25.7,0-12.2-6.1-21.2-22.2-25.2l-6.2-1.4C39.7,86,35.5,79.5,35.5,72.8c0-9.1,7.1-15.3,15.6-15.3,13.4,0,21.3,10.8,22.9,24.3h3.3v-25h-3c-.3,1.6-1.1,3.1-3.5,3.1-4.1,0-7.5-5.8-20-5.8S28.4,63.3,28.4,76.8c0,14.6,7.3,22.2,22.5,25.8l6,1.5"/><path class="cls-1" d="M281.8,130.5c0,8.1,5.6,11.1,13,11.1,8.9,0,11.8-4.9,13.2-7.9l-2.3-1.6c-1.4,2.5-3.7,5.5-7.6,5.5-3,0-5.4-1.5-5.4-6.1V93.7h12.9V90.9H292.7V76.1h-2.2c-1.9,11.6-7.3,14.8-18.2,14.8v2.8h9.3v36.8"/><path class="cls-1" d="M246.6,136.8h8.3V100.7c0-5.8-3.1-8.1-7.2-8.1-7.3,0-12.7,6.9-15.2,10.4v33.9H241v2.9H212.7v-2.9h8.7v-43h-8.7V91.1h9.2c5.6,0,8.2,0,10.3-2.6v9.7h.2c2.4-2.9,8.1-9.7,17.9-9.7,10.5,0,15.6,6.8,15.6,15V137h8.7v2.9H246.5v-3.1"/><path class="cls-1" d="M128.1,123.6c-1.2,6.3-6.3,14.1-14.9,14.1-8.4,0-12.5-5-12.5-16V110.5c0-10.8,4-18.6,13.1-18.6,5.4,0,8.5,2.7,8.5,4.7,0,1.1-.8,1.8-1.4,2.6a5.18,5.18,0,0,0-1.5,3.5c0,2.5,1.9,4.9,5.4,4.9,3.2,0,5.9-2.6,5.9-6.6,0-5.9-7-12.1-17.8-12.1-13.7,0-24.4,10.5-24.4,26.4,0,14.5,7.5,26.4,23.5,26.4,10.8,0,17.8-8.8,19.2-18.2h-3.1"/><path class="cls-1" d="M442.4,123.5c-1.2,6.3-6.3,14.1-14.9,14.1-8.4,0-12.5-5-12.5-16V110.3c0-10.8,4-18.6,13.1-18.6,5.4,0,8.5,2.7,8.5,4.7,0,1.1-.8,1.8-1.4,2.6a5.2,5.2,0,0,0-1.4,3.6c0,2.5,1.9,4.9,5.4,4.9,3.2,0,5.9-2.6,5.9-6.6,0-5.9-7-12.1-17.9-12.1-13.7,0-24.4,10.5-24.4,26.4,0,14.5,7.5,26.4,23.4,26.4,10.8,0,17.8-8.8,19.2-18.2h-3"/><path class="cls-1" d="M205.7,123.4c-1.3,7.1-6.5,14.3-14.7,14.3s-12.5-5-12.5-15.2V111h30.2c.7,0,1-.4,1-1.1v-1.8c0-7.4-6.6-19.2-21.4-19.2-12.8,0-22.2,12.6-22.2,26.4,0,16.5,9.6,26.4,22.7,26.4,10.3,0,18-7.3,19.9-18.3Zm-7-16.3c0,.5-.2.8-.8.8h-19v-3.6c0-7.7,4-12.5,10-12.5,6.2,0,9.7,4.4,9.7,12.5v2.8"/><path class="cls-1" d="M101.9,2.7h2.9C116,2.7,122,9,122,16.9c0,11.2-7.6,15.1-16.8,15.1h-3.3V2.7ZM90.5,68.6H82.9v2.7h30.9c10.5,0,22.9-6,22.9-20,0-11.1-10-17.1-19.7-17.7v-.5c8.3-.7,16.6-6,16.6-17,0-9.5-8.1-16.1-22.9-16.1H82.9V2.6h7.7v66Zm11.4-34h5.4c11.3,0,17.5,7.4,17.5,16.7,0,10.1-6.1,17.3-16.5,17.3h-6.4v-34"/><path class="cls-1" d="M141.4,50c0,12.6,8.9,23.1,21.5,23.1S184.4,62.5,184.4,50s-8.9-23.1-21.5-23.1S141.4,37.3,141.4,50Zm32.2,2.6c0,8.8-1,17.5-10.7,17.5s-10.7-8.7-10.7-17.5V47.3c0-8.8.8-17.5,10.7-17.5,10.1,0,10.7,8.7,10.7,17.5v5.3"/><path class="cls-1" d="M251.9,50c0,12.6,8.9,23.1,21.5,23.1S294.9,62.5,294.9,50,286,26.9,273.4,26.9,251.9,37.3,251.9,50Zm32.2,2.6c0,8.8-1.1,17.5-10.7,17.5s-10.7-8.7-10.7-17.5V47.4c0-8.8.8-17.5,10.7-17.5,10.1,0,10.7,8.7,10.7,17.5v5.2"/><path class="cls-1" d="M325.7,68.7h6.1V38.4c0-5.1-3.3-7.2-6.8-7.2-4.6,0-9.3,4.4-11.5,9.1V68.7H321v2.7H295V68.7h8.2V31.3h-7.9V28.6H303c4.7,0,8.5,0,10.3-2.3v8.3h.2c4-4.9,9.5-8.3,15.8-8.3,9.8,0,13.2,7,13.2,12.8V68.5h5.8v2.7H325.7V68.7"/><path class="cls-1" d="M205,53.9c5.9.8,8.4,4.3,8.4,8.1,0,5.3-4.3,8.2-9.1,8.2-9.2,0-12.4-8.1-13-13.5H189l.3,15.7h2.3c.2-1.6.7-2.3,1.7-2.3,2.1,0,4.7,2.9,11.1,2.9,9.6,0,15.4-6,15.4-15,0-6.5-3.7-12.3-11.9-13.5l-4.9-.8c-6.4-1.1-8.7-3.3-8.7-7.1s3.2-6.9,8.6-6.9c6.3,0,10,4,11,10.1h2.2l-.2-12.4h-2c-.1.9-.5,1.9-1.5,1.9-1.8,0-4.3-2.5-9.7-2.5-7.6,0-13.5,5.3-13.5,12.8,0,9.5,6.2,13,12.7,13.9l3.1.4"/><path class="cls-1" d="M250.7,64.7c-1,1.7-3.2,4.3-6.4,4.3-2.7,0-5.1-1.2-5.1-5.5V31.3h11.5V28.6H239.2V14h-2c-1.7,10.2-7.4,14.6-15.7,14.6v2.7h7.3V63.4c0,7,5,9.7,12,9.7,6.4,0,9.8-3.3,11.5-6l-1.6-2.4"/><path class="cls-2" d="M9.5,188.7,4.1,199.9H0c4.7-8.8,9.3-17.8,13.7-26.7h4.6c3,8.9,6.4,17.8,9.6,26.7h-4c-1.1-3.8-2.5-7.5-3.9-11.2Zm9.8-2.6-3.6-10.2-5.2,10.2Z"/><path class="cls-2" d="M44.8,195.9h0a8.07,8.07,0,0,1-7.6,4.4c-4.7,0-8.4-3.2-8.4-9.2s3.8-11.5,12-11.5a21.83,21.83,0,0,1,4.4.4c.1-2.4.1-4.2.1-6.8h3.5c-.5,8.9-.9,17.8-1,26.7H44.5Zm-4-13.8c-6.2,0-8.5,5.1-8.5,8.9s2,6.8,6,6.8c3.5,0,5.6-2.7,6.3-5.9s.4-6.3.6-9.3A17.78,17.78,0,0,0,40.8,182.1Z"/><path class="cls-2" d="M71.8,180.1c-3,6.6-6.1,13.1-8.9,19.8H59.1l-7.2-19.8h3.6l5.6,16.8,7-16.8Z"/><path class="cls-2" d="M85.6,199.9c.4-3.1.5-7.7.7-11.6-2.6,2.6-11.3,2-11.3,6.8,0,2.5,2.4,3.2,4.5,3.2a14.1,14.1,0,0,0,4.1-.7L83,200a25.79,25.79,0,0,1-3.9.4c-2.9,0-7.2-.6-7.2-5.2,0-8.3,14.5-5.1,14.5-10.5,0-2.4-2.7-2.8-4.6-2.8a18.45,18.45,0,0,0-7.3,1.6l.4-2.6a30.68,30.68,0,0,1,7.4-1c6.6,0,7.6,2.6,7.6,5.1,0,3-.6,10.7-.6,15.1H85.6Z"/><path class="cls-2" d="M98.7,183.9h0c1.7-3.2,4.5-4.3,8-4.3,4.2,0,7.5,1.6,7.5,6.2,0,1.4-.5,10.8-.6,14h-3.5c.2-2.4.6-9.4.6-12.8s-2.1-4.7-5.4-4.7a6.47,6.47,0,0,0-6.6,5.3c-.8,3.5-.8,10.2-.8,12.2H94.3c.5-6.6.9-13.2,1-19.8h3.4Z"/><path class="cls-2" d="M133.4,183.1a16,16,0,0,0-5.6-1c-4.6,0-6.8,3.8-6.8,8.4s2.4,7.3,7.1,7.3a15.07,15.07,0,0,0,4.7-.9l-.5,2.8a22.2,22.2,0,0,1-5.1.6c-6.2,0-9.6-3.6-9.6-9.7s3-11,10.2-11a16.45,16.45,0,0,1,5.4.8Z"/><path class="cls-2" d="M141.2,180.1c-.5,6.6-.7,13.2-.8,19.8h-3.7q.75-9.9.9-19.8Zm-3.5-4.1.1-2.8h3.8l-.1,2.8Z"/><path class="cls-2" d="M150,183.9h0c1.7-3.2,4.5-4.3,8-4.3,4.2,0,7.5,1.6,7.5,6.2,0,1.4-.5,10.8-.6,14h-3.5c.2-2.4.6-9.4.6-12.8s-2.1-4.7-5.4-4.7a6.47,6.47,0,0,0-6.6,5.3c-.8,3.5-.8,10.2-.8,12.2h-3.6c.5-6.6.9-13.2,1-19.8H150Z"/><path class="cls-2" d="M170.8,205.5a24.88,24.88,0,0,0,7.6,1.4c3.4,0,5.4-.8,6.3-3.8.6-2.2.5-5.1.6-7.3l-.1-.1c-1.4,3.1-4.3,4.5-7.6,4.5-5.4,0-8.6-3.3-8.6-8.7,0-5,2.3-11.9,12.9-11.9a47.75,47.75,0,0,1,7.5.8c-.4,4.7-.6,5.7-1,20.7-.1,4.7-2.1,8.2-9.5,8.2a30,30,0,0,1-7.9-1Zm10.9-23.4c-8.8,0-9.3,7.6-9.3,8.9,0,4,2,6.7,6.2,6.7,3.2,0,5.4-2,6.4-5,.9-2.6.7-7.5.9-10.2A31.31,31.31,0,0,0,181.7,182.1Z"/><path class="cls-2" d="M206,196.6a15.29,15.29,0,0,0,5.6,1.3c1.7,0,4-.5,4-2.6,0-3.7-8.2-6-8.2-10.7,0-2.9,2.2-5,6.8-5a26.07,26.07,0,0,1,4.8.5l.2,2.8a13,13,0,0,0-4.6-.8c-1.7,0-3.7.4-3.7,2.3,0,3.6,8.2,5.9,8.2,10.9,0,3.7-3.8,5-6.9,5a22.55,22.55,0,0,1-5.8-.8Z"/><path class="cls-2" d="M238.2,183.1a16,16,0,0,0-5.6-1c-4.6,0-6.8,3.8-6.8,8.4s2.4,7.3,7.1,7.3a15.07,15.07,0,0,0,4.7-.9l-.5,2.8a22.2,22.2,0,0,1-5.1.6c-6.2,0-9.6-3.6-9.6-9.7s3-11,10.2-11a16.45,16.45,0,0,1,5.4.8Z"/><path class="cls-2" d="M246.2,180.1c-.5,6.6-.7,13.2-.8,19.8h-3.7q.75-9.9.9-19.8Zm-3.5-4.1.1-2.8h3.8l-.1,2.8Z"/><path class="cls-2" d="M253.5,189.6v1.1c0,4.6,2.9,7.2,7.4,7.2a21.3,21.3,0,0,0,6.1-1.2l-.6,2.9a24.73,24.73,0,0,1-6,.8c-8.2,0-10.3-5-10.3-9.9,0-6.1,3.4-10.8,9.9-10.8,5.2,0,8.6,2.7,8.6,8.1a12.13,12.13,0,0,1-.1,1.8Zm11.9-2.1c0-3.3-1.5-5.8-5.1-5.8s-6,2.3-6.6,5.8Z"/><path class="cls-2" d="M276.2,183.9h0c1.7-3.2,4.5-4.3,8-4.3,4.2,0,7.5,1.6,7.5,6.2,0,1.4-.5,10.8-.6,14h-3.5c.2-2.4.6-9.4.6-12.8s-2.1-4.7-5.4-4.7a6.47,6.47,0,0,0-6.6,5.3c-.8,3.5-.8,10.2-.8,12.2H272c.5-6.6.9-13.2,1-19.8h3.4Z"/><path class="cls-2" d="M310.9,183.1a16,16,0,0,0-5.6-1c-4.6,0-6.8,3.8-6.8,8.4s2.4,7.3,7.1,7.3a15.07,15.07,0,0,0,4.7-.9l-.5,2.8a22.2,22.2,0,0,1-5.1.6c-6.2,0-9.6-3.6-9.6-9.7s3-11,10.2-11a16.45,16.45,0,0,1,5.4.8Z"/><path class="cls-2" d="M316.5,189.6v1.1c0,4.6,2.9,7.2,7.4,7.2a21.3,21.3,0,0,0,6.1-1.2l-.6,2.9a24.73,24.73,0,0,1-6,.8c-8.2,0-10.3-5-10.3-9.9,0-6.1,3.4-10.8,9.9-10.8,5.2,0,8.6,2.7,8.6,8.1a12.13,12.13,0,0,1-.1,1.8Zm11.9-2.1c0-3.3-1.5-5.8-5.1-5.8s-6,2.3-6.6,5.8Z"/><path class="cls-2" d="M347.2,182.6l.1-2.5h2.6c0-4.7.3-7.6,5.9-7.6a15.83,15.83,0,0,1,3.8.5l.2,2.6a13,13,0,0,0-3.7-.6c-3.1,0-3.1,2.4-3.1,5.2h5.4l-.2,2.5h-5.3c-.1,7.3-.4,11.3-.5,17.3h-3.6c.4-5.8.6-11.6.8-17.3h-2.4Z"/><path class="cls-2" d="M379,189.4c0,5.2-2.6,11-10.4,11-6,0-9.9-3.8-9.9-9.8,0-6.5,3.9-10.8,10.5-10.8C375.2,179.7,379,183.3,379,189.4Zm-16.9,1.2c0,4.1,2,7.2,6.6,7.2,5.1,0,7-4,7-8.5s-2.1-7.2-6.7-7.2S362.1,185.8,362.1,190.6Z"/><path class="cls-2" d="M386.2,183.3h0a6.3,6.3,0,0,1,6-3.6,7.77,7.77,0,0,1,1.6.2l.1,2.9a8.33,8.33,0,0,0-2.2-.3c-3.3,0-5,2.6-5.4,5.5a97.1,97.1,0,0,0-.4,11.9h-3.5c.3-5.7.7-11.5.7-19.8h3.3Z"/><path class="cls-2" d="M414.4,173.2c-.6,8.7-.9,17.8-1.2,26.7h-3.6q.9-13.35,1.2-26.7Z"/><path class="cls-2" d="M423.2,180.1c-.5,6.6-.7,13.2-.8,19.8h-3.7q.75-9.9.9-19.8Zm-3.5-4.1.1-2.8h3.8l-.1,2.8Z"/><path class="cls-2" d="M427,182.6l.1-2.5h2.6c0-4.7.3-7.6,5.9-7.6a15.83,15.83,0,0,1,3.8.5l.2,2.6a13,13,0,0,0-3.7-.6c-3.1,0-3.1,2.4-3.1,5.2h5.4l-.2,2.5h-5.3c-.1,7.3-.4,11.3-.5,17.3h-3.6c.4-5.8.6-11.6.8-17.3H427Z"/><path class="cls-2" d="M442.7,189.6v1.1c0,4.6,2.9,7.2,7.4,7.2a21.3,21.3,0,0,0,6.1-1.2l-.6,2.9a24.73,24.73,0,0,1-6,.8c-8.2,0-10.3-5-10.3-9.9,0-6.1,3.4-10.8,9.9-10.8,5.2,0,8.6,2.7,8.6,8.1a12.13,12.13,0,0,1-.1,1.8Zm11.9-2.1c0-3.3-1.5-5.8-5.1-5.8s-6,2.3-6.6,5.8Z"/><path class="cls-2" d="M463.1,182.4c.1-2.7.3-5.5.3-8.2h-3l.1-1.3h7.8l-.1,1.3h-3c-.1,2.7-.2,5.5-.3,8.2Zm15.6,0c.1-2.6.1-5.3.1-7.9h0c-1.1,2.6-2.2,5.3-3.2,7.9h-2.1c-.7-2.6-1.5-5.3-2.2-7.9h0c-.2,2.6-.4,5.3-.5,7.9h-1.6c.3-3.2.5-6.3.6-9.5h2.9c.6,2.5,1.4,5.1,2.1,7.6,1.1-2.5,2.2-5.1,3.1-7.6h2.6c-.1,3.2-.1,6.3-.1,9.5Z"/></g></g></svg>