<svg xmlns="http://www.w3.org/2000/svg" viewBox="0 0 207.49 34" height="34px"><path d="M69.2,32.6H67v.7h6.7v-.7H71.9V21a3.22,3.22,0,0,1-2.3.6H67.4v.7h1.9V32.6m-41.9,0H25.2v.7h6.7v-.7H30.1V21a3.22,3.22,0,0,1-2.3.6H25.6v.7h1.8V32.6m49.5,0H74.7v.7h6.8v-.7H79.6V22.3h4.8V32.6H82.6v.7h6.6v-.7H87.1V21a3.48,3.48,0,0,1-2.4.6h-5V17.8c0-2.6.9-4.7,3.9-4.7,1.2,0,2,.5,2,1,0,.3-.2.4-.5.6a1.23,1.23,0,0,0-.7,1.1A1.18,1.18,0,0,0,85.7,17a1.67,1.67,0,0,0,1.6-1.7v-.1c0-1.2-1.2-2.8-3.9-2.8-4.7,0-6.3,3.8-6.3,7.3v1.8H74.7v.7h2.4V32.5M6.7,24.8c2.9.5,4.2,2.3,4.2,4.2,0,2.2-1.8,3.9-4.4,3.9S1.2,30.7.7,26.2H0v7.2H.8c.1-.5.2-.8.8-.8,1.1,0,2.2,1.1,4.9,1.1,4,0,6.2-2.4,6.2-6.2,0-2.9-1.4-5.1-5.2-6l-1.6-.3c-3.4-.8-4.4-2.3-4.4-3.9a3.74,3.74,0,0,1,3.6-3.7h.2c3.2,0,5.1,2.6,5.5,5.8h.8V13.5h-.8c-.1.3-.2.8-.8.8-1,0-1.8-1.4-4.7-1.4a5.09,5.09,0,0,0-5.3,5v.4c0,3.5,1.8,5.2,5.3,6.2l1.4.3m53.5,6.3c0,1.9,1.3,2.7,3.1,2.7a3.31,3.31,0,0,0,3.2-1.9l-.5-.3a2.25,2.25,0,0,1-1.8,1.3c-.8,0-1.2-.3-1.2-1.5v-9h3.1v-.7H62.9V18.2h-.6c-.5,2.8-1.8,3.5-4.3,3.5v.7h2.2v8.7m-8.4,1.5h2V24a1.69,1.69,0,0,0-1.7-1.9c-1.8,0-3,1.7-3.6,2.5v8.1h2v.6H43.7v-.7h2.2V22.3H43.8v-.7H46c1.3,0,2,0,2.4-.6v2.3h.1A5.62,5.62,0,0,1,52.7,21a3.33,3.33,0,0,1,3.7,3.1v8.5h2.1v.6H51.9ZM23.7,29.4a3.76,3.76,0,0,1-3.6,3.3c-2,0-3-1.2-3-3.8V26.2c0-2.6.9-4.4,3.1-4.4,1.2,0,2,.7,2,1.2a.86.86,0,0,1-.3.6.83.83,0,0,0-.3.8,1.22,1.22,0,0,0,1.2,1.2h.1a1.45,1.45,0,0,0,1.4-1.5V24c0-1.4-1.7-2.9-4.2-2.9-3.2,0-5.8,2.5-5.8,6.3,0,3.4,1.8,6.2,5.6,6.2a4.75,4.75,0,0,0,4.6-4.3l-.8.1m74.8,0a3.76,3.76,0,0,1-3.6,3.3c-2,0-3-1.2-3-3.8V26.2c0-2.6.9-4.4,3.1-4.4,1.2,0,2,.7,2,1.2a.86.86,0,0,1-.3.6,1.14,1.14,0,0,0-.3.8,1.22,1.22,0,0,0,1.2,1.2A1.45,1.45,0,0,0,99,24.1V24c0-1.4-1.7-2.9-4.2-2.9-3.2,0-5.8,2.5-5.8,6.3,0,3.4,1.8,6.2,5.6,6.2a4.75,4.75,0,0,0,4.6-4.3Zm-56.4-.1a3.84,3.84,0,0,1-3.5,3.4c-1.9,0-3-1.2-3-3.6V26.3h7.2c.2,0,.2-.1.2-.2v-.5A4.89,4.89,0,0,0,37.9,21c-3.1,0-5.2,3-5.2,6.2,0,3.9,2.3,6.2,5.4,6.2,2.4,0,4.2-1.8,4.8-4.3h-.8Zm-1.6-3.8a.22.22,0,0,1-.2.2H35.8v-.9c0-1.8.9-3,2.3-3s2.3,1.1,2.3,3v.7M17.4.7h.8c2.7,0,4.1,1.5,4.1,3.4,0,2.7-1.8,3.6-4,3.6h-.8V.7ZM14.7,16.3H12.9V17h7.3c2.5,0,5.5-1.4,5.5-4.8,0-2.7-2.3-4.1-4.7-4.2V7.9a4,4,0,0,0,3.9-4.1h0C24.9,1.6,23,0,19.5,0H12.9V.6h1.8Zm2.7-8.1h1.2a3.9,3.9,0,0,1,4.2,3.5v.5c0,2.4-1.4,4.2-3.9,4.2H17.4V8.2m9.4,3.7a5.24,5.24,0,0,0,4.8,5.6,5.17,5.17,0,0,0,5.6-4.8v-.8a5.24,5.24,0,0,0-4.9-5.5h-.2a5.21,5.21,0,0,0-5.2,5.1A.76.76,0,0,0,26.8,11.9Zm7.7.6c0,2.1-.2,4.2-2.6,4.2s-2.6-2.1-2.6-4.2V11.3c0-2.1.2-4.2,2.6-4.2s2.6,2.1,2.6,4.2Zm18.7-.6a5.22,5.22,0,1,0,10.4.8v-.8a5.22,5.22,0,1,0-10.4-.8A1.1,1.1,0,0,0,53.2,11.9Zm7.5.6c0,2.1-.2,4.2-2.6,4.2s-2.6-2.1-2.6-4.2V11.3c0-2.1.2-4.2,2.6-4.2s2.6,2.1,2.6,4.2Z" fill="#003666"/><path d="M70.7,16.3h1.4V9.1a1.54,1.54,0,0,0-1.2-1.7h-.4a3.7,3.7,0,0,0-2.8,2.2v6.8h1.8V17H63.3v-.7h1.9V7.5H63.3V6.8h1.8c1.1,0,2,0,2.4-.5V8.2h.1a5.14,5.14,0,0,1,3.8-2,3.07,3.07,0,0,1,3.2,2.7v7.4H76V17H70.7ZM42,12.8c1.4.2,2,1,2,1.9a2,2,0,0,1-2.1,1.9h-.1a3.27,3.27,0,0,1-3.1-3.2h-.6l.1,3.8h.5c.1-.4.2-.5.4-.5.5,0,1.1.7,2.7.7a3.43,3.43,0,0,0,3.7-3v-.6a3,3,0,0,0-2.8-3.2l-1.2-.2c-1.6-.2-2.1-.8-2.1-1.7A1.87,1.87,0,0,1,41.5,7a2.64,2.64,0,0,1,2.7,2.4h.5l-.1-3h-.5c0,.2-.1.4-.3.4a8.65,8.65,0,0,0-2.3-.6A3,3,0,0,0,38.3,9v.3a3.16,3.16,0,0,0,3.1,3.3l.6.2m10.8,2.6a2,2,0,0,1-1.5,1,1,1,0,0,1-1.2-.9v-8h2.8V6.8H50.1V3.3h-.5c-.4,2.4-1.8,3.5-3.8,3.5v.7h1.8v7.7c0,1.7,1.2,2.3,2.8,2.3a3.13,3.13,0,0,0,2.8-1.4l-.4-.7" fill="#003666"/><path d="M111.9,0h2V34h-2Z" fill="#ccc" fill-rule="evenodd"/><text transform="translate(125.9 15.43)" font-size="18" font-family="SST-Heavy, SST" font-weight="800">An<tspan x="25.02" y="0" letter-spacing="-0.01em">a</tspan><tspan x="35.64" y="0" letter-spacing="-0.01em">t</tspan><tspan x="42.17" y="0" letter-spacing="0em">o</tspan><tspan x="53.77" y="0" letter-spacing="-0.01em">m</tspan><tspan x="70.92" y="0">y</tspan></text><text transform="translate(125.9 31.43)" font-size="12" font-family="SST-Roman, SST">Design <tspan x="41.46" y="0" letter-spacing="-0.02em">S</tspan><tspan x="47.78" y="0">ys</tspan><tspan x="59.56" y="0" letter-spacing="-0.01em">t</tspan><tspan x="63.68" y="0">em</tspan></text></svg>