<svg xmlns="http://www.w3.org/2000/svg" viewBox="0 0 207.49 34" height="34px"><path d="M69.2,32.6H67v.7h6.7v-.7H71.9V21a3.2,3.2,0,0,1-2.3.6H67.4v.7h1.9V32.6m-41.9,0H25.2v.7h6.7v-.7H30.1V21a3.2,3.2,0,0,1-2.3.6H25.6v.7h1.8V32.6m49.5,0H74.7v.7h6.8v-.7H79.6V22.3h4.8V32.6H82.6v.7h6.6v-.7H87.1V21a3.47,3.47,0,0,1-2.4.6h-5V17.8c0-2.6.9-4.7,3.9-4.7,1.2,0,2,.5,2,1,0,.3-.2.4-.5.6a1.23,1.23,0,0,0-.7,1.1A1.19,1.19,0,0,0,85.55,17h.15a1.67,1.67,0,0,0,1.6-1.7v-.1c0-1.2-1.2-2.8-3.9-2.8-4.7,0-6.3,3.8-6.3,7.3v1.8H74.7v.7h2.4V32.5M6.7,24.8c2.9.5,4.2,2.3,4.2,4.2,0,2.2-1.8,3.9-4.4,3.9S1.2,30.7.7,26.2H0v7.2H.8c.1-.5.2-.8.8-.8,1.1,0,2.2,1.1,4.9,1.1,4,0,6.2-2.4,6.2-6.2,0-2.9-1.4-5.1-5.2-6l-1.6-.3c-3.4-.8-4.4-2.3-4.4-3.9a3.73,3.73,0,0,1,3.6-3.7h.2c3.2,0,5.1,2.6,5.5,5.8h.8V13.5h-.8c-.1.3-.2.8-.8.8-1,0-1.8-1.4-4.7-1.4A5.09,5.09,0,0,0,0,17.77v.53c0,3.5,1.8,5.2,5.3,6.2l1.4.3m53.5,6.3c0,1.9,1.3,2.7,3.1,2.7a3.31,3.31,0,0,0,3.2-1.9l-.5-.3a2.25,2.25,0,0,1-1.8,1.3c-.8,0-1.2-.3-1.2-1.5v-9h3.1v-.7H62.9V18.2h-.6c-.5,2.8-1.8,3.5-4.3,3.5v.7h2.2v8.7m-8.4,1.5h2V24a1.69,1.69,0,0,0-1.47-1.89H52.1c-1.8,0-3,1.7-3.6,2.5v8.1h2v.6H43.7v-.7h2.2V22.3H43.8v-.7H46c1.3,0,2,0,2.4-.6v2.3h.1A5.64,5.64,0,0,1,52.7,21a3.33,3.33,0,0,1,3.69,2.93c0,.06,0,.11,0,.17v8.5h2.1v.6H51.9ZM23.7,29.4a3.75,3.75,0,0,1-3.6,3.3c-2,0-3-1.2-3-3.8V26.2c0-2.6.9-4.4,3.1-4.4,1.2,0,2,.7,2,1.2a.83.83,0,0,1-.3.6.82.82,0,0,0-.3.8,1.22,1.22,0,0,0,1.2,1.2h.1a1.45,1.45,0,0,0,1.4-1.5h0V24c0-1.4-1.7-2.9-4.2-2.9-3.2,0-5.8,2.5-5.8,6.3,0,3.4,1.8,6.2,5.6,6.2a4.76,4.76,0,0,0,4.6-4.3l-.8.1m74.8,0a3.75,3.75,0,0,1-3.6,3.3c-2,0-3-1.2-3-3.8V26.2c0-2.6.9-4.4,3.1-4.4,1.2,0,2,.7,2,1.2a.83.83,0,0,1-.3.6,1.12,1.12,0,0,0-.3.8,1.22,1.22,0,0,0,1.2,1.2A1.45,1.45,0,0,0,99,24.1h0V24c0-1.4-1.7-2.9-4.2-2.9-3.2,0-5.8,2.5-5.8,6.3,0,3.4,1.8,6.2,5.6,6.2a4.76,4.76,0,0,0,4.6-4.3Zm-56.4-.1a3.84,3.84,0,0,1-3.5,3.4c-1.9,0-3-1.2-3-3.6V26.3h7.2c.2,0,.2-.1.2-.2v-.5A4.89,4.89,0,0,0,37.9,21c-3.1,0-5.2,3-5.2,6.2,0,3.9,2.3,6.2,5.4,6.2,2.4,0,4.2-1.8,4.8-4.3h-.8Zm-1.6-3.8a.22.22,0,0,1-.2.2H35.8v-.9c0-1.8.9-3,2.3-3s2.3,1.1,2.3,3v.7M17.4.7h.8c2.7,0,4.1,1.5,4.1,3.4,0,2.7-1.8,3.6-4,3.6h-.8V.7ZM14.7,16.3H12.9V17h7.3c2.5,0,5.5-1.4,5.5-4.8,0-2.7-2.3-4.1-4.7-4.2V7.9a4,4,0,0,0,3.9-4.1h0C24.9,1.6,23,0,19.5,0H12.9V.6h1.8Zm2.7-8.1h1.2a3.9,3.9,0,0,1,4.2,3.5v.5c0,2.4-1.4,4.2-3.9,4.2H17.4V8.2m9.4,3.7a5.23,5.23,0,0,0,4.8,5.6,5.17,5.17,0,0,0,5.59-4.71.28.28,0,0,0,0-.09v-.8a5.24,5.24,0,0,0-4.9-5.5h-.2a5.21,5.21,0,0,0-5.2,5.1A.79.79,0,0,0,26.8,11.9Zm7.7.6c0,2.1-.2,4.2-2.6,4.2s-2.6-2.1-2.6-4.2V11.3c0-2.1.2-4.2,2.6-4.2s2.6,2.1,2.6,4.2Zm18.7-.6a5.22,5.22,0,0,0,10.37,1.24l0-.44v-.8a5.22,5.22,0,0,0-10.37-1.24l0,.44A1.1,1.1,0,0,0,53.2,11.9Zm7.5.6c0,2.1-.2,4.2-2.6,4.2s-2.6-2.1-2.6-4.2V11.3c0-2.1.2-4.2,2.6-4.2s2.6,2.1,2.6,4.2Z" fill="#003666"/><path d="M70.7,16.3h1.4V9.1a1.54,1.54,0,0,0-1.2-1.7h-.4a3.72,3.72,0,0,0-2.8,2.2v6.8h1.8V17H63.3v-.7h1.9V7.5H63.3V6.8h1.8c1.1,0,2,0,2.4-.5V8.2h.1a5.13,5.13,0,0,1,3.8-2,3.07,3.07,0,0,1,3.2,2.7v7.4H76V17H70.7ZM42,12.8c1.4.2,2,1,2,1.9a2,2,0,0,1-2.1,1.9h-.1a3.27,3.27,0,0,1-3.1-3.2h-.6l.1,3.8h.5c.1-.4.2-.5.4-.5.5,0,1.1.7,2.7.7a3.43,3.43,0,0,0,3.7-3v-.6a3,3,0,0,0-2.79-3.2h0l-1.2-.2c-1.6-.2-2.1-.8-2.1-1.7a1.88,1.88,0,0,1,2-1.71h.08a2.64,2.64,0,0,1,2.7,2.4h.5l-.1-3h-.5c0,.2-.1.4-.3.4a8.77,8.77,0,0,0-2.3-.6A3,3,0,0,0,38.3,9h0v.3a3.16,3.16,0,0,0,3,3.3h.08l.6.2m10.8,2.6a2,2,0,0,1-1.5,1,1,1,0,0,1-1.18-.78.5.5,0,0,1,0-.12v-8h2.8V6.8H50.1V3.3h-.5c-.4,2.4-1.8,3.5-3.8,3.5v.7h1.8v7.7c0,1.7,1.2,2.3,2.8,2.3a3.13,3.13,0,0,0,2.8-1.4l-.4-.7" fill="#003666"/><path d="M111.9,0h2V34h-2Z" fill="#ccc" fill-rule="evenodd"/><path d="M129.27,14.67h-3.35l4.5-12.85h4.34l4.46,12.85h-3.38l-1-2.79H130.2Zm1.67-5.29h3.2l-1.58-5.09Z"/><path d="M143.4,5.17V6.39h0a2.37,2.37,0,0,1,1.15-1.08A4,4,0,0,1,146.26,5a4.27,4.27,0,0,1,1.46.25,3.43,3.43,0,0,1,1.13.71,3,3,0,0,1,.72,1,3.78,3.78,0,0,1,.25,1.41v6.26h-3.06V9.54a6.73,6.73,0,0,0-.07-1,2.39,2.39,0,0,0-.23-.73,1.3,1.3,0,0,0-.46-.44,1.73,1.73,0,0,0-1.41,0,1.6,1.6,0,0,0-.56.4,2.18,2.18,0,0,0-.42.74,3.44,3.44,0,0,0-.16,1.15v5h-3.06V5.17Z"/><path d="M157.51,8.46a1,1,0,0,0-.49-.89,2.67,2.67,0,0,0-1.49-.35,6.41,6.41,0,0,0-1.16.1,9.94,9.94,0,0,0-1.33.33l-.54-2.14c.24-.08.51-.16.8-.23a6.3,6.3,0,0,1,.84-.18A8.08,8.08,0,0,1,155,5h.76a8.7,8.7,0,0,1,2.27.26,3.88,3.88,0,0,1,1.5.76,2.9,2.9,0,0,1,.82,1.19,4.79,4.79,0,0,1,.25,1.55v4.93a6.64,6.64,0,0,0,.1,1H158a2.17,2.17,0,0,1-.07-.24v-.29a.63.63,0,0,0-.05-.3v-.21h0a2.26,2.26,0,0,1-1.07.93,3.64,3.64,0,0,1-1.56.33,5.44,5.44,0,0,1-1.27-.15,3.5,3.5,0,0,1-1.16-.49,2.62,2.62,0,0,1-.84-.94,3,3,0,0,1-.31-1.43,2.82,2.82,0,0,1,.47-1.67,2.86,2.86,0,0,1,1.28-1,6.93,6.93,0,0,1,1.85-.44,20.61,20.61,0,0,1,2.36-.11Zm-.29,2a9.58,9.58,0,0,0-1.07,0,3.7,3.7,0,0,0-.86.2,1.21,1.21,0,0,0-.55.39,1,1,0,0,0-.2.63,1,1,0,0,0,.36.82,1.33,1.33,0,0,0,.88.26,1.88,1.88,0,0,0,.81-.15,1.33,1.33,0,0,0,.53-.41,1.61,1.61,0,0,0,.3-.58,2.16,2.16,0,0,0,.09-.62V10.5Z"/><path d="M161.65,5.17H163V2.58h3V5.17h1.89V7.44H166V11a4.82,4.82,0,0,0,0,.76,1.15,1.15,0,0,0,.17.48.52.52,0,0,0,.3.2,1.51,1.51,0,0,0,.52.06h.37l.4-.06v2.27a4.25,4.25,0,0,0-.86.06H166a6,6,0,0,1-1.58-.18,2,2,0,0,1-.93-.54,1.71,1.71,0,0,1-.45-.85A5.08,5.08,0,0,1,162.9,12V7.44h-1.33Z"/><path d="M178.93,9.9a5.76,5.76,0,0,1-.37,2.09,4.89,4.89,0,0,1-1,1.57,4.56,4.56,0,0,1-1.59,1,6.55,6.55,0,0,1-4.15,0A4.36,4.36,0,0,1,169.17,12a5.75,5.75,0,0,1-.36-2.09,5.61,5.61,0,0,1,.36-2.07,4.4,4.4,0,0,1,1-1.55,4.46,4.46,0,0,1,1.6-1,6.61,6.61,0,0,1,4.17,0,4.65,4.65,0,0,1,1.59,1,4.27,4.27,0,0,1,1,1.54A5.65,5.65,0,0,1,178.93,9.9Zm-3.06,0a3.28,3.28,0,0,0-.51-1.9,1.84,1.84,0,0,0-2.58-.42,2.09,2.09,0,0,0-.42.42,3.41,3.41,0,0,0-.5,1.92,3.44,3.44,0,0,0,.51,2,1.67,1.67,0,0,0,1.49.73,1.72,1.72,0,0,0,1.5-.74A3.46,3.46,0,0,0,175.87,9.9Z"/><path d="M183.84,5.17V6.39h0a2.58,2.58,0,0,1,1.06-1.06A3.24,3.24,0,0,1,186.52,5a3.75,3.75,0,0,1,1.71.38,2.37,2.37,0,0,1,1.08,1.17h.06a2.81,2.81,0,0,1,1.23-1.16,4.19,4.19,0,0,1,4.41.54,3.42,3.42,0,0,1,.89,2.53v6.26h-3.06V8.54a2,2,0,0,0-.17-.73,1.13,1.13,0,0,0-.4-.44,1.46,1.46,0,0,0-.74-.16,1.71,1.71,0,0,0-.55.09,1.4,1.4,0,0,0-.87.83A2,2,0,0,0,190,9v5.7h-3V8.58a2.17,2.17,0,0,0-.18-.75,1.12,1.12,0,0,0-.42-.47,1.49,1.49,0,0,0-.75-.16,1.38,1.38,0,0,0-.6.13,1.27,1.27,0,0,0-.51.41,2.21,2.21,0,0,0-.36.76A4.2,4.2,0,0,0,184,9.67v5H181V5.17Z"/><path d="M202.2,10.91h0l2-5.74h3.21l-5.13,13H199l1.57-3.76-3.78-9.25h3.29Z"/><path d="M127,22.11h2.43a4.88,4.88,0,0,1,1.77.3,3.55,3.55,0,0,1,1.33.86,3.69,3.69,0,0,1,.82,1.35,5.85,5.85,0,0,1,0,3.56,4,4,0,0,1-.82,1.35,3.53,3.53,0,0,1-1.33.85,4.88,4.88,0,0,1-1.77.3H127Zm1,7.69h1.24a3.25,3.25,0,0,0,2.46-.89,3.47,3.47,0,0,0,.85-2.54,3.48,3.48,0,0,0-.84-2.47,3.19,3.19,0,0,0-2.47-.92H128Z"/><path d="M135.94,27.79a2.45,2.45,0,0,0,.64,1.61,2.15,2.15,0,0,0,1.63.62,5.12,5.12,0,0,0,.87-.08,4.42,4.42,0,0,0,.81-.23l.17.77a3.8,3.8,0,0,1-.89.26,6.74,6.74,0,0,1-1,.08,4,4,0,0,1-1.37-.24,2.76,2.76,0,0,1-1-.69,3,3,0,0,1-.63-1.07,4.41,4.41,0,0,1-.2-1.3,4.29,4.29,0,0,1,.2-1.33,3.07,3.07,0,0,1,.57-1.05,2.67,2.67,0,0,1,.9-.7,2.85,2.85,0,0,1,1.19-.24,2.68,2.68,0,0,1,1.15.22,2.29,2.29,0,0,1,.83.62,2.89,2.89,0,0,1,.48,1,4.52,4.52,0,0,1,.16,1.27v.5ZM137.83,25a1.72,1.72,0,0,0-1.32.54,2.47,2.47,0,0,0-.57,1.44h3.58v-.05a2,2,0,0,0-.47-1.41A1.61,1.61,0,0,0,137.83,25Z"/><path d="M145.56,25.33a3.11,3.11,0,0,0-.78-.26A5.14,5.14,0,0,0,144,25a2.94,2.94,0,0,0-.42,0,1.64,1.64,0,0,0-.39.14.9.9,0,0,0-.28.27.81.81,0,0,0-.11.43.89.89,0,0,0,.07.36.8.8,0,0,0,.23.29,2.9,2.9,0,0,0,.41.27l.64.27a7.27,7.27,0,0,1,.81.34,3,3,0,0,1,.63.41,1.45,1.45,0,0,1,.4.52,1.83,1.83,0,0,1-.07,1.55,1.64,1.64,0,0,1-.53.55,2.78,2.78,0,0,1-.74.29,4,4,0,0,1-.84.09,4.79,4.79,0,0,1-1-.11,4.11,4.11,0,0,1-1.08-.34l.26-.81a5.13,5.13,0,0,0,1,.34,3.35,3.35,0,0,0,.89.12,1.69,1.69,0,0,0,.91-.2.77.77,0,0,0,.38-.73.9.9,0,0,0-.39-.72,4.8,4.8,0,0,0-1.14-.55,3.68,3.68,0,0,1-1.31-.73A1.51,1.51,0,0,1,141.8,26a1.72,1.72,0,0,1,.2-.8,1.55,1.55,0,0,1,.5-.55,2,2,0,0,1,.69-.32,2.65,2.65,0,0,1,.79-.11,6.74,6.74,0,0,1,1,.08,3,3,0,0,1,.83.27Z"/><path d="M148.77,22v1h-1.09V22Zm0,2.39v6.34h-1V24.34Z"/><path d="M155.11,29.53h0a2.47,2.47,0,0,1-.87.8,2.24,2.24,0,0,1-1.11.26,2.58,2.58,0,0,1-1.13-.24,2.69,2.69,0,0,1-.85-.68,3,3,0,0,1-.53-1,4.14,4.14,0,0,1-.19-1.26,3.8,3.8,0,0,1,.2-1.25,3.24,3.24,0,0,1,.54-1,2.5,2.5,0,0,1,2-.92,2.67,2.67,0,0,1,1.11.24,2.13,2.13,0,0,1,.85.75h0v-.85h1v6a2.77,2.77,0,0,1-.24,1.2,2.24,2.24,0,0,1-.65.84,2.67,2.67,0,0,1-.94.5,4.16,4.16,0,0,1-1.16.16,6.74,6.74,0,0,1-1-.08,3.86,3.86,0,0,1-1-.25l.2-.79a4.13,4.13,0,0,0,.85.24,5.82,5.82,0,0,0,.93.07,2,2,0,0,0,1.5-.51,1.93,1.93,0,0,0,.51-1.43Zm-3.69-2.14a3.65,3.65,0,0,0,.12.93,2.58,2.58,0,0,0,.33.76,1.67,1.67,0,0,0,.57.52,1.78,1.78,0,0,0,1.59,0,1.64,1.64,0,0,0,.6-.51,2.36,2.36,0,0,0,.38-.76,3.74,3.74,0,0,0,0-1.88,2.36,2.36,0,0,0-.38-.76,1.64,1.64,0,0,0-.6-.51,1.79,1.79,0,0,0-.79-.18,1.58,1.58,0,0,0-1.36.7,2.17,2.17,0,0,0-.34.76A3.65,3.65,0,0,0,151.42,27.39Z"/><path d="M159,24.34v.94h0a2.08,2.08,0,0,1,.81-.8A2.42,2.42,0,0,1,161,24.2a2.21,2.21,0,0,1,1.66.62,2.32,2.32,0,0,1,.61,1.68v4.18h-1V26.89a4.15,4.15,0,0,0-.08-.79,1.28,1.28,0,0,0-.24-.59,1.11,1.11,0,0,0-.45-.38,1.77,1.77,0,0,0-.72-.13,1.73,1.73,0,0,0-.64.12,1.49,1.49,0,0,0-.55.37,1.88,1.88,0,0,0-.39.65,2.56,2.56,0,0,0-.15.95v3.59h-1V24.34Z"/><path d="M172.68,23.2a5.08,5.08,0,0,0-1.89-.36,2.48,2.48,0,0,0-.61.07,1.84,1.84,0,0,0-.55.21,1.05,1.05,0,0,0-.41.4,1.26,1.26,0,0,0-.16.63,1.54,1.54,0,0,0,.09.52,1.25,1.25,0,0,0,.3.42,3.12,3.12,0,0,0,.56.39,6.3,6.3,0,0,0,.84.37,8.73,8.73,0,0,1,1.08.49,3.43,3.43,0,0,1,.76.55,2.17,2.17,0,0,1,.47.69,2.21,2.21,0,0,1,.15.88,2.12,2.12,0,0,1-.25,1.08,2.23,2.23,0,0,1-.66.74,3,3,0,0,1-.92.41,4.22,4.22,0,0,1-1,.13,6.67,6.67,0,0,1-2.53-.53l.26-.9a5.11,5.11,0,0,0,1.19.42,5.18,5.18,0,0,0,1.11.13,2.81,2.81,0,0,0,.71-.08,1.69,1.69,0,0,0,.58-.26,1.27,1.27,0,0,0,.38-.45,1.34,1.34,0,0,0,.14-.62,1.31,1.31,0,0,0-.14-.59,1.53,1.53,0,0,0-.41-.47,5.16,5.16,0,0,0-.63-.4l-.87-.39a4.19,4.19,0,0,1-1.65-1,2.19,2.19,0,0,1-.3-2.46,2.1,2.1,0,0,1,.66-.7,2.86,2.86,0,0,1,.89-.4,3.76,3.76,0,0,1,1-.13,7.08,7.08,0,0,1,1.13.09,5.68,5.68,0,0,1,1,.27Z"/><path d="M176.77,29.44h0l1.87-5.1h1.08L176.29,33h-1.07l1-2.45-2.45-6.23h1.11Z"/><path d="M184.29,25.33a2.91,2.91,0,0,0-.77-.26,5.29,5.29,0,0,0-.8-.07,3.09,3.09,0,0,0-.43,0,1.74,1.74,0,0,0-.38.14.9.9,0,0,0-.28.27.73.73,0,0,0-.11.43.81.81,0,0,0,.29.65,3,3,0,0,0,.42.27l.63.27a8.33,8.33,0,0,1,.82.34,3.17,3.17,0,0,1,.62.41,1.6,1.6,0,0,1,.41.52,1.94,1.94,0,0,1-.07,1.55,1.64,1.64,0,0,1-.53.55,2.85,2.85,0,0,1-.75.29,3.84,3.84,0,0,1-.83.09,5.35,5.35,0,0,1-1.05-.11,4.52,4.52,0,0,1-1.08-.34l.27-.81a5.13,5.13,0,0,0,1,.34,4.43,4.43,0,0,0,.89.12,1.72,1.72,0,0,0,.92-.2.8.8,0,0,0,.38-.73.91.91,0,0,0-.4-.72,4.44,4.44,0,0,0-1.14-.55,3.68,3.68,0,0,1-1.31-.73,1.49,1.49,0,0,1-.46-1.11,1.55,1.55,0,0,1,.69-1.35,2,2,0,0,1,.7-.32,2.65,2.65,0,0,1,.79-.11,6.74,6.74,0,0,1,1,.08,3,3,0,0,1,.83.27Z"/><path d="M185.68,24.34h1.13V22.75h1v1.59h1.47v.81h-1.47v3.79a4.51,4.51,0,0,0,0,.52.67.67,0,0,0,.1.31.37.37,0,0,0,.25.15h1.1v.77l-.44,0h-.52a2.42,2.42,0,0,1-.8-.11,1.05,1.05,0,0,1-.46-.35,1.14,1.14,0,0,1-.22-.56,4.52,4.52,0,0,1-.06-.74V25.15h-1.13Z"/><path d="M191.24,27.79a2.36,2.36,0,0,0,.64,1.61,2.15,2.15,0,0,0,1.63.62,4.91,4.91,0,0,0,.86-.08,3.84,3.84,0,0,0,.82-.23l.17.77a4,4,0,0,1-.9.26,6.74,6.74,0,0,1-1,.08,4,4,0,0,1-1.37-.24,2.79,2.79,0,0,1-1.63-1.76,4.11,4.11,0,0,1-.21-1.3,4.29,4.29,0,0,1,.2-1.33,3.57,3.57,0,0,1,.57-1.05,2.67,2.67,0,0,1,.9-.7,2.88,2.88,0,0,1,1.19-.24,2.72,2.72,0,0,1,1.16.22,2.18,2.18,0,0,1,.82.62,2.75,2.75,0,0,1,.49,1,4.52,4.52,0,0,1,.16,1.27v.5ZM193.12,25a1.65,1.65,0,0,0-1.31.54,2.47,2.47,0,0,0-.57,1.44h3.58v-.05a2.13,2.13,0,0,0-.47-1.41A1.63,1.63,0,0,0,193.12,25Z"/><path d="M198.37,24.34v1h0a1.83,1.83,0,0,1,.75-.81,2.23,2.23,0,0,1,1.16-.3,2.54,2.54,0,0,1,1.18.26,1.59,1.59,0,0,1,.7.77h0a2,2,0,0,1,.85-.8,2.81,2.81,0,0,1,1.15-.23,2.63,2.63,0,0,1,1,.17,2,2,0,0,1,.69.48,2.19,2.19,0,0,1,.41.73,3.21,3.21,0,0,1,.14.92v4.18h-1V26.89a3.94,3.94,0,0,0-.07-.77,1.89,1.89,0,0,0-.22-.6,1.06,1.06,0,0,0-.45-.39A1.65,1.65,0,0,0,204,25a1.85,1.85,0,0,0-.57.1,1.38,1.38,0,0,0-.5.32,1.67,1.67,0,0,0-.35.55,2.45,2.45,0,0,0-.13.81v3.9h-1v-3.9a4.9,4.9,0,0,0-.06-.77,1.37,1.37,0,0,0-.21-.55,1,1,0,0,0-.42-.34A1.64,1.64,0,0,0,200,25a1.53,1.53,0,0,0-.6.12,1.35,1.35,0,0,0-.52.36,1.86,1.86,0,0,0-.37.62,2.87,2.87,0,0,0-.13.87v3.71h-1V24.34Z"/></svg>