<?xml version="1.0" encoding="UTF-8"?>
<svg width="286px" height="52px" viewBox="0 0 286 52" version="1.1" xmlns="http://www.w3.org/2000/svg" xmlns:xlink="http://www.w3.org/1999/xlink">
    <title>BSDS LOGO</title>
    <g id="Page-1" stroke="none" stroke-width="1" fill="none" fill-rule="evenodd">
        <g id="BSDS-LOGO" transform="translate(0.000000, 1.000000)">
            <g id="BSC" transform="translate(0.000000, 0.000000)" fill="#003666" fill-rule="nonzero">
                <path d="M102.517606,48.1443662 L99.2535211,48.1443662 L99.2535211,49.1549296 L109.052817,49.1549296 L109.052817,48.1443662 L106.419014,48.1443662 L106.419014,31.084507 C105.602113,31.9225352 104.306338,32.0035211 102.992958,32.0035211 L99.75,32.0035211 L99.75,33.0035211 L102.517606,33.0035211 L102.517606,48.1443662" id="Path"></path>
                <path d="M40.6056338,48.1443662 L37.3485915,48.1443662 L37.3485915,49.1549296 L47.1443662,49.1549296 L47.1443662,48.1443662 L44.5105634,48.1443662 L44.5105634,31.084507 C43.693662,31.9225352 42.3978873,32.0035211 41.0880282,32.0035211 L37.8415493,32.0035211 L37.8415493,33.0035211 L40.6056338,33.0035211 L40.6056338,48.1443662" id="Path"></path>
                <path d="M113.841549,48.1443662 L110.697183,48.1443662 L110.697183,49.1549296 L120.644366,49.1549296 L120.644366,48.1443662 L117.778169,48.1443662 L117.778169,33.0035211 L124.799296,33.0035211 L124.799296,48.1443662 L122.176056,48.1443662 L122.176056,49.1549296 L131.852113,49.1549296 L131.852113,48.1443662 L128.707746,48.1443662 L128.707746,31.0739437 C127.887324,31.915493 126.46831,31.9964789 125.18662,31.9964789 L117.792254,31.9964789 L117.792254,26.3133803 C117.792254,22.4929577 119.200704,19.4507042 123.549296,19.4507042 C125.28169,19.4507042 126.552817,20.1549296 126.552817,20.8802817 C126.552817,21.3732394 126.119718,21.5316901 125.78169,21.7183099 C125.163441,22.0208267 124.765498,22.6428665 124.75,23.3309859 C124.75,24.4190141 125.806338,25.1443662 126.700704,25.1443662 C128.024648,25.1443662 128.996479,24.0880282 128.996479,22.5352113 C128.996479,20.7183099 127.112676,18.4119718 123.172535,18.4119718 C116.320423,18.4119718 113.855634,23.971831 113.855634,29.2464789 L113.855634,32.0070423 L110.288732,32.0070423 L110.288732,33.0035211 L113.841549,33.0035211 L113.841549,48.1443662" id="Path"></path>
                <path d="M10.0422535,36.6197183 C14.2922535,37.5 16.221831,40.0457746 16.221831,42.8626761 C16.221831,46.0704225 13.6478873,48.6830986 9.73239437,48.6830986 C5.73591549,48.6830986 1.8556338,45.4260563 1.23591549,38.8415493 L0.126760563,38.8415493 L0.126760563,49.4295775 L1.22535211,49.4295775 C1.3028169,48.7253521 1.60211268,48.193662 2.44366197,48.193662 C4.01408451,48.193662 5.71126761,49.8485915 9.78873239,49.8485915 C15.6971831,49.8485915 18.943662,46.2676056 18.943662,40.7887324 C18.943662,36.5035211 16.7922535,33.3204225 11.1161972,31.9295775 L8.9471831,31.4260563 C3.95422535,30.2676056 2.48943662,27.971831 2.48943662,25.6091549 C2.48943662,22.4014085 4.97887324,20.2323944 7.99295775,20.2323944 C12.6971831,20.2323944 15.4859155,24.0422535 16.0633803,28.7922535 L17.2323944,28.7922535 L17.2323944,20.0176056 L16.1760563,20.0176056 C16.0528169,20.5633803 15.7852113,21.0950704 14.943662,21.0950704 C13.5035211,21.0950704 12.306338,19.0492958 7.90140845,19.0492958 C3.49647887,19.0492958 0,22.278169 0,27.0492958 C0,32.1830986 2.55985915,34.8732394 7.92957746,36.1267606 L10.0422535,36.6197183" id="Path"></path>
                <path d="M89.2288732,45.9295775 C89.2288732,48.7992958 91.193662,49.8521127 93.806338,49.8521127 C96.9260563,49.8521127 97.9647887,48.1443662 98.4647887,47.0774648 L97.665493,46.5316901 C97.1690141,47.3978873 96.3697183,48.4753521 95.0035211,48.4753521 C93.9471831,48.4753521 93.1161972,47.943662 93.1161972,46.3133803 L93.1161972,33.0035211 L97.6725352,33.0035211 L97.6725352,32.0035211 L93.1267606,32.0035211 L93.1267606,26.7746479 L92.3556338,26.7746479 C91.6725352,30.8415493 89.7746479,31.9964789 85.943662,31.9964789 L85.943662,33.0035211 L89.2288732,33.0035211 L89.2288732,45.9366197" id="Path"></path>
                <path d="M76.8169014,48.1443662 L79.7288732,48.1443662 L79.7288732,35.4330986 C79.7288732,33.3978873 78.6197183,32.5669014 77.1971831,32.5669014 C74.6408451,32.5669014 72.7253521,35.0105634 71.8556338,36.2147887 L71.8556338,48.1443662 L74.8485915,48.1443662 L74.8485915,49.1514085 L64.8838028,49.1514085 L64.8838028,48.1443662 L67.9542254,48.1443662 L67.9542254,33.0035211 L64.8838028,33.0035211 L64.8838028,32.0035211 L68.1056338,32.0035211 C70.0633803,32.0035211 71,32.0035211 71.7323944,31.0809859 L71.7323944,34.4788732 L71.8204225,34.4788732 C72.6619718,33.4753521 74.6619718,31.0809859 78.1338028,31.0809859 C81.8169014,31.0809859 83.6338028,33.4753521 83.6338028,36.3626761 L83.6338028,48.1443662 L86.7007042,48.1443662 L86.7007042,49.1514085 L76.8169014,49.1514085 L76.8169014,48.1443662" id="Path"></path>
                <path d="M35.1126761,43.5 C34.6725352,45.7183099 32.9049296,48.4542254 29.8626761,48.4542254 C26.8908451,48.4542254 25.471831,46.693662 25.471831,42.8204225 L25.471831,38.8661972 C25.471831,35.0492958 26.8802817,32.3309859 30.0809859,32.3309859 C31.9964789,32.3309859 33.0598592,33.2676056 33.0598592,34 C33.0598592,34.3978873 32.7957746,34.6267606 32.5528169,34.915493 C32.2282289,35.2498701 32.0442342,35.6959941 32.0387324,36.1619718 C32.0387324,37.0457746 32.7183099,37.9225352 33.9471831,37.9225352 C35.0915493,37.9225352 36.028169,37.0140845 36.028169,35.6091549 C36.028169,33.5352113 33.5633803,31.3450704 29.7464789,31.3450704 C24.915493,31.3450704 21.1654369,35.0422535 21.1654369,40.6338028 C21.1514085,45.7183099 23.7887324,49.9049296 29.4225352,49.9049296 C33.2394366,49.9049296 35.6795775,46.8204225 36.193662,43.5070423 L35.1126761,43.5070423" id="Path"></path>
                <path d="M145.778169,43.4542254 C145.34507,45.6760563 143.570423,48.4119718 140.53169,48.4119718 C137.559859,48.4119718 136.137324,46.6514085 136.137324,42.778169 L136.137324,38.834507 C136.137324,35.0211268 137.545775,32.2992958 140.75,32.2992958 C142.661972,32.2992958 143.728873,33.2394366 143.728873,33.9683099 C143.728873,34.3697183 143.464789,34.5950704 143.221831,34.8838028 C142.897169,35.2206943 142.714383,35.6694653 142.711268,36.1373239 C142.711268,37.0176056 143.383803,37.8697183 144.616197,37.8697183 C145.760563,37.8697183 146.697183,36.9647887 146.697183,35.556338 C146.697183,33.4823944 144.232394,31.2992958 140.411972,31.2992958 C135.588028,31.2992958 131.830986,34.9929577 131.830986,40.5880282 C131.830986,45.6901408 134.461268,49.8661972 140.088028,49.8661972 C143.908451,49.8661972 146.348592,46.7816901 146.862676,43.4683099 L145.778169,43.4683099" id="Path"></path>
                <path d="M62.4049296,43.4119718 C61.943662,45.8978873 60.1056338,48.4507042 57.2323944,48.4507042 C54.3591549,48.4507042 52.8415493,46.6725352 52.8415493,43.0915493 L52.8415493,39.0387324 L63.4788732,39.0387324 C63.582411,39.0522522 63.6862576,39.0161221 63.7590442,38.9412558 C63.8318308,38.8663895 63.8650219,38.7615666 63.8485915,38.6584507 C63.8485915,38.4612676 63.8485915,38.2570423 63.8485915,38.0422535 C63.8485915,35.4401408 61.5105634,31.2852113 56.3309859,31.2852113 C51.8133803,31.2852113 48.5070423,35.7077465 48.5070423,40.5739437 C48.5070423,46.3732394 51.8802817,49.8556338 56.5105634,49.8556338 C60.1549296,49.8556338 62.8485915,47.2816901 63.5246479,43.4119718 L62.4049296,43.4119718 Z M59.9401408,37.6760563 C59.9498931,37.7527042 59.9246489,37.8296731 59.8713963,37.8856566 C59.8181437,37.9416401 59.7425324,37.9706988 59.665493,37.9647887 L52.9753521,37.9647887 L52.9753521,36.6795775 C52.9753521,33.9542254 54.3838028,32.2816901 56.4964789,32.2816901 C58.665493,32.2816901 59.9260563,33.8309859 59.9260563,36.6795775 L59.9260563,37.6760563" id="Shape"></path>
                <path d="M25.8838028,0.933098592 L26.9119718,0.933098592 C30.8697183,0.933098592 32.9683099,3.1584507 32.9683099,5.91901408 C32.9683099,9.86971831 30.3028169,11.2183099 27.0492958,11.2183099 L25.8838028,11.2183099 L25.8838028,0.933098592 Z M21.8732394,24.1478873 L19.1901408,24.1478873 L19.1901408,25.1021127 L30.0739437,25.1021127 C33.7711268,25.1021127 38.1478873,22.9894366 38.1478873,18.0598592 C38.1478873,14.1373239 34.6267606,12.0316901 31.1971831,11.8380282 L31.1971831,11.6584507 C34.1091549,11.4084507 37.0316901,9.54577465 37.0316901,5.67253521 C37.0316901,2.32042254 34.1795775,0.00704225352 28.9753521,0.00704225352 L19.1725352,0.00704225352 L19.1725352,0.940140845 L21.8732394,0.940140845 L21.8732394,24.1478873 Z M25.8838028,12.1760563 L27.778169,12.1760563 C31.7676056,12.1760563 33.9366197,14.7957746 33.9366197,18.0422535 C33.9366197,21.6021127 31.7922535,24.1478873 28.1302817,24.1478873 L25.8838028,24.1478873 L25.8838028,12.1760563" id="Shape"></path>
                <path d="M39.7922535,17.5669014 C39.7922535,22.0176056 42.9295775,25.7112676 47.3626761,25.7112676 C51.7957746,25.7112676 54.9542254,21.9823944 54.9542254,17.5669014 C54.9542254,13.1514085 51.7852113,9.41197183 47.3626761,9.41197183 C42.9401408,9.41197183 39.7922535,13.0950704 39.7922535,17.5669014 Z M51.1232394,18.4894366 C51.1232394,21.584507 50.7711268,24.6373239 47.3626761,24.6373239 C43.9542254,24.6373239 43.5985915,21.584507 43.5985915,18.4894366 L43.5985915,16.6514085 C43.5985915,13.5528169 43.8838028,10.4964789 47.3626761,10.4964789 C50.9330986,10.4964789 51.1232394,13.5528169 51.1232394,16.6514085 L51.1232394,18.4894366" id="Shape"></path>
                <path d="M78.6795775,17.5739437 C78.6795775,22.0211268 81.8204225,25.7183099 86.2535211,25.7183099 C90.6866197,25.7183099 93.8274648,21.9823944 93.8274648,17.5739437 C93.8274648,13.165493 90.6866197,9.42957746 86.2535211,9.42957746 C81.8204225,9.42957746 78.6795775,13.1056338 78.6795775,17.5739437 Z M90.0140845,18.4929577 C90.0140845,21.5915493 89.6443662,24.6443662 86.2535211,24.6443662 C82.8626761,24.6443662 82.4859155,21.5915493 82.4859155,18.4929577 L82.4859155,16.6549296 C82.4859155,13.556338 82.7711268,10.5035211 86.2535211,10.5035211 C89.8169014,10.5035211 90.0140845,13.556338 90.0140845,16.6549296 L90.0140845,18.4929577" id="Shape"></path>
                <path d="M104.661972,24.1549296 L106.81338,24.1549296 L106.81338,13.4823944 C106.81338,11.6901408 105.651408,10.9612676 104.422535,10.9612676 C102.806338,10.9612676 101.140845,12.5176056 100.376761,14.1690141 L100.376761,24.1549296 L103.003521,24.1549296 L103.003521,25.1126761 L93.8485915,25.1126761 L93.8485915,24.1549296 L96.7288732,24.1549296 L96.7288732,11.0105634 L93.9330986,11.0105634 L93.9330986,10.0739437 L96.6478873,10.0739437 C98.2957746,10.0739437 99.6549296,10.0739437 100.271127,9.26760563 L100.271127,12.1866197 L100.341549,12.1866197 C101.75,10.4683099 103.676056,9.26760563 105.894366,9.26760563 C109.355634,9.26760563 110.559859,11.7323944 110.559859,13.7887324 L110.559859,24.1549296 L112.612676,24.1549296 L112.612676,25.1126761 L104.65493,25.1126761 L104.65493,24.1549296" id="Path"></path>
                <path d="M62.1830986,18.9683099 C64.2570423,19.2640845 65.1408451,20.4929577 65.1408451,21.8133803 C65.1408451,23.6971831 63.6197183,24.6971831 61.9401408,24.6971831 C58.7147887,24.6971831 57.5598592,21.8415493 57.3626761,19.9507042 L56.5492958,19.9507042 L56.6549296,25.4894366 L57.4471831,25.4894366 C57.5105634,24.9190141 57.6971831,24.6901408 58.0633803,24.6901408 C58.8133803,24.6901408 59.7112676,25.7112676 61.9823944,25.7112676 C65.3591549,25.7112676 67.415493,23.5985915 67.415493,20.4295775 C67.415493,18.1549296 66.1302817,16.1021127 63.2394366,15.6795775 L61.5176056,15.3978873 C59.25,15.0211268 58.4542254,14.2359155 58.4542254,12.8908451 C58.4542254,11.5457746 59.5669014,10.4471831 61.4929577,10.4471831 C63.7253521,10.4471831 65.0140845,11.8556338 65.3661972,14.0211268 L66.1443662,14.0211268 L66.056338,9.65492958 L65.3521127,9.65492958 C65.3133803,9.97887324 65.1760563,10.3133803 64.8133803,10.3133803 C64.1795775,10.3133803 63.3028169,9.43661972 61.415493,9.43661972 C58.7640845,9.41197183 56.7147887,11.2957746 56.7147887,13.9366197 C56.7147887,17.2887324 58.9014085,18.5140845 61.1971831,18.8239437 L62.193662,18.9683099" id="Path"></path>
                <path d="M78.2816901,22.7640845 C77.9295775,23.3626761 77.1619718,24.2746479 76.0176056,24.2746479 C75.0739437,24.2746479 74.2288732,23.8485915 74.2288732,22.3485915 L74.2288732,11.0070423 L78.2711268,11.0070423 L78.2711268,10.0739437 L74.2288732,10.0739437 L74.2288732,4.93309859 L73.5246479,4.93309859 C72.9401408,8.53169014 70.9190141,10.0704225 68.0105634,10.0704225 L68.0105634,11.0070423 L70.5669014,11.0070423 L70.5669014,22.3028169 C70.5669014,24.7676056 72.3274648,25.7323944 74.7922535,25.7323944 C77.0598592,25.7323944 78.2429577,24.5739437 78.8556338,23.6197183 L78.2816901,22.7640845" id="Path"></path>
            </g>
            <line x1="167.5" y1="-2.13700585e-14" x2="167.5" y2="50" id="Divider" stroke="#cccccc" stroke-linecap="square"></line>
            <path d="M200.357724,39.5121951 C201.98374,39.5121951 203.386179,39.295393 204.565041,38.8617886 C205.743902,38.4281843 206.719512,37.8387534 207.49187,37.0934959 C208.264228,36.3482385 208.833333,35.4878049 209.199187,34.5121951 C209.565041,33.5365854 209.747967,32.5067751 209.747967,31.4227642 C209.747967,30.3658537 209.605691,29.4444444 209.321138,28.6585366 C209.036585,27.8726287 208.643631,27.2086721 208.142276,26.6666667 C207.640921,26.1246612 207.078591,25.6775068 206.455285,25.3252033 C205.831978,24.9728997 205.127371,24.6883469 204.341463,24.4715447 L204.341463,24.4715447 L204.341463,24.3902439 C205.669377,23.9295393 206.773713,23.1775068 207.654472,22.1341463 C208.53523,21.0907859 208.98916,19.6476965 209.01626,17.804878 C209.01626,16.504065 208.792683,15.3929539 208.345528,14.4715447 C207.898374,13.5501355 207.275068,12.7913279 206.47561,12.195122 C205.676152,11.598916 204.734417,11.1653117 203.650407,10.8943089 C202.566396,10.6233062 201.387534,10.4878049 200.113821,10.4878049 L200.113821,10.4878049 L188,10.4878049 L188,39.5121951 L200.357724,39.5121951 Z M198.121951,22.3170732 L193.934959,22.3170732 L193.934959,15.2439024 L198.447154,15.2439024 C199.04336,15.2439024 199.619241,15.2913279 200.174797,15.3861789 C200.730352,15.4810298 201.224932,15.6504065 201.658537,15.8943089 C202.092141,16.1382114 202.437669,16.4837398 202.695122,16.9308943 C202.952575,17.3780488 203.081301,17.9539295 203.081301,18.6585366 C203.054201,19.9593496 202.627371,20.8943089 201.800813,21.4634146 C200.974255,22.0325203 199.747967,22.3170732 198.121951,22.3170732 L198.121951,22.3170732 Z M198.731707,34.7560976 L193.934959,34.7560976 L193.934959,27.0731707 L198,27.0731707 C198.840108,27.0731707 199.619241,27.1341463 200.337398,27.2560976 C201.055556,27.3780488 201.665312,27.5813008 202.166667,27.8658537 C202.668022,28.1504065 203.067751,28.5433604 203.365854,29.0447154 C203.663957,29.5460705 203.813008,30.1761518 203.813008,30.9349593 C203.813008,31.6937669 203.691057,32.3238482 203.447154,32.8252033 C203.203252,33.3265583 202.850949,33.7195122 202.390244,34.004065 C201.929539,34.2886179 201.394309,34.4850949 200.784553,34.5934959 C200.174797,34.701897 199.490515,34.7560976 198.731707,34.7560976 L198.731707,34.7560976 Z M222.268293,40 C223.677507,40 225.025745,39.8306233 226.313008,39.4918699 C227.600271,39.1531165 228.745257,38.6314363 229.747967,37.9268293 C230.750678,37.2222222 231.54336,36.3279133 232.126016,35.2439024 C232.708672,34.1598916 233,32.899729 233,31.4634146 C233,30.1897019 232.810298,29.098916 232.430894,28.1910569 C232.051491,27.2831978 231.495935,26.4837398 230.764228,25.7926829 C230.03252,25.101626 229.178862,24.4918699 228.203252,23.9634146 C227.227642,23.4349593 226.143631,22.9268293 224.95122,22.4390244 C224.00271,22.0596206 223.182927,21.700542 222.49187,21.3617886 C221.800813,21.0230352 221.231707,20.6775068 220.784553,20.3252033 C220.337398,19.9728997 220.00542,19.600271 219.788618,19.2073171 C219.571816,18.8143631 219.463415,18.3604336 219.463415,17.8455285 C219.463415,17.2493225 219.592141,16.7547425 219.849593,16.3617886 C220.107046,15.9688347 220.452575,15.6504065 220.886179,15.4065041 C221.319783,15.1626016 221.814363,14.9932249 222.369919,14.898374 C222.925474,14.803523 223.501355,14.7560976 224.097561,14.7560976 C225.100271,14.7560976 226.130081,14.8373984 227.186992,15 C228.243902,15.1626016 229.287263,15.4336043 230.317073,15.8130081 L230.317073,15.8130081 L231.333333,11.0569106 C230.276423,10.704607 229.097561,10.4403794 227.796748,10.2642276 C226.495935,10.0880759 225.140921,10 223.731707,10 C222.512195,10 221.299458,10.1558266 220.093496,10.4674797 C218.887534,10.7791328 217.789973,11.2737127 216.800813,11.9512195 C215.811653,12.6287263 215.01897,13.50271 214.422764,14.5731707 C213.826558,15.6436314 213.528455,16.9241192 213.528455,18.4146341 C213.528455,19.5257453 213.718157,20.5149051 214.097561,21.3821138 C214.476965,22.2493225 215.01897,23.0284553 215.723577,23.7195122 C216.428184,24.4105691 217.254743,25.0271003 218.203252,25.5691057 C219.151762,26.1111111 220.208672,26.6124661 221.373984,27.0731707 C222.349593,27.4525745 223.196477,27.8184282 223.914634,28.1707317 C224.632791,28.5230352 225.228997,28.8821138 225.703252,29.2479675 C226.177507,29.6138211 226.523035,30.0067751 226.739837,30.4268293 C226.95664,30.8468835 227.065041,31.3279133 227.065041,31.8699187 C227.03794,33.0081301 226.604336,33.8550136 225.764228,34.4105691 C224.924119,34.9661247 223.691057,35.2439024 222.065041,35.2439024 C221.00813,35.2439024 219.822493,35.1219512 218.50813,34.8780488 C217.193767,34.6341463 215.859079,34.2411924 214.504065,33.699187 L214.504065,33.699187 L213.447154,38.5365854 C214.937669,39.0514905 216.448509,39.4241192 217.979675,39.6544715 C219.51084,39.8848238 220.940379,40 222.268293,40 Z M247.756098,39.5121951 C250.140921,39.5121951 252.241192,39.1734417 254.056911,38.495935 C255.872629,37.8184282 257.397019,36.8495935 258.630081,35.5894309 C259.863144,34.3292683 260.798103,32.798103 261.434959,30.995935 C262.071816,29.1937669 262.390244,27.1544715 262.390244,24.8780488 C262.390244,22.6558266 262.078591,20.6571816 261.455285,18.8821138 C260.831978,17.1070461 259.903794,15.596206 258.670732,14.3495935 C257.437669,13.102981 255.906504,12.1476965 254.077236,11.4837398 C252.247967,10.8197832 250.140921,10.4878049 247.756098,10.4878049 L247.756098,10.4878049 L237.878049,10.4878049 L237.878049,39.5121951 L247.756098,39.5121951 Z M246.902439,34.7560976 L243.813008,34.7560976 L243.813008,15.2439024 L246.902439,15.2439024 C248.528455,15.2439024 249.95122,15.4742547 251.170732,15.9349593 C252.390244,16.395664 253.386179,17.0528455 254.158537,17.9065041 C254.930894,18.7601626 255.506775,19.7831978 255.886179,20.9756098 C256.265583,22.1680217 256.455285,23.495935 256.455285,24.9593496 C256.455285,26.4498645 256.265583,27.7913279 255.886179,28.9837398 C255.506775,30.1761518 254.930894,31.2059621 254.158537,32.0731707 C253.386179,32.9403794 252.390244,33.604336 251.170732,34.0650407 C249.95122,34.5257453 248.528455,34.7560976 246.902439,34.7560976 L246.902439,34.7560976 Z M275.154472,40 C276.563686,40 277.911924,39.8306233 279.199187,39.4918699 C280.48645,39.1531165 281.631436,38.6314363 282.634146,37.9268293 C283.636856,37.2222222 284.429539,36.3279133 285.012195,35.2439024 C285.594851,34.1598916 285.886179,32.899729 285.886179,31.4634146 C285.886179,30.1897019 285.696477,29.098916 285.317073,28.1910569 C284.937669,27.2831978 284.382114,26.4837398 283.650407,25.7926829 C282.918699,25.101626 282.065041,24.4918699 281.089431,23.9634146 C280.113821,23.4349593 279.02981,22.9268293 277.837398,22.4390244 C276.888889,22.0596206 276.069106,21.700542 275.378049,21.3617886 C274.686992,21.0230352 274.117886,20.6775068 273.670732,20.3252033 C273.223577,19.9728997 272.891599,19.600271 272.674797,19.2073171 C272.457995,18.8143631 272.349593,18.3604336 272.349593,17.8455285 C272.349593,17.2493225 272.47832,16.7547425 272.735772,16.3617886 C272.993225,15.9688347 273.338753,15.6504065 273.772358,15.4065041 C274.205962,15.1626016 274.700542,14.9932249 275.256098,14.898374 C275.811653,14.803523 276.387534,14.7560976 276.98374,14.7560976 C277.98645,14.7560976 279.01626,14.8373984 280.073171,15 C281.130081,15.1626016 282.173442,15.4336043 283.203252,15.8130081 L283.203252,15.8130081 L284.219512,11.0569106 C283.162602,10.704607 281.98374,10.4403794 280.682927,10.2642276 C279.382114,10.0880759 278.0271,10 276.617886,10 C275.398374,10 274.185637,10.1558266 272.979675,10.4674797 C271.773713,10.7791328 270.676152,11.2737127 269.686992,11.9512195 C268.697832,12.6287263 267.905149,13.50271 267.308943,14.5731707 C266.712737,15.6436314 266.414634,16.9241192 266.414634,18.4146341 C266.414634,19.5257453 266.604336,20.5149051 266.98374,21.3821138 C267.363144,22.2493225 267.905149,23.0284553 268.609756,23.7195122 C269.314363,24.4105691 270.140921,25.0271003 271.089431,25.5691057 C272.03794,26.1111111 273.094851,26.6124661 274.260163,27.0731707 C275.235772,27.4525745 276.082656,27.8184282 276.800813,28.1707317 C277.51897,28.5230352 278.115176,28.8821138 278.589431,29.2479675 C279.063686,29.6138211 279.409214,30.0067751 279.626016,30.4268293 C279.842818,30.8468835 279.95122,31.3279133 279.95122,31.8699187 C279.924119,33.0081301 279.490515,33.8550136 278.650407,34.4105691 C277.810298,34.9661247 276.577236,35.2439024 274.95122,35.2439024 C273.894309,35.2439024 272.708672,35.1219512 271.394309,34.8780488 C270.079946,34.6341463 268.745257,34.2411924 267.390244,33.699187 L267.390244,33.699187 L266.333333,38.5365854 C267.823848,39.0514905 269.334688,39.4241192 270.865854,39.6544715 C272.397019,39.8848238 273.826558,40 275.154472,40 Z" id="BSDS" fill="#000000" fill-rule="nonzero"></path>
        </g>
    </g>
</svg>