<svg xmlns="http://www.w3.org/2000/svg" width="182" height="34" viewBox="0 0 182 34">
    <g fill="none" fill-rule="evenodd">
        <g>
            <g>
                <g fill="#003666" fill-rule="nonzero">
                    <path d="M69.333 32.583h-2.25v.667h6.667v-.667H72V21c-.5.583-1.417.583-2.333.583h-2.25v.667h1.916v10.333M27.5 32.583h-2.25v.667h6.667v-.667h-1.75V21c-.5.583-1.417.583-2.334.583h-2.166v.667h1.75l.083 10.333M77 32.583h-2.167v.667h6.75v-.667h-1.916v-10.25h4.75v10.25h-1.75v.667h6.583v-.667h-2.083V21c-.584.583-1.5.583-2.417.583h-5V17.75c0-2.583.917-4.667 3.917-4.667 1.166 0 2 .5 2 1 0 .334-.25.417-.5.584-.417.166-.667.583-.667 1.083 0 .75.667 1.25 1.333 1.25.917 0 1.584-.75 1.584-1.75 0-1.25-1.25-2.833-3.917-2.833-4.667 0-6.333 3.75-6.333 7.333v1.833H74.75v.667h2.417v10.333M6.833 24.75C9.667 25.333 11 27.083 11 29c0 2.167-1.75 3.917-4.417 3.917-2.666 0-5.333-2.167-5.75-6.667h-.75v7.167h.75c.084-.5.25-.834.834-.834 1.083 0 2.25 1.084 4.916 1.084 4 0 6.167-2.417 6.167-6.167 0-2.917-1.417-5.083-5.25-6L6 21.167c-3.417-.75-4.417-2.334-4.417-3.917 0-2.167 1.667-3.667 3.75-3.667 3.167 0 5.084 2.584 5.5 5.75h.834v-5.916h-.75c-.084.333-.25.75-.834.75-1 0-1.75-1.417-4.75-1.417S0 14.917 0 18.167c0 3.5 1.75 5.25 5.333 6.166l1.5.417M60.333 31.083c0 1.917 1.334 2.667 3.084 2.667 2.083 0 2.833-1.167 3.166-1.917l-.5-.333c-.333.583-.916 1.333-1.833 1.333-.75 0-1.25-.333-1.25-1.5v-9h3.083v-.666H63v-3.5h-.583c-.5 2.75-1.75 3.5-4.334 3.5v.666h2.25v8.75M51.917 32.583h2V24c0-1.333-.75-1.917-1.667-1.917-1.75 0-3 1.667-3.583 2.5v8.084h2v.583h-6.75v-.667H46v-10.25h-2.083v-.666h2.166c1.334 0 2 0 2.417-.584v2.334h.083c.584-.667 1.917-2.334 4.25-2.334 2.5 0 3.75 1.584 3.75 3.584v8h2.084v.583H52l-.083-.667zM23.75 29.417c-.25 1.5-1.5 3.333-3.583 3.333-2 0-3-1.167-3-3.833V26.25c0-2.583.916-4.417 3.083-4.417 1.25 0 2 .667 2 1.167 0 .25-.167.417-.333.583-.25.25-.334.5-.334.834 0 .666.584 1.166 1.25 1.166h.084c.75 0 1.416-.583 1.416-1.583 0-1.417-1.666-2.917-4.25-2.917-3.25 0-5.833 2.5-5.833 6.334 0 3.416 1.75 6.25 5.583 6.25 2.584 0 4.25-2.084 4.584-4.334h-.667M98.583 29.417c-.25 1.5-1.5 3.333-3.583 3.333-2 0-3-1.167-3-3.833V26.25c0-2.583.917-4.417 3.083-4.417 1.25 0 2 .667 2 1.167 0 .25-.166.417-.333.583-.167.25-.333.5-.333.834 0 .583.5 1.166 1.25 1.166S99.083 25 99.083 24c0-1.417-1.666-2.917-4.25-2.917-3.25 0-5.833 2.5-5.833 6.334 0 3.416 1.75 6.25 5.583 6.25 2.584 0 4.25-2.084 4.584-4.334l-.584.084zM42.167 29.333c-.334 1.667-1.584 3.417-3.5 3.417-1.917 0-3-1.25-3-3.583v-2.75h7.166c.167 0 .25-.084.25-.167v-.083-.417c0-1.75-1.583-4.583-5.083-4.583-3.083 0-5.25 3-5.25 6.25 0 3.916 2.333 6.25 5.417 6.25 2.416 0 4.25-1.75 4.75-4.334h-.75zM40.583 25.5c0 .083-.083.167-.166.167h-4.5v-.917c0-1.833.916-3 2.333-3 1.417 0 2.333 1.083 2.333 3v.75M17.5.667h.75c2.667 0 4.083 1.5 4.083 3.416 0 2.667-1.833 3.584-4 3.584H17.5v-7zm-2.667 15.666H13V17h7.333c2.5 0 5.5-1.417 5.5-4.75 0-2.667-2.333-4.083-4.666-4.167v-.166c2-.167 3.916-1.417 3.916-4.084 0-2.25-1.916-3.833-5.416-3.833H13v.583h1.833v15.75zM17.5 8.25h1.25c2.667 0 4.167 1.75 4.167 4 0 2.417-1.417 4.167-3.917 4.167h-1.5V8.25M26.917 11.917c0 3 2.083 5.5 5.166 5.5 3.084 0 5.167-2.5 5.167-5.5s-2.083-5.5-5.167-5.5c-3.083 0-5.166 2.416-5.166 5.5zm7.666.583c0 2.083-.25 4.167-2.583 4.167s-2.583-2.084-2.583-4.167v-1.25c0-2.083.166-4.167 2.583-4.167 2.417 0 2.583 2.084 2.583 4.167v1.25zM53.25 11.917c0 3 2.083 5.5 5.167 5.5 3 0 5.166-2.5 5.166-5.5s-2.083-5.5-5.166-5.5c-3.084 0-5.167 2.5-5.167 5.5zm7.583.583c0 2.083-.25 4.167-2.583 4.167s-2.583-2.084-2.583-4.167v-1.25c0-2.083.166-4.167 2.583-4.167 2.417 0 2.583 2.084 2.583 4.167v1.25z" transform="translate(-149.000000, -4475.000000) translate(149.000000, 4475.000000)"/>
                    <path d="M70.75 16.333h1.417v-7.25c0-1.25-.75-1.666-1.584-1.666-1.083 0-2.25 1.083-2.75 2.166v6.75h1.75V17h-6.166v-.667h1.916V7.5h-1.916v-.667h1.833c1.083 0 2 0 2.417-.5V8.25h.083c.917-1.167 2.25-2 3.75-2 2.333 0 3.167 1.667 3.167 3.083v7h1.416V17H70.75v-.667zM42.083 12.833c1.417.167 2 1 2 1.917 0 1.25-1 1.917-2.166 1.917-2.167 0-3-1.917-3.084-3.167h-.583l.083 3.75h.5c.084-.417.167-.5.417-.5.5 0 1.083.667 2.667.667 2.333 0 3.666-1.417 3.666-3.584 0-1.583-.916-2.916-2.833-3.25l-1.167-.166C40 10.167 39.5 9.667 39.5 8.75s.75-1.667 2.083-1.667c1.5 0 2.334.917 2.667 2.417h.5l-.083-3h-.5c0 .25-.167.417-.334.417-.416 0-1-.584-2.333-.584-1.833 0-3.167 1.25-3.167 3.084 0 2.25 1.5 3.083 3.084 3.333l.666.083M52.917 15.417c-.25.416-.75 1-1.5 1-.667 0-1.25-.25-1.25-1.25V7.5h2.75v-.667h-2.75v-3.5h-.5c-.417 2.417-1.75 3.5-3.75 3.5V7.5h1.75v7.667c0 1.666 1.166 2.333 2.833 2.333 1.5 0 2.333-.75 2.75-1.417l-.333-.666" transform="translate(-149.000000, -4475.000000) translate(149.000000, 4475.000000)"/>
                </g>
                <path fill="#CCC" d="M112 0H114V34H112z" transform="translate(-149.000000, -4475.000000) translate(149.000000, 4475.000000)"/>
                <text fill="#000" font-family="SST-Heavy, SST" font-size="21.24" font-weight="800" transform="translate(-149.000000, -4475.000000) translate(149.000000, 4475.000000)">
                    <tspan x="126" y="24">BSDS</tspan>
                </text>
            </g>
        </g>
    </g>
</svg>
