<?xml version="1.0" encoding="UTF-8"?>
<svg width="750px" height="150px" viewBox="0 0 750 150" version="1.1" xmlns="http://www.w3.org/2000/svg" xmlns:xlink="http://www.w3.org/1999/xlink">
    <title>WM_In_So_Logo_RGB</title>
    <g id="-" stroke="none" stroke-width="1" fill="none" fill-rule="evenodd">
        <g id="Artboard" transform="translate(-85.000000, -256.000000)" fill-rule="nonzero">
            <g id="WM_In_So_Logo_RGB" transform="translate(85.000000, 256.000000)">
                <g id="Group" transform="translate(0.000000, -0.000000)" fill="#E57200">
                    <path d="M71.2831309,97.5308642 L83.0342352,97.5308642 C85.0790309,97.5308642 85.4931668,96.9907407 86.03672,95.0874486 L104.336347,15.3034979 L109.383628,15.3034979 C111.299006,15.3034979 111.713142,14.8919753 111.713142,12.9886831 L111.713142,4.5781893 C111.713142,2.67489712 111.169589,2.26337449 109.383628,2.26337449 L92.1711071,2.26337449 C90.2557289,2.26337449 89.996894,2.5462963 89.7121756,4.29526749 L81.5071093,47.7109053 C80.1352844,55.1697531 78.9187604,66.4351852 78.3752071,73.3539095 L78.0904887,73.3539095 C77.262217,65.6121399 75.7609746,54.6296296 74.2597322,47.7109053 L64.7087245,5.09259259 C64.2945886,3.06069959 64.4240061,2.23765432 61.7062396,2.23765432 L52.5693678,2.23765432 C48.6091938,2.23765432 48.7386113,3.06069959 48.195058,5.09259259 L38.5146328,47.7109053 C36.8839729,54.6296296 34.9685947,65.6121399 34.140323,73.3539095 L33.8814881,73.3539095 C33.3379348,66.4351852 32.2249448,55.1697531 30.8790033,47.7109053 L22.6739371,4.29526749 C22.3892187,2.52057613 22.1303838,2.26337449 20.2150055,2.26337449 L2.32951408,2.26337449 C0.569436775,2.26337449 0,2.67489712 0,4.5781893 L0,12.9886831 C0,14.8919753 0.414135837,15.3034979 2.32951408,15.3034979 L7.37679459,15.3034979 L23.6316262,95.0874486 C24.1751795,96.9907407 24.5893153,97.5308642 26.634111,97.5308642 L38.3852154,97.5308642 C40.8441469,97.5308642 40.9994478,97.1193416 41.3877002,95.0874486 L52.4399503,48.4053498 C53.9411927,42.1553498 55.1577167,34.0277778 55.856571,24.9485597 L56.1412893,24.9485597 C56.8142601,33.899177 58.0566676,42.3096708 59.2731916,48.4053498 L68.2806461,95.0874486 C68.6947819,97.1193416 68.8241993,97.5308642 71.2831309,97.5308642 Z" id="Path"></path>
                    <path d="M138.191952,82.2016461 L133.688225,82.2016461 L136.69071,70.3960905 L160.167035,70.3960905 L163.298937,82.2016461 L158.924627,82.2016461 C156.595113,82.2016461 156.05156,82.6131687 156.05156,85.0565844 L156.05156,92.3868313 C156.05156,94.8302469 156.595113,95.2417695 158.924627,95.2417695 L187.318816,95.2417695 C189.64833,95.2417695 190.191883,94.8302469 190.191883,92.3868313 L190.191883,85.0565844 C190.191883,82.6131687 189.64833,82.2016461 187.318816,82.2016461 L182.685671,82.2016461 L159.364647,4.44958848 C158.821093,2.5462963 158.536375,2.26337449 156.362162,2.26337449 L142.152126,2.26337449 C139.848495,2.26337449 139.693194,2.5462963 139.149641,4.44958848 L115.25918,82.2016461 L111.169589,82.2016461 C108.840075,82.2016461 108.296521,82.6131687 108.296521,85.0565844 L108.296521,92.3868313 C108.296521,94.8302469 108.840075,95.2417695 111.169589,95.2417695 L138.191952,95.2417695 C140.521466,95.2417695 141.065019,94.8302469 141.065019,92.3868313 L141.065019,85.0565844 C141.065019,82.6131687 140.521466,82.2016461 138.191952,82.2016461 Z M144.740475,34.850823 C146.1123,29.4238683 147.328824,21.5534979 147.872377,15.8693416 L148.157096,15.8693416 C148.830066,21.5534979 149.658338,29.5781893 151.15958,34.850823 L156.750414,58.1790123 L138.735505,58.1790123 L144.740475,34.850823 Z" id="Shape"></path>
                    <path d="M247.161444,32.2530864 L255.211209,32.2530864 C256.99717,32.2530864 257.540723,31.867284 257.540723,29.9639918 L257.540723,4.5781893 C257.540723,2.67489712 256.99717,2.26337449 255.211209,2.26337449 L196.093319,2.26337449 C194.17794,2.26337449 193.763805,2.67489712 193.763805,4.5781893 L193.763805,29.9639918 C193.763805,31.867284 194.17794,32.2530864 196.093319,32.2530864 L204.143084,32.2530864 C205.929045,32.2530864 206.472598,31.867284 206.472598,29.9639918 L206.472598,16.9238683 L216.437742,16.9238683 L216.437742,82.2016461 L207.430287,82.2016461 C205.100773,82.2016461 204.55722,82.6131687 204.55722,85.0565844 L204.55722,92.3868313 C204.55722,94.8302469 205.100773,95.2417695 207.430287,95.2417695 L243.874241,95.2417695 C246.203755,95.2417695 246.747308,94.8302469 246.747308,92.3868313 L246.747308,85.0565844 C246.747308,82.6131687 246.203755,82.2016461 243.874241,82.2016461 L234.866786,82.2016461 L234.866786,16.9238683 L244.83193,16.9238683 L244.83193,29.9639918 C244.83193,31.867284 245.246066,32.2530864 247.161444,32.2530864 Z" id="Path"></path>
                    <path d="M329.496825,67.6954733 L319.402264,67.6954733 C317.486886,67.6954733 317.07275,68.2355967 317.07275,70.0102881 L317.07275,82.2273663 C314.613818,82.7674897 312.284304,82.8960905 309.825373,82.8960905 C293.570541,82.8960905 290.438639,69.1872428 290.438639,45.9876543 C290.438639,22.659465 296.055356,14.6347737 308.738266,14.6347737 C311.197198,14.6347737 313.656129,15.0462963 315.985643,15.8693416 L315.985643,27.1347737 C315.985643,29.0380658 316.399779,29.4495885 318.315157,29.4495885 L328.409718,29.4495885 C330.195679,29.4495885 330.739232,29.0380658 330.739232,27.1347737 L330.739232,8.95061728 C330.739232,3.93518519 317.357468,0 307.806461,0 C283.243029,0 271.077789,18.3127572 271.077789,49.5113169 C271.077789,82.0730453 282.95831,97.5308642 308.065295,97.5308642 C319.661099,97.5308642 331.826339,93.8786008 331.826339,89.6604938 L331.826339,69.9845679 C331.826339,68.2098765 331.412203,67.6954733 329.496825,67.6954733 Z" id="Path"></path>
                    <path d="M426.585795,2.28909465 L394.619685,2.28909465 C392.290171,2.28909465 391.746618,2.70061728 391.746618,5.14403292 L391.746618,12.4742798 C391.746618,14.9176955 392.290171,15.3292181 394.619685,15.3292181 L401.168208,15.3292181 L401.168208,39.8919753 L375.103534,39.8919753 L375.103534,15.3292181 L381.652057,15.3292181 C383.981571,15.3292181 384.525124,14.9176955 384.525124,12.4742798 L384.525124,5.14403292 C384.525124,2.70061728 383.981571,2.28909465 381.652057,2.28909465 L349.71183,2.28909465 C347.382316,2.28909465 346.838763,2.70061728 346.838763,5.14403292 L346.838763,12.4742798 C346.838763,14.9176955 347.382316,15.3292181 349.71183,15.3292181 L356.674489,15.3292181 L356.674489,82.2273663 L349.71183,82.2273663 C347.382316,82.2273663 346.838763,82.6388889 346.838763,85.0823045 L346.838763,92.4125514 C346.838763,94.8559671 347.382316,95.2674897 349.71183,95.2674897 L381.652057,95.2674897 C383.981571,95.2674897 384.525124,94.8559671 384.525124,92.4125514 L384.525124,85.0823045 C384.525124,82.6388889 383.981571,82.2273663 381.652057,82.2273663 L375.103534,82.2273663 L375.103534,54.5010288 L401.168208,54.5010288 L401.168208,82.1759259 L394.619685,82.1759259 C392.290171,82.1759259 391.746618,82.5874486 391.746618,85.0308642 L391.746618,92.3611111 C391.746618,94.8045267 392.290171,95.2160494 394.619685,95.2160494 L426.585795,95.2160494 C428.889426,95.2160494 429.432979,94.8045267 429.432979,92.3611111 L429.432979,85.0308642 C429.432979,82.5874486 428.889426,82.1759259 426.585795,82.1759259 L419.623136,82.1759259 L419.623136,15.3034979 L426.585795,15.3034979 C428.889426,15.3034979 429.432979,14.8919753 429.432979,12.4485597 L429.432979,5.11831276 C429.458863,2.70061728 428.889426,2.28909465 426.585795,2.28909465 Z" id="Path"></path>
                    <path d="M511.664826,24.6656379 L511.949544,24.6656379 C511.949544,29.5524691 512.208379,41.4866255 512.208379,46.3734568 L513.166068,82.2016461 L507.161099,82.2016461 C504.831585,82.2016461 504.288031,82.6131687 504.288031,85.0565844 L504.288031,92.3868313 C504.288031,94.8302469 504.831585,95.2417695 507.161099,95.2417695 L535.141151,95.2417695 C537.470665,95.2417695 538.014219,94.8302469 538.014219,92.3868313 L538.014219,85.0565844 C538.014219,82.6131687 537.470665,82.2016461 535.141151,82.2016461 L528.851463,82.2016461 L525.978396,15.3034979 L532.526919,15.3034979 C534.856433,15.3034979 535.399986,14.8919753 535.399986,12.4485597 L535.399986,5.11831276 C535.399986,2.67489712 534.856433,2.26337449 532.526919,2.26337449 L509.464729,2.26337449 C507.290516,2.26337449 507.135215,2.67489712 506.462245,4.44958848 L495.409994,38.6316872 C493.365199,45.1388889 492.40751,49.6141975 491.579238,54.9125514 L491.29452,54.9125514 C490.466248,49.6141975 489.508559,45.1388889 487.489647,38.6316872 L476.437396,4.44958848 C475.764426,2.67489712 475.609125,2.26337449 473.434912,2.26337449 L450.372722,2.26337449 C448.043208,2.26337449 447.499655,2.67489712 447.499655,5.11831276 L447.499655,12.4485597 C447.499655,14.8919753 448.043208,15.3034979 450.372722,15.3034979 L456.921245,15.3034979 L454.048178,82.2016461 L447.75849,82.2016461 C445.428976,82.2016461 444.885422,82.6131687 444.885422,85.0565844 L444.885422,92.3868313 C444.885422,94.8302469 445.428976,95.2417695 447.75849,95.2417695 L475.764426,95.2417695 C478.068056,95.2417695 478.637493,94.8302469 478.637493,92.3868313 L478.637493,85.0565844 C478.637493,82.6131687 478.09394,82.2016461 475.764426,82.2016461 L469.759456,82.2016461 L470.717145,46.3734568 C470.717145,41.4866255 471.001864,29.5524691 471.001864,24.6656379 L471.286582,24.6656379 C472.114854,29.5524691 474.573785,41.0751029 476.075028,45.9619342 L483.995375,72.4279835 C484.538929,74.3312757 484.668346,74.7427984 486.99786,74.7427984 L496.005315,74.7427984 C498.308945,74.7427984 498.464246,74.3312757 499.0078,72.4279835 L506.928147,45.9619342 C508.377623,41.0751029 510.836554,29.5524691 511.664826,24.6656379 Z" id="Path"></path>
                    <path d="M629.357054,92.3611111 L629.357054,85.0308642 C629.357054,82.5874486 628.813501,82.1759259 626.483987,82.1759259 L621.850842,82.1759259 L598.478051,4.42386831 C597.934498,2.52057613 597.649779,2.23765432 595.475566,2.23765432 L581.26553,2.23765432 C578.936016,2.23765432 578.806599,2.52057613 578.263045,4.42386831 L554.372584,82.1759259 L550.282993,82.1759259 C547.979362,82.1759259 547.409925,82.5874486 547.409925,85.0308642 L547.409925,92.3611111 C547.409925,94.8045267 547.953479,95.2160494 550.282993,95.2160494 L577.33124,95.2160494 C579.63487,95.2160494 580.204307,94.8045267 580.204307,92.3611111 L580.204307,85.0308642 C580.204307,82.5874486 579.660754,82.1759259 577.33124,82.1759259 L572.827512,82.1759259 L575.829997,70.3703704 L599.306322,70.3703704 L602.438225,82.1759259 L598.063915,82.1759259 C595.734401,82.1759259 595.190848,82.5874486 595.190848,85.0308642 L595.190848,92.3611111 C595.190848,94.8045267 595.734401,95.2160494 598.063915,95.2160494 L626.458103,95.2160494 C628.813501,95.2160494 629.357054,94.8045267 629.357054,92.3611111 Z M577.874793,58.1790123 L583.879763,34.850823 C585.251588,29.4238683 586.468112,21.5534979 587.011665,15.8693416 L587.296383,15.8693416 C587.969354,21.5534979 588.797626,29.5781893 590.298868,34.850823 L595.889702,58.1790123 L577.874793,58.1790123 Z" id="Shape"></path>
                    <path d="M719.198647,2.28909465 L689.717352,2.28909465 C687.387838,2.28909465 686.844285,2.70061728 686.844285,5.14403292 L686.844285,12.4742798 C686.844285,14.9176955 687.387838,15.3292181 689.717352,15.3292181 L696.550594,15.3292181 L696.550594,48.1738683 C696.550594,52.5205761 697.094147,61.4711934 697.094147,65.8179012 L696.809428,65.8179012 C695.178769,60.2623457 692.435119,53.3436214 688.604362,46.1419753 L665.956309,4.08950617 C665.128037,2.59773663 664.869202,2.31481481 662.824406,2.31481481 L641.807013,2.31481481 C639.477499,2.31481481 638.933945,2.72633745 638.933945,5.16975309 L638.933945,12.5 C638.933945,14.9434156 639.477499,15.3549383 641.807013,15.3549383 L648.769671,15.3549383 L648.769671,82.2530864 L641.807013,82.2530864 C639.477499,82.2530864 638.933945,82.6646091 638.933945,85.1080247 L638.933945,92.4382716 C638.933945,94.8816872 639.477499,95.2932099 641.807013,95.2932099 L671.288308,95.2932099 C673.617822,95.2932099 674.161375,94.8816872 674.161375,92.4382716 L674.161375,85.1080247 C674.161375,82.6646091 673.617822,82.2530864 671.288308,82.2530864 L664.455066,82.2530864 L664.455066,43.5185185 C664.455066,37.2942387 663.782096,33.0761317 663.782096,28.600823 L664.04093,28.600823 C666.629279,36.3425926 668.001104,39.5833333 672.090696,47.0421811 L697.223564,93.3127572 C698.051836,94.9331276 698.465972,95.2160494 700.355467,95.2160494 L709.362921,95.2160494 C711.821853,95.2160494 712.235988,94.8045267 712.235988,92.3611111 L712.235988,15.3034979 L719.198647,15.3034979 C721.528161,15.3034979 722.071715,14.8919753 722.071715,12.4485597 L722.071715,5.11831276 C722.071715,2.70061728 721.528161,2.28909465 719.198647,2.28909465 Z" id="Path"></path>
                    <g transform="translate(726.549558, 2.417695)" id="Path">
                        <polygon points="20.2150055 0 17.1089867 9.46502058 17.0572198 9.46502058 13.8735505 0 10.5863473 0 10.5863473 12.7314815 12.6570265 12.7314815 12.6570265 2.72633745 12.7087935 2.72633745 16.0736472 12.7314815 17.7819575 12.7314815 21.3279956 2.72633745 21.3797626 2.72633745 21.3797626 12.7314815 23.4504417 12.7314815 23.4504417 0"></polygon>
                        <polygon points="0 1.64609053 3.52015461 1.64609053 3.52015461 12.7314815 5.5649503 12.7314815 5.5649503 1.64609053 9.08510491 1.64609053 9.08510491 0 0 0"></polygon>
                    </g>
                </g>
                <g id="Group" transform="translate(108.658890, 126.331422)" fill="#6A737B">
                    <polygon id="Path" points="0 23.1284543 0 0.468989292 3.15778575 0.468989292 3.15778575 23.1284543"></polygon>
                    <polygon id="Path" points="28.1094699 0.468989292 28.1094699 23.1284543 24.1751795 23.1284543 12.631143 3.88977118 12.579376 3.88977118 12.579376 23.1284543 9.75807565 23.1284543 9.75807565 0.468989292 14.0806184 0.468989292 25.2105191 19.2189893 25.262286 19.2189893 25.262286 0.468989292"></polygon>
                    <polygon id="Path" points="40.2488266 3.16960658 32.6131971 3.16960658 32.6131971 0.468989292 51.0681253 0.468989292 51.0681253 3.16960658 43.4324959 3.16960658 43.4324959 23.1284543 40.2747101 23.1284543 40.2747101 3.16960658"></polygon>
                    <polygon id="Path" points="55.1577167 23.1284543 55.1577167 0.468989292 69.4712866 0.468989292 69.4712866 3.16960658 58.3155025 3.16960658 58.3155025 10.2426518 68.9277333 10.2426518 68.9277333 12.9432691 58.3155025 12.9432691 58.3155025 20.4535572 69.7301215 20.4535572 69.7301215 23.1541745 55.1577167 23.1541745"></polygon>
                    <path d="M90.4627968,6.12742551 C89.89336,3.42680822 87.512079,2.70664361 85.0790309,2.70664361 C79.4881971,2.70664361 77.4692849,7.56775472 77.5987024,11.8115819 C77.8575373,17.6243391 79.6176146,20.7879193 86.1661375,20.9165202 C87.7191469,20.9165202 89.2721563,20.6593185 90.7216317,20.1963555 L90.7216317,13.7920346 L85.5449337,13.7920346 L85.5449337,11.0914173 L93.8794174,11.0914173 L93.8794174,22.305409 C91.265185,23.1027341 88.625069,23.6171374 86.03672,23.6171374 C82.8012838,23.6171374 80.1870514,23.2056148 77.7022363,21.0194008 C75.1656543,18.8331868 74.2856157,15.0266025 74.2856157,11.8115819 C74.2856157,9.44532674 75.0880039,6.87331028 76.2527609,4.84141728 C78.2457896,1.39491522 81.5847598,0.00602632901 85.4672833,0.00602632901 C89.3239232,0.00602632901 93.5946991,1.75499752 93.7758835,6.12742551 L90.4627968,6.12742551 L90.4627968,6.12742551 Z" id="Path"></path>
                    <path d="M103.430425,12.8918288 L103.430425,23.1284543 L100.272639,23.1284543 L100.272639,0.468989292 L108.425939,0.468989292 C112.256695,0.468989292 116.190986,1.65211686 116.190986,6.15314567 C116.190986,8.87948312 114.560326,10.9885366 111.894326,11.6058206 L111.894326,11.6572609 C114.637976,12.3259852 115.026229,13.7663144 115.362714,16.3126107 C115.699199,18.5759852 115.958034,20.9936806 116.786306,23.1284543 L113.395569,23.1284543 C113.11085,21.7910058 112.722598,20.2992362 112.567297,18.9617876 C112.308462,16.9298946 112.308462,15.0780428 111.273123,13.9463555 C110.3672,12.917549 109.098909,12.9947095 107.830618,12.917549 L103.430425,12.917549 L103.430425,12.8918288 Z M103.352775,10.1912115 L108.555356,10.1912115 C112.049627,10.0368905 112.852015,8.46796049 112.852015,6.66754896 C112.852015,4.86713744 112.049627,3.2982074 108.555356,3.14388641 L103.352775,3.14388641 L103.352775,10.1912115 Z" id="Shape"></path>
                    <path d="M120.565295,23.1284543 L130.16807,0.468989292 L133.558807,0.468989292 L142.77333,23.1284543 L139.330826,23.1284543 L136.871894,17.2385366 L126.285547,17.2385366 L123.826615,23.1284543 L120.565295,23.1284543 Z M127.372653,14.5379193 L135.862438,14.5379193 L131.72108,3.58112921 L127.372653,14.5379193 Z" id="Shape"></path>
                    <polygon id="Path" points="149.710105 3.16960658 142.074475 3.16960658 142.074475 0.468989292 160.529404 0.468989292 160.529404 3.16960658 152.893774 3.16960658 152.893774 23.1284543 149.735988 23.1284543 149.735988 3.16960658"></polygon>
                    <polygon id="Path" points="164.618995 23.1284543 164.618995 0.468989292 178.932565 0.468989292 178.932565 3.16960658 167.776781 3.16960658 167.776781 10.2426518 178.389012 10.2426518 178.389012 12.9432691 167.776781 12.9432691 167.776781 20.4535572 179.1914 20.4535572 179.1914 23.1541745 164.618995 23.1541745"></polygon>
                    <path d="M184.601049,0.468989292 L192.184912,0.468989292 C194.307358,0.520429621 196.533338,0.700470773 198.371066,1.85787818 C201.684152,3.96693168 203.211278,7.51631439 203.211278,11.8115819 C203.211278,16.1068494 201.684152,19.6562321 198.371066,21.7652856 C196.533338,22.922693 194.307358,23.077014 192.184912,23.1541745 L184.601049,23.1541745 L184.601049,0.468989292 Z M187.758835,20.427837 L192.366096,20.427837 C195.549765,20.427837 197.258076,19.1418288 198.138114,17.8558206 C199.484056,15.9010881 199.872308,13.8949152 199.872308,11.7858617 C199.872308,9.67680822 199.484056,7.67063538 198.138114,5.71590287 C197.258076,4.42989464 195.549765,3.14388641 192.366096,3.14388641 L187.758835,3.14388641 L187.758835,20.427837 Z" id="Shape"></path>
                    <polygon id="Path" points="218.120168 23.1284543 218.120168 0.468989292 221.277954 0.468989292 221.277954 20.427837 231.890185 20.427837 231.890185 23.1284543"></polygon>
                    <path d="M235.151505,23.1284543 L244.754279,0.468989292 L248.145017,0.468989292 L257.359539,23.1284543 L253.917035,23.1284543 L251.458103,17.2385366 L240.871756,17.2385366 L238.412824,23.1284543 L235.151505,23.1284543 Z M241.958863,14.5379193 L250.448647,14.5379193 L246.307289,3.58112921 L241.958863,14.5379193 Z" id="Shape"></path>
                    <path d="M260.413791,23.1284543 L270.016565,0.468989292 L273.407303,0.468989292 L282.621825,23.1284543 L279.179321,23.1284543 L276.720389,17.2385366 L266.134042,17.2385366 L263.67511,23.1284543 L260.413791,23.1284543 Z M267.195265,14.5379193 L275.68505,14.5379193 L271.543691,3.58112921 L267.195265,14.5379193 Z" id="Shape"></path>
                    <path d="M299.730812,6.30746666 C299.575511,4.14697283 297.245997,2.70664361 294.890599,2.70664361 C289.273882,2.70664361 288.212659,7.82495637 288.212659,11.8115819 C288.212659,16.4926518 289.636251,20.9165202 294.605881,20.9165202 C297.038929,20.9165202 299.239025,19.7333926 299.627278,17.3156971 L302.940364,17.3156971 C302.629763,21.1222815 298.773123,23.6171374 294.321162,23.6171374 C287.591455,23.6171374 284.899572,18.1644625 284.899572,11.8115819 C284.899572,6.25602633 287.358504,-0.225455152 295.020017,0.00602632901 C299.42021,0.134627152 302.707413,2.26940081 303.043898,6.30746666 L299.730812,6.30746666 Z" id="Path"></path>
                    <path d="M319.842283,16.518372 C319.89405,19.7333926 321.757662,20.9165202 324.837797,20.9165202 C327.426146,20.9165202 330.583932,20.1706354 330.583932,16.981335 C330.583932,14.795121 328.746204,13.8691951 326.856709,13.5091127 C323.103603,12.6860675 316.839798,11.837302 316.839798,6.77042962 C316.839798,1.83215802 321.369409,0.0317464936 325.614301,0.0317464936 C329.496825,0.0317464936 333.327581,1.75499752 333.327581,6.15314567 L330.014495,6.15314567 C329.885077,3.60684937 327.736748,2.73236378 325.459001,2.73236378 C323.207137,2.73236378 320.152885,3.55540905 320.152885,6.25602633 C320.152885,8.82804279 321.990613,8.98236378 323.983642,9.62536789 C328.176767,10.9628165 333.897018,10.9628165 333.897018,16.6984132 C333.897018,21.8424461 329.263874,23.6685778 324.630729,23.6685778 C319.868167,23.6685778 316.373896,21.6624049 316.503313,16.5698123 L319.842283,16.5698123 L319.842283,16.518372 Z" id="Path"></path>
                    <path d="M348.780025,0.00602632901 C355.897985,0.00602632901 359.211071,5.17577942 359.211071,11.8115819 C359.211071,18.4473844 355.897985,23.6171374 348.780025,23.6171374 C341.662065,23.6171374 338.348978,18.4473844 338.348978,11.8115819 C338.348978,5.17577942 341.662065,0.00602632901 348.780025,0.00602632901 Z M348.780025,20.9165202 C354.552043,20.9165202 355.897985,16.518372 355.897985,11.8115819 C355.897985,6.97619094 354.577927,2.70664361 348.780025,2.70664361 C343.008007,2.70664361 341.662065,6.97619094 341.662065,11.8115819 C341.662065,16.518372 342.982123,20.9165202 348.780025,20.9165202 Z" id="Shape"></path>
                    <polygon id="Path" points="364.801905 23.1284543 364.801905 0.468989292 367.959691 0.468989292 367.959691 20.427837 378.571922 20.427837 378.571922 23.1284543"></polygon>
                    <path d="M400.935257,14.1521169 C401.038791,19.9905942 397.932772,23.5914173 391.746618,23.5914173 C385.560464,23.5914173 382.454445,19.9905942 382.557979,14.1521169 L382.557979,0.468989292 L385.715765,0.468989292 L385.715765,14.9237218 C385.819299,18.8074667 388.148813,20.9165202 391.746618,20.9165202 C395.344423,20.9165202 397.673937,18.8074667 397.777471,14.9237218 L397.777471,0.468989292 L400.935257,0.468989292 L400.935257,14.1521169 Z" id="Path"></path>
                    <polygon id="Path" points="413.074613 3.16960658 405.438984 3.16960658 405.438984 0.468989292 423.893912 0.468989292 423.893912 3.16960658 416.258283 3.16960658 416.258283 23.1284543 413.100497 23.1284543 413.100497 3.16960658"></polygon>
                    <polygon id="Path" points="428.216455 23.1284543 428.216455 0.468989292 431.374241 0.468989292 431.374241 23.1284543"></polygon>
                    <path d="M447.31847,0.00602632901 C454.43643,0.00602632901 457.749517,5.17577942 457.749517,11.8115819 C457.749517,18.4473844 454.43643,23.6171374 447.31847,23.6171374 C440.200511,23.6171374 436.887424,18.4473844 436.887424,11.8115819 C436.887424,5.17577942 440.226394,0.00602632901 447.31847,0.00602632901 Z M447.31847,20.9165202 C453.090489,20.9165202 454.43643,16.518372 454.43643,11.8115819 C454.43643,6.97619094 453.116372,2.70664361 447.31847,2.70664361 C441.546452,2.70664361 440.200511,6.97619094 440.200511,11.8115819 C440.226394,16.518372 441.546452,20.9165202 447.31847,20.9165202 Z" id="Shape"></path>
                    <polygon id="Path" points="481.769395 0.468989292 481.769395 23.1284543 477.860988 23.1284543 466.316952 3.88977118 466.265185 3.88977118 466.265185 23.1284543 463.443885 23.1284543 463.443885 0.468989292 467.766427 0.468989292 478.896328 19.2189893 478.948095 19.2189893 478.948095 0.468989292"></polygon>
                    <path d="M490.750966,16.518372 C490.802733,19.7333926 492.692228,20.9165202 495.74648,20.9165202 C498.334829,20.9165202 501.492615,20.1706354 501.492615,16.981335 C501.492615,14.795121 499.654887,13.8691951 497.765392,13.5091127 C494.012286,12.6860675 487.748482,11.837302 487.748482,6.77042962 C487.748482,1.83215802 492.278092,0.0317464936 496.522985,0.0317464936 C500.405508,0.0317464936 504.236264,1.75499752 504.236264,6.15314567 L500.923178,6.15314567 C500.79376,3.60684937 498.645431,2.73236378 496.367684,2.73236378 C494.11582,2.73236378 491.061568,3.55540905 491.061568,6.25602633 C491.061568,8.82804279 492.899296,8.98236378 494.892325,9.62536789 C499.08545,10.9628165 504.805701,10.9628165 504.805701,16.6984132 C504.805701,21.8424461 500.172557,23.6685778 495.539412,23.6685778 C490.77685,23.6685778 487.282579,21.6624049 487.411996,16.5698123 L490.750966,16.5698123 L490.750966,16.518372 Z" id="Path"></path>
                </g>
            </g>
        </g>
    </g>
</svg>