<svg xmlns="http://www.w3.org/2000/svg" xmlns:xlink="http://www.w3.org/1999/xlink" viewBox="0 0 400 110" height="34px" width="124px"><defs><linearGradient id="a" x1="-242.8" y1="468.43" x2="716.57" y2="-228.6" gradientUnits="userSpaceOnUse"><stop offset="0.25"/><stop offset="0.67" stop-color="#012965"/></linearGradient><linearGradient id="b" x1="-261.88" y1="442.16" x2="697.49" y2="-254.86" xlink:href="#a"/><linearGradient id="c" x1="-285.38" y1="409.82" x2="673.99" y2="-287.2" xlink:href="#a"/><linearGradient id="d" x1="-304.89" y1="382.97" x2="654.48" y2="-314.06" xlink:href="#a"/><linearGradient id="e" x1="-315.43" y1="368.46" x2="643.94" y2="-328.56" xlink:href="#a"/><linearGradient id="f" x1="-339" y1="336.03" x2="620.38" y2="-361" xlink:href="#a"/><linearGradient id="g" x1="-356.21" y1="312.33" x2="603.16" y2="-384.7" xlink:href="#a"/></defs><polygon points="354.98 104.42 355.07 104.42 358.38 87.49 367.49 87.49 367.49 109.63 362.38 109.63 362.38 92.11 362.32 92.11 358.32 109.63 351.57 109.63 347.55 92.11 347.49 92.11 347.49 109.63 342.56 109.63 342.56 87.49 351.6 87.49 354.98 104.42"/><polygon points="316.75 87.49 330.65 87.49 330.65 91.8 322.17 91.8 322.17 96.2 329.94 96.2 329.94 100.51 322.17 100.51 322.17 105.32 330.93 105.32 330.93 109.63 316.75 109.63 316.75 87.49"/><polygon points="295.58 91.8 290.1 91.8 290.1 87.49 306.42 87.49 306.42 91.8 301 91.8 301 109.63 295.58 109.63 295.58 91.8"/><path d="M278.7,92.14a14.08,14.08,0,0,0-2.35-.54,17.06,17.06,0,0,0-2.29-.17,7.66,7.66,0,0,0-1.19.09,3.51,3.51,0,0,0-1,.3,1.6,1.6,0,0,0-.67.56,1.51,1.51,0,0,0-.25.91,1.92,1.92,0,0,0,1,1.58,17.29,17.29,0,0,0,3,1.46c.86.37,1.65.75,2.36,1.13a9,9,0,0,1,1.92,1.36,5.21,5.21,0,0,1,1.3,1.88,6.76,6.76,0,0,1,.45,2.6,6,6,0,0,1-.68,2.93,6,6,0,0,1-1.86,2.1,8.59,8.59,0,0,1-2.7,1.25,12.53,12.53,0,0,1-3.3.42,27.09,27.09,0,0,1-3.35-.23,21,21,0,0,1-3.47-.76l.87-4.34a18.87,18.87,0,0,0,3,.77,15.57,15.57,0,0,0,2.65.25,4.78,4.78,0,0,0,2.58-.53,1.68,1.68,0,0,0,.82-1.52,1.82,1.82,0,0,0-.21-.88,2.55,2.55,0,0,0-.67-.74,6.11,6.11,0,0,0-1.17-.7c-.49-.23-1.09-.49-1.82-.78a19,19,0,0,1-2.36-1.1,9.45,9.45,0,0,1-2-1.39A6,6,0,0,1,266,96.24a5.6,5.6,0,0,1-.48-2.39,6.46,6.46,0,0,1,.7-3.09,5.67,5.67,0,0,1,1.87-2.1,8.5,8.5,0,0,1,2.6-1.17,11.84,11.84,0,0,1,2.91-.37,25.42,25.42,0,0,1,3.21.19,15.2,15.2,0,0,1,2.74.56Z"/><polygon points="243.37 101.51 235.19 87.49 241.51 87.49 246.12 96.36 250.68 87.49 256.9 87.49 248.79 101.51 248.79 109.63 243.37 109.63 243.37 101.51"/><path d="M223.94,92.14a14.43,14.43,0,0,0-2.36-.54,16.94,16.94,0,0,0-2.29-.17,7.66,7.66,0,0,0-1.19.09,3.72,3.72,0,0,0-1,.3,1.67,1.67,0,0,0-.67.56,1.58,1.58,0,0,0-.25.91,1.92,1.92,0,0,0,1,1.58,17.29,17.29,0,0,0,3,1.46c.87.37,1.66.75,2.37,1.13a9.49,9.49,0,0,1,1.92,1.36,5.34,5.34,0,0,1,1.3,1.88,6.76,6.76,0,0,1,.45,2.6,6.07,6.07,0,0,1-.68,2.93,6.25,6.25,0,0,1-1.86,2.1,8.75,8.75,0,0,1-2.71,1.25,12.43,12.43,0,0,1-3.3.42,26.93,26.93,0,0,1-3.34-.23,20.57,20.57,0,0,1-3.47-.76l.86-4.34a19.15,19.15,0,0,0,3,.77,15.67,15.67,0,0,0,2.65.25,4.84,4.84,0,0,0,2.59-.53,1.84,1.84,0,0,0,.6-2.4,2.5,2.5,0,0,0-.66-.74,6.22,6.22,0,0,0-1.18-.7c-.49-.23-1.09-.49-1.81-.78a18.5,18.5,0,0,1-2.37-1.1,9.12,9.12,0,0,1-1.95-1.39,5.85,5.85,0,0,1-1.33-1.81,5.6,5.6,0,0,1-.48-2.39,6.58,6.58,0,0,1,.69-3.09,5.7,5.7,0,0,1,1.88-2.1,8.39,8.39,0,0,1,2.6-1.17,11.84,11.84,0,0,1,2.91-.37,25.37,25.37,0,0,1,3.2.19,15.2,15.2,0,0,1,2.74.56Z"/><polygon points="178.54 104.36 178.6 104.36 178.6 87.49 183.65 87.49 183.65 109.63 175.56 109.63 169.93 92.45 169.87 92.45 169.87 109.63 164.82 109.63 164.82 87.49 173.24 87.49 178.54 104.36"/><path d="M150.45,92.7a5.58,5.58,0,0,0-1-.49,12.93,12.93,0,0,0-1.28-.41,13.94,13.94,0,0,0-1.46-.28,10.58,10.58,0,0,0-1.24-.09,8,8,0,0,0-2.78.47,6,6,0,0,0-2.19,1.36,6.1,6.1,0,0,0-1.42,2.28,9.24,9.24,0,0,0-.51,3.21,8.79,8.79,0,0,0,.41,2.71,6.51,6.51,0,0,0,1.24,2.2,5.75,5.75,0,0,0,2,1.49,6.94,6.94,0,0,0,2.83.54,8.38,8.38,0,0,0,2-.19v-4.83h-3.28V96.36h8.7v12.15a15.36,15.36,0,0,1-3.74,1.13,23.46,23.46,0,0,1-4.12.36,13.18,13.18,0,0,1-4.82-.84,10,10,0,0,1-5.93-5.92,12.71,12.71,0,0,1-.8-4.59,12.93,12.93,0,0,1,.79-4.61,10.08,10.08,0,0,1,2.32-3.65,10.61,10.61,0,0,1,3.87-2.4,15.16,15.16,0,0,1,5.31-.87,17.67,17.67,0,0,1,3.31.33,13.84,13.84,0,0,1,3.13.94Z"/><path d="M116.17,87.49h5.42v22.14h-5.42Z"/><path d="M102.58,92.14a14.08,14.08,0,0,0-2.35-.54,16.94,16.94,0,0,0-2.29-.17,7.66,7.66,0,0,0-1.19.09,3.72,3.72,0,0,0-1,.3,1.67,1.67,0,0,0-.67.56,1.58,1.58,0,0,0-.25.91,1.92,1.92,0,0,0,1,1.58,17.29,17.29,0,0,0,3,1.46c.86.37,1.65.75,2.37,1.13a9.49,9.49,0,0,1,1.92,1.36,5.47,5.47,0,0,1,1.3,1.88,6.76,6.76,0,0,1,.45,2.6,6,6,0,0,1-.69,2.93,6.11,6.11,0,0,1-1.85,2.1,8.75,8.75,0,0,1-2.71,1.25,12.48,12.48,0,0,1-3.3.42,27.22,27.22,0,0,1-3.35-.23,20.67,20.67,0,0,1-3.46-.76l.86-4.34a19.15,19.15,0,0,0,3,.77,15.67,15.67,0,0,0,2.65.25,4.84,4.84,0,0,0,2.59-.53,1.7,1.7,0,0,0,.82-1.52,1.82,1.82,0,0,0-.22-.88,2.41,2.41,0,0,0-.67-.74,6.11,6.11,0,0,0-1.17-.7c-.49-.23-1.09-.49-1.81-.78a18.5,18.5,0,0,1-2.37-1.1,9.12,9.12,0,0,1-2-1.39,5.88,5.88,0,0,1-1.34-1.81,5.6,5.6,0,0,1-.48-2.39,6.58,6.58,0,0,1,.7-3.09A5.76,5.76,0,0,1,92,88.66a8.56,8.56,0,0,1,2.61-1.17,11.78,11.78,0,0,1,2.91-.37,25.37,25.37,0,0,1,3.2.19,15.2,15.2,0,0,1,2.74.56Z"/><polygon points="64.67 87.49 78.57 87.49 78.57 91.8 70.08 91.8 70.08 96.2 77.86 96.2 77.86 100.51 70.08 100.51 70.08 105.32 78.85 105.32 78.85 109.63 64.67 109.63 64.67 87.49"/><path d="M52.39,93.83a9,9,0,0,0-2.12-3.44,9.1,9.1,0,0,0-3.55-2.15,14.69,14.69,0,0,0-4.89-.75H33.69v22.14h8.14a14.21,14.21,0,0,0,4.91-.78,9.1,9.1,0,0,0,3.53-2.24,9.55,9.55,0,0,0,2.12-3.55,14.18,14.18,0,0,0,.71-4.65A13.68,13.68,0,0,0,52.39,93.83Zm-5.06,7.43a5.67,5.67,0,0,1-1.16,2.15,5.33,5.33,0,0,1-2.06,1.41,8.36,8.36,0,0,1-3,.5h-2V91.8h2a8.36,8.36,0,0,1,3,.5,5.34,5.34,0,0,1,2,1.38,5.53,5.53,0,0,1,1.16,2.12,9.44,9.44,0,0,1,.37,2.73A10.2,10.2,0,0,1,47.33,101.26Z"/><polygon points="374.42 21.9 363.47 0.88 348.48 0.88 367.88 34.1 367.88 53.36 380.74 53.36 380.74 34.1 400 0.88 385.23 0.88 374.42 21.9" style="fill:url(#a)"/><polygon points="309.48 41.01 309.26 41.01 301.25 0.88 279.79 0.88 279.79 53.36 291.48 53.36 291.48 11.83 291.62 11.83 301.18 53.36 317.2 53.36 326.68 11.83 326.83 11.83 326.83 53.36 338.96 53.36 338.96 0.88 317.35 0.88 309.48 41.01" style="fill:url(#b)"/><path d="M265,16.21a24.28,24.28,0,0,0-4.85-8.57A22,22,0,0,0,252.26,2a30.39,30.39,0,0,0-21.79,0,21.59,21.59,0,0,0-7.94,5.7,24.64,24.64,0,0,0-4.81,8.6,34.63,34.63,0,0,0-1.62,10.87A34.24,34.24,0,0,0,217.75,38a24.48,24.48,0,0,0,4.85,8.56,22.13,22.13,0,0,0,7.91,5.62,27.06,27.06,0,0,0,10.8,2,27.54,27.54,0,0,0,10.91-2,22,22,0,0,0,7.94-5.62A24.32,24.32,0,0,0,265,38a34,34,0,0,0,1.66-10.85A34.33,34.33,0,0,0,265,16.21Zm-11.9,17.53a17,17,0,0,1-2.21,5.36A10.51,10.51,0,0,1,247,42.74a12.65,12.65,0,0,1-11.21,0,10.77,10.77,0,0,1-3.89-3.64,17,17,0,0,1-2.24-5.32,27.59,27.59,0,0,1-.74-6.55,29,29,0,0,1,.74-6.65,16.5,16.5,0,0,1,2.24-5.4,10.74,10.74,0,0,1,9.37-4.92,11.25,11.25,0,0,1,5.59,1.32,11.44,11.44,0,0,1,3.89,3.6,16.12,16.12,0,0,1,2.28,5.4,29,29,0,0,1,.73,6.65A29.32,29.32,0,0,1,253.11,33.74Z" style="fill:url(#c)"/><polygon points="171.96 11.1 184.97 11.1 184.97 53.36 197.83 53.36 197.83 11.1 210.69 11.1 210.69 0.88 171.96 0.88 171.96 11.1" style="fill:url(#d)"/><path d="M154.13.88H136.42L118.05,53.36h13.67L135.54,42h19l4,11.39h13.82ZM138.55,31.75,145.17,11l6.46,20.8Z" style="fill:url(#e)"/><polygon points="96.54 40.87 96.4 40.87 83.83 0.88 63.84 0.88 63.84 53.36 75.82 53.36 75.82 12.64 75.96 12.64 89.34 53.36 108.52 53.36 108.52 0.88 96.54 0.88 96.54 40.87" style="fill:url(#f)"/><path d="M36.09.88H18.37L0,53.36H13.67L17.49,42h19l4,11.39H54.31ZM20.51,31.75,27.12,11l6.47,20.8Z" style="fill:url(#g)"/></svg>