<?xml version="1.0" standalone="no"?>
<!DOCTYPE svg PUBLIC "-//W3C//DTD SVG 20010904//EN"
 "http://www.w3.org/TR/2001/REC-SVG-20010904/DTD/svg10.dtd">
<svg version="1.0" xmlns="http://www.w3.org/2000/svg"
 width="700.000000pt" height="700.000000pt" viewBox="0 0 700.000000 700.000000"
 preserveAspectRatio="xMidYMid meet">
<metadata>
Created by potrace 1.14, written by Peter Selinger 2001-2017
</metadata>
<g transform="translate(0.000000,700.000000) scale(0.100000,-0.100000)"
fill="#000000" stroke="none">
<path d="M0 3500 l0 -3500 3500 0 3500 0 0 3500 0 3500 -3500 0 -3500 0 0
-3500z m4253 2018 c53 -153 1397 -4159 1397 -4164 0 -2 -246 -4 -548 -4 l-547
0 -155 465 -155 465 -757 0 -757 0 -15 -53 c-9 -28 -76 -236 -149 -462 l-134
-410 -541 -3 c-298 -1 -542 0 -542 2 0 3 632 1873 1372 4059 l80 237 703 0
702 0 46 -132z"/>
<path d="M3491 4818 c-1 -4 -116 -383 -256 -844 -140 -460 -255 -841 -255
-846 0 -4 230 -8 511 -8 l511 0 -6 26 c-15 60 -487 1641 -495 1659 -6 11 -10
17 -10 13z"/>
</g>
</svg>
