<?xml version="1.0" standalone="no"?>
<!DOCTYPE svg PUBLIC "-//W3C//DTD SVG 1.1//EN" "http://www.w3.org/Graphics/SVG/1.1/DTD/svg11.dtd" >
<svg xmlns="http://www.w3.org/2000/svg" xmlns:xlink="http://www.w3.org/1999/xlink" version="1.1">
<metadata>
Created by FontForge 20170910 at Mon Mar 27 16:00:58 2017
 By Jimmy Wärting
Copyright (c) 2012-2017 Monotype GmbH. All rights reserved.
</metadata>
<defs>
<font id="SST-Bold" horiz-adv-x="385" >
  <font-face 
    font-family="SST"
    font-weight="700"
    font-stretch="normal"
    units-per-em="1000"
    panose-1="2 11 8 4 3 5 4 2 2 4"
    ascent="770"
    descent="-230"
    x-height="528"
    cap-height="714"
    bbox="-251 -219 1164 949"
    underline-thickness="50"
    underline-position="-100"
    unicode-range="U+0020-FEFF"
  />
<missing-glyph horiz-adv-x="512" 
d="M222 117v67h56v-67h-56zM225 234l-2 17q0 56 13 81q7 13 18 27.5t28 31.5q16 15 26 26.5t15 21t7 18t2 17.5q0 36 -22.5 60.5t-53.5 24.5t-53.5 -22t-28.5 -73l-50 8q7 72 44 104.5t91 32.5t89 -35.5t35 -95.5q0 -32 -12.5 -58.5t-50.5 -61.5q-37 -33 -43 -52
q-6 -20 -6 -72h-46zM462 50v617h-412v-617h412zM512 718v-718h-512v718h512z" />
    <glyph glyph-name="napostrophe" unicode="&#x22;n" horiz-adv-x="632" 
d="M209 528v-71h2q20 40 64.5 61.5t95.5 21.5q45 0 81 -13.5t61.5 -39t39 -61t13.5 -78.5v-348h-142v295q0 32 -4.5 58.5t-15.5 43.5t-30 26.5t-48 9.5q-21 0 -40.5 -7.5t-36.5 -25t-27 -46t-10 -68.5v-286h-142v528h139zM82 604h-79l15 164h99z" />
    <glyph glyph-name="IJ" unicode="IJ" horiz-adv-x="671" 
d="M79 714h146v-714h-146v714zM579 179q0 -97 -51 -144t-158 -47q-21 0 -43 1.5t-39 3.5v117q14 -2 31 -3.5t28 -1.5q43 0 64 19.5t22 68.5v521h146v-535z" />
    <glyph glyph-name="fi" unicode="fi" horiz-adv-x="623" 
d="M514 619q-35 4 -71 6.5t-79 2.5q-69 0 -100 -18t-31 -68v-14h319v-528h-142v421h-177v-421h-142v421h-85v107h85v24q0 97 70 140t194 43q49 0 93 -3.5t73 -8.5z" />
    <glyph glyph-name="fl" unicode="fl" horiz-adv-x="623" 
d="M552 0h-142v625q-27 3 -61 3q-24 0 -45.5 -3.5t-37 -13t-24.5 -25.5t-9 -41v-17h111v-107h-111v-421h-142v421h-85v107h85v38q0 76 61 122.5t190 46.5q51 0 108 -5t102 -11v-719z" />
    <glyph glyph-name="ij" unicode="ij" horiz-adv-x="570" 
d="M212 528v-528h-142v528h142zM212 732v-123h-142v123h142zM498 -24q0 -39 -9 -70.5t-30 -54t-56.5 -34.5t-87.5 -12q-16 0 -34 1t-34 3v107q14 -2 24.5 -3t20.5 -1q35 0 49.5 17.5t14.5 63.5v535h142v-552zM498 732v-123h-142v123h142z" />
    <glyph glyph-name="ffl" unicode="ffl" horiz-adv-x="947" 
d="M370 622q-15 3 -31.5 4.5t-28.5 1.5q-41 0 -59.5 -17.5t-18.5 -58.5v-24h183v37q0 76 61 123t190 47q53 0 109.5 -5.5t101.5 -11.5v-718h-143v624q-14 2 -29 3t-32 1q-24 0 -45 -4t-36.5 -13.5t-24.5 -25.5t-9 -40v-17h110v-107h-110v-421h-143v421h-183v-421h-141v421
h-86v107h86v34q0 38 10 70t33 55t61.5 35.5t95.5 12.5q22 0 45 -2.5t43 -6.5z" />
    <glyph glyph-name="ffi" unicode="ffi" horiz-adv-x="947" 
d="M370 622q-15 3 -31.5 4.5t-28.5 1.5q-41 0 -59.5 -17.5t-18.5 -58.5v-24h183v24q0 97 70 140t195 43q49 0 92.5 -3.5t72.5 -8.5l-6 -105q-32 5 -70 7.5t-80 2.5q-69 0 -100 -18.5t-31 -68.5v-13h319v-528h-143v421h-176v-421h-143v421h-183v-421h-141v421h-86v107h86v34
q0 38 10 70t33 55t61.5 35.5t95.5 12.5q22 0 45 -2.5t43 -6.5z" />
    <glyph glyph-name="ff" unicode="ff" horiz-adv-x="674" 
d="M695 622q-15 4 -31.5 5t-28.5 1q-40 0 -58.5 -17.5t-18.5 -57.5v-25h111v-107h-111v-421h-142v421h-183v-421h-142v421h-85v107h85v35q0 38 10 69.5t33.5 54.5t61.5 35.5t95 12.5q22 0 45 -2t44 -6l-10 -105q-15 4 -31.5 5t-28.5 1q-40 0 -58.5 -17.5t-18.5 -57.5v-25
h183v35q0 38 10 69.5t33.5 54.5t61.5 35.5t95 12.5q45 0 88 -8z" />
    <glyph glyph-name=".notdef" horiz-adv-x="512" 
d="M222 117v67h56v-67h-56zM225 234l-2 17q0 56 13 81q7 13 18 27.5t28 31.5q16 15 26 26.5t15 21t7 18t2 17.5q0 36 -22.5 60.5t-53.5 24.5t-53.5 -22t-28.5 -73l-50 8q7 72 44 104.5t91 32.5t89 -35.5t35 -95.5q0 -32 -12.5 -58.5t-50.5 -61.5q-37 -33 -43 -52
q-6 -20 -6 -72h-46zM462 50v617h-412v-617h412zM512 718v-718h-512v718h512z" />
    <glyph glyph-name=".null" horiz-adv-x="0" 
 />
    <glyph glyph-name=".null" horiz-adv-x="0" 
 />
    <glyph glyph-name="nonmarkingreturn" horiz-adv-x="0" 
 />
    <glyph glyph-name="space" unicode=" " horiz-adv-x="260" 
 />
    <glyph glyph-name="exclam" unicode="!" horiz-adv-x="317" 
d="M222 248h-126l-19 466h164zM80 151h153v-151h-153v151z" />
    <glyph glyph-name="quotedbl" unicode="&#x22;" horiz-adv-x="449" 
d="M64 736h135l-25 -245h-86zM250 736h134l-24 -245h-85z" />
    <glyph glyph-name="numbersign" unicode="#" horiz-adv-x="605" 
d="M96 0l26 188h-92v101h106l18 136h-106v101h120l26 188h111l-27 -188h105l26 188h110l-26 -188h81v-101h-95l-18 -136h93v-101h-107l-26 -188h-111l27 188h-104l-27 -188h-110zM246 289h105l19 136h-106z" />
    <glyph glyph-name="dollar" unicode="$" horiz-adv-x="569" 
d="M453 573q-29 11 -63.5 17.5t-66.5 8.5v-183q43 -17 78.5 -36t60.5 -43t38.5 -56.5t13.5 -77.5q0 -44 -15.5 -78t-43 -59t-64 -40t-78.5 -20v-84h-70v81q-45 2 -95 10.5t-95 25.5l26 112q42 -17 82 -26.5t82 -11.5v195q-42 16 -76.5 35.5t-59 43.5t-37.5 54.5t-13 69.5
q0 46 16.5 81t44 59t61.5 37.5t75 18.5v76h69v-74q43 -2 82.5 -8.5t72.5 -18.5zM381 197q0 29 -16.5 48.5t-51.5 36.5v-167q67 12 68 82zM185 524q0 -29 15.5 -47.5t53.5 -35.5v157q-31 -6 -50 -25t-19 -49z" />
    <glyph glyph-name="percent" unicode="%" horiz-adv-x="848" 
d="M268 0h-102l419 714h99zM357 519q0 -92 -41 -143.5t-116 -51.5q-73 0 -114.5 52t-41.5 143q0 92 41.5 144.5t114.5 52.5q77 -1 117 -53t40 -144zM251 519q0 45 -12.5 75.5t-38.5 30.5q-25 -1 -37 -30t-12 -76q0 -45 12 -74.5t37 -30.5q26 1 38.5 30.5t12.5 74.5zM805 195
q0 -91 -41.5 -143t-116.5 -52q-73 0 -114.5 52t-41.5 143q0 92 41.5 144.5t114.5 52.5q75 0 116.5 -52.5t41.5 -144.5zM697 195q0 47 -12.5 76.5t-37.5 29.5q-24 0 -36.5 -29.5t-12.5 -76.5q0 -46 12 -75.5t37 -29.5t37.5 29.5t12.5 75.5z" />
    <glyph glyph-name="ampersand" unicode="&#x26;" horiz-adv-x="730" 
d="M388 552q0 32 -18.5 51.5t-50.5 19.5q-34 0 -53.5 -21t-19.5 -53q0 -28 14 -53t40 -48q41 17 64.5 41.5t23.5 62.5zM257 317q-37 -17 -57.5 -44.5t-20.5 -66.5q0 -46 29 -72.5t74 -26.5q38 0 65 15t45 40zM706 0h-176l-58 69q-32 -38 -81 -59t-115 -21q-48 0 -90 12.5
t-74.5 38t-51 63.5t-18.5 87q0 75 38 125.5t105 81.5q-38 39 -54.5 75t-16.5 78q0 47 18 80.5t47 54.5t65.5 31t74.5 10t73.5 -9t63.5 -29t44.5 -52t16.5 -78q0 -64 -38.5 -111t-103.5 -77l97 -108q6 10 13 24t14 29.5t14 32t12 31.5h146q-10 -24 -23.5 -52.5t-27.5 -57
t-29.5 -55t-28.5 -47.5z" />
    <glyph glyph-name="quotesingle" unicode="'" horiz-adv-x="263" 
d="M64 736h135l-25 -245h-86z" />
    <glyph glyph-name="parenleft" unicode="(" horiz-adv-x="333" 
d="M166 302q0 -133 34.5 -262t98.5 -235h-129q-28 47 -52 103t-41.5 119t-27 132.5t-9.5 142.5q1 147 36.5 273.5t93.5 221.5h129q-32 -53 -56.5 -112t-42 -122.5t-26 -129.5t-8.5 -131z" />
    <glyph glyph-name="parenright" unicode=")" horiz-adv-x="333" 
d="M167 299q0 133 -35 262t-98 235h128q29 -47 52.5 -103t41 -119t27 -132.5t9.5 -142.5q-1 -147 -36 -273.5t-94 -221.5h-128q31 52 56 111.5t42 123t26 129.5t9 131z" />
    <glyph glyph-name="asterisk" unicode="*" horiz-adv-x="444" 
d="M268 596l109 41l33 -87l-111 -37l72 -104l-76 -51l-74 107l-73 -107l-75 51l72 104l-111 37l33 87l109 -41v118h92v-118z" />
    <glyph glyph-name="plus" unicode="+" horiz-adv-x="553" 
d="M224 264h-189v100h189v190h104v-190h189v-100h-189v-195h-104v195z" />
    <glyph glyph-name="comma" unicode="," horiz-adv-x="305" 
d="M95 156h146l-89 -284h-98z" />
    <glyph glyph-name="hyphen" unicode="-" horiz-adv-x="396" 
d="M69 358h258v-115h-258v115z" />
    <glyph glyph-name="period" unicode="." horiz-adv-x="305" 
d="M76 157h154v-157h-154v157z" />
    <glyph glyph-name="slash" unicode="/" horiz-adv-x="489" 
d="M346 714h120l-323 -714h-120z" />
    <glyph glyph-name="zero" unicode="0" horiz-adv-x="631" 
d="M315 726q67 0 118 -26t85 -74.5t51 -117.5t17 -155t-17 -154t-51.5 -115t-85 -71.5t-117.5 -24.5q-133 0 -201.5 95t-68.5 270q0 86 17 155t50.5 117.5t84.5 74.5t118 26zM315 609q-33 0 -57.5 -19t-39 -53t-21.5 -81t-7 -103t7 -102t22 -78.5t38.5 -50t57.5 -17.5
t57.5 17.5t39 50t22.5 78.5t7 102t-7 103t-22 81t-39.5 53t-57.5 19z" />
    <glyph glyph-name="one" unicode="1" horiz-adv-x="446" 
d="M338 0h-146v576l-133 -79l-52 109l183 108h148v-714z" />
    <glyph glyph-name="two" unicode="2" horiz-adv-x="557" 
d="M513 0h-479v119q95 83 157.5 142.5t99.5 103t52 78t15 66.5q0 47 -31.5 73.5t-79.5 26.5q-36 0 -75.5 -13t-87.5 -42l-46 104q46 32 104.5 50t115.5 18q55 0 100.5 -14t77.5 -40.5t50 -67t18 -92.5q0 -48 -16 -90.5t-50.5 -87.5t-89 -97.5t-132.5 -119.5h297v-117z" />
    <glyph glyph-name="three" unicode="3" horiz-adv-x="558" 
d="M118 423h78q31 0 59 4.5t49 16t33 30t12 46.5q0 44 -31 66.5t-82 22.5q-38 0 -76.5 -9t-81.5 -30l-36 113q46 22 100.5 32.5t109.5 10.5q49 0 93.5 -11t77.5 -33.5t52.5 -58.5t19.5 -85q0 -57 -29 -100.5t-93 -64.5v-2q69 -16 104 -62t35 -105q0 -56 -21.5 -97.5
t-59 -67.5t-86 -38.5t-104.5 -12.5q-57 0 -114.5 12t-103.5 35l35 111q90 -41 176 -41q58 0 95 25t38 78q0 29 -14 48t-38 30t-55.5 15.5t-65.5 4.5h-76v117z" />
    <glyph glyph-name="four" unicode="4" horiz-adv-x="598" 
d="M493 266h78v-117h-78v-149h-146v149h-330v141l273 424h203v-448zM347 583h-2l-195 -317h197v317z" />
    <glyph glyph-name="five" unicode="5" horiz-adv-x="561" 
d="M376 220q0 34 -15 56.5t-41 36t-56.5 18.5t-61.5 5q-33 0 -66 -2.5t-68 -7.5l21 388h400v-117h-271l-11 -151q20 2 34 2.5t27 0.5q51 0 97 -14.5t81 -42.5t55 -69.5t20 -94.5q0 -60 -21 -105t-58.5 -75t-87 -45t-104.5 -15q-56 0 -112 10.5t-107 33.5l35 111
q37 -17 82 -27.5t87 -10.5q28 0 54 6t45.5 19.5t30.5 35.5t11 54z" />
    <glyph glyph-name="six" unicode="6" horiz-adv-x="603" 
d="M370 609q-44 0 -76.5 -15t-54 -41t-34.5 -61.5t-17 -76.5h2q28 29 68 45t80 16q57 0 100.5 -18t73 -49.5t44.5 -75t15 -95.5q0 -54 -19 -100t-53 -79t-82.5 -52t-107.5 -19q-79 0 -131.5 31t-82 79.5t-41.5 108.5t-12 118q0 85 19 158t57.5 127t99.5 85t142 31
q35 0 73.5 -6t67.5 -15l-23 -116q-23 8 -50 14t-58 6zM189 253q0 -26 7 -52t22 -48t38.5 -35.5t55.5 -13.5q52 0 84.5 37t32.5 97q0 25 -7 48t-21.5 40.5t-36 28t-50.5 10.5q-30 0 -53 -10t-39 -26t-24.5 -35.5t-8.5 -40.5z" />
    <glyph glyph-name="seven" unicode="7" horiz-adv-x="523" 
d="M30 714h473v-117q-49 -73 -87.5 -149.5t-65.5 -153t-42.5 -151t-21.5 -143.5h-149q6 70 24 148t45.5 157t63.5 154t77 138h-317v117z" />
    <glyph glyph-name="eight" unicode="8" horiz-adv-x="609" 
d="M304 311q-20 0 -42 -6.5t-39.5 -19.5t-29.5 -33.5t-12 -47.5q0 -49 35 -75.5t88 -26.5t88.5 26.5t35.5 75.5q0 27 -11.5 47.5t-30 33.5t-40 19.5t-42.5 6.5zM304 726q49 0 93 -12t78.5 -36.5t55 -60t20.5 -83.5q0 -64 -29 -103t-78 -56v-2q25 -10 49 -25.5t41.5 -37
t28.5 -51.5t11 -68q0 -50 -21 -88t-57.5 -63.5t-86 -38.5t-105.5 -13t-105 13t-85 38.5t-57 63.5t-21 88q0 38 10.5 67t28 50.5t40.5 36t48 23.5v2q-48 21 -77 61.5t-29 102.5q0 47 20.5 83t54.5 60t78.5 36.5t93.5 12.5zM304 422q21 0 41 6t35 18t24 30.5t9 44.5
q0 44 -30 68.5t-79 24.5q-46 0 -76.5 -24t-31.5 -69q0 -26 9 -44.5t24 -30.5t34.5 -18t40.5 -6z" />
    <glyph glyph-name="nine" unicode="9" horiz-adv-x="603" 
d="M232 104q45 0 78 15t54.5 41t33.5 61.5t16 76.5h-2q-25 -31 -66.5 -46.5t-81.5 -14.5q-57 0 -101 18t-73 49.5t-44 75t-15 95.5q0 54 19 100.5t53.5 79.5t82.5 52t107 19q76 0 130 -30.5t83.5 -80t41.5 -109.5t12 -118q0 -85 -19 -158t-58 -127t-99.5 -84.5t-143.5 -30.5
q-37 0 -78 5.5t-73 14.5l22 116q24 -8 57 -14t64 -6zM413 460q0 26 -7 52.5t-22 48t-38.5 35t-55.5 13.5q-52 0 -84.5 -37t-32.5 -97q0 -25 7 -47t21.5 -40.5t36.5 -29t51 -10.5t52 9.5t39 25.5t24.5 36t8.5 41z" />
    <glyph glyph-name="colon" unicode=":" horiz-adv-x="361" 
d="M104 157h154v-157h-154v157zM104 528h154v-157h-154v157z" />
    <glyph glyph-name="semicolon" unicode=";" horiz-adv-x="361" 
d="M104 528h154v-157h-154v157zM113 156h145l-89 -284h-98z" />
    <glyph glyph-name="less" unicode="&#x3c;" horiz-adv-x="553" 
d="M139 311v-2l379 -126v-105l-483 159v142l483 159v-105z" />
    <glyph glyph-name="equal" unicode="=" horiz-adv-x="553" 
d="M35 465h482v-100h-482v100zM35 263h482v-100h-482v100z" />
    <glyph glyph-name="greater" unicode="&#x3e;" horiz-adv-x="553" 
d="M413 306v2l-378 125v105l483 -159v-142l-483 -159v105z" />
    <glyph glyph-name="question" unicode="?" horiz-adv-x="497" 
d="M237 609q-32 0 -69.5 -10t-81.5 -34l-41 106q45 28 98 41.5t107 13.5q45 0 86.5 -10t73.5 -32.5t51.5 -59.5t19.5 -91q0 -58 -21 -98.5t-65 -72.5l-37 -27q-20 -14 -32.5 -25.5t-19.5 -22.5t-9.5 -22.5t-2.5 -25.5v-16h-135v26q0 25 4 44.5t12.5 37t22.5 32.5t34 31
q22 17 41.5 32t33.5 30t22.5 33t8.5 40q0 23 -8 38t-22 24.5t-32.5 13.5t-38.5 4zM151 150h156v-150h-156v150z" />
    <glyph glyph-name="at" unicode="@" horiz-adv-x="959" 
d="M500 423q-26 0 -47 -18t-34.5 -46t-21 -62t-7.5 -65q0 -16 3 -34t10 -33t19.5 -25t31.5 -10q30 0 51.5 19.5t34.5 49t19 63t6 59.5q0 18 -2.5 36t-9.5 32.5t-20 24t-33 9.5zM756 -137q-63 -26 -124.5 -37t-130.5 -11q-106 0 -189.5 32t-142.5 91t-90 141t-31 182
q0 103 35 189.5t96.5 148t146.5 96t185 34.5q84 0 157 -22.5t127.5 -69.5t85.5 -119t31 -171q0 -74 -18.5 -134.5t-50.5 -101.5t-76 -63.5t-96 -22.5q-51 0 -77.5 24t-26.5 61h-2q-17 -37 -53 -61t-80 -24t-75 17t-51 46t-29.5 66.5t-9.5 79.5q0 56 15.5 108t44.5 92
t71.5 64t94.5 24q39 0 66 -20t37 -47h2l9 42h108l-44 -233q-5 -25 -9.5 -52t-4.5 -44t7.5 -31t28.5 -14q24 0 44 18.5t34.5 48.5t22.5 68.5t8 78.5q0 142 -77.5 217t-214.5 75q-78 0 -142 -28t-108.5 -77t-68.5 -117t-24 -148q0 -81 23 -144.5t66.5 -107.5t106.5 -67
t143 -23q61 0 117 9.5t109 30.5z" />
    <glyph glyph-name="A" unicode="A" horiz-adv-x="717" 
d="M157 0h-155l257 714h200l256 -714h-157l-64 174h-275zM253 292h207l-103 308z" />
    <glyph glyph-name="B" unicode="B" horiz-adv-x="659" 
d="M78 714h298q47 0 87 -10t69.5 -32t46 -56t16.5 -82q-1 -68 -33.5 -106.5t-81.5 -55.5v-2q29 -8 52 -21t41.5 -33t29 -49t10.5 -68q0 -40 -13.5 -76t-42 -63.5t-72 -43.5t-103.5 -16h-304v714zM224 423h103q60 0 90.5 21t31.5 69q0 26 -9.5 42.5t-25.5 25.5t-36.5 12.5
t-42.5 3.5h-111v-174zM224 117h118q28 0 50.5 4t39.5 14.5t26 29t9 46.5t-11 46.5t-29.5 29t-45 15t-57.5 4.5h-100v-189z" />
    <glyph glyph-name="C" unicode="C" horiz-adv-x="622" 
d="M555 584q-29 11 -62 18t-66 7q-57 0 -100.5 -20.5t-71.5 -55t-42.5 -81t-14.5 -98.5q0 -49 14.5 -94t43 -79.5t71.5 -55t99 -20.5q40 0 73 7t62 20l25 -113q-38 -16 -83.5 -23.5t-93.5 -7.5q-81 0 -147 27t-113 76t-72 116t-25 148t24.5 149t71 117.5t114.5 77t152 27.5
q48 0 90.5 -7t77.5 -21z" />
    <glyph glyph-name="D" unicode="D" horiz-adv-x="733" 
d="M78 714h243q88 0 155.5 -24.5t113 -70.5t68.5 -111.5t23 -147.5q0 -84 -23.5 -150.5t-69 -113t-112.5 -71.5t-155 -25h-243v714zM224 117h76q60 0 105 17t73.5 49t42.5 76t14 99q0 54 -14 98t-42.5 75.5t-73.5 48.5t-105 17h-76v-480z" />
    <glyph glyph-name="E" unicode="E" horiz-adv-x="559" 
d="M78 714h430v-117h-284v-174h261v-117h-261v-189h293v-117h-439v714z" />
    <glyph glyph-name="F" unicode="F" horiz-adv-x="537" 
d="M78 714h428v-117h-282v-174h258v-117h-258v-306h-146v714z" />
    <glyph glyph-name="G" unicode="G" horiz-adv-x="735" 
d="M603 567q-30 18 -75 30t-88 12q-54 0 -99 -17.5t-76.5 -50.5t-49 -80.5t-17.5 -108.5q0 -51 15.5 -96t45 -78.5t73 -53t99.5 -19.5q55 0 87 14v178h-121v117h266v-376q-57 -28 -118.5 -39t-124.5 -11q-84 0 -152 27t-116 75.5t-74 116t-26 148.5t25.5 149t74.5 117.5
t121.5 77t165.5 27.5q53 0 106 -10.5t98 -30.5z" />
    <glyph glyph-name="H" unicode="H" horiz-adv-x="721" 
d="M78 714h146v-291h274v291h146v-714h-146v306h-274v-306h-146v714z" />
    <glyph glyph-name="I" unicode="I" horiz-adv-x="302" 
d="M78 714h146v-714h-146v714z" />
    <glyph glyph-name="J" unicode="J" horiz-adv-x="360" 
d="M291 179q0 -97 -51 -144t-158 -47q-21 0 -43 1.5t-39 3.5v117q14 -2 31 -3.5t28 -1.5q43 0 64 19.5t22 68.5v521h146v-535z" />
    <glyph glyph-name="K" unicode="K" horiz-adv-x="650" 
d="M635 714l-254 -345l267 -369h-180l-242 355h-2v-355h-146v714h146v-335h2l235 335h174z" />
    <glyph glyph-name="L" unicode="L" horiz-adv-x="521" 
d="M78 714h146v-597h284v-117h-430v714z" />
    <glyph glyph-name="M" unicode="M" horiz-adv-x="925" 
d="M460 139h3l138 575h246v-714h-138v592h-2l-157 -592h-182l-154 592h-2v-592h-134v714h244z" />
    <glyph glyph-name="N" unicode="N" horiz-adv-x="737" 
d="M520 144h2v570h137v-714h-218l-225 578h-2v-578h-136v714h225z" />
    <glyph glyph-name="O" unicode="O" horiz-adv-x="777" 
d="M723 356q0 -80 -22 -147.5t-64.5 -116.5t-105 -76.5t-143.5 -27.5t-143.5 27.5t-105 76.5t-64.5 116.5t-22 147.5q0 81 22 148.5t64 117t105.5 77t143.5 27.5q81 0 144 -27.5t105.5 -77t64 -117t21.5 -148.5zM577 356q0 52 -11.5 98.5t-34 80.5t-58.5 54t-85 20
q-48 0 -84.5 -20t-59 -54t-34 -80.5t-11.5 -98.5t11.5 -98t35 -80t59 -53.5t84.5 -19.5t84.5 19.5t58.5 53.5t34 80t11 98z" />
    <glyph glyph-name="P" unicode="P" horiz-adv-x="637" 
d="M78 714h268q52 0 99 -11t82.5 -37t56 -68t20.5 -105t-20.5 -107.5t-56 -72t-82 -40t-98.5 -12.5h-123v-261h-146v714zM224 379h107q25 -1 50.5 5.5t41.5 19t25.5 33t9.5 51.5q-1 62 -37 86t-97 23h-100v-218z" />
    <glyph glyph-name="Q" unicode="Q" horiz-adv-x="777" 
d="M723 356q0 -110 -39 -192.5t-117 -128.5l109 -152h-161l-75 109q-15 -2 -26.5 -3t-25.5 -1q-81 0 -143.5 27.5t-105 76.5t-64.5 116.5t-22 147.5q0 81 22 148.5t64.5 117.5t106 77t142.5 27t142 -26.5t106.5 -77t65 -118t21.5 -148.5zM578 356q0 52 -11.5 98.5t-35 81
t-59.5 54t-84 19.5t-84.5 -20t-59 -54t-34 -80.5t-11.5 -98.5t11.5 -98t35 -80t59.5 -53.5t84 -19.5t84.5 19.5t59.5 54t34 80t11 97.5z" />
    <glyph glyph-name="R" unicode="R" horiz-adv-x="653" 
d="M78 714h277q48 0 93 -10t79.5 -32.5t55 -60t20.5 -91.5q0 -63 -31.5 -104.5t-89.5 -61.5v-2q17 -6 30 -15t23 -23.5t19 -36.5t18 -57q17 -54 33 -108.5t33 -111.5h-157q-5 19 -11.5 44.5t-13 51.5t-12.5 49.5t-11 41.5q-8 29 -17 48.5t-23.5 31t-38.5 16.5t-62 5h-68
v-288h-146v714zM224 405h96q30 0 55 4.5t43.5 15.5t28.5 29.5t10 46.5q0 29 -11 48t-29.5 29.5t-43 14.5t-49.5 4h-100v-192z" />
    <glyph glyph-name="S" unicode="S" horiz-adv-x="568" 
d="M460 583q-38 14 -77 20t-76 6q-22 0 -42.5 -3.5t-36.5 -12.5t-25.5 -23.5t-9.5 -36.5q0 -19 8 -33.5t24.5 -27.5t42 -25.5t60.5 -26.5q44 -18 80 -37.5t63 -45t41 -59t14 -80.5q0 -53 -21.5 -93t-58.5 -66t-84.5 -38.5t-99.5 -12.5q-49 0 -105.5 8.5t-111.5 27.5l26 119
q50 -20 98.5 -29t87.5 -9q60 0 91 20.5t32 62.5q0 20 -8 35.5t-25.5 29t-44 26.5t-62.5 27q-43 17 -78 37t-61 45.5t-40 57.5t-14 73q0 55 22 94.5t58.5 64.5t81 36.5t89.5 11.5q52 0 100 -6.5t87 -19.5z" />
    <glyph glyph-name="T" unicode="T" horiz-adv-x="543" 
d="M200 597h-190v117h522v-117h-186v-597h-146v597z" />
    <glyph glyph-name="U" unicode="U" horiz-adv-x="710" 
d="M640 211q0 -54 -21.5 -96t-60 -70t-91 -42.5t-113.5 -14.5t-113 14.5t-90 42.5t-59.5 70t-21.5 96v503h146v-485q1 -66 39 -95.5t98 -28.5q30 0 55 7t44.5 22t30.5 39t11 56v485h146v-503z" />
    <glyph glyph-name="V" unicode="V" horiz-adv-x="679" 
d="M3 714h160l176 -574h2l177 574h158l-246 -714h-182z" />
    <glyph glyph-name="W" unicode="W" horiz-adv-x="980" 
d="M492 581h-2l-100 -581h-205l-155 714h159l102 -584h2l92 584h215l89 -584h2l105 584h155l-155 -714h-206z" />
    <glyph glyph-name="X" unicode="X" horiz-adv-x="656" 
d="M638 714l-210 -343l226 -371h-172l-153 268l-156 -268h-172l228 371l-209 343h170l139 -245l142 245h167z" />
    <glyph glyph-name="Y" unicode="Y" horiz-adv-x="673" 
d="M264 272l-263 442h171l166 -304l167 304h167l-262 -442v-272h-146v272z" />
    <glyph glyph-name="Z" unicode="Z" horiz-adv-x="603" 
d="M382 597h-317v117h491v-117l-345 -480h352v-117h-526v117z" />
    <glyph glyph-name="bracketleft" unicode="[" horiz-adv-x="333" 
d="M281 699h-102v-795h102v-99h-221v992h221v-98z" />
    <glyph glyph-name="backslash" unicode="\" horiz-adv-x="489" 
d="M467 0h-122l-323 714h122z" />
    <glyph glyph-name="bracketright" unicode="]" horiz-adv-x="333" 
d="M53 -97h109v795h-109v99h226v-992h-226v98z" />
    <glyph glyph-name="asciicircum" unicode="^" horiz-adv-x="553" 
d="M172 299h-115l153 401h132l152 -401h-115l-103 301h-2z" />
    <glyph glyph-name="underscore" unicode="_" horiz-adv-x="488" 
d="M488 -80v-77h-488v77h488z" />
    <glyph glyph-name="grave" unicode="`" horiz-adv-x="461" 
d="M93 768h149l91 -164h-107z" />
    <glyph glyph-name="a" unicode="a" horiz-adv-x="583" 
d="M373 345q0 42 -29 65t-88 23q-29 0 -63 -6t-73 -20l-26 102q34 13 83 22t89 9q130 0 190.5 -53t58.5 -149v-218q0 -29 1.5 -62.5t6.5 -57.5h-126q-4 13 -7 32.5t-4 32.5h-2q-20 -35 -60 -56t-93 -21q-35 0 -69 8.5t-62 28.5t-43.5 50.5t-16.5 76.5q0 57 26 93t72 55
t108 26t127 6v13zM354 244q-36 0 -68 -3.5t-56.5 -13t-38 -26.5t-13.5 -43q0 -34 21 -53t57 -19q30 0 52.5 10t37 28t21 39t6.5 44v37h-19z" />
    <glyph glyph-name="b" unicode="b" horiz-adv-x="642" 
d="M209 0h-139v735h142v-275h2q31 41 72 60.5t87 19.5q54 0 96 -21.5t70 -59t42.5 -87.5t14.5 -108t-15 -108.5t-43.5 -87.5t-71 -58.5t-96.5 -21.5q-47 0 -88.5 16t-70.5 54h-2v-58zM454 264q0 36 -7 67t-21.5 53.5t-37 35.5t-53.5 13q-30 0 -55 -12.5t-42 -35t-26 -53.5
t-9 -68t9 -68t25.5 -53.5t41.5 -35.5t56 -13t53.5 13t37 36t21.5 54t7 67z" />
    <glyph glyph-name="c" unicode="c" horiz-adv-x="479" 
d="M426 417q-20 8 -42.5 12t-42.5 4q-38 0 -67 -13.5t-47.5 -36t-28.5 -54t-10 -66.5t9.5 -65.5t28.5 -53.5t48.5 -36t69.5 -13q21 0 43 3t43 12l22 -104q-29 -10 -59 -14t-61 -4q-71 0 -124.5 21t-89 57.5t-54 87t-18.5 109.5q0 60 19.5 111t55.5 87.5t89.5 57.5t120.5 21
q69 0 119 -17z" />
    <glyph glyph-name="d" unicode="d" horiz-adv-x="643" 
d="M431 735h142v-735h-139v67h-2q-31 -42 -74.5 -60.5t-88.5 -18.5q-54 0 -96 21.5t-70 59t-42.5 87.5t-14.5 108t15 108.5t43.5 87.5t71 58.5t96.5 21.5q46 0 87 -16.5t70 -54.5h2v266zM188 264q0 -36 7 -67t22 -54t37.5 -36t53.5 -13t55.5 13t41 35.5t25.5 54t9 68.5
q0 36 -9 67t-26 53.5t-41.5 35t-54.5 12.5t-53.5 -13t-38 -36t-21.5 -53.5t-7 -66.5z" />
    <glyph glyph-name="e" unicode="e" horiz-adv-x="590" 
d="M186 222q4 -36 18.5 -59.5t37.5 -38.5t53.5 -22.5t64.5 -7.5q30 0 63.5 4.5t62.5 14.5l16 -104q-35 -10 -73.5 -15.5t-85.5 -5.5q-71 0 -126.5 20t-93.5 56.5t-58 87t-20 111.5q0 60 18.5 111t52.5 88t83.5 57.5t110.5 20.5q58 0 102.5 -18.5t74.5 -52.5t45.5 -82
t15.5 -108v-57h-362zM308 444q-50 0 -83 -34t-39 -89h229q1 55 -28.5 89t-78.5 34z" />
    <glyph glyph-name="f" unicode="f" horiz-adv-x="350" 
d="M370 622q-15 4 -31.5 5t-28.5 1q-40 0 -58.5 -17.5t-18.5 -57.5v-25h111v-107h-111v-421h-142v421h-85v107h85v35q0 38 10 69.5t33.5 54.5t62.5 35.5t94 12.5q22 0 45 -2t44 -6z" />
    <glyph glyph-name="g" unicode="g" horiz-adv-x="641" 
d="M187 278q0 -34 7.5 -63t22 -50t37 -33t52.5 -12q31 0 55 12.5t41 33.5t26 50t9 62t-9 61.5t-26 49t-41.5 32.5t-54.5 12t-52.5 -11.5t-37.5 -32.5t-22 -49.5t-7 -61.5zM432 83h-2q-27 -35 -67 -52t-86 -17q-54 0 -97.5 20.5t-73 56t-45.5 83.5t-16 104t16 104t46 83
t73.5 55t96.5 20q47 0 86 -17t67 -53h2v58h139v-479q-1 -71 -25.5 -118t-66 -75t-93 -39.5t-104.5 -11.5q-46 0 -88.5 5.5t-77.5 15.5l17 105q37 -11 69.5 -15t63.5 -4q85 0 125.5 33t40.5 101v37z" />
    <glyph glyph-name="h" unicode="h" horiz-adv-x="632" 
d="M212 735v-278h2q21 40 63 61.5t94 21.5q44 0 80 -13.5t62 -39t39.5 -61t13.5 -78.5v-348h-142v295q0 32 -4.5 58t-15.5 43.5t-30 27t-48 9.5q-21 0 -41 -7.5t-36.5 -25t-26.5 -46t-10 -68.5v-286h-142v735h142z" />
    <glyph glyph-name="i" unicode="i" horiz-adv-x="282" 
d="M212 528v-528h-142v528h142zM212 732v-123h-142v123h142z" />
    <glyph glyph-name="j" unicode="j" horiz-adv-x="282" 
d="M212 -24q0 -39 -9 -70.5t-30 -54t-56.5 -34.5t-87.5 -12q-16 0 -34 1t-34 3v107q14 -2 24.5 -3t20.5 -1q35 0 49.5 17.5t14.5 63.5v535h142v-552zM212 732v-123h-142v123h142z" />
    <glyph glyph-name="k" unicode="k" horiz-adv-x="573" 
d="M558 528l-195 -236l207 -292h-171l-185 277h-2v-277h-142v735h142v-435h2l175 228h169z" />
    <glyph glyph-name="l" unicode="l" horiz-adv-x="282" 
d="M212 735v-735h-142v735h142z" />
    <glyph glyph-name="m" unicode="m" horiz-adv-x="946" 
d="M209 528v-72h2q20 40 61 62t91 22q57 0 96.5 -21.5t58.5 -64.5h2q27 45 70.5 65.5t93.5 20.5q54 -1 89 -14.5t59 -38t36 -60t12 -79.5v-348h-142v295q0 32 -3 57.5t-12.5 43.5t-27.5 27.5t-46 9.5q-18 0 -36.5 -6t-32.5 -19t-23 -35t-9 -53v-320h-142v297q0 32 -3 57
t-12.5 42.5t-27.5 27t-47 9.5q-20 0 -39 -8t-33.5 -25.5t-23 -44.5t-8.5 -67v-288h-142v528h139z" />
    <glyph glyph-name="n" unicode="n" horiz-adv-x="632" 
d="M209 528v-71h2q20 40 64.5 61.5t95.5 21.5q45 0 81 -13.5t61.5 -39t39 -61t13.5 -78.5v-348h-142v295q0 32 -4.5 58.5t-15.5 43.5t-30 26.5t-48 9.5q-21 0 -40.5 -7.5t-36.5 -25t-27 -46t-10 -68.5v-286h-142v528h139z" />
    <glyph glyph-name="o" unicode="o" horiz-adv-x="630" 
d="M584 265q0 -65 -19.5 -116.5t-54.5 -87t-84.5 -54.5t-110.5 -19q-62 0 -111.5 19t-84.5 55t-54 87t-19 116q0 64 19 115.5t54 86.5t84.5 54t111.5 19t111.5 -19t84.5 -54t54 -86.5t19 -115.5zM442 265q0 37 -8 68.5t-23.5 53t-39.5 34t-56 12.5q-62 0 -94.5 -45
t-32.5 -123q0 -79 32 -124t95 -46q64 1 95.5 46t31.5 124z" />
    <glyph glyph-name="p" unicode="p" horiz-adv-x="642" 
d="M212 -195h-142v723h139v-68h2q31 41 73.5 60.5t88.5 19.5q54 0 96 -21.5t70 -59t42.5 -87.5t14.5 -108t-15 -108.5t-44 -88t-71.5 -58.5t-95.5 -21q-44 -1 -85.5 15.5t-70.5 54.5h-2v-253zM454 264q0 36 -7 67t-21.5 53.5t-37 35.5t-53.5 13q-30 0 -55 -12.5t-42 -35
t-26 -53.5t-9 -68t9 -68t25.5 -53.5t41.5 -35.5t56 -13t53.5 13t37 36t21.5 54t7 67z" />
    <glyph glyph-name="q" unicode="q" horiz-adv-x="642" 
d="M434 528h139v-723h-142v262h-2q-31 -42 -72 -60.5t-87 -18.5q-54 0 -96 21t-70.5 58t-43 87t-14.5 108t15 109t44 88.5t71.5 59t96.5 21.5q47 0 87.5 -16t71.5 -55h2v59zM188 264q0 -36 7 -67t22 -54t37.5 -36t53.5 -13t55.5 13t41 35.5t25.5 54t9 68.5q0 36 -9 67
t-26 53.5t-41 35t-55 12.5t-54 -13t-37.5 -35.5t-21.5 -53.5t-7 -67z" />
    <glyph glyph-name="r" unicode="r" horiz-adv-x="397" 
d="M381 429q-10 2 -20 3t-21 1q-26 0 -49 -9t-41 -30t-28 -55.5t-10 -83.5v-255h-142v528h139v-69h2q38 81 138 81q10 0 20 -0.5t19 -1.5z" />
    <glyph glyph-name="s" unicode="s" horiz-adv-x="492" 
d="M394 405q-41 16 -76.5 22t-67.5 6q-31 0 -50 -9.5t-20 -33.5q0 -23 20.5 -37t77.5 -32q42 -13 74.5 -28.5t55.5 -36t34.5 -46.5t11.5 -61q0 -45 -19.5 -76t-50.5 -49.5t-70.5 -27t-78.5 -8.5q-49 0 -102.5 10t-95.5 27l28 108q44 -19 90.5 -28.5t78.5 -9.5q41 0 63 10.5
t22 36.5q0 23 -24.5 38.5t-86.5 34.5q-85 28 -123.5 66t-38.5 95q1 43 18 74t46.5 51t66.5 29.5t75 9.5q42 0 88 -7.5t85 -22.5z" />
    <glyph glyph-name="t" unicode="t" horiz-adv-x="367" 
d="M10 528h81v140h142v-140h110v-107h-110v-236q0 -27 2.5 -44t9 -25t18 -11t30.5 -3q13 0 23.5 1t23.5 3v-106q-20 -2 -44 -3.5t-48 -1.5q-50 0 -80.5 10t-47.5 29t-23 47.5t-6 66.5v273h-81v107z" />
    <glyph glyph-name="u" unicode="u" horiz-adv-x="632" 
d="M423 0v71h-2q-20 -40 -64 -61.5t-95 -21.5q-45 0 -81.5 14t-61.5 39t-39 60t-14 79v348h142v-295q0 -32 4.5 -57t16 -43.5t30.5 -28t48 -9.5q21 0 41 8t36 24.5t26 45t10 69.5v286h142v-528h-139z" />
    <glyph glyph-name="v" unicode="v" horiz-adv-x="564" 
d="M282 128h2l126 400h150l-196 -528h-166l-194 528h153z" />
    <glyph glyph-name="w" unicode="w" horiz-adv-x="864" 
d="M612 128h2l83 400h145l-139 -528h-182l-89 406h-2l-89 -406h-181l-138 528h146l86 -400h2l85 400h181z" />
    <glyph glyph-name="x" unicode="x" horiz-adv-x="556" 
d="M537 528l-162 -254l175 -274h-161l-110 186l-113 -186h-162l177 274l-163 254h160l101 -171l102 171h156z" />
    <glyph glyph-name="y" unicode="y" horiz-adv-x="566" 
d="M285 174h2l127 354h149l-286 -723h-151l86 207l-208 516h153z" />
    <glyph glyph-name="z" unicode="z" horiz-adv-x="511" 
d="M296 421h-239v107h410v-106l-257 -315h268v-107h-442v105z" />
    <glyph glyph-name="braceleft" unicode="{" horiz-adv-x="333" 
d="M9 363q40 2 55 25.5t15 89.5v156q0 45 13 76t35.5 50.5t51.5 28t63 8.5h48v-105h-27q-32 0 -46 -21.5t-14 -68.5v-139q0 -37 -4.5 -64t-15 -46t-28 -31t-44.5 -20v-2q28 -9 45 -21t27.5 -31t15 -45.5t4.5 -63.5v-138q1 -55 15 -73t45 -18h27v-105h-48q-34 0 -64 9
t-52 28.5t-34.5 51t-12.5 76.5v154q0 61 -13.5 86.5t-56.5 28.5v124z" />
    <glyph glyph-name="bar" unicode="|" horiz-adv-x="465" 
d="M285 735v-930h-105v930h105z" />
    <glyph glyph-name="braceright" unicode="}" horiz-adv-x="333" 
d="M324 239q-45 -3 -58.5 -31t-12.5 -84v-156q0 -45 -12.5 -76t-34.5 -50t-51.5 -28t-63.5 -9h-49v105h27q32 0 46 21t14 69v139q0 74 19.5 109.5t73.5 50.5v2q-27 9 -44.5 21.5t-28.5 31t-15.5 45t-4.5 63.5v139q0 52 -13.5 71t-46.5 19h-27v106h49q34 0 63.5 -9
t51.5 -28.5t34.5 -51t12.5 -76.5v-154q0 -29 3 -50.5t11 -36t22.5 -21t34.5 -7.5v-124z" />
    <glyph glyph-name="asciitilde" unicode="~" horiz-adv-x="553" 
d="M398 336q40 2 68 16t47 36v-111q-49 -45 -129 -46q-36 1 -63.5 10.5t-52.5 22.5t-50 22.5t-56 10.5q-42 -1 -72 -15t-50 -37v111q24 23 57.5 34.5t72.5 11.5q35 0 64.5 -10.5t53.5 -22.5t50.5 -22.5t59.5 -10.5z" />
    <glyph glyph-name="uni00A0" unicode="&#xa0;" horiz-adv-x="260" 
 />
    <glyph glyph-name="Agrave" unicode="&#xc0;" horiz-adv-x="717" 
d="M157 0h-155l257 714h200l256 -714h-157l-64 174h-275zM253 292h207l-103 308zM343 908l94 -145h-115l-136 145h157z" />
    <glyph glyph-name="Aacute" unicode="&#xc1;" horiz-adv-x="717" 
d="M157 0h-155l257 714h200l256 -714h-157l-64 174h-275zM253 292h207l-103 308zM406 763h-115l95 145h157z" />
    <glyph glyph-name="Acircumflex" unicode="&#xc2;" horiz-adv-x="717" 
d="M157 0h-155l257 714h200l256 -714h-157l-64 174h-275zM253 292h207l-103 308zM430 760l-73 89l-73 -89h-116l116 152h146l115 -152h-115z" />
    <glyph glyph-name="Atilde" unicode="&#xc3;" horiz-adv-x="717" 
d="M157 0h-155l257 714h200l256 -714h-157l-64 174h-275zM253 292h207l-103 308zM371 879q20 -14 32 -18.5t23 -4.5q17 0 24.5 15.5t7.5 39.5h79q-1 -32 -7 -59t-18 -47.5t-31 -31.5t-45 -11q-20 0 -37.5 6t-47.5 23q-28 16 -40 21t-22 5q-17 0 -25.5 -14.5t-9.5 -39.5h-79
q4 72 32 110t72 38q24 0 43 -6.5t49 -25.5z" />
    <glyph glyph-name="Adieresis" unicode="&#xc4;" horiz-adv-x="717" 
d="M157 0h-155l257 714h200l256 -714h-157l-64 174h-275zM253 292h207l-103 308zM314 783h-124v122h124v-122zM520 783h-125v122h125v-122z" />
    <glyph glyph-name="Amacron" unicode="&#x100;" horiz-adv-x="717" 
d="M157 0h-155l257 714h200l256 -714h-157l-64 174h-275zM253 292h207l-103 308zM498 796h-284v91h284v-91z" />
    <glyph glyph-name="Abreve" unicode="&#x102;" horiz-adv-x="717" 
d="M157 0h-155l257 714h200l256 -714h-157l-64 174h-275zM253 292h207l-103 308zM355 845q43 1 60 21t17 50h95q-1 -31 -10.5 -58.5t-30 -49.5t-53 -34.5t-78.5 -12.5q-45 0 -77 12.5t-52.5 34.5t-30 50t-10.5 58h95q-1 -28 16.5 -49t58.5 -22z" />
    <glyph glyph-name="Aring" unicode="&#xc5;" horiz-adv-x="717" 
d="M157 0h-155l257 714h200l256 -714h-157l-64 174h-275zM253 292h207l-103 308zM357 949q45 0 75 -30.5t30 -75.5q0 -47 -29.5 -76.5t-76.5 -29.5q-45 0 -75 29.5t-30 76.5q0 22 8 41.5t22 33.5t33.5 22.5t42.5 8.5zM356 899q-23 0 -38 -16.5t-15 -39.5q0 -25 15 -40.5
t38 -15.5t38.5 15t15.5 40t-15.5 41t-38.5 16z" />
    <glyph glyph-name="Aogonek" unicode="&#x104;" horiz-adv-x="717" 
d="M157 0h-155l257 714h200l256 -714h-76q-38 -40 -50 -61.5t-11 -37.5q0 -18 10.5 -24.5t26.5 -6.5q12 0 25 2t29 7l12 -71q-23 -8 -44.5 -11t-38.5 -3q-20 0 -41 3.5t-38 13.5t-27.5 26.5t-10.5 43.5q0 32 17.5 59.5t59.5 59.5l-64 174h-275zM253 292h207l-103 308z" />
    <glyph glyph-name="AE" unicode="&#xc6;" horiz-adv-x="898" 
d="M161 0h-160l335 714h526v-117h-284v-174h258v-117h-258v-189h293v-117h-436v168h-195zM288 285h147v316h-2z" />
    <glyph glyph-name="Cacute" unicode="&#x106;" horiz-adv-x="622" 
d="M555 584q-29 11 -62 18t-66 7q-57 0 -100.5 -20.5t-71.5 -55t-42.5 -81t-14.5 -98.5q0 -49 14.5 -94t43 -79.5t71.5 -55t99 -20.5q40 0 73 7t62 20l25 -113q-38 -16 -83.5 -23.5t-93.5 -7.5q-81 0 -147 27t-113 76t-72 116t-25 148t24.5 149t71 117.5t114.5 77t152 27.5
q48 0 90.5 -7t77.5 -21zM445 763h-115l95 145h157z" />
    <glyph glyph-name="Ccircumflex" unicode="&#x108;" horiz-adv-x="622" 
d="M555 584q-29 11 -62 18t-66 7q-57 0 -100.5 -20.5t-71.5 -55t-42.5 -81t-14.5 -98.5q0 -49 14.5 -94t43 -79.5t71.5 -55t99 -20.5q40 0 73 7t62 20l25 -113q-38 -16 -83.5 -23.5t-93.5 -7.5q-81 0 -147 27t-113 76t-72 116t-25 148t24.5 149t71 117.5t114.5 77t152 27.5
q48 0 90.5 -7t77.5 -21zM458 760l-73 89l-73 -89h-116l116 152h146l115 -152h-115z" />
    <glyph glyph-name="Ccaron" unicode="&#x10c;" horiz-adv-x="622" 
d="M555 584q-29 11 -62 18t-66 7q-57 0 -100.5 -20.5t-71.5 -55t-42.5 -81t-14.5 -98.5q0 -49 14.5 -94t43 -79.5t71.5 -55t99 -20.5q40 0 73 7t62 20l25 -113q-38 -16 -83.5 -23.5t-93.5 -7.5q-81 0 -147 27t-113 76t-72 116t-25 148t24.5 149t71 117.5t114.5 77t152 27.5
q48 0 90.5 -7t77.5 -21zM320 912l73 -89l74 89h115l-115 -152h-146l-115 152h114z" />
    <glyph glyph-name="Cdotaccent" unicode="&#x10a;" horiz-adv-x="622" 
d="M555 584q-29 11 -62 18t-66 7q-57 0 -100.5 -20.5t-71.5 -55t-42.5 -81t-14.5 -98.5q0 -49 14.5 -94t43 -79.5t71.5 -55t99 -20.5q40 0 73 7t62 20l25 -113q-38 -16 -83.5 -23.5t-93.5 -7.5q-81 0 -147 27t-113 76t-72 116t-25 148t24.5 149t71 117.5t114.5 77t152 27.5
q48 0 90.5 -7t77.5 -21zM472 779h-142v126h142v-126z" />
    <glyph glyph-name="Ccedilla" unicode="&#xc7;" horiz-adv-x="622" 
d="M555 584q-29 11 -62 18t-66 7q-57 0 -100.5 -20.5t-71.5 -55.5t-42.5 -81t-14.5 -98q0 -49 14.5 -94t43 -79.5t71.5 -55t99 -20.5q40 0 73 7t62 20l25 -113q-36 -14 -78 -21.5t-87 -9.5l-8 -33q5 1 10.5 1h10.5q37 0 62.5 -21.5t25.5 -58.5q-1 -49 -36.5 -71t-94.5 -22
q-16 0 -36 1t-36 5l7 60q14 -2 29.5 -3t25.5 -1q23 0 38 5.5t16 21.5q0 14 -13.5 19.5t-36.5 5.5q-12 0 -25.5 -0.5t-26.5 -2.5l14 99q-69 10 -123 40.5t-92.5 77.5t-59 109t-20.5 135q0 81 24.5 149t71 117.5t114.5 77t152 27.5q48 0 90.5 -7t77.5 -21z" />
    <glyph glyph-name="Dcaron" unicode="&#x10e;" horiz-adv-x="733" 
d="M78 714h243q88 0 155.5 -24.5t113 -70.5t68.5 -111.5t23 -147.5q0 -84 -23.5 -150.5t-69 -113t-112.5 -71.5t-155 -25h-243v714zM224 117h76q60 0 105 17t73.5 49t42.5 76t14 99q0 54 -14 98t-42.5 75.5t-73.5 48.5t-105 17h-76v-480zM231 912l73 -89l74 89h115
l-115 -152h-146l-115 152h114z" />
    <glyph glyph-name="Dcroat" unicode="&#x110;" horiz-adv-x="733" 
d="M78 325h-62v82h62v307h243q88 0 155.5 -24.5t113 -70t68.5 -111.5t23 -148q0 -83 -23.5 -150t-69 -113.5t-112.5 -71.5t-155 -25h-243v325zM224 407h124v-82h-124v-208h76q61 0 105 17t73 48.5t43 75.5t14 100q0 54 -14 98t-43 75.5t-73 48.5t-105 17h-76v-190z" />
    <glyph glyph-name="Eth" unicode="&#xd0;" horiz-adv-x="733" 
d="M78 325h-62v82h62v307h243q88 0 155.5 -24.5t113 -70t68.5 -111.5t23 -148q0 -83 -23.5 -150t-69 -113.5t-112.5 -71.5t-155 -25h-243v325zM224 407h124v-82h-124v-208h76q61 0 105 17t73 48.5t43 75.5t14 100q0 54 -14 98t-43 75.5t-73 48.5t-105 17h-76v-190z" />
    <glyph glyph-name="Egrave" unicode="&#xc8;" horiz-adv-x="559" 
d="M78 714h430v-117h-284v-174h261v-117h-261v-189h293v-117h-439v714zM270 908l94 -145h-115l-136 145h157z" />
    <glyph glyph-name="Eacute" unicode="&#xc9;" horiz-adv-x="559" 
d="M78 714h430v-117h-284v-174h261v-117h-261v-189h293v-117h-439v714zM345 763h-115l95 145h157z" />
    <glyph glyph-name="Ecircumflex" unicode="&#xca;" horiz-adv-x="559" 
d="M78 714h430v-117h-284v-174h261v-117h-261v-189h293v-117h-439v714zM370 760l-73 89l-73 -89h-116l116 152h146l115 -152h-115z" />
    <glyph glyph-name="Ecaron" unicode="&#x11a;" horiz-adv-x="559" 
d="M78 714h430v-117h-284v-174h261v-117h-261v-189h293v-117h-439v714zM215 912l73 -89l74 89h115l-115 -152h-146l-115 152h114z" />
    <glyph glyph-name="Edieresis" unicode="&#xcb;" horiz-adv-x="559" 
d="M78 714h430v-117h-284v-174h261v-117h-261v-189h293v-117h-439v714zM250 783h-124v122h124v-122zM456 783h-125v122h125v-122z" />
    <glyph glyph-name="Emacron" unicode="&#x112;" horiz-adv-x="559" 
d="M78 714h430v-117h-284v-174h261v-117h-261v-189h293v-117h-439v714zM438 796h-284v91h284v-91z" />
    <glyph glyph-name="Ebreve" unicode="&#x114;" horiz-adv-x="559" 
d="M78 714h430v-117h-284v-174h261v-117h-261v-189h293v-117h-439v714zM294 845q43 1 60 21t17 50h95q-1 -31 -10.5 -58.5t-30 -49.5t-53 -34.5t-78.5 -12.5q-45 0 -77 12.5t-52.5 34.5t-30 50t-10.5 58h95q-1 -28 16.5 -49t58.5 -22z" />
    <glyph glyph-name="Edotaccent" unicode="&#x116;" horiz-adv-x="559" 
d="M78 714h430v-117h-284v-174h261v-117h-261v-189h293v-117h-439v714zM372 779h-142v126h142v-126z" />
    <glyph glyph-name="Eogonek" unicode="&#x118;" horiz-adv-x="559" 
d="M78 714h430v-117h-284v-174h261v-117h-261v-189h293v-117h-30q-38 -40 -49.5 -60.5t-11.5 -38.5t10.5 -24.5t26.5 -6.5q12 0 25 2t29 7l12 -71q-22 -8 -44 -11t-39 -3q-20 0 -41 3.5t-38 13.5t-27.5 26.5t-10.5 43.5q0 32 17 59.5t59 59.5h-327v714z" />
    <glyph glyph-name="Gcircumflex" unicode="&#x11c;" horiz-adv-x="735" 
d="M603 567q-30 18 -75 30t-88 12q-54 0 -99 -17.5t-76.5 -50.5t-49 -80.5t-17.5 -108.5q0 -51 15.5 -96t45 -78.5t73 -53t99.5 -19.5q55 0 87 14v178h-121v117h266v-376q-57 -28 -118.5 -39t-124.5 -11q-84 0 -152 27t-116 75.5t-74 116t-26 148.5t25.5 149t74.5 117.5
t121.5 77t165.5 27.5q53 0 106 -10.5t98 -30.5zM479 760l-73 89l-73 -89h-116l116 152h146l115 -152h-115z" />
    <glyph glyph-name="Gbreve" unicode="&#x11e;" horiz-adv-x="735" 
d="M603 567q-30 18 -75 30t-88 12q-54 0 -99 -17.5t-76.5 -50.5t-49 -80.5t-17.5 -108.5q0 -51 15.5 -96t45 -78.5t73 -53t99.5 -19.5q55 0 87 14v178h-121v117h266v-376q-57 -28 -118.5 -39t-124.5 -11q-84 0 -152 27t-116 75.5t-74 116t-26 148.5t25.5 149t74.5 117.5
t121.5 77t165.5 27.5q53 0 106 -10.5t98 -30.5zM410 845q43 1 60 21t17 50h95q-1 -31 -10.5 -58.5t-30 -49.5t-53 -34.5t-78.5 -12.5q-45 0 -77 12.5t-52.5 34.5t-30 50t-10.5 58h95q-1 -28 16.5 -49t58.5 -22z" />
    <glyph glyph-name="Gdotaccent" unicode="&#x120;" horiz-adv-x="735" 
d="M603 567q-30 18 -75 30t-88 12q-54 0 -99 -17.5t-76.5 -50.5t-49 -80.5t-17.5 -108.5q0 -51 15.5 -96t45 -78.5t73 -53t99.5 -19.5q55 0 87 14v178h-121v117h266v-376q-57 -28 -118.5 -39t-124.5 -11q-84 0 -152 27t-116 75.5t-74 116t-26 148.5t25.5 149t74.5 117.5
t121.5 77t165.5 27.5q53 0 106 -10.5t98 -30.5zM486 779h-142v126h142v-126z" />
    <glyph glyph-name="Gcommaaccent" unicode="&#x122;" horiz-adv-x="735" 
d="M603 567q-30 18 -75 30t-88 12q-54 0 -99 -17.5t-76.5 -50.5t-49 -80.5t-17.5 -108.5q0 -51 15.5 -96t45 -78.5t73 -53t99.5 -19.5q55 0 87 14v178h-121v117h266v-376q-57 -28 -118.5 -39t-124.5 -11q-84 0 -152 27t-116 75.5t-74 116t-26 148.5t25.5 149t74.5 117.5
t121.5 77t165.5 27.5q53 0 106 -10.5t98 -30.5zM354 -219h-106l76 162h151z" />
    <glyph glyph-name="Hcircumflex" unicode="&#x124;" horiz-adv-x="721" 
d="M78 714h146v-291h274v291h146v-714h-146v306h-274v-306h-146v714zM432 760l-73 89l-73 -89h-116l116 152h146l115 -152h-115z" />
    <glyph glyph-name="Hbar" unicode="&#x126;" horiz-adv-x="721" 
d="M78 549h-61v84h61v81h146v-81h274v81h146v-81h61v-84h-61v-549h-146v306h-274v-306h-146v549zM498 423v126h-274v-126h274z" />
    <glyph glyph-name="Igrave" unicode="&#xcc;" horiz-adv-x="302" 
d="M78 714h146v-714h-146v714zM127 908l94 -145h-115l-136 145h157z" />
    <glyph glyph-name="Iacute" unicode="&#xcd;" horiz-adv-x="302" 
d="M78 714h146v-714h-146v714zM201 763h-115l95 145h157z" />
    <glyph glyph-name="Icircumflex" unicode="&#xce;" horiz-adv-x="302" 
d="M78 714h146v-714h-146v714zM228 760l-73 89l-73 -89h-116l116 152h146l115 -152h-115z" />
    <glyph glyph-name="Itilde" unicode="&#x128;" horiz-adv-x="302" 
d="M78 714h146v-714h-146v714zM170 879q20 -14 32 -18.5t23 -4.5q17 0 24.5 15.5t7.5 39.5h79q-1 -32 -7 -59t-18 -47.5t-31 -31.5t-45 -11q-20 0 -37.5 6t-47.5 23q-28 16 -40 21t-22 5q-17 0 -25.5 -14.5t-9.5 -39.5h-79q4 72 32 110t72 38q24 0 43 -6.5t49 -25.5z" />
    <glyph glyph-name="Idieresis" unicode="&#xcf;" horiz-adv-x="302" 
d="M78 714h146v-714h-146v714zM112 783h-124v122h124v-122zM318 783h-125v122h125v-122z" />
    <glyph glyph-name="Imacron" unicode="&#x12a;" horiz-adv-x="302" 
d="M78 714h146v-714h-146v714zM297 796h-284v91h284v-91z" />
    <glyph glyph-name="Idotaccent" unicode="&#x130;" horiz-adv-x="302" 
d="M78 714h146v-714h-146v714zM225 779h-142v126h142v-126z" />
    <glyph glyph-name="Ibreve" unicode="&#x12c;" horiz-adv-x="302" 
d="M78 714h146v-714h-146v714zM151 845q43 1 60 21t17 50h95q-1 -31 -10.5 -58.5t-30 -49.5t-53 -34.5t-78.5 -12.5q-45 0 -77 12.5t-52.5 34.5t-30 50t-10.5 58h95q-1 -28 16.5 -49t58.5 -22z" />
    <glyph glyph-name="Iogonek" unicode="&#x12e;" horiz-adv-x="302" 
d="M78 714h146v-714h-45q-39 -42 -50 -61.5t-11 -37.5q0 -17 10 -24t27 -7q12 0 25 2t29 7l12 -71q-20 -8 -43 -11t-40 -3q-20 0 -41 3.5t-38 13.5t-27.5 27t-10.5 43q0 31 16.5 58.5t59.5 60.5h-19v714z" />
    <glyph glyph-name="Jcircumflex" unicode="&#x134;" horiz-adv-x="360" 
d="M291 179q0 -97 -51 -144t-158 -47q-21 0 -43 1.5t-39 3.5v117q14 -2 31 -3.5t28 -1.5q43 0 64 19.5t22 68.5v521h146v-535zM291 760l-73 89l-73 -89h-116l116 152h146l115 -152h-115z" />
    <glyph glyph-name="Kcommaaccent" unicode="&#x136;" horiz-adv-x="650" 
d="M635 714l-254 -345l267 -369h-180l-242 355h-2v-355h-146v714h146v-335h2l235 335h174zM283 -219h-106l76 162h151z" />
    <glyph glyph-name="Lacute" unicode="&#x139;" horiz-adv-x="521" 
d="M78 714h146v-597h284v-117h-430v714zM210 763h-115l95 145h157z" />
    <glyph glyph-name="Lcaron" unicode="&#x13d;" horiz-adv-x="521" 
d="M78 714h146v-597h284v-117h-430v714zM366 604h-79l15 164h99z" />
    <glyph glyph-name="Lcommaaccent" unicode="&#x13b;" horiz-adv-x="521" 
d="M78 714h146v-597h284v-117h-430v714zM245 -219h-106l76 162h151z" />
    <glyph glyph-name="Lslash" unicode="&#x141;" horiz-adv-x="521" 
d="M78 310l-67 -44v92l67 43v313h146v-239l103 68v-92l-103 -69v-265h284v-117h-430v310z" />
    <glyph glyph-name="Ldot" unicode="&#x13f;" horiz-adv-x="543" 
d="M78 714h146v-597h284v-117h-430v714zM495 362h-142v127h142v-127z" />
    <glyph glyph-name="Nacute" unicode="&#x143;" horiz-adv-x="737" 
d="M520 144h2v570h137v-714h-218l-225 578h-2v-578h-136v714h225zM403 763h-115l95 145h157z" />
    <glyph glyph-name="Ncaron" unicode="&#x147;" horiz-adv-x="737" 
d="M520 144h2v570h137v-714h-218l-225 578h-2v-578h-136v714h225zM296 912l73 -89l74 89h115l-115 -152h-146l-115 152h114z" />
    <glyph glyph-name="Ntilde" unicode="&#xd1;" horiz-adv-x="737" 
d="M520 144h2v570h137v-714h-218l-225 578h-2v-578h-136v714h225zM397 879q20 -14 32 -18.5t23 -4.5q17 0 24.5 15.5t7.5 39.5h79q-1 -32 -7 -59t-18 -47.5t-31 -31.5t-45 -11q-20 0 -37.5 6t-47.5 23q-28 16 -40 21t-22 5q-17 0 -25.5 -14.5t-9.5 -39.5h-79q4 72 32 110
t72 38q24 0 43 -6.5t49 -25.5z" />
    <glyph glyph-name="Ncommaaccent" unicode="&#x145;" horiz-adv-x="737" 
d="M520 144h2v570h137v-714h-218l-225 578h-2v-578h-136v714h225zM354 -219h-106l76 162h151z" />
    <glyph glyph-name="Eng" unicode="&#x14a;" horiz-adv-x="737" 
d="M520 144h2v570h137v-746q0 -82 -42.5 -122.5t-133.5 -40.5q-13 0 -36 1.5t-40 3.5v105q25 -3 45 -3q36 0 50.5 18t14.5 53v17h-76l-225 578h-2v-578h-136v714h225z" />
    <glyph glyph-name="Ograve" unicode="&#xd2;" horiz-adv-x="777" 
d="M723 356q0 -80 -22 -147.5t-64.5 -116.5t-105 -76.5t-143.5 -27.5t-143.5 27.5t-105 76.5t-64.5 116.5t-22 147.5q0 81 22 148.5t64 117t105.5 77t143.5 27.5q81 0 144 -27.5t105.5 -77t64 -117t21.5 -148.5zM577 356q0 52 -11.5 98.5t-34 80.5t-58.5 54t-85 20
q-48 0 -84.5 -20t-59 -54t-34 -80.5t-11.5 -98.5t11.5 -98t35 -80t59 -53.5t84.5 -19.5t84.5 19.5t58.5 53.5t34 80t11 98zM358 908l94 -145h-115l-136 145h157z" />
    <glyph glyph-name="Oacute" unicode="&#xd3;" horiz-adv-x="777" 
d="M723 356q0 -80 -22 -147.5t-64.5 -116.5t-105 -76.5t-143.5 -27.5t-143.5 27.5t-105 76.5t-64.5 116.5t-22 147.5q0 81 22 148.5t64 117t105.5 77t143.5 27.5q81 0 144 -27.5t105.5 -77t64 -117t21.5 -148.5zM577 356q0 52 -11.5 98.5t-34 80.5t-58.5 54t-85 20
q-48 0 -84.5 -20t-59 -54t-34 -80.5t-11.5 -98.5t11.5 -98t35 -80t59 -53.5t84.5 -19.5t84.5 19.5t58.5 53.5t34 80t11 98zM436 763h-115l95 145h157z" />
    <glyph glyph-name="Ocircumflex" unicode="&#xd4;" horiz-adv-x="777" 
d="M723 356q0 -80 -22 -147.5t-64.5 -116.5t-105 -76.5t-143.5 -27.5t-143.5 27.5t-105 76.5t-64.5 116.5t-22 147.5q0 81 22 148.5t64 117t105.5 77t143.5 27.5q81 0 144 -27.5t105.5 -77t64 -117t21.5 -148.5zM577 356q0 52 -11.5 98.5t-34 80.5t-58.5 54t-85 20
q-48 0 -84.5 -20t-59 -54t-34 -80.5t-11.5 -98.5t11.5 -98t35 -80t59 -53.5t84.5 -19.5t84.5 19.5t58.5 53.5t34 80t11 98zM463 760l-73 89l-73 -89h-116l116 152h146l115 -152h-115z" />
    <glyph glyph-name="Otilde" unicode="&#xd5;" horiz-adv-x="777" 
d="M723 356q0 -80 -22 -147.5t-64.5 -116.5t-105 -76.5t-143.5 -27.5t-143.5 27.5t-105 76.5t-64.5 116.5t-22 147.5q0 81 22 148.5t64 117t105.5 77t143.5 27.5q81 0 144 -27.5t105.5 -77t64 -117t21.5 -148.5zM577 356q0 52 -11.5 98.5t-34 80.5t-58.5 54t-85 20
q-48 0 -84.5 -20t-59 -54t-34 -80.5t-11.5 -98.5t11.5 -98t35 -80t59 -53.5t84.5 -19.5t84.5 19.5t58.5 53.5t34 80t11 98zM401 879q20 -14 32 -18.5t23 -4.5q17 0 24.5 15.5t7.5 39.5h79q-1 -32 -7 -59t-18 -47.5t-31 -31.5t-45 -11q-20 0 -37.5 6t-47.5 23q-28 16 -40 21
t-22 5q-17 0 -25.5 -14.5t-9.5 -39.5h-79q4 72 32 110t72 38q24 0 43 -6.5t49 -25.5z" />
    <glyph glyph-name="Odieresis" unicode="&#xd6;" horiz-adv-x="777" 
d="M723 356q0 -80 -22 -147.5t-64.5 -116.5t-105 -76.5t-143.5 -27.5t-143.5 27.5t-105 76.5t-64.5 116.5t-22 147.5q0 81 22 148.5t64 117t105.5 77t143.5 27.5q81 0 144 -27.5t105.5 -77t64 -117t21.5 -148.5zM577 356q0 52 -11.5 98.5t-34 80.5t-58.5 54t-85 20
q-48 0 -84.5 -20t-59 -54t-34 -80.5t-11.5 -98.5t11.5 -98t35 -80t59 -53.5t84.5 -19.5t84.5 19.5t58.5 53.5t34 80t11 98zM345 783h-124v122h124v-122zM551 783h-125v122h125v-122z" />
    <glyph glyph-name="Omacron" unicode="&#x14c;" horiz-adv-x="777" 
d="M723 356q0 -80 -22 -147.5t-64.5 -116.5t-105 -76.5t-143.5 -27.5t-143.5 27.5t-105 76.5t-64.5 116.5t-22 147.5q0 81 22 148.5t64 117t105.5 77t143.5 27.5q81 0 144 -27.5t105.5 -77t64 -117t21.5 -148.5zM577 356q0 52 -11.5 98.5t-34 80.5t-58.5 54t-85 20
q-48 0 -84.5 -20t-59 -54t-34 -80.5t-11.5 -98.5t11.5 -98t35 -80t59 -53.5t84.5 -19.5t84.5 19.5t58.5 53.5t34 80t11 98zM530 796h-284v91h284v-91z" />
    <glyph glyph-name="Obreve" unicode="&#x14e;" horiz-adv-x="777" 
d="M723 356q0 -80 -22 -147.5t-64.5 -116.5t-105 -76.5t-143.5 -27.5t-143.5 27.5t-105 76.5t-64.5 116.5t-22 147.5q0 81 22 148.5t64 117t105.5 77t143.5 27.5q81 0 144 -27.5t105.5 -77t64 -117t21.5 -148.5zM577 356q0 52 -11.5 98.5t-34 80.5t-58.5 54t-85 20
q-48 0 -84.5 -20t-59 -54t-34 -80.5t-11.5 -98.5t11.5 -98t35 -80t59 -53.5t84.5 -19.5t84.5 19.5t58.5 53.5t34 80t11 98zM387 845q43 1 60 21t17 50h95q-1 -31 -10.5 -58.5t-30 -49.5t-53 -34.5t-78.5 -12.5q-45 0 -77 12.5t-52.5 34.5t-30 50t-10.5 58h95
q-1 -28 16.5 -49t58.5 -22z" />
    <glyph glyph-name="Ohungarumlaut" unicode="&#x150;" horiz-adv-x="777" 
d="M723 356q0 -80 -22 -147.5t-64.5 -116.5t-105 -76.5t-143.5 -27.5t-143.5 27.5t-105 76.5t-64.5 116.5t-22 147.5q0 81 22 148.5t64 117t105.5 77t143.5 27.5q81 0 144 -27.5t105.5 -77t64 -117t21.5 -148.5zM577 356q0 52 -11.5 98.5t-34 80.5t-58.5 54t-85 20
q-48 0 -84.5 -20t-59 -54t-34 -80.5t-11.5 -98.5t11.5 -98t35 -80t59 -53.5t84.5 -19.5t84.5 19.5t58.5 53.5t34 80t11 98zM507 763h-106l89 146h129zM331 763h-102l85 146h123z" />
    <glyph glyph-name="Oslash" unicode="&#xd8;" horiz-adv-x="777" 
d="M723 356q0 -80 -22 -147.5t-64 -116.5t-105 -76.5t-144 -27.5q-57 0 -106.5 14t-87.5 40l-59 -75l-65 50l63 82q-40 48 -60 113t-20 144q0 81 22 148.5t64 117t105.5 77t143.5 27.5q58 0 104 -13.5t84 -39.5l58 75l66 -50l-61 -79q40 -49 62 -117t22 -146zM199 356
q0 -41 5 -74.5t19 -65.5l276 356q-42 37 -111 37q-48 0 -84.5 -20t-59.5 -55t-34 -80.5t-11 -97.5zM577 356q0 39 -6.5 78t-20.5 70l-277 -359q46 -40 116 -40q48 0 84 19.5t59 53.5t34 80t11 98z" />
    <glyph glyph-name="OE" unicode="&#x152;" horiz-adv-x="987" 
d="M53 354q0 83 23 149.5t67.5 113t112 72t155.5 25.5h525v-117h-287v-174h264v-117h-264v-189h295v-117h-533q-88 0 -155 24.5t-112 70.5t-68 111.5t-23 147.5zM503 597h-71q-60 0 -104.5 -17t-73 -49t-42 -76.5t-13.5 -98.5t13.5 -98t42 -75.5t72.5 -48.5t105 -17h71v480z
" />
    <glyph glyph-name="Racute" unicode="&#x154;" horiz-adv-x="653" 
d="M78 714h277q48 0 93 -10t79.5 -32.5t55 -60t20.5 -91.5q0 -63 -31.5 -104.5t-89.5 -61.5v-2q17 -6 30 -15t23 -23.5t19 -36.5t18 -57q17 -54 33 -108.5t33 -111.5h-157q-5 19 -11.5 44.5t-13 51.5t-12.5 49.5t-11 41.5q-8 29 -17 48.5t-23.5 31t-38.5 16.5t-62 5h-68
v-288h-146v714zM224 405h96q30 0 55 4.5t43.5 15.5t28.5 29.5t10 46.5q0 29 -11 48t-29.5 29.5t-43 14.5t-49.5 4h-100v-192zM362 763h-115l95 145h157z" />
    <glyph glyph-name="Rcaron" unicode="&#x158;" horiz-adv-x="653" 
d="M78 714h277q48 0 93 -10t79.5 -32.5t55 -60t20.5 -91.5q0 -63 -31.5 -104.5t-89.5 -61.5v-2q17 -6 30 -15t23 -23.5t19 -36.5t18 -57q17 -54 33 -108.5t33 -111.5h-157q-5 19 -11.5 44.5t-13 51.5t-12.5 49.5t-11 41.5q-8 29 -17 48.5t-23.5 31t-38.5 16.5t-62 5h-68
v-288h-146v714zM224 405h96q30 0 55 4.5t43.5 15.5t28.5 29.5t10 46.5q0 29 -11 48t-29.5 29.5t-43 14.5t-49.5 4h-100v-192zM249 912l73 -89l74 89h115l-115 -152h-146l-115 152h114z" />
    <glyph glyph-name="Rcommaaccent" unicode="&#x156;" horiz-adv-x="653" 
d="M78 714h277q48 0 93 -10t79.5 -32.5t55 -60t20.5 -91.5q0 -63 -31.5 -104.5t-89.5 -61.5v-2q17 -6 30 -15t23 -23.5t19 -36.5t18 -57q17 -54 33 -108.5t33 -111.5h-157q-5 19 -11.5 44.5t-13 51.5t-12.5 49.5t-11 41.5q-8 29 -17 48.5t-23.5 31t-38.5 16.5t-62 5h-68
v-288h-146v714zM224 405h96q30 0 55 4.5t43.5 15.5t28.5 29.5t10 46.5q0 29 -11 48t-29.5 29.5t-43 14.5t-49.5 4h-100v-192zM290 -219h-106l76 162h151z" />
    <glyph glyph-name="Sacute" unicode="&#x15a;" horiz-adv-x="568" 
d="M460 583q-38 14 -77 20t-76 6q-22 0 -42.5 -3.5t-36.5 -12.5t-25.5 -23.5t-9.5 -36.5q0 -19 8 -33.5t24.5 -27.5t42 -25.5t60.5 -26.5q44 -18 80 -37.5t63 -45t41 -59t14 -80.5q0 -53 -21.5 -93t-58.5 -66t-84.5 -38.5t-99.5 -12.5q-49 0 -105.5 8.5t-111.5 27.5l26 119
q50 -20 98.5 -29t87.5 -9q60 0 91 20.5t32 62.5q0 20 -8 35.5t-25.5 29t-44 26.5t-62.5 27q-43 17 -78 37t-61 45.5t-40 57.5t-14 73q0 55 22 94.5t58.5 64.5t81 36.5t89.5 11.5q52 0 100 -6.5t87 -19.5zM339 763h-115l95 145h157z" />
    <glyph glyph-name="Scircumflex" unicode="&#x15c;" horiz-adv-x="568" 
d="M460 583q-38 14 -77 20t-76 6q-22 0 -42.5 -3.5t-36.5 -12.5t-25.5 -23.5t-9.5 -36.5q0 -19 8 -33.5t24.5 -27.5t42 -25.5t60.5 -26.5q44 -18 80 -37.5t63 -45t41 -59t14 -80.5q0 -53 -21.5 -93t-58.5 -66t-84.5 -38.5t-99.5 -12.5q-49 0 -105.5 8.5t-111.5 27.5l26 119
q50 -20 98.5 -29t87.5 -9q60 0 91 20.5t32 62.5q0 20 -8 35.5t-25.5 29t-44 26.5t-62.5 27q-43 17 -78 37t-61 45.5t-40 57.5t-14 73q0 55 22 94.5t58.5 64.5t81 36.5t89.5 11.5q52 0 100 -6.5t87 -19.5zM360 760l-73 89l-73 -89h-116l116 152h146l115 -152h-115z" />
    <glyph glyph-name="Scaron" unicode="&#x160;" horiz-adv-x="568" 
d="M460 583q-38 14 -77 20t-76 6q-22 0 -42.5 -3.5t-36.5 -12.5t-25.5 -23.5t-9.5 -36.5q0 -19 8 -33.5t24.5 -27.5t42 -25.5t60.5 -26.5q44 -18 80 -37.5t63 -45t41 -59t14 -80.5q0 -53 -21.5 -93t-58.5 -66t-84.5 -38.5t-99.5 -12.5q-49 0 -105.5 8.5t-111.5 27.5l26 119
q50 -20 98.5 -29t87.5 -9q60 0 91 20.5t32 62.5q0 20 -8 35.5t-25.5 29t-44 26.5t-62.5 27q-43 17 -78 37t-61 45.5t-40 57.5t-14 73q0 55 22 94.5t58.5 64.5t81 36.5t89.5 11.5q52 0 100 -6.5t87 -19.5zM217 912l73 -89l74 89h115l-115 -152h-146l-115 152h114z" />
    <glyph glyph-name="Scedilla" unicode="&#x15e;" horiz-adv-x="568" 
d="M460 583q-40 14 -78 20t-75 6q-22 0 -42 -3.5t-36.5 -12.5t-26 -23.5t-9.5 -36.5q0 -19 8 -33.5t24.5 -27.5t42 -25.5t60.5 -26.5q44 -18 80 -37.5t62.5 -44.5t41 -59t14.5 -81q0 -48 -17 -84.5t-47.5 -62.5t-70 -41t-84.5 -19l-9 -36q5 1 10.5 1h10.5q36 0 62 -21
t26 -59q-1 -51 -40 -73t-96 -20q-11 0 -31 1t-36 5l7 60q14 -2 29.5 -3t25.5 -1q23 0 38 5.5t16 21.5q0 14 -13.5 19.5t-36.5 5.5q-12 0 -24 -0.5t-28 -2.5l13 95q-45 2 -92.5 10.5t-93.5 24.5l26 119q51 -20 99 -29t87 -9q60 0 91.5 21t31.5 62q0 20 -8 35.5t-25.5 29
t-44 26.5t-62.5 27q-43 17 -78.5 37t-61 45.5t-39.5 57.5t-14 73q0 55 22 94.5t58.5 64.5t80.5 36.5t90 11.5q52 0 99.5 -6.5t87.5 -19.5z" />
    <glyph glyph-name="Scommaaccent" unicode="&#x218;" horiz-adv-x="568" 
d="M460 583q-38 14 -77 20t-76 6q-22 0 -42.5 -3.5t-36.5 -12.5t-25.5 -23.5t-9.5 -36.5q0 -19 8 -33.5t24.5 -27.5t42 -25.5t60.5 -26.5q44 -18 80 -37.5t63 -45t41 -59t14 -80.5q0 -53 -21.5 -93t-58.5 -66t-84.5 -38.5t-99.5 -12.5q-49 0 -105.5 8.5t-111.5 27.5l26 119
q50 -20 98.5 -29t87.5 -9q60 0 91 20.5t32 62.5q0 20 -8 35.5t-25.5 29t-44 26.5t-62.5 27q-43 17 -78 37t-61 45.5t-40 57.5t-14 73q0 55 22 94.5t58.5 64.5t81 36.5t89.5 11.5q52 0 100 -6.5t87 -19.5zM244 -219h-106l76 162h151z" />
    <glyph glyph-name="Tcaron" unicode="&#x164;" horiz-adv-x="543" 
d="M200 597h-190v117h522v-117h-186v-597h-146v597zM198 912l73 -89l74 89h115l-115 -152h-146l-115 152h114z" />
    <glyph glyph-name="uni0162" unicode="&#x162;" horiz-adv-x="543" 
d="M200 597h-190v117h522v-117h-186v-597h-146v597zM230 -219h-106l76 162h151z" />
    <glyph glyph-name="uni021A" unicode="&#x21a;" horiz-adv-x="543" 
d="M200 597h-190v117h522v-117h-186v-597h-146v597zM230 -219h-106l76 162h151z" />
    <glyph glyph-name="Tbar" unicode="&#x166;" horiz-adv-x="543" 
d="M200 356h-97v78h97v163h-190v117h522v-117h-186v-163h96v-78h-96v-356h-146v356z" />
    <glyph glyph-name="Thorn" unicode="&#xde;" horiz-adv-x="638" 
d="M78 714h146v-107h124q52 0 98 -11t81.5 -37t56 -68.5t20.5 -105.5t-20 -107t-55 -71.5t-81.5 -40t-99.5 -12.5h-124v-154h-146v714zM224 271h109q60 0 92 25t33 84q0 32 -9 53t-27.5 34t-42 18t-53.5 5h-102v-219z" />
    <glyph glyph-name="Ugrave" unicode="&#xd9;" horiz-adv-x="710" 
d="M640 211q0 -54 -21.5 -96t-60 -70t-91 -42.5t-113.5 -14.5t-113 14.5t-90 42.5t-59.5 70t-21.5 96v503h146v-485q1 -66 39 -95.5t98 -28.5q30 0 55 7t44.5 22t30.5 39t11 56v485h146v-503zM332 908l94 -145h-115l-136 145h157z" />
    <glyph glyph-name="Uacute" unicode="&#xda;" horiz-adv-x="710" 
d="M640 211q0 -54 -21.5 -96t-60 -70t-91 -42.5t-113.5 -14.5t-113 14.5t-90 42.5t-59.5 70t-21.5 96v503h146v-485q1 -66 39 -95.5t98 -28.5q30 0 55 7t44.5 22t30.5 39t11 56v485h146v-503zM393 763h-115l95 145h157z" />
    <glyph glyph-name="Ucircumflex" unicode="&#xdb;" horiz-adv-x="710" 
d="M640 211q0 -54 -21.5 -96t-60 -70t-91 -42.5t-113.5 -14.5t-113 14.5t-90 42.5t-59.5 70t-21.5 96v503h146v-485q1 -66 39 -95.5t98 -28.5q30 0 55 7t44.5 22t30.5 39t11 56v485h146v-503zM426 760l-73 89l-73 -89h-116l116 152h146l115 -152h-115z" />
    <glyph glyph-name="Utilde" unicode="&#x168;" horiz-adv-x="710" 
d="M640 211q0 -54 -21.5 -96t-60 -70t-91 -42.5t-113.5 -14.5t-113 14.5t-90 42.5t-59.5 70t-21.5 96v503h146v-485q1 -66 39 -95.5t98 -28.5q30 0 55 7t44.5 22t30.5 39t11 56v485h146v-503zM376 879q20 -14 32 -18.5t23 -4.5q17 0 24.5 15.5t7.5 39.5h79q-1 -32 -7 -59
t-18 -47.5t-31 -31.5t-45 -11q-20 0 -37.5 6t-47.5 23q-28 16 -40 21t-22 5q-17 0 -25.5 -14.5t-9.5 -39.5h-79q4 72 32 110t72 38q24 0 43 -6.5t49 -25.5z" />
    <glyph glyph-name="Udieresis" unicode="&#xdc;" horiz-adv-x="710" 
d="M640 211q0 -54 -21.5 -96t-60 -70t-91 -42.5t-113.5 -14.5t-113 14.5t-90 42.5t-59.5 70t-21.5 96v503h146v-485q1 -66 39 -95.5t98 -28.5q30 0 55 7t44.5 22t30.5 39t11 56v485h146v-503zM313 783h-124v122h124v-122zM519 783h-125v122h125v-122z" />
    <glyph glyph-name="Umacron" unicode="&#x16a;" horiz-adv-x="710" 
d="M640 211q0 -54 -21.5 -96t-60 -70t-91 -42.5t-113.5 -14.5t-113 14.5t-90 42.5t-59.5 70t-21.5 96v503h146v-485q1 -66 39 -95.5t98 -28.5q30 0 55 7t44.5 22t30.5 39t11 56v485h146v-503zM498 796h-284v91h284v-91z" />
    <glyph glyph-name="Ubreve" unicode="&#x16c;" horiz-adv-x="710" 
d="M640 211q0 -54 -21.5 -96t-60 -70t-91 -42.5t-113.5 -14.5t-113 14.5t-90 42.5t-59.5 70t-21.5 96v503h146v-485q1 -66 39 -95.5t98 -28.5q30 0 55 7t44.5 22t30.5 39t11 56v485h146v-503zM357 845q43 1 60 21t17 50h95q-1 -31 -10.5 -58.5t-30 -49.5t-53 -34.5
t-78.5 -12.5q-45 0 -77 12.5t-52.5 34.5t-30 50t-10.5 58h95q-1 -28 16.5 -49t58.5 -22z" />
    <glyph glyph-name="Uring" unicode="&#x16e;" horiz-adv-x="710" 
d="M640 211q0 -54 -21.5 -96t-60 -70t-91 -42.5t-113.5 -14.5t-113 14.5t-90 42.5t-59.5 70t-21.5 96v503h146v-485q1 -66 39 -95.5t98 -28.5q30 0 55 7t44.5 22t30.5 39t11 56v485h146v-503zM356 949q45 0 75 -30.5t30 -75.5q0 -47 -29.5 -76.5t-76.5 -29.5q-45 0 -75 29.5
t-30 76.5q0 22 8 41.5t22 33.5t33.5 22.5t42.5 8.5zM355 899q-23 0 -38 -16.5t-15 -39.5q0 -25 15 -40.5t38 -15.5t38.5 15t15.5 40t-15.5 41t-38.5 16z" />
    <glyph glyph-name="Uhungarumlaut" unicode="&#x170;" horiz-adv-x="710" 
d="M640 211q0 -54 -21.5 -96t-60 -70t-91 -42.5t-113.5 -14.5t-113 14.5t-90 42.5t-59.5 70t-21.5 96v503h146v-485q1 -66 39 -95.5t98 -28.5q30 0 55 7t44.5 22t30.5 39t11 56v485h146v-503zM472 763h-106l89 146h129zM296 763h-102l85 146h123z" />
    <glyph glyph-name="Uogonek" unicode="&#x172;" horiz-adv-x="710" 
d="M640 211q0 -48 -17 -86.5t-47 -65.5t-72 -44t-93 -23q-32 -35 -42 -54t-10 -37t10.5 -24.5t26.5 -6.5q12 0 25 2t29 7l12 -71q-18 -7 -42 -10.5t-41 -3.5q-20 0 -41 3.5t-38 13.5t-27.5 27t-10.5 43q0 29 14 54.5t48 53.5q-55 3 -101.5 19t-80.5 44t-53 68t-19 91v503
h146v-489q2 -62 38.5 -91t98.5 -29q30 0 56 7.5t45 23t29.5 38.5t10.5 55v485h146v-503z" />
    <glyph glyph-name="Wcircumflex" unicode="&#x174;" horiz-adv-x="980" 
d="M492 581h-2l-100 -581h-205l-155 714h159l102 -584h2l92 584h215l89 -584h2l105 584h155l-155 -714h-206zM564 760l-73 89l-73 -89h-116l116 152h146l115 -152h-115z" />
    <glyph glyph-name="Wacute" unicode="&#x1e82;" horiz-adv-x="980" 
d="M492 581h-2l-100 -581h-205l-155 714h159l102 -584h2l92 584h215l89 -584h2l105 584h155l-155 -714h-206zM538 763h-115l95 145h157z" />
    <glyph glyph-name="Wdieresis" unicode="&#x1e84;" horiz-adv-x="980" 
d="M492 581h-2l-100 -581h-205l-155 714h159l102 -584h2l92 584h215l89 -584h2l105 584h155l-155 -714h-206zM450 783h-124v122h124v-122zM656 783h-125v122h125v-122z" />
    <glyph glyph-name="Wgrave" unicode="&#x1e80;" horiz-adv-x="980" 
d="M492 581h-2l-100 -581h-205l-155 714h159l102 -584h2l92 584h215l89 -584h2l105 584h155l-155 -714h-206zM470 908l94 -145h-115l-136 145h157z" />
    <glyph glyph-name="Yacute" unicode="&#xdd;" horiz-adv-x="673" 
d="M264 272l-263 442h171l166 -304l167 304h167l-262 -442v-272h-146v272zM389 763h-115l95 145h157z" />
    <glyph glyph-name="Ycircumflex" unicode="&#x176;" horiz-adv-x="673" 
d="M264 272l-263 442h171l166 -304l167 304h167l-262 -442v-272h-146v272zM411 760l-73 89l-73 -89h-116l116 152h146l115 -152h-115z" />
    <glyph glyph-name="Ydieresis" unicode="&#x178;" horiz-adv-x="673" 
d="M264 272l-263 442h171l166 -304l167 304h167l-262 -442v-272h-146v272zM297 783h-124v122h124v-122zM503 783h-125v122h125v-122z" />
    <glyph glyph-name="Ygrave" unicode="&#x1ef2;" horiz-adv-x="673" 
d="M264 272l-263 442h171l166 -304l167 304h167l-262 -442v-272h-146v272zM316 908l94 -145h-115l-136 145h157z" />
    <glyph glyph-name="Zacute" unicode="&#x179;" horiz-adv-x="603" 
d="M382 597h-317v117h491v-117l-345 -480h352v-117h-526v117zM356 763h-115l95 145h157z" />
    <glyph glyph-name="Zcaron" unicode="&#x17d;" horiz-adv-x="603" 
d="M382 597h-317v117h491v-117l-345 -480h352v-117h-526v117zM243 912l73 -89l74 89h115l-115 -152h-146l-115 152h114z" />
    <glyph glyph-name="Zdotaccent" unicode="&#x17b;" horiz-adv-x="603" 
d="M382 597h-317v117h491v-117l-345 -480h352v-117h-526v117zM387 779h-142v126h142v-126z" />
    <glyph glyph-name="agrave" unicode="&#xe0;" horiz-adv-x="583" 
d="M373 345q0 42 -29 65t-88 23q-29 0 -63 -6t-73 -20l-26 102q34 13 83 22t89 9q130 0 190.5 -53t58.5 -149v-218q0 -29 1.5 -62.5t6.5 -57.5h-126q-4 13 -7 32.5t-4 32.5h-2q-20 -35 -60 -56t-93 -21q-35 0 -69 8.5t-62 28.5t-43.5 50.5t-16.5 76.5q0 57 26 93t72 55
t108 26t127 6v13zM354 244q-36 0 -68 -3.5t-56.5 -13t-38 -26.5t-13.5 -43q0 -34 21 -53t57 -19q30 0 52.5 10t37 28t21 39t6.5 44v37h-19zM144 768h149l91 -164h-107z" />
    <glyph glyph-name="aacute" unicode="&#xe1;" horiz-adv-x="583" 
d="M373 345q0 42 -29 65t-88 23q-29 0 -63 -6t-73 -20l-26 102q34 13 83 22t89 9q130 0 190.5 -53t58.5 -149v-218q0 -29 1.5 -62.5t6.5 -57.5h-126q-4 13 -7 32.5t-4 32.5h-2q-20 -35 -60 -56t-93 -21q-35 0 -69 8.5t-62 28.5t-43.5 50.5t-16.5 76.5q0 57 26 93t72 55
t108 26t127 6v13zM354 244q-36 0 -68 -3.5t-56.5 -13t-38 -26.5t-13.5 -43q0 -34 21 -53t57 -19q30 0 52.5 10t37 28t21 39t6.5 44v37h-19zM347 604h-107l91 164h149z" />
    <glyph glyph-name="acircumflex" unicode="&#xe2;" horiz-adv-x="583" 
d="M373 345q0 42 -29 65t-88 23q-29 0 -63 -6t-73 -20l-26 102q34 13 83 22t89 9q130 0 190.5 -53t58.5 -149v-218q0 -29 1.5 -62.5t6.5 -57.5h-126q-4 13 -7 32.5t-4 32.5h-2q-20 -35 -60 -56t-93 -21q-35 0 -69 8.5t-62 28.5t-43.5 50.5t-16.5 76.5q0 57 26 93t72 55
t108 26t127 6v13zM354 244q-36 0 -68 -3.5t-56.5 -13t-38 -26.5t-13.5 -43q0 -34 21 -53t57 -19q30 0 52.5 10t37 28t21 39t6.5 44v37h-19zM361 604l-67 103l-66 -103h-104l101 164h140l101 -164h-105z" />
    <glyph glyph-name="atilde" unicode="&#xe3;" horiz-adv-x="583" 
d="M373 345q0 42 -29 65t-88 23q-29 0 -63 -6t-73 -20l-26 102q34 13 83 22t89 9q130 0 190.5 -53t58.5 -149v-218q0 -29 1.5 -62.5t6.5 -57.5h-126q-4 13 -7 32.5t-4 32.5h-2q-20 -35 -60 -56t-93 -21q-35 0 -69 8.5t-62 28.5t-43.5 50.5t-16.5 76.5q0 57 26 93t72 55
t108 26t127 6v13zM354 244q-36 0 -68 -3.5t-56.5 -13t-38 -26.5t-13.5 -43q0 -34 21 -53t57 -19q30 0 52.5 10t37 28t21 39t6.5 44v37h-19zM309 723q22 -14 33 -18.5t22 -4.5q17 0 24.5 15.5t7.5 39.5h79q-1 -62 -25.5 -105t-75.5 -43q-20 0 -37.5 5.5t-47.5 22.5
q-28 16 -40 21t-22 5q-16 0 -25 -14.5t-10 -39.5h-79q5 72 32 110t72 38q24 0 42.5 -6.5t49.5 -25.5z" />
    <glyph glyph-name="adieresis" unicode="&#xe4;" horiz-adv-x="583" 
d="M373 345q0 42 -29 65t-88 23q-29 0 -63 -6t-73 -20l-26 102q34 13 83 22t89 9q130 0 190.5 -53t58.5 -149v-218q0 -29 1.5 -62.5t6.5 -57.5h-126q-4 13 -7 32.5t-4 32.5h-2q-20 -35 -60 -56t-93 -21q-35 0 -69 8.5t-62 28.5t-43.5 50.5t-16.5 76.5q0 57 26 93t72 55
t108 26t127 6v13zM354 244q-36 0 -68 -3.5t-56.5 -13t-38 -26.5t-13.5 -43q0 -34 21 -53t57 -19q30 0 52.5 10t37 28t21 39t6.5 44v37h-19zM255 625h-124v118h124v-118zM461 625h-125v118h125v-118z" />
    <glyph glyph-name="amacron" unicode="&#x101;" horiz-adv-x="583" 
d="M373 345q0 42 -29 65t-88 23q-29 0 -63 -6t-73 -20l-26 102q34 13 83 22t89 9q130 0 190.5 -53t58.5 -149v-218q0 -29 1.5 -62.5t6.5 -57.5h-126q-4 13 -7 32.5t-4 32.5h-2q-20 -35 -60 -56t-93 -21q-35 0 -69 8.5t-62 28.5t-43.5 50.5t-16.5 76.5q0 57 26 93t72 55
t108 26t127 6v13zM354 244q-36 0 -68 -3.5t-56.5 -13t-38 -26.5t-13.5 -43q0 -34 21 -53t57 -19q30 0 52.5 10t37 28t21 39t6.5 44v37h-19zM442 638h-284v91h284v-91z" />
    <glyph glyph-name="abreve" unicode="&#x103;" horiz-adv-x="583" 
d="M373 345q0 42 -29 65t-88 23q-29 0 -63 -6t-73 -20l-26 102q34 13 83 22t89 9q130 0 190.5 -53t58.5 -149v-218q0 -29 1.5 -62.5t6.5 -57.5h-126q-4 13 -7 32.5t-4 32.5h-2q-20 -35 -60 -56t-93 -21q-35 0 -69 8.5t-62 28.5t-43.5 50.5t-16.5 76.5q0 57 26 93t72 55
t108 26t127 6v13zM354 244q-36 0 -68 -3.5t-56.5 -13t-38 -26.5t-13.5 -43q0 -34 21 -53t57 -19q30 0 52.5 10t37 28t21 39t6.5 44v37h-19zM299 686q43 1 60 21t17 49h95q-1 -30 -10.5 -58t-30 -50t-53 -34t-78.5 -13q-45 0 -77 13t-52.5 34.5t-30 49.5t-10.5 58h95
q-1 -27 16 -48t59 -22z" />
    <glyph glyph-name="aring" unicode="&#xe5;" horiz-adv-x="583" 
d="M373 345q0 42 -29 65t-88 23q-29 0 -63 -6t-73 -20l-26 102q34 13 83 22t89 9q130 0 190.5 -53t58.5 -149v-218q0 -29 1.5 -62.5t6.5 -57.5h-126q-4 13 -7 32.5t-4 32.5h-2q-20 -35 -60 -56t-93 -21q-35 0 -69 8.5t-62 28.5t-43.5 50.5t-16.5 76.5q0 57 26 93t72 55
t108 26t127 6v13zM354 244q-36 0 -68 -3.5t-56.5 -13t-38 -26.5t-13.5 -43q0 -34 21 -53t57 -19q30 0 52.5 10t37 28t21 39t6.5 44v37h-19zM300 799q45 0 75 -30.5t30 -75.5q-1 -48 -30 -76.5t-76 -29.5q-45 0 -74.5 29t-30.5 77q0 22 8 41.5t22 33.5t33.5 22.5t42.5 8.5z
M299 748q-23 0 -38 -15.5t-15 -39.5q0 -25 15 -41t38 -16t38.5 16t15.5 40q0 25 -15.5 40.5t-38.5 15.5z" />
    <glyph glyph-name="aogonek" unicode="&#x105;" horiz-adv-x="583" 
d="M373 345q0 42 -29 65t-88 23q-29 0 -63.5 -6t-72.5 -20l-26 102q40 14 86 22.5t87 8.5q131 -1 190 -53.5t58 -148.5v-218q0 -29 1.5 -62.5t6.5 -57.5h-47q-38 -40 -50 -61.5t-11 -37.5q0 -18 10.5 -24.5t26.5 -6.5q12 0 25 2t29 7l12 -71q-20 -8 -43 -11t-40 -3
q-20 0 -41 3.5t-38 13.5t-27.5 27t-10.5 43q0 32 18 60t60 60q-4 13 -6.5 32t-3.5 32h-2q-20 -35 -60 -56t-93 -21q-35 0 -68.5 8.5t-61.5 28t-44.5 51.5t-16.5 76q0 58 26.5 93.5t72 54.5t105 25.5t129.5 6.5v13zM354 244q-36 0 -68 -3.5t-56.5 -13t-38 -26.5t-13.5 -43
q0 -35 21 -53.5t57 -18.5q31 0 53.5 10.5t36.5 28t20.5 38.5t6.5 44v37h-19z" />
    <glyph glyph-name="ae" unicode="&#xe6;" horiz-adv-x="908" 
d="M231 -12q-35 0 -69 8t-61.5 26.5t-44.5 50t-17 77.5q0 57 26.5 93t73 54t105.5 24t128 6v17q0 43 -28 66t-89 23q-29 0 -65.5 -6.5t-70.5 -19.5q-6 26 -12.5 51t-13.5 51q37 13 85 22t87 9q66 0 119.5 -18t77.5 -56q26 32 70 53t97 21q111 0 174 -69.5t63 -188.5v-58
h-360q9 -66 53.5 -98t112.5 -32q35 0 69.5 4.5t63.5 14.5l8 -52l8 -52q-75 -21 -164 -21q-75 0 -130.5 23.5t-88.5 72.5q-31 -45 -77.5 -70t-129.5 -26zM627 444q-48 0 -80.5 -32t-39.5 -89h226v3q0 53 -28.5 85.5t-77.5 32.5zM354 239q-36 0 -68.5 -3.5t-56.5 -12.5
t-37.5 -25.5t-13.5 -42.5q0 -35 21.5 -52.5t58.5 -17.5q34 0 56 13t35 33t18 43.5t5 45.5v19h-18z" />
    <glyph glyph-name="cacute" unicode="&#x107;" horiz-adv-x="479" 
d="M426 417q-20 8 -42.5 12t-42.5 4q-38 0 -67 -13.5t-47.5 -36t-28.5 -54t-10 -66.5t9.5 -65.5t28.5 -53.5t48.5 -36t69.5 -13q21 0 43 3t43 12l22 -104q-29 -10 -59 -14t-61 -4q-71 0 -124.5 21t-89 57.5t-54 87t-18.5 109.5q0 60 19.5 111t55.5 87.5t89.5 57.5t120.5 21
q69 0 119 -17zM346 604h-107l91 164h149z" />
    <glyph glyph-name="ccircumflex" unicode="&#x109;" horiz-adv-x="479" 
d="M426 417q-20 8 -42.5 12t-42.5 4q-38 0 -67 -13.5t-47.5 -36t-28.5 -54t-10 -66.5t9.5 -65.5t28.5 -53.5t48.5 -36t69.5 -13q21 0 43 3t43 12l22 -104q-29 -10 -59 -14t-61 -4q-71 0 -124.5 21t-89 57.5t-54 87t-18.5 109.5q0 60 19.5 111t55.5 87.5t89.5 57.5t120.5 21
q69 0 119 -17zM360 604l-67 103l-66 -103h-104l101 164h140l101 -164h-105z" />
    <glyph glyph-name="ccaron" unicode="&#x10d;" horiz-adv-x="479" 
d="M426 417q-20 8 -42.5 12t-42.5 4q-38 0 -67 -13.5t-47.5 -36t-28.5 -54t-10 -66.5t9.5 -65.5t28.5 -53.5t48.5 -36t69.5 -13q21 0 43 3t43 12l22 -104q-29 -10 -59 -14t-61 -4q-71 0 -124.5 21t-89 57.5t-54 87t-18.5 109.5q0 60 19.5 111t55.5 87.5t89.5 57.5t120.5 21
q69 0 119 -17zM238 767l66 -104l66 104h105l-101 -164h-140l-101 164h105z" />
    <glyph glyph-name="cdotaccent" unicode="&#x10b;" horiz-adv-x="479" 
d="M426 417q-20 8 -42.5 12t-42.5 4q-38 0 -67 -13.5t-47.5 -36t-28.5 -54t-10 -66.5t9.5 -65.5t28.5 -53.5t48.5 -36t69.5 -13q21 0 43 3t43 12l22 -104q-29 -10 -59 -14t-61 -4q-71 0 -124.5 21t-89 57.5t-54 87t-18.5 109.5q0 60 19.5 111t55.5 87.5t89.5 57.5t120.5 21
q69 0 119 -17zM385 621h-142v127h142v-127z" />
    <glyph glyph-name="ccedilla" unicode="&#xe7;" horiz-adv-x="479" 
d="M426 417q-20 8 -42.5 12t-42.5 4q-38 0 -66.5 -13.5t-47.5 -36t-29 -54t-10 -66.5t9.5 -65.5t28.5 -53.5t48.5 -36t69.5 -13q21 0 43 3t43 12l22 -104q-29 -10 -59 -14t-61 -4h-16l-8 -33q5 1 10.5 1h10.5q36 0 62 -21t26 -59q-1 -47 -35 -70t-96 -23q-16 0 -36 1t-36 5
l7 60q14 -2 29.5 -3t25.5 -1q23 0 38.5 6t15.5 21q0 14 -13.5 19.5t-36.5 5.5q-12 0 -25.5 -0.5t-26.5 -2.5l14 104q-48 12 -85 36.5t-61.5 59.5t-37 77.5t-12.5 91.5q0 60 19.5 111t55.5 87.5t89.5 57.5t120.5 21q69 0 119 -17z" />
    <glyph glyph-name="dcaron" unicode="&#x10f;" horiz-adv-x="643" 
d="M431 735h142v-735h-139v67h-2q-31 -42 -74.5 -60.5t-88.5 -18.5q-54 0 -96 21.5t-70 59t-42.5 87.5t-14.5 108t15 108.5t43.5 87.5t71 58.5t96.5 21.5q46 0 87 -16.5t70 -54.5h2v266zM188 264q0 -36 7 -67t22 -54t37.5 -36t53.5 -13t55.5 13t41 35.5t25.5 54t9 68.5
q0 36 -9 67t-26 53.5t-41.5 35t-54.5 12.5t-53.5 -13t-38 -36t-21.5 -53.5t-7 -66.5zM694 604h-79l15 164h99z" />
    <glyph glyph-name="dcroat" unicode="&#x111;" horiz-adv-x="643" 
d="M431 583h-99v84h99v68h142v-68h49v-84h-49v-583h-139v67h-2q-31 -42 -74.5 -60.5t-88.5 -18.5q-54 0 -96 21.5t-70 59t-42.5 87.5t-14.5 108t15 108.5t44 87.5t71 58.5t96 21.5q45 0 86.5 -16.5t70.5 -54.5h2v114zM188 264q0 -36 7 -67t22 -54t37.5 -36t53.5 -13t55.5 13
t41 35.5t25.5 54t9 68.5q0 36 -9 67t-26 53.5t-41 35t-55 12.5t-53.5 -13t-37.5 -35.5t-22 -53.5t-7 -67z" />
    <glyph glyph-name="eth" unicode="&#xf0;" horiz-adv-x="631" 
d="M168 525v82l93 27q-36 17 -82 31l85 77q41 -14 74.5 -30.5t62.5 -36.5l119 40v-81l-52 -16q35 -37 57.5 -78.5t35 -84.5t17.5 -86t5 -83q0 -143 -70 -220.5t-202 -77.5q-59 0 -108 18.5t-83.5 52.5t-53.5 82t-19 107t17.5 106.5t49.5 81.5t79 52.5t104 18.5
q38 0 70.5 -9.5t58.5 -29.5h2q-9 28 -29.5 57t-52.5 56zM442 251q0 72 -34 114t-93 42q-58 0 -92 -42t-34 -114q0 -73 33.5 -114.5t92.5 -41.5q61 0 94 41.5t33 114.5z" />
    <glyph glyph-name="egrave" unicode="&#xe8;" horiz-adv-x="590" 
d="M186 222q4 -36 18.5 -59.5t37.5 -38.5t53.5 -22.5t64.5 -7.5q30 0 63.5 4.5t62.5 14.5l16 -104q-35 -10 -73.5 -15.5t-85.5 -5.5q-71 0 -126.5 20t-93.5 56.5t-58 87t-20 111.5q0 60 18.5 111t52.5 88t83.5 57.5t110.5 20.5q58 0 102.5 -18.5t74.5 -52.5t45.5 -82
t15.5 -108v-57h-362zM308 444q-50 0 -83 -34t-39 -89h229q1 55 -28.5 89t-78.5 34zM143 768h149l91 -164h-107z" />
    <glyph glyph-name="eacute" unicode="&#xe9;" horiz-adv-x="590" 
d="M186 222q4 -36 18.5 -59.5t37.5 -38.5t53.5 -22.5t64.5 -7.5q30 0 63.5 4.5t62.5 14.5l16 -104q-35 -10 -73.5 -15.5t-85.5 -5.5q-71 0 -126.5 20t-93.5 56.5t-58 87t-20 111.5q0 60 18.5 111t52.5 88t83.5 57.5t110.5 20.5q58 0 102.5 -18.5t74.5 -52.5t45.5 -82
t15.5 -108v-57h-362zM308 444q-50 0 -83 -34t-39 -89h229q1 55 -28.5 89t-78.5 34zM352 604h-107l91 164h149z" />
    <glyph glyph-name="ecircumflex" unicode="&#xea;" horiz-adv-x="590" 
d="M186 222q4 -36 18.5 -59.5t37.5 -38.5t53.5 -22.5t64.5 -7.5q30 0 63.5 4.5t62.5 14.5l16 -104q-35 -10 -73.5 -15.5t-85.5 -5.5q-71 0 -126.5 20t-93.5 56.5t-58 87t-20 111.5q0 60 18.5 111t52.5 88t83.5 57.5t110.5 20.5q58 0 102.5 -18.5t74.5 -52.5t45.5 -82
t15.5 -108v-57h-362zM308 444q-50 0 -83 -34t-39 -89h229q1 55 -28.5 89t-78.5 34zM374 604l-67 103l-66 -103h-104l101 164h140l101 -164h-105z" />
    <glyph glyph-name="ecaron" unicode="&#x11b;" horiz-adv-x="590" 
d="M186 222q4 -36 18.5 -59.5t37.5 -38.5t53.5 -22.5t64.5 -7.5q30 0 63.5 4.5t62.5 14.5l16 -104q-35 -10 -73.5 -15.5t-85.5 -5.5q-71 0 -126.5 20t-93.5 56.5t-58 87t-20 111.5q0 60 18.5 111t52.5 88t83.5 57.5t110.5 20.5q58 0 102.5 -18.5t74.5 -52.5t45.5 -82
t15.5 -108v-57h-362zM308 444q-50 0 -83 -34t-39 -89h229q1 55 -28.5 89t-78.5 34zM242 767l66 -104l66 104h105l-101 -164h-140l-101 164h105z" />
    <glyph glyph-name="edieresis" unicode="&#xeb;" horiz-adv-x="590" 
d="M186 222q4 -36 18.5 -59.5t37.5 -38.5t53.5 -22.5t64.5 -7.5q30 0 63.5 4.5t62.5 14.5l16 -104q-35 -10 -73.5 -15.5t-85.5 -5.5q-71 0 -126.5 20t-93.5 56.5t-58 87t-20 111.5q0 60 18.5 111t52.5 88t83.5 57.5t110.5 20.5q58 0 102.5 -18.5t74.5 -52.5t45.5 -82
t15.5 -108v-57h-362zM308 444q-50 0 -83 -34t-39 -89h229q1 55 -28.5 89t-78.5 34zM269 625h-124v118h124v-118zM475 625h-125v118h125v-118z" />
    <glyph glyph-name="emacron" unicode="&#x113;" horiz-adv-x="590" 
d="M186 222q4 -36 18.5 -59.5t37.5 -38.5t53.5 -22.5t64.5 -7.5q30 0 63.5 4.5t62.5 14.5l16 -104q-35 -10 -73.5 -15.5t-85.5 -5.5q-71 0 -126.5 20t-93.5 56.5t-58 87t-20 111.5q0 60 18.5 111t52.5 88t83.5 57.5t110.5 20.5q58 0 102.5 -18.5t74.5 -52.5t45.5 -82
t15.5 -108v-57h-362zM308 444q-50 0 -83 -34t-39 -89h229q1 55 -28.5 89t-78.5 34zM454 638h-284v91h284v-91z" />
    <glyph glyph-name="ebreve" unicode="&#x115;" horiz-adv-x="590" 
d="M186 222q4 -36 18.5 -59.5t37.5 -38.5t53.5 -22.5t64.5 -7.5q30 0 63.5 4.5t62.5 14.5l16 -104q-35 -10 -73.5 -15.5t-85.5 -5.5q-71 0 -126.5 20t-93.5 56.5t-58 87t-20 111.5q0 60 18.5 111t52.5 88t83.5 57.5t110.5 20.5q58 0 102.5 -18.5t74.5 -52.5t45.5 -82
t15.5 -108v-57h-362zM308 444q-50 0 -83 -34t-39 -89h229q1 55 -28.5 89t-78.5 34zM306 686q43 1 60 21t17 49h95q-1 -30 -10.5 -58t-30 -50t-53 -34t-78.5 -13q-45 0 -77 13t-52.5 34.5t-30 49.5t-10.5 58h95q-1 -27 16 -48t59 -22z" />
    <glyph glyph-name="edotaccent" unicode="&#x117;" horiz-adv-x="590" 
d="M186 222q4 -36 18.5 -59.5t37.5 -38.5t53.5 -22.5t64.5 -7.5q30 0 63.5 4.5t62.5 14.5l16 -104q-35 -10 -73.5 -15.5t-85.5 -5.5q-71 0 -126.5 20t-93.5 56.5t-58 87t-20 111.5q0 60 18.5 111t52.5 88t83.5 57.5t110.5 20.5q58 0 102.5 -18.5t74.5 -52.5t45.5 -82
t15.5 -108v-57h-362zM308 444q-50 0 -83 -34t-39 -89h229q1 55 -28.5 89t-78.5 34zM379 621h-142v127h142v-127z" />
    <glyph glyph-name="eogonek" unicode="&#x119;" horiz-adv-x="590" 
d="M186 222q3 -33 18 -58t38 -40t53.5 -22.5t64.5 -7.5q30 0 63.5 4.5t62.5 14.5l16 -104l-16 -4l-16 -4q-19 -20 -31.5 -35t-19 -27t-9 -21t-2.5 -17q0 -18 10.5 -24.5t26.5 -6.5q12 0 25 2t29 7l12 -71q-20 -8 -43 -11t-40 -3q-20 0 -41 3.5t-38 13.5t-27.5 26.5
t-10.5 43.5q0 29 14 54t47 54q-7 -1 -14 -1h-15q-71 0 -126.5 20t-93.5 56.5t-58 87t-20 111.5q0 60 18.5 111t52 87.5t83 57.5t111.5 21q58 0 102.5 -18.5t74.5 -52.5t45.5 -82t15.5 -108v-57h-362zM308 444q-50 0 -83 -34.5t-39 -88.5h229q1 56 -28.5 89.5t-78.5 33.5z
" />
    <glyph glyph-name="gcircumflex" unicode="&#x11d;" horiz-adv-x="641" 
d="M187 278q0 -34 7.5 -63t22 -50t37 -33t52.5 -12q31 0 55 12.5t41 33.5t26 50t9 62t-9 61.5t-26 49t-41.5 32.5t-54.5 12t-52.5 -11.5t-37.5 -32.5t-22 -49.5t-7 -61.5zM432 83h-2q-27 -35 -67 -52t-86 -17q-54 0 -97.5 20.5t-73 56t-45.5 83.5t-16 104t16 104t46 83
t73.5 55t96.5 20q47 0 86 -17t67 -53h2v58h139v-479q-1 -71 -25.5 -118t-66 -75t-93 -39.5t-104.5 -11.5q-46 0 -88.5 5.5t-77.5 15.5l17 105q37 -11 69.5 -15t63.5 -4q85 0 125.5 33t40.5 101v37zM394 604l-67 103l-66 -103h-104l101 164h140l101 -164h-105z" />
    <glyph glyph-name="gbreve" unicode="&#x11f;" horiz-adv-x="641" 
d="M187 278q0 -34 7.5 -63t22 -50t37 -33t52.5 -12q31 0 55 12.5t41 33.5t26 50t9 62t-9 61.5t-26 49t-41.5 32.5t-54.5 12t-52.5 -11.5t-37.5 -32.5t-22 -49.5t-7 -61.5zM432 83h-2q-27 -35 -67 -52t-86 -17q-54 0 -97.5 20.5t-73 56t-45.5 83.5t-16 104t16 104t46 83
t73.5 55t96.5 20q47 0 86 -17t67 -53h2v58h139v-479q-1 -71 -25.5 -118t-66 -75t-93 -39.5t-104.5 -11.5q-46 0 -88.5 5.5t-77.5 15.5l17 105q37 -11 69.5 -15t63.5 -4q85 0 125.5 33t40.5 101v37zM308 686q43 1 60 21t17 49h95q-1 -30 -10.5 -58t-30 -50t-53 -34t-78.5 -13
q-45 0 -77 13t-52.5 34.5t-30 49.5t-10.5 58h95q-1 -27 16 -48t59 -22z" />
    <glyph glyph-name="gdotaccent" unicode="&#x121;" horiz-adv-x="641" 
d="M187 278q0 -34 7.5 -63t22 -50t37 -33t52.5 -12q31 0 55 12.5t41 33.5t26 50t9 62t-9 61.5t-26 49t-41.5 32.5t-54.5 12t-52.5 -11.5t-37.5 -32.5t-22 -49.5t-7 -61.5zM432 83h-2q-27 -35 -67 -52t-86 -17q-54 0 -97.5 20.5t-73 56t-45.5 83.5t-16 104t16 104t46 83
t73.5 55t96.5 20q47 0 86 -17t67 -53h2v58h139v-479q-1 -71 -25.5 -118t-66 -75t-93 -39.5t-104.5 -11.5q-46 0 -88.5 5.5t-77.5 15.5l17 105q37 -11 69.5 -15t63.5 -4q85 0 125.5 33t40.5 101v37zM388 621h-142v127h142v-127z" />
    <glyph glyph-name="gcommaaccent" unicode="&#x123;" horiz-adv-x="641" 
d="M187 278q0 -34 7.5 -63t22 -50t37 -33t52.5 -12q31 0 55 12.5t41 33.5t26 50t9 62t-9 61.5t-26 49t-41.5 32.5t-54.5 12t-52.5 -11.5t-37.5 -32.5t-22 -49.5t-7 -61.5zM432 83h-2q-27 -35 -67 -52t-86 -17q-54 0 -97.5 20.5t-73 56t-45.5 83.5t-16 104t16 104t46 83
t73.5 55t96.5 20q47 0 86 -17t67 -53h2v58h139v-479q-1 -71 -25.5 -118t-66 -75t-93 -39.5t-104.5 -11.5q-46 0 -88.5 5.5t-77.5 15.5l17 105q37 -11 69.5 -15t63.5 -4q85 0 125.5 33t40.5 101v37zM338 767h107l-78 -164h-150z" />
    <glyph glyph-name="hcircumflex" unicode="&#x125;" horiz-adv-x="632" 
d="M212 735v-278h2q21 40 63 61.5t94 21.5q44 0 80 -13.5t62 -39t39.5 -61t13.5 -78.5v-348h-142v295q0 32 -4.5 58t-15.5 43.5t-30 27t-48 9.5q-21 0 -41 -7.5t-36.5 -25t-26.5 -46t-10 -68.5v-286h-142v735h142zM357 772l-73 89l-73 -89h-116l116 152h146l115 -152h-115z
" />
    <glyph glyph-name="hbar" unicode="&#x127;" horiz-adv-x="632" 
d="M212 735v-68h95v-84h-95v-126h2q21 40 63.5 61.5t93.5 21.5q45 0 81 -13.5t61.5 -39t39 -61t13.5 -78.5v-348h-142v295q0 33 -4.5 58.5t-15.5 43t-30 27t-48 9.5q-21 0 -41 -8t-36.5 -25.5t-26.5 -45.5t-10 -68v-286h-142v583h-52v84h52v68h142z" />
    <glyph glyph-name="dotlessi" unicode="&#x131;" horiz-adv-x="282" 
d="M213 528v-528h-143v528h143z" />
    <glyph glyph-name="igrave" unicode="&#xec;" horiz-adv-x="282" 
d="M-32 768h149l91 -164h-107zM213 528v-528h-143v528h143z" />
    <glyph glyph-name="iacute" unicode="&#xed;" horiz-adv-x="282" 
d="M183 604h-107l91 164h149zM213 528v-528h-143v528h143z" />
    <glyph glyph-name="icircumflex" unicode="&#xee;" horiz-adv-x="282" 
d="M213 528v-528h-143v528h143zM211 604l-67 103l-66 -103h-104l101 164h140l101 -164h-105z" />
    <glyph glyph-name="itilde" unicode="&#x129;" horiz-adv-x="282" 
d="M163 723q22 -14 33 -18.5t22 -4.5q17 0 24.5 15.5t7.5 39.5h79q-1 -62 -25.5 -105t-75.5 -43q-20 0 -37.5 5.5t-47.5 22.5q-28 16 -40 21t-22 5q-16 0 -25 -14.5t-10 -39.5h-79q5 72 32 110t72 38q24 0 42.5 -6.5t49.5 -25.5zM213 528v-528h-143v528h143z" />
    <glyph glyph-name="idieresis" unicode="&#xef;" horiz-adv-x="282" 
d="M104 625h-124v118h124v-118zM310 625h-125v118h125v-118zM213 528v-528h-143v528h143z" />
    <glyph glyph-name="imacron" unicode="&#x12b;" horiz-adv-x="282" 
d="M289 638h-284v91h284v-91zM213 528v-528h-143v528h143z" />
    <glyph glyph-name="ibreve" unicode="&#x12d;" horiz-adv-x="282" 
d="M145 686q43 1 60 21t17 49h95q-1 -30 -10.5 -58t-30 -50t-53 -34t-78.5 -13q-45 0 -77 13t-52.5 34.5t-30 49.5t-10.5 58h95q-1 -27 16 -48t59 -22zM213 528v-528h-143v528h143z" />
    <glyph glyph-name="iogonek" unicode="&#x12f;" horiz-adv-x="282" 
d="M212 528v-528h-29q-38 -40 -49.5 -61.5t-11.5 -37.5q0 -18 10.5 -24.5t26.5 -6.5q12 0 25 2t29 7l12 -71q-20 -8 -43 -11t-40 -3q-20 0 -41 3.5t-38 13.5t-27.5 26.5t-10.5 43.5q0 32 17 59.5t59 59.5h-31v528h142zM212 732v-123h-142v123h142z" />
    <glyph glyph-name="dotlessj" unicode="&#x237;" horiz-adv-x="282" 
d="M212 -24q0 -40 -9 -71.5t-30 -53.5t-56.5 -34t-87.5 -12q-16 0 -34 1t-34 3v107q14 -2 24.5 -3t20.5 -1q37 0 50.5 18t13.5 63v535h142v-552z" />
    <glyph glyph-name="jcircumflex" unicode="&#x135;" horiz-adv-x="282" 
d="M212 -24q0 -40 -9 -71.5t-30 -53.5t-56.5 -34t-87.5 -12q-16 0 -34 1t-34 3v107q14 -2 24.5 -3t20.5 -1q37 0 50.5 18t13.5 63v535h142v-552zM203 604l-67 103l-66 -103h-104l101 164h140l101 -164h-105z" />
    <glyph glyph-name="kcommaaccent" unicode="&#x137;" horiz-adv-x="573" 
d="M558 528l-195 -236l207 -292h-171l-185 277h-2v-277h-142v735h142v-435h2l175 228h169zM248 -219h-106l76 162h151z" />
    <glyph glyph-name="kgreenlandic" unicode="&#x138;" horiz-adv-x="573" 
d="M558 528l-195 -236l207 -292h-171l-185 277h-2v-277h-142v528h142v-228h2l175 228h169z" />
    <glyph glyph-name="lacute" unicode="&#x13a;" horiz-adv-x="282" 
d="M212 735v-735h-142v735h142zM196 781h-115l95 145h157z" />
    <glyph glyph-name="lcaron" unicode="&#x13e;" horiz-adv-x="282" 
d="M212 735v-735h-142v735h142zM333 604h-79l15 164h99z" />
    <glyph glyph-name="lcommaaccent" unicode="&#x13c;" horiz-adv-x="282" 
d="M212 735v-735h-142v735h142zM98 -219h-106l76 162h151z" />
    <glyph glyph-name="lslash" unicode="&#x142;" horiz-adv-x="303" 
d="M221 735v-248l68 47v-93l-68 -47v-394h-142v321l-66 -46v94l66 44v322h142z" />
    <glyph glyph-name="ldot" unicode="&#x140;" horiz-adv-x="420" 
d="M212 735v-735h-142v735h142zM420 334h-142v127h142v-127z" />
    <glyph glyph-name="nacute" unicode="&#x144;" horiz-adv-x="632" 
d="M209 528v-71h2q20 40 64.5 61.5t95.5 21.5q45 0 81 -13.5t61.5 -39t39 -61t13.5 -78.5v-348h-142v295q0 32 -4.5 58.5t-15.5 43.5t-30 26.5t-48 9.5q-21 0 -40.5 -7.5t-36.5 -25t-27 -46t-10 -68.5v-286h-142v528h139zM366 604h-107l91 164h149z" />
    <glyph glyph-name="ncaron" unicode="&#x148;" horiz-adv-x="632" 
d="M209 528v-71h2q20 40 64.5 61.5t95.5 21.5q45 0 81 -13.5t61.5 -39t39 -61t13.5 -78.5v-348h-142v295q0 32 -4.5 58.5t-15.5 43.5t-30 26.5t-48 9.5q-21 0 -40.5 -7.5t-36.5 -25t-27 -46t-10 -68.5v-286h-142v528h139zM269 767l66 -104l66 104h105l-101 -164h-140
l-101 164h105z" />
    <glyph glyph-name="ntilde" unicode="&#xf1;" horiz-adv-x="632" 
d="M209 528v-71h2q20 40 64.5 61.5t95.5 21.5q45 0 81 -13.5t61.5 -39t39 -61t13.5 -78.5v-348h-142v295q0 32 -4.5 58.5t-15.5 43.5t-30 26.5t-48 9.5q-21 0 -40.5 -7.5t-36.5 -25t-27 -46t-10 -68.5v-286h-142v528h139zM348 723q22 -14 33 -18.5t22 -4.5q17 0 24.5 15.5
t7.5 39.5h79q-1 -62 -25.5 -105t-75.5 -43q-20 0 -37.5 5.5t-47.5 22.5q-28 16 -40 21t-22 5q-16 0 -25 -14.5t-10 -39.5h-79q5 72 32 110t72 38q24 0 42.5 -6.5t49.5 -25.5z" />
    <glyph glyph-name="ncommaaccent" unicode="&#x146;" horiz-adv-x="632" 
d="M209 528v-71h2q20 40 64.5 61.5t95.5 21.5q45 0 81 -13.5t61.5 -39t39 -61t13.5 -78.5v-348h-142v295q0 32 -4.5 58.5t-15.5 43.5t-30 26.5t-48 9.5q-21 0 -40.5 -7.5t-36.5 -25t-27 -46t-10 -68.5v-286h-142v528h139zM273 -219h-106l76 162h151z" />
    <glyph glyph-name="eng" unicode="&#x14b;" horiz-adv-x="632" 
d="M209 528v-71h2q21 41 65 62t95 21q45 0 81 -13.5t61.5 -39t39 -61t13.5 -78.5v-380q0 -80 -41.5 -121.5t-133.5 -41.5q-13 0 -36.5 1.5t-39.5 3.5v105q24 -3 45 -3q38 0 51 19t13 62v302q0 32 -4.5 58.5t-15.5 43.5t-30 26.5t-48 9.5q-21 0 -41 -8t-36.5 -25.5
t-26.5 -45.5t-10 -68v-286h-142v528h139z" />
    <glyph glyph-name="ograve" unicode="&#xf2;" horiz-adv-x="630" 
d="M584 265q0 -65 -19.5 -116.5t-54.5 -87t-84.5 -54.5t-110.5 -19q-62 0 -111.5 19t-84.5 55t-54 87t-19 116q0 64 19 115.5t54 86.5t84.5 54t111.5 19t111.5 -19t84.5 -54t54 -86.5t19 -115.5zM442 265q0 37 -8 68.5t-23.5 53t-39.5 34t-56 12.5q-62 0 -94.5 -45
t-32.5 -123q0 -79 32 -124t95 -46q64 1 95.5 46t31.5 124zM136 768h149l91 -164h-107z" />
    <glyph glyph-name="oacute" unicode="&#xf3;" horiz-adv-x="630" 
d="M584 265q0 -65 -19.5 -116.5t-54.5 -87t-84.5 -54.5t-110.5 -19q-62 0 -111.5 19t-84.5 55t-54 87t-19 116q0 64 19 115.5t54 86.5t84.5 54t111.5 19t111.5 -19t84.5 -54t54 -86.5t19 -115.5zM442 265q0 37 -8 68.5t-23.5 53t-39.5 34t-56 12.5q-62 0 -94.5 -45
t-32.5 -123q0 -79 32 -124t95 -46q64 1 95.5 46t31.5 124zM365 604h-107l91 164h149z" />
    <glyph glyph-name="ocircumflex" unicode="&#xf4;" horiz-adv-x="630" 
d="M584 265q0 -65 -19.5 -116.5t-54.5 -87t-84.5 -54.5t-110.5 -19q-62 0 -111.5 19t-84.5 55t-54 87t-19 116q0 64 19 115.5t54 86.5t84.5 54t111.5 19t111.5 -19t84.5 -54t54 -86.5t19 -115.5zM442 265q0 37 -8 68.5t-23.5 53t-39.5 34t-56 12.5q-62 0 -94.5 -45
t-32.5 -123q0 -79 32 -124t95 -46q64 1 95.5 46t31.5 124zM382 604l-67 103l-66 -103h-104l101 164h140l101 -164h-105z" />
    <glyph glyph-name="otilde" unicode="&#xf5;" horiz-adv-x="630" 
d="M584 265q0 -65 -19.5 -116.5t-54.5 -87t-84.5 -54.5t-110.5 -19q-62 0 -111.5 19t-84.5 55t-54 87t-19 116q0 64 19 115.5t54 86.5t84.5 54t111.5 19t111.5 -19t84.5 -54t54 -86.5t19 -115.5zM442 265q0 37 -8 68.5t-23.5 53t-39.5 34t-56 12.5q-62 0 -94.5 -45
t-32.5 -123q0 -79 32 -124t95 -46q64 1 95.5 46t31.5 124zM334 723q22 -14 33 -18.5t22 -4.5q17 0 24.5 15.5t7.5 39.5h79q-1 -62 -25.5 -105t-75.5 -43q-20 0 -37.5 5.5t-47.5 22.5q-28 16 -40 21t-22 5q-16 0 -25 -14.5t-10 -39.5h-79q5 72 32 110t72 38q24 0 42.5 -6.5
t49.5 -25.5z" />
    <glyph glyph-name="odieresis" unicode="&#xf6;" horiz-adv-x="630" 
d="M584 265q0 -65 -19.5 -116.5t-54.5 -87t-84.5 -54.5t-110.5 -19q-62 0 -111.5 19t-84.5 55t-54 87t-19 116q0 64 19 115.5t54 86.5t84.5 54t111.5 19t111.5 -19t84.5 -54t54 -86.5t19 -115.5zM442 265q0 37 -8 68.5t-23.5 53t-39.5 34t-56 12.5q-62 0 -94.5 -45
t-32.5 -123q0 -79 32 -124t95 -46q64 1 95.5 46t31.5 124zM274 625h-124v118h124v-118zM480 625h-125v118h125v-118z" />
    <glyph glyph-name="omacron" unicode="&#x14d;" horiz-adv-x="630" 
d="M584 265q0 -65 -19.5 -116.5t-54.5 -87t-84.5 -54.5t-110.5 -19q-62 0 -111.5 19t-84.5 55t-54 87t-19 116q0 64 19 115.5t54 86.5t84.5 54t111.5 19t111.5 -19t84.5 -54t54 -86.5t19 -115.5zM442 265q0 37 -8 68.5t-23.5 53t-39.5 34t-56 12.5q-62 0 -94.5 -45
t-32.5 -123q0 -79 32 -124t95 -46q64 1 95.5 46t31.5 124zM456 638h-284v91h284v-91z" />
    <glyph glyph-name="obreve" unicode="&#x14f;" horiz-adv-x="630" 
d="M584 265q0 -65 -19.5 -116.5t-54.5 -87t-84.5 -54.5t-110.5 -19q-62 0 -111.5 19t-84.5 55t-54 87t-19 116q0 64 19 115.5t54 86.5t84.5 54t111.5 19t111.5 -19t84.5 -54t54 -86.5t19 -115.5zM442 265q0 37 -8 68.5t-23.5 53t-39.5 34t-56 12.5q-62 0 -94.5 -45
t-32.5 -123q0 -79 32 -124t95 -46q64 1 95.5 46t31.5 124zM313 686q43 1 60 21t17 49h95q-1 -30 -10.5 -58t-30 -50t-53 -34t-78.5 -13q-45 0 -77 13t-52.5 34.5t-30 49.5t-10.5 58h95q-1 -27 16 -48t59 -22z" />
    <glyph glyph-name="ohungarumlaut" unicode="&#x151;" horiz-adv-x="630" 
d="M584 265q0 -65 -19.5 -116.5t-54.5 -87t-84.5 -54.5t-110.5 -19q-62 0 -111.5 19t-84.5 55t-54 87t-19 116q0 64 19 115.5t54 86.5t84.5 54t111.5 19t111.5 -19t84.5 -54t54 -86.5t19 -115.5zM442 265q0 37 -8 68.5t-23.5 53t-39.5 34t-56 12.5q-62 0 -94.5 -45
t-32.5 -123q0 -79 32 -124t95 -46q64 1 95.5 46t31.5 124zM462 604h-105l93 164h128zM289 604h-101l88 164h123z" />
    <glyph glyph-name="oslash" unicode="&#xf8;" horiz-adv-x="630" 
d="M584 265q0 -65 -19.5 -116.5t-54.5 -87t-84.5 -54.5t-110.5 -19q-83 0 -145 34l-49 -62l-59 45l50 64q-32 36 -49 85.5t-17 110.5q0 64 19 115.5t54 86.5t84.5 54t111.5 19q82 0 144 -34l48 60l59 -45l-48 -61q32 -35 49 -84.5t17 -110.5zM442 265q0 49 -13 84l-185 -233
q28 -21 71 -21q62 0 94.5 45t32.5 125zM188 265q0 -49 12 -85l185 232q-29 21 -70 21q-62 0 -94.5 -45.5t-32.5 -122.5z" />
    <glyph glyph-name="oe" unicode="&#x153;" horiz-adv-x="984" 
d="M580 222q3 -33 18 -57.5t38 -39.5t52.5 -22.5t62.5 -7.5q35 0 67.5 4.5t61.5 14.5l16 -104q-38 -12 -79 -17t-84 -5q-73 0 -130.5 25t-91.5 74q-34 -51 -85.5 -75t-116.5 -24q-60 0 -108 19t-83 55.5t-53.5 87t-18.5 115.5q0 64 19 115.5t53.5 86.5t82.5 54t108 19
q66 0 116.5 -23.5t85.5 -72.5q31 48 80.5 72t112.5 24q58 0 103 -18.5t74.5 -52.5t45 -82t15.5 -108v-57h-362zM443 265q0 37 -7.5 68t-23 53t-40 34.5t-57.5 12.5t-57 -12.5t-39.5 -34.5t-23 -53t-7.5 -68q0 -80 31.5 -125t95.5 -45t96 45t32 125zM702 444q-49 0 -82.5 -34
t-39.5 -89h229v2q0 56 -29 88.5t-78 32.5z" />
    <glyph glyph-name="racute" unicode="&#x155;" horiz-adv-x="397" 
d="M381 429q-10 2 -20 3t-21 1q-26 0 -49 -9t-41 -30t-28 -55.5t-10 -83.5v-255h-142v528h139v-69h2q38 81 138 81q10 0 20 -0.5t19 -1.5zM224 604h-107l91 164h149z" />
    <glyph glyph-name="rcaron" unicode="&#x159;" horiz-adv-x="397" 
d="M381 429q-10 2 -20 3t-21 1q-26 0 -49 -9t-41 -30t-28 -55.5t-10 -83.5v-255h-142v528h139v-69h2q38 81 138 81q10 0 20 -0.5t19 -1.5zM145 767l66 -104l66 104h105l-101 -164h-140l-101 164h105z" />
    <glyph glyph-name="rcommaaccent" unicode="&#x157;" horiz-adv-x="397" 
d="M381 429q-10 2 -20 3t-21 1q-26 0 -49 -9t-41 -30t-28 -55.5t-10 -83.5v-255h-142v528h139v-69h2q38 81 138 81q10 0 20 -0.5t19 -1.5zM111 -219h-106l76 162h151z" />
    <glyph glyph-name="sacute" unicode="&#x15b;" horiz-adv-x="492" 
d="M394 405q-41 16 -76.5 22t-67.5 6q-31 0 -50 -9.5t-20 -33.5q0 -23 20.5 -37t77.5 -32q42 -13 74.5 -28.5t55.5 -36t34.5 -46.5t11.5 -61q0 -45 -19.5 -76t-50.5 -49.5t-70.5 -27t-78.5 -8.5q-49 0 -102.5 10t-95.5 27l28 108q44 -19 90.5 -28.5t78.5 -9.5q41 0 63 10.5
t22 36.5q0 23 -24.5 38.5t-86.5 34.5q-85 28 -123.5 66t-38.5 95q1 43 18 74t46.5 51t66.5 29.5t75 9.5q42 0 88 -7.5t85 -22.5zM297 604h-107l91 164h149z" />
    <glyph glyph-name="scircumflex" unicode="&#x15d;" horiz-adv-x="492" 
d="M394 405q-41 16 -76.5 22t-67.5 6q-31 0 -50 -9.5t-20 -33.5q0 -23 20.5 -37t77.5 -32q42 -13 74.5 -28.5t55.5 -36t34.5 -46.5t11.5 -61q0 -45 -19.5 -76t-50.5 -49.5t-70.5 -27t-78.5 -8.5q-49 0 -102.5 10t-95.5 27l28 108q44 -19 90.5 -28.5t78.5 -9.5q41 0 63 10.5
t22 36.5q0 23 -24.5 38.5t-86.5 34.5q-85 28 -123.5 66t-38.5 95q1 43 18 74t46.5 51t66.5 29.5t75 9.5q42 0 88 -7.5t85 -22.5zM314 604l-67 103l-66 -103h-104l101 164h140l101 -164h-105z" />
    <glyph glyph-name="scaron" unicode="&#x161;" horiz-adv-x="492" 
d="M394 405q-41 16 -76.5 22t-67.5 6q-31 0 -50 -9.5t-20 -33.5q0 -23 20.5 -37t77.5 -32q42 -13 74.5 -28.5t55.5 -36t34.5 -46.5t11.5 -61q0 -45 -19.5 -76t-50.5 -49.5t-70.5 -27t-78.5 -8.5q-49 0 -102.5 10t-95.5 27l28 108q44 -19 90.5 -28.5t78.5 -9.5q41 0 63 10.5
t22 36.5q0 23 -24.5 38.5t-86.5 34.5q-85 28 -123.5 66t-38.5 95q1 43 18 74t46.5 51t66.5 29.5t75 9.5q42 0 88 -7.5t85 -22.5zM188 767l66 -104l66 104h105l-101 -164h-140l-101 164h105z" />
    <glyph glyph-name="scedilla" unicode="&#x15f;" horiz-adv-x="492" 
d="M394 405q-45 17 -79.5 22.5t-64.5 5.5q-32 0 -51 -10t-19 -33q0 -22 20 -36.5t78 -32.5q42 -13 74.5 -28.5t55 -36t34.5 -46.5t12 -61q0 -39 -15 -67.5t-40 -47.5t-57.5 -29.5t-66.5 -14.5l-9 -35q5 1 10.5 1h10.5q36 0 62 -21t26 -59q0 -49 -37 -71.5t-94 -21.5
q-16 0 -36 1t-36 5l7 60q14 -2 29.5 -3t25.5 -1q23 0 38 5.5t16 21.5q0 14 -13.5 19.5t-36.5 5.5q-12 0 -25.5 -0.5t-26.5 -2.5l13 95q-42 3 -85 12.5t-77 23.5l28 108q44 -19 90.5 -28.5t78.5 -9.5q41 0 63 10.5t22 36.5q0 23 -23.5 38t-87.5 35q-85 28 -123.5 66t-38.5 95
q0 41 17.5 72.5t47 52t66.5 30t75 9.5q42 0 87.5 -7.5t85.5 -22.5z" />
    <glyph glyph-name="scommaaccent" unicode="&#x219;" horiz-adv-x="492" 
d="M394 405q-41 16 -76.5 22t-67.5 6q-31 0 -50 -9.5t-20 -33.5q0 -23 20.5 -37t77.5 -32q42 -13 74.5 -28.5t55.5 -36t34.5 -46.5t11.5 -61q0 -45 -19.5 -76t-50.5 -49.5t-70.5 -27t-78.5 -8.5q-49 0 -102.5 10t-95.5 27l28 108q44 -19 90.5 -28.5t78.5 -9.5q41 0 63 10.5
t22 36.5q0 23 -24.5 38.5t-86.5 34.5q-85 28 -123.5 66t-38.5 95q1 43 18 74t46.5 51t66.5 29.5t75 9.5q42 0 88 -7.5t85 -22.5zM215 -219h-106l76 162h151z" />
    <glyph glyph-name="germandbls" unicode="&#xdf;" horiz-adv-x="672" 
d="M350 735q49 0 93 -11.5t78.5 -36t55 -62.5t20.5 -90q-1 -65 -36.5 -106t-89.5 -53v-2q25 -4 52.5 -15.5t50.5 -32.5t38 -53t15 -77q0 -56 -20 -95.5t-52 -64.5t-73.5 -36.5t-83.5 -11.5q-31 0 -64.5 4t-59.5 12l14 103q21 -6 45.5 -9t43.5 -3q48 0 78 24.5t31 78.5
q0 57 -42 83.5t-134 26.5v109q67 3 105.5 30t39.5 81q0 46 -29.5 72t-79.5 26q-66 0 -100 -40t-34 -118v-468h-142v477q0 75 23.5 125t63 79.5t90.5 41.5t103 12z" />
    <glyph glyph-name="tcaron" unicode="&#x165;" horiz-adv-x="368" 
d="M10 528h81v140h142v-140h110v-107h-110v-236q0 -27 2.5 -44t9 -25t18 -11t30.5 -3q13 0 23.5 1t23.5 3v-106q-20 -2 -44 -3.5t-48 -1.5q-50 0 -80.5 10t-47.5 29t-23 47.5t-6 66.5v273h-81v107zM368 604h-79l15 164h99z" />
    <glyph glyph-name="uni0163" unicode="&#x163;" horiz-adv-x="368" 
d="M10 528h81v140h142v-140h110v-107h-110v-236q0 -27 2.5 -44t9 -25t18 -11t30.5 -3q13 0 23.5 1t23.5 3v-106q-20 -2 -44 -3.5t-48 -1.5q-50 0 -80.5 10t-47.5 29t-23 47.5t-6 66.5v273h-81v107zM178 -219h-106l76 162h151z" />
    <glyph glyph-name="uni021B" unicode="&#x21b;" horiz-adv-x="368" 
d="M10 528h81v140h142v-140h110v-107h-110v-236q0 -27 2.5 -44t9 -25t18 -11t30.5 -3q13 0 23.5 1t23.5 3v-106q-20 -2 -44 -3.5t-48 -1.5q-50 0 -80.5 10t-47.5 29t-23 47.5t-6 66.5v273h-81v107zM178 -219h-106l76 162h151z" />
    <glyph glyph-name="tbar" unicode="&#x167;" horiz-adv-x="368" 
d="M10 528h81v140h142v-140h110v-107h-110v-109h85v-80h-85v-47q0 -27 2.5 -43.5t8.5 -24.5t16 -11.5t33 -3.5q13 0 24.5 1t22.5 3v-106q-20 -2 -44 -3.5t-48 -1.5q-50 0 -80.5 10t-47.5 29.5t-23 47.5t-6 66v84h-69v80h69v109h-81v107z" />
    <glyph glyph-name="thorn" unicode="&#xfe;" horiz-adv-x="644" 
d="M211 -195h-141v930h141v-275h2q30 42 72.5 61t87.5 19q54 0 96 -21.5t70 -59t42.5 -87.5t14.5 -108t-15 -108.5t-43.5 -87.5t-71.5 -58.5t-97 -21.5q-45 0 -85.5 16t-70.5 54h-2v-253zM454 264q0 36 -7 67t-21.5 53.5t-37 35.5t-53.5 13t-55.5 -12.5t-41.5 -35t-26 -53.5
t-9 -68t9 -67.5t25.5 -53.5t41 -36t56.5 -13q31 0 53.5 13t37 36t21.5 54t7 67z" />
    <glyph glyph-name="ugrave" unicode="&#xf9;" horiz-adv-x="632" 
d="M423 0v71h-2q-20 -40 -64 -61.5t-95 -21.5q-45 0 -81.5 14t-61.5 39t-39 60t-14 79v348h142v-295q0 -32 4.5 -57t16 -43.5t30.5 -28t48 -9.5q21 0 41 8t36 24.5t26 45t10 69.5v286h142v-528h-139zM140 768h149l91 -164h-107z" />
    <glyph glyph-name="uacute" unicode="&#xfa;" horiz-adv-x="632" 
d="M423 0v71h-2q-20 -40 -64 -61.5t-95 -21.5q-45 0 -81.5 14t-61.5 39t-39 60t-14 79v348h142v-295q0 -32 4.5 -57t16 -43.5t30.5 -28t48 -9.5q21 0 41 8t36 24.5t26 45t10 69.5v286h142v-528h-139zM349 604h-107l91 164h149z" />
    <glyph glyph-name="ucircumflex" unicode="&#xfb;" horiz-adv-x="632" 
d="M423 0v71h-2q-20 -40 -64 -61.5t-95 -21.5q-45 0 -81.5 14t-61.5 39t-39 60t-14 79v348h142v-295q0 -32 4.5 -57t16 -43.5t30.5 -28t48 -9.5q21 0 41 8t36 24.5t26 45t10 69.5v286h142v-528h-139zM378 604l-67 103l-66 -103h-104l101 164h140l101 -164h-105z" />
    <glyph glyph-name="utilde" unicode="&#x169;" horiz-adv-x="632" 
d="M423 0v71h-2q-20 -40 -64 -61.5t-95 -21.5q-45 0 -81.5 14t-61.5 39t-39 60t-14 79v348h142v-295q0 -32 4.5 -57t16 -43.5t30.5 -28t48 -9.5q21 0 41 8t36 24.5t26 45t10 69.5v286h142v-528h-139zM332 723q22 -14 33 -18.5t22 -4.5q17 0 24.5 15.5t7.5 39.5h79
q-1 -62 -25.5 -105t-75.5 -43q-20 0 -37.5 5.5t-47.5 22.5q-28 16 -40 21t-22 5q-16 0 -25 -14.5t-10 -39.5h-79q5 72 32 110t72 38q24 0 42.5 -6.5t49.5 -25.5z" />
    <glyph glyph-name="udieresis" unicode="&#xfc;" horiz-adv-x="632" 
d="M423 0v71h-2q-20 -40 -64 -61.5t-95 -21.5q-45 0 -81.5 14t-61.5 39t-39 60t-14 79v348h142v-295q0 -32 4.5 -57t16 -43.5t30.5 -28t48 -9.5q21 0 41 8t36 24.5t26 45t10 69.5v286h142v-528h-139zM271 625h-124v118h124v-118zM477 625h-125v118h125v-118z" />
    <glyph glyph-name="umacron" unicode="&#x16b;" horiz-adv-x="632" 
d="M423 0v71h-2q-20 -40 -64 -61.5t-95 -21.5q-45 0 -81.5 14t-61.5 39t-39 60t-14 79v348h142v-295q0 -32 4.5 -57t16 -43.5t30.5 -28t48 -9.5q21 0 41 8t36 24.5t26 45t10 69.5v286h142v-528h-139zM454 638h-284v91h284v-91z" />
    <glyph glyph-name="ubreve" unicode="&#x16d;" horiz-adv-x="632" 
d="M423 0v71h-2q-20 -40 -64 -61.5t-95 -21.5q-45 0 -81.5 14t-61.5 39t-39 60t-14 79v348h142v-295q0 -32 4.5 -57t16 -43.5t30.5 -28t48 -9.5q21 0 41 8t36 24.5t26 45t10 69.5v286h142v-528h-139zM309 686q43 1 60 21t17 49h95q-1 -30 -10.5 -58t-30 -50t-53 -34
t-78.5 -13q-45 0 -77 13t-52.5 34.5t-30 49.5t-10.5 58h95q-1 -27 16 -48t59 -22z" />
    <glyph glyph-name="uring" unicode="&#x16f;" horiz-adv-x="632" 
d="M423 0v71h-2q-20 -40 -64 -61.5t-95 -21.5q-45 0 -81.5 14t-61.5 39t-39 60t-14 79v348h142v-295q0 -32 4.5 -57t16 -43.5t30.5 -28t48 -9.5q21 0 41 8t36 24.5t26 45t10 69.5v286h142v-528h-139zM313 799q45 0 75 -30.5t30 -75.5q-1 -48 -30 -76.5t-76 -29.5
q-45 0 -74.5 29t-30.5 77q0 22 8 41.5t22 33.5t33.5 22.5t42.5 8.5zM312 748q-23 0 -38 -15.5t-15 -39.5q0 -25 15 -41t38 -16t38.5 16t15.5 40q0 25 -15.5 40.5t-38.5 15.5z" />
    <glyph glyph-name="uhungarumlaut" unicode="&#x171;" horiz-adv-x="632" 
d="M423 0v71h-2q-20 -40 -64 -61.5t-95 -21.5q-45 0 -81.5 14t-61.5 39t-39 60t-14 79v348h142v-295q0 -32 4.5 -57t16 -43.5t30.5 -28t48 -9.5q21 0 41 8t36 24.5t26 45t10 69.5v286h142v-528h-139zM454 604h-105l93 164h128zM281 604h-101l88 164h123z" />
    <glyph glyph-name="uogonek" unicode="&#x173;" horiz-adv-x="636" 
d="M505 0q-38 -40 -49.5 -61t-11.5 -38q0 -18 10.5 -24.5t26.5 -6.5q12 0 25 2t29 7l12 -71q-20 -8 -43 -11t-40 -3q-20 0 -41 3.5t-38 13.5t-27.5 26.5t-10.5 43.5q0 32 17.5 59.5t58.5 59.5v71h-2q-20 -40 -64 -61.5t-95 -21.5q-44 0 -80.5 13.5t-62 39t-39.5 60.5t-14 79
v348h142v-295q0 -32 4.5 -57t16 -43.5t30.5 -28t48 -9.5q21 0 40.5 7.5t36 25t26.5 45.5t10 69v286h142v-528h-57z" />
    <glyph glyph-name="wcircumflex" unicode="&#x175;" horiz-adv-x="864" 
d="M612 128h2l83 400h145l-139 -528h-182l-89 406h-2l-89 -406h-181l-138 528h146l86 -400h2l85 400h181zM496 604l-67 103l-66 -103h-104l101 164h140l101 -164h-105z" />
    <glyph glyph-name="wacute" unicode="&#x1e83;" horiz-adv-x="864" 
d="M612 128h2l83 400h145l-139 -528h-182l-89 406h-2l-89 -406h-181l-138 528h146l86 -400h2l85 400h181zM476 604h-107l91 164h149z" />
    <glyph glyph-name="wdieresis" unicode="&#x1e85;" horiz-adv-x="864" 
d="M612 128h2l83 400h145l-139 -528h-182l-89 406h-2l-89 -406h-181l-138 528h146l86 -400h2l85 400h181zM390 625h-124v118h124v-118zM596 625h-125v118h125v-118z" />
    <glyph glyph-name="wgrave" unicode="&#x1e81;" horiz-adv-x="864" 
d="M612 128h2l83 400h145l-139 -528h-182l-89 406h-2l-89 -406h-181l-138 528h146l86 -400h2l85 400h181zM260 768h149l91 -164h-107z" />
    <glyph glyph-name="yacute" unicode="&#xfd;" horiz-adv-x="566" 
d="M285 174h2l127 354h149l-286 -723h-151l86 207l-208 516h153zM337 604h-107l91 164h149z" />
    <glyph glyph-name="ycircumflex" unicode="&#x177;" horiz-adv-x="566" 
d="M285 174h2l127 354h149l-286 -723h-151l86 207l-208 516h153zM355 604l-67 103l-66 -103h-104l101 164h140l101 -164h-105z" />
    <glyph glyph-name="ydieresis" unicode="&#xff;" horiz-adv-x="566" 
d="M285 174h2l127 354h149l-286 -723h-151l86 207l-208 516h153zM248 625h-124v118h124v-118zM454 625h-125v118h125v-118z" />
    <glyph glyph-name="ygrave" unicode="&#x1ef3;" horiz-adv-x="566" 
d="M285 174h2l127 354h149l-286 -723h-151l86 207l-208 516h153zM103 768h149l91 -164h-107z" />
    <glyph glyph-name="zacute" unicode="&#x17a;" horiz-adv-x="511" 
d="M296 421h-239v107h410v-106l-257 -315h268v-107h-442v105zM308 604h-107l91 164h149z" />
    <glyph glyph-name="zcaron" unicode="&#x17e;" horiz-adv-x="511" 
d="M296 421h-239v107h410v-106l-257 -315h268v-107h-442v105zM207 767l66 -104l66 104h105l-101 -164h-140l-101 164h105z" />
    <glyph glyph-name="zdotaccent" unicode="&#x17c;" horiz-adv-x="511" 
d="M296 421h-239v107h410v-106l-257 -315h268v-107h-442v105zM337 621h-142v127h142v-127z" />
    <glyph glyph-name="f_i" unicode="&#xf001;" horiz-adv-x="623" 
d="M514 619q-35 4 -71 6.5t-79 2.5q-69 0 -100 -18t-31 -68v-14h319v-528h-142v421h-177v-421h-142v421h-85v107h85v24q0 97 70 140t194 43q49 0 93 -3.5t73 -8.5z" />
    <glyph glyph-name="f_l" unicode="&#xf002;" horiz-adv-x="623" 
d="M552 0h-142v625q-27 3 -61 3q-24 0 -45.5 -3.5t-37 -13t-24.5 -25.5t-9 -41v-17h111v-107h-111v-421h-142v421h-85v107h85v38q0 76 61 122.5t190 46.5q51 0 108 -5t102 -11v-719z" />
    <glyph glyph-name="grave.cap" horiz-adv-x="461" 
d="M256 908l94 -145h-115l-136 145h157z" />
    <glyph glyph-name="acute" unicode="&#xb4;" horiz-adv-x="461" 
d="M225 604h-107l91 164h149z" />
    <glyph glyph-name="acute.cap" horiz-adv-x="461" 
d="M228 763h-115l95 145h157z" />
    <glyph glyph-name="circumflex" unicode="&#x2c6;" horiz-adv-x="461" 
d="M296 604l-67 103l-66 -103h-104l101 164h140l101 -164h-105z" />
    <glyph glyph-name="circumflex.cap" horiz-adv-x="461" 
d="M303 760l-73 89l-73 -89h-116l116 152h146l115 -152h-115z" />
    <glyph glyph-name="caron" unicode="&#x2c7;" horiz-adv-x="461" 
d="M164 767l66 -104l66 104h105l-101 -164h-140l-101 164h105z" />
    <glyph glyph-name="caron.cap" horiz-adv-x="461" 
d="M156 912l73 -89l74 89h115l-115 -152h-146l-115 152h114z" />
    <glyph glyph-name="caron.alt" horiz-adv-x="461" 
d="M237 604h-79l15 164h99z" />
    <glyph glyph-name="tilde" unicode="&#x2dc;" horiz-adv-x="461" 
d="M246 723q22 -14 33 -18.5t22 -4.5q17 0 24.5 15.5t7.5 39.5h79q-1 -62 -25.5 -105t-75.5 -43q-20 0 -37.5 5.5t-47.5 22.5q-28 16 -40 21t-22 5q-16 0 -25 -14.5t-10 -39.5h-79q5 72 32 110t72 38q24 0 42.5 -6.5t49.5 -25.5z" />
    <glyph glyph-name="tilde.cap" horiz-adv-x="461" 
d="M246 879q20 -14 32 -18.5t23 -4.5q17 0 24.5 15.5t7.5 39.5h79q-1 -32 -7 -59t-18 -47.5t-31 -31.5t-45 -11q-20 0 -37.5 6t-47.5 23q-28 16 -40 21t-22 5q-17 0 -25.5 -14.5t-9.5 -39.5h-79q4 72 32 110t72 38q24 0 43 -6.5t49 -25.5z" />
    <glyph glyph-name="dieresis" unicode="&#xa8;" horiz-adv-x="461" 
d="M189 625h-124v118h124v-118zM395 625h-125v118h125v-118z" />
    <glyph glyph-name="dieresis.cap" horiz-adv-x="461" 
d="M189 783h-124v122h124v-122zM395 783h-125v122h125v-122z" />
    <glyph glyph-name="macron" unicode="&#xaf;" horiz-adv-x="461" 
d="M374 638h-284v91h284v-91z" />
    <glyph glyph-name="macron.cap" horiz-adv-x="461" 
d="M373 796h-284v91h284v-91z" />
    <glyph glyph-name="uni02C9" unicode="&#x2c9;" horiz-adv-x="461" 
d="M374 703h-284v91h284v-91z" />
    <glyph glyph-name="breve" unicode="&#x2d8;" horiz-adv-x="461" 
d="M229 686q43 1 60 21t17 49h95q-1 -30 -10.5 -58t-30 -50t-53 -34t-78.5 -13q-45 0 -77 13t-52.5 34.5t-30 49.5t-10.5 58h95q-1 -27 16 -48t59 -22z" />
    <glyph glyph-name="breve.cap" horiz-adv-x="461" 
d="M229 845q43 1 60 21t17 50h95q-1 -31 -10.5 -58.5t-30 -49.5t-53 -34.5t-78.5 -12.5q-45 0 -77 12.5t-52.5 34.5t-30 50t-10.5 58h95q-1 -28 16.5 -49t58.5 -22z" />
    <glyph glyph-name="ring" unicode="&#x2da;" horiz-adv-x="461" 
d="M231 799q45 0 75 -30.5t30 -75.5q-1 -48 -30 -76.5t-76 -29.5q-45 0 -74.5 29t-30.5 77q0 22 8 41.5t22 33.5t33.5 22.5t42.5 8.5zM230 748q-23 0 -38 -15.5t-15 -39.5q0 -25 15 -41t38 -16t38.5 16t15.5 40q0 25 -15.5 40.5t-38.5 15.5z" />
    <glyph glyph-name="ring.cap" horiz-adv-x="461" 
d="M231 949q45 0 75 -30.5t30 -75.5q0 -47 -29.5 -76.5t-76.5 -29.5q-45 0 -75 29.5t-30 76.5q0 22 8 41.5t22 33.5t33.5 22.5t42.5 8.5zM230 899q-23 0 -38 -16.5t-15 -39.5q0 -25 15 -40.5t38 -15.5t38.5 15t15.5 40t-15.5 41t-38.5 16z" />
    <glyph glyph-name="hungarumlaut" unicode="&#x2dd;" horiz-adv-x="461" 
d="M334 604h-105l93 164h128zM161 604h-101l88 164h123z" />
    <glyph glyph-name="hungarumlaut.cap" horiz-adv-x="461" 
d="M322 763h-106l89 146h129zM146 763h-102l85 146h123z" />
    <glyph glyph-name="dotaccent" unicode="&#x2d9;" horiz-adv-x="461" 
d="M299 621h-142v127h142v-127z" />
    <glyph glyph-name="dotaccent.cap" horiz-adv-x="461" 
d="M299 779h-142v126h142v-126z" />
    <glyph glyph-name="cedilla" unicode="&#xb8;" horiz-adv-x="461" 
d="M218 -45q5 1 10.5 1h10.5q37 0 62.5 -21t25.5 -59q-1 -50 -37 -71.5t-94 -21.5q-16 0 -36 1t-36 5l7 60q14 -2 29.5 -3t25.5 -1q22 0 38 5.5t16 21.5q0 14 -13.5 19.5t-36.5 5.5q-12 0 -25.5 -0.5t-26.5 -2.5l16 114h78z" />
    <glyph glyph-name="ogonek" unicode="&#x2db;" horiz-adv-x="461" 
d="M302 8q-22 -22 -35.5 -38.5t-20.5 -28.5t-10 -21.5t-3 -18.5q1 -18 11 -24.5t26 -6.5q12 0 25 2t29 7l12 -71q-20 -8 -43 -11t-40 -3q-20 0 -41 3.5t-38 13.5t-27.5 26.5t-10.5 43.5q0 33 20 62.5t67 64.5h79z" />
    <glyph glyph-name="commaaccent" horiz-adv-x="461" 
d="M216 -219h-106l76 162h151z" />
    <glyph glyph-name="commaaccent.alt" horiz-adv-x="461" 
d="M234 767h107l-78 -164h-150z" />
    <glyph glyph-name="ellipsis" unicode="&#x2026;" horiz-adv-x="925" 
d="M76 157h154v-157h-154v157zM385 157h154v-157h-154v157zM695 157h153v-157h-153v157z" />
    <glyph glyph-name="uni00AD" unicode="&#xad;" horiz-adv-x="396" 
d="M69 358h258v-115h-258v115z" />
    <glyph glyph-name="exclamdown" unicode="&#xa1;" horiz-adv-x="317" 
d="M96 280h126l19 -466h-164zM237 378h-153v150h153v-150z" />
    <glyph glyph-name="questiondown" unicode="&#xbf;" horiz-adv-x="497" 
d="M260 -81q31 0 68.5 10t82.5 34l40 -106q-45 -28 -98 -41.5t-107 -13.5q-48 0 -90 10.5t-73.5 35t-49.5 64t-18 96.5q3 52 24 89t63 69q31 24 50.5 39t30.5 27t15 24.5t4 31.5v17h135v-27q0 -50 -16.5 -81.5t-55.5 -63.5q-21 -15 -40.5 -30t-34 -31.5t-23.5 -34.5t-9 -38
q0 -23 8 -38.5t22 -24.5t32.5 -13t39.5 -4zM345 377h-156v151h156v-151z" />
    <glyph glyph-name="quoteleft" unicode="&#x2018;" horiz-adv-x="293" 
d="M191 491h-135l84 244h97z" />
    <glyph glyph-name="quoteright" unicode="&#x2019;" horiz-adv-x="293" 
d="M102 735h135l-84 -245h-97z" />
    <glyph glyph-name="quotedblleft" unicode="&#x201c;" horiz-adv-x="478" 
d="M376 490h-127l76 245h97zM183 490h-127l85 245h96z" />
    <glyph glyph-name="quotedblright" unicode="&#x201d;" horiz-adv-x="478" 
d="M102 735h127l-76 -244h-97zM294 735h128l-85 -244h-97z" />
    <glyph glyph-name="quotesinglbase" unicode="&#x201a;" horiz-adv-x="294" 
d="M102 106h135l-84 -244h-97z" />
    <glyph glyph-name="quotedblbase" unicode="&#x201e;" horiz-adv-x="478" 
d="M102 106h127l-76 -244h-97zM294 106h128l-85 -244h-97z" />
    <glyph glyph-name="guilsinglleft" unicode="&#x2039;" horiz-adv-x="356" 
d="M179 298l120 -206h-123l-119 203v5l123 203h119z" />
    <glyph glyph-name="guilsinglright" unicode="&#x203a;" horiz-adv-x="356" 
d="M177 298l-120 205h123l119 -203v-5l-123 -203h-119z" />
    <glyph glyph-name="guillemotleft" unicode="&#xab;" horiz-adv-x="565" 
d="M179 298l120 -206h-123l-119 203v5l123 203h119zM388 298l120 -206h-123l-119 203v5l122 203h120z" />
    <glyph glyph-name="guillemotright" unicode="&#xbb;" horiz-adv-x="565" 
d="M386 298l-120 205h123l119 -203v-5l-123 -203h-119zM177 298l-120 205h123l119 -203v-5l-123 -203h-119z" />
    <glyph glyph-name="endash" unicode="&#x2013;" horiz-adv-x="496" 
d="M471 253h-446v94h446v-94z" />
    <glyph glyph-name="emdash" unicode="&#x2014;" horiz-adv-x="796" 
d="M771 253h-746v94h746v-94z" />
    <glyph glyph-name="bullet" unicode="&#x2022;" horiz-adv-x="461" 
d="M66 329q0 34 12.5 64t35 52.5t52.5 35.5t64 13t64.5 -13t52.5 -35.5t35 -52.5t13 -64t-13 -64t-34.5 -52t-52.5 -35t-65 -13q-35 0 -64.5 13t-51.5 35t-35 52t-13 64z" />
    <glyph glyph-name="periodcentered" unicode="&#xb7;" horiz-adv-x="305" 
d="M76 380h154v-157h-154v157z" />
    <glyph glyph-name="uni2219" unicode="&#x2219;" horiz-adv-x="305" 
d="M76 380h154v-157h-154v157z" />
    <glyph glyph-name="dagger" unicode="&#x2020;" horiz-adv-x="513" 
d="M319 494h166v-101h-166v-516h-123v516h-167v101h167v174h123v-174z" />
    <glyph glyph-name="daggerdbl" unicode="&#x2021;" horiz-adv-x="513" 
d="M319 498h163v-101h-163v-251h163v-101h-163v-168h-123v168h-164v101h164v251h-164v101h164v170h123v-170z" />
    <glyph glyph-name="section" unicode="&#xa7;" horiz-adv-x="535" 
d="M93 -5q20 -10 42.5 -18t44.5 -14t42.5 -9t36.5 -3q43 0 67.5 13.5t24.5 48.5q0 15 -6 26t-21 22.5t-40.5 24t-65.5 30.5q-48 20 -81.5 38t-55 38t-31 44t-9.5 57q0 47 25.5 81.5t69.5 53.5q-72 42 -72 124q0 49 19 83.5t51.5 54.5t72.5 28t83 8q44 0 88 -8t80 -22
l-35 -107q-13 6 -30 11t-35 9t-36 6.5t-33 2.5q-42 0 -66 -13.5t-25 -46.5q0 -15 6.5 -26.5t21.5 -23t40.5 -23.5t63.5 -28q44 -18 75.5 -36.5t52 -39t30.5 -45.5t10 -57q0 -46 -21.5 -77t-60.5 -50q39 -26 57 -56t18 -73q0 -51 -19 -85.5t-51.5 -56t-73.5 -30.5t-86 -9
q-49 0 -106 12.5t-101 34.5zM226 373q-22 -5 -39 -20t-18 -43q1 -31 22.5 -47.5t71.5 -37.5l59 -25q23 6 37.5 22.5t14.5 39.5q0 31 -23 50.5t-63 34.5z" />
    <glyph glyph-name="paragraph" unicode="&#xb6;" horiz-adv-x="554" 
d="M507 -117h-91v752h-74v-752h-91v441q-46 0 -84 14.5t-65.5 39t-43 59t-15.5 73.5q0 95 60.5 149.5t166.5 54.5h237v-831z" />
    <glyph glyph-name="brokenbar" unicode="&#xa6;" horiz-adv-x="465" 
d="M285 735v-368h-105v368h105zM285 173v-368h-105v368h105z" />
    <glyph glyph-name="copyright" unicode="&#xa9;" horiz-adv-x="796" 
d="M92 355q0 -64 22.5 -121t63 -99t97 -66.5t125.5 -24.5q67 0 123.5 24.5t96.5 67t62.5 99t22.5 120.5q0 65 -22.5 122.5t-62.5 100.5t-96.5 68t-123.5 25q-68 0 -125 -25t-97.5 -68t-63 -100.5t-22.5 -122.5zM33 355q0 77 27 143.5t76 117t117 79t147 28.5
q78 0 145.5 -28.5t115.5 -78t75 -117t27 -144.5t-27 -143t-74.5 -115t-114.5 -77.5t-147 -28.5q-81 0 -148 28.5t-116 78t-76 115.5t-27 142zM506 487q-19 8 -39 12t-40 4q-33 0 -57 -12t-38.5 -33t-21 -47.5t-6.5 -55.5q0 -27 7 -52.5t22 -45t39 -31t56 -11.5q42 0 80 16
l15 -79q-25 -10 -51.5 -14t-55.5 -4q-50 0 -89.5 16.5t-66.5 46t-41.5 70t-14.5 89.5q0 48 13.5 89t40.5 72t67 48.5t92 17.5q29 0 56.5 -3.5t48.5 -11.5z" />
    <glyph glyph-name="registered" unicode="&#xae;" horiz-adv-x="498" 
d="M37 525q0 44 15.5 82t43.5 66.5t67.5 45t86.5 16.5t86 -16.5t66.5 -44t43 -66.5t15.5 -83t-15 -82.5t-43 -67t-67 -44.5t-86 -16q-48 0 -87 16.5t-67 44.5t-43.5 66.5t-15.5 82.5zM71 525q0 -37 12.5 -69.5t36 -57t56.5 -38.5t74 -14q40 0 73 14t56.5 38.5t36 57
t12.5 69.5t-13 70t-36 56.5t-56 37.5t-73 14t-74 -14t-57 -38.5t-35.5 -56.5t-12.5 -69zM157 647h109q18 0 33.5 -3t27.5 -10.5t18.5 -20.5t6.5 -33q0 -21 -11 -36t-36 -22v-1q15 -5 22.5 -13.5t14.5 -30.5q6 -21 12.5 -39.5t11.5 -33.5h-64q-4 14 -8 30.5t-7 27.5
q-6 21 -15.5 27.5t-35.5 6.5h-21v-92h-58v243zM215 539h33q24 0 36 8t12 26q0 19 -12.5 25.5t-32.5 6.5h-36v-66z" />
    <glyph glyph-name="trademark" unicode="&#x2122;" horiz-adv-x="926" 
d="M365 645h-103v-314h-86v314h-105v69h294v-69zM823 331h-84v297h-2l-84 -297h-83l-83 297h-2v-297h-78v383h133l72 -282h2l72 282h137v-383z" />
    <glyph glyph-name="currency" unicode="&#xa4;" horiz-adv-x="555" 
d="M103 237q-10 20 -15 42t-5 46q0 23 5 44.5t15 40.5l-71 72l88 88l71 -72q38 20 87 20q46 0 86 -20l71 72l87 -88l-71 -70q10 -20 15.5 -42t5.5 -45q0 -48 -20 -88l70 -70l-88 -87q-17 17 -35 34.5t-35 35.5q-20 -11 -41.5 -15.5t-44.5 -4.5q-48 0 -88 20l-71 -70l-87 86z
M278 235q39 0 63 26t24 64q0 37 -25 62.5t-62 25.5q-38 0 -63 -25.5t-25 -62.5q0 -38 24.5 -64t63.5 -26z" />
    <glyph glyph-name="Euro" unicode="&#x20ac;" horiz-adv-x="649" 
d="M106 336v19v19.5t1 19.5h-89l25 88h79q15 55 44 99.5t71.5 77t99 50t121.5 17.5q45 0 87.5 -6.5t74.5 -19.5l-34 -115q-23 11 -53.5 17t-60.5 6q-78 0 -130.5 -32.5t-73.5 -93.5h286l-24 -88h-277q-1 -10 -1.5 -20t-0.5 -20v-18h266l-24 -88h-230q17 -66 70.5 -104
t137.5 -38q70 0 125 23l26 -115q-37 -14 -79.5 -20t-90.5 -6q-67 0 -122.5 18.5t-98 52.5t-71.5 82t-43 107h-100l25 88h64z" />
    <glyph glyph-name="cent" unicode="&#xa2;" horiz-adv-x="478" 
d="M421 415q-36 14 -69 17v-335q37 2 73 18l22 -108q-45 -15 -95 -18v-56h-77v59q-55 7 -97.5 30.5t-71.5 59.5t-43.5 82t-14.5 99q0 54 15 101t44 83t71.5 59.5t96.5 30.5v63h77v-61q25 -2 48 -5.5t44 -11.5zM190 263q0 -27 4.5 -53t14.5 -48t26 -38t40 -22v322
q-22 -7 -38.5 -23t-26.5 -37.5t-15 -47.5t-5 -53z" />
    <glyph glyph-name="sterling" unicode="&#xa3;" horiz-adv-x="594" 
d="M491 585q-19 9 -44 13.5t-47 4.5q-58 0 -84.5 -32t-26.5 -85v-67h165v-100h-165v-202h258v-117h-499v117h97v202h-90v100h90v72q0 52 15.5 95t47.5 73.5t79 47t110 16.5q36 0 70 -6t59 -17z" />
    <glyph glyph-name="florin" unicode="&#x192;" horiz-adv-x="571" 
d="M44 -11q17 -5 32.5 -7t26.5 -2q32 0 46 18t20 55l45 275h-109v105h127l20 112q5 34 17.5 66.5t35 57.5t58.5 40t89 15q24 0 51 -3.5t47 -10.5q-8 -27 -15.5 -53.5t-15.5 -53.5q-14 7 -29.5 9.5t-29.5 2.5q-34 0 -51.5 -24t-22.5 -59l-17 -99h117v-105h-133l-51 -297
q-8 -35 -21 -64.5t-34.5 -51t-55 -34t-81.5 -12.5q-15 0 -39 2.5t-48 10.5z" />
    <glyph glyph-name="yen" unicode="&#xa5;" horiz-adv-x="648" 
d="M253 234v58h-165v88h118l-191 334h155l155 -300l158 300h150l-192 -334h117v-88h-164v-58h164v-88h-164v-146h-141v146h-165v88h165z" />
    <glyph glyph-name="ordfeminine" unicode="&#xaa;" horiz-adv-x="354" 
d="M221 580q0 22 -16 34.5t-50 12.5q-18 0 -40 -4t-45 -13l-17 68q23 10 53.5 15t55.5 5q79 0 116 -31.5t37 -92.5v-130q0 -20 1 -39.5t3 -33.5h-84q-2 8 -3.5 17t-1.5 17h-2q-13 -21 -37.5 -31.5t-53.5 -10.5q-21 0 -42 5t-37.5 17t-26.5 31t-10 47q0 35 16 56.5t43 33.5
t63.5 16t77.5 4v7zM212 514q-43 0 -69.5 -9.5t-27.5 -37.5q0 -20 12 -29t31 -9q32 0 47 20.5t15 47.5v17h-8z" />
    <glyph glyph-name="ordmasculine" unicode="&#xba;" horiz-adv-x="383" 
d="M359 531q0 -78 -46 -122.5t-122 -44.5q-75 0 -121 44.5t-46 122.5q0 77 45.5 122t121.5 45q77 0 122.5 -44.5t45.5 -122.5zM261 531q0 43 -17 69.5t-53 26.5q-35 0 -52 -27t-17 -69q0 -45 17 -70t52 -26q37 1 53.5 26t16.5 70z" />
    <glyph glyph-name="fraction" unicode="&#x2044;" horiz-adv-x="121" 
d="M-91 0h-102l406 714h101z" />
    <glyph glyph-name="uni2215" unicode="&#x2215;" horiz-adv-x="121" 
d="M-91 0h-102l406 714h101z" />
    <glyph glyph-name="onequarter" unicode="&#xbc;" horiz-adv-x="883" 
d="M304 0h-102l406 714h101zM265 288h-103v333l-77 -42l-33 77l111 60h102v-428zM819 165h45v-81h-45v-84h-100v84h-194v96l160 248h134v-263zM719 335h-2l-101 -170h103v170z" />
    <glyph glyph-name="onehalf" unicode="&#xbd;" horiz-adv-x="883" 
d="M290 0h-102l406 714h101zM265 288h-103v333l-77 -42l-33 77l111 60h102v-428zM841 0h-294v82q54 45 89.5 78t57.5 58t31 44.5t9 37.5q0 26 -16.5 40t-42.5 14q-19 0 -43.5 -6.5t-54.5 -23.5l-30 72q30 20 66.5 30t71.5 10q68 0 108 -34.5t40 -97.5q0 -29 -9.5 -54.5
t-29.5 -51.5t-50.5 -54.5t-72.5 -63.5h170v-80z" />
    <glyph glyph-name="threequarters" unicode="&#xbe;" horiz-adv-x="883" 
d="M304 0h-102l406 714h101zM819 165h45v-81h-45v-84h-100v84h-194v96l160 248h134v-263zM719 335h-2l-101 -170h103v170zM100 546h53q36 0 57.5 11t22.5 39q0 24 -17.5 35.5t-43.5 11.5q-22 0 -45 -5t-49 -17l-23 77q27 13 60.5 19.5t68.5 6.5q30 0 57.5 -6.5t47.5 -20
t32 -35t12 -52.5t-15.5 -57t-52.5 -39v-2q42 -13 60 -41t18 -60q0 -35 -13 -59.5t-36 -40.5t-53.5 -23t-64.5 -7q-35 0 -69.5 7t-65.5 21l25 77q54 -24 104 -24q32 0 52 13t20 40q0 29 -25 40.5t-65 11.5h-52v79z" />
    <glyph glyph-name="perthousand" unicode="&#x2030;" horiz-adv-x="1208" 
d="M268 0h-102l419 714h99zM357 519q0 -91 -40.5 -143t-116.5 -52q-74 0 -115 52t-41 143q0 92 41.5 144.5t114.5 52.5q75 0 116 -52.5t41 -144.5zM251 519q0 47 -13 76.5t-38 29.5q-24 0 -36.5 -29.5t-12.5 -76.5q0 -45 12.5 -75t36.5 -30q25 0 38 30t13 75zM805 195
q0 -91 -41.5 -143t-116.5 -52q-74 0 -115 52.5t-41 142.5q0 92 41 144.5t115 52.5q76 0 117 -52.5t41 -144.5zM697 195q0 47 -12.5 76.5t-37.5 29.5q-24 0 -36.5 -29.5t-12.5 -76.5q0 -46 12 -75t37 -30q25 0 37.5 29t12.5 76zM1164 195q0 -91 -40.5 -143t-117.5 -52
q-75 0 -115.5 52t-40.5 143q0 92 40.5 144.5t115.5 52.5q77 0 117.5 -52.5t40.5 -144.5zM1057 195q0 47 -12.5 76.5t-38.5 29.5q-25 0 -37 -29.5t-12 -76.5q0 -46 12 -75.5t37 -29.5q26 0 38.5 29.5t12.5 75.5z" />
    <glyph glyph-name="minus" unicode="&#x2212;" horiz-adv-x="553" 
d="M35 265v100h482v-100h-482z" />
    <glyph glyph-name="plusminus" unicode="&#xb1;" horiz-adv-x="553" 
d="M35 169h482v-99h-482v99zM224 351h-189v100h189v139h104v-139h189v-100h-189v-136h-104v136z" />
    <glyph glyph-name="multiply" unicode="&#xd7;" horiz-adv-x="553" 
d="M201 312l-168 166l76 75l167 -167l166 167l75 -75l-167 -166l167 -167l-75 -75l-166 167l-167 -167l-76 75z" />
    <glyph glyph-name="divide" unicode="&#xf7;" horiz-adv-x="553" 
d="M218 196h120v-118h-120v118zM35 364h482v-100h-482v100zM218 549h120v-118h-120v118z" />
    <glyph glyph-name="notequal" unicode="&#x2260;" horiz-adv-x="553" 
d="M35 467h261q17 32 32.5 63l31.5 63h114l-65 -126h108v-100h-157l-54 -106h211v-100h-261l-63 -124h-113l63 124h-108v100h158l54 106h-212v100z" />
    <glyph glyph-name="approxequal" unicode="&#x2248;" horiz-adv-x="553" 
d="M398 440q40 2 68 16t47 36v-110q-50 -46 -129 -46q-36 0 -64.5 10.5t-52 22.5t-49.5 22.5t-56 10.5q-41 0 -72 -15t-50 -37v110q24 23 57.5 34.5t72.5 11.5q36 0 65 -10.5t52.5 -22.5t51 -22.5t59.5 -10.5zM398 220q40 2 68 16t47 36v-111q-25 -23 -57.5 -34t-71.5 -11
q-35 0 -64 10.5t-52 22.5t-50 22.5t-56 10.5q-40 0 -71.5 -15.5t-50.5 -37.5v111q24 23 57 34.5t73 11.5q35 0 65 -10.5t53 -22.5t50 -22.5t60 -10.5z" />
    <glyph glyph-name="lessequal" unicode="&#x2264;" horiz-adv-x="553" 
d="M518 484q-95 -26 -189.5 -51.5t-189.5 -51.5v-2l379 -106v-104l-483 139v142l483 139v-105zM35 145h482v-99h-482v99z" />
    <glyph glyph-name="greaterequal" unicode="&#x2265;" horiz-adv-x="553" 
d="M413 381q-95 26 -189.5 51.5t-188.5 51.5v105l483 -139v-142l-483 -139v104l378 106v2zM518 46h-483v99h483v-99z" />
    <glyph glyph-name="logicalnot" unicode="&#xac;" horiz-adv-x="553" 
d="M28 447h481v-309h-101v213h-380v96z" />
    <glyph glyph-name="Delta" unicode="&#x2206;" horiz-adv-x="708" 
d="M35 0v117l221 597h199l218 -597v-117h-638zM189 117h329l-164 483z" />
    <glyph glyph-name="Omega" unicode="&#x2126;" horiz-adv-x="777" 
d="M388 609q-44 0 -78 -15.5t-56 -43.5t-32.5 -65t-10.5 -80q0 -79 28 -132.5t98 -82.5v-190h-272v117h150v26q-70 35 -109.5 99t-40.5 166q0 69 21.5 127t62.5 100.5t102.5 66.5t136.5 24q77 0 137.5 -24t102 -66.5t63 -100.5t21.5 -127q0 -99 -39 -164.5t-111 -100.5v-26
h150v-117h-272v190q69 28 98 82.5t28 132.5q0 43 -10.5 80t-32.5 65t-55.5 43.5t-79.5 15.5z" />
    <glyph glyph-name="mu" unicode="&#xb5;" horiz-adv-x="665" 
d="M428 73q-20 -42 -54.5 -63.5t-81.5 -21.5q-21 0 -43 5.5t-35 16.5h-2v-205h-142v723h142v-295q0 -69 21.5 -103t77.5 -35q21 0 41.5 8t36 25t25.5 45t10 69v286h142v-353q0 -22 2 -37.5t7 -23t12 -10t18 -2.5q5 0 12.5 0.5t12.5 2.5v-105q-17 -2 -35.5 -3.5t-30.5 -1.5
q-57 0 -89 18t-45 60h-2z" />
    <glyph glyph-name="degree" unicode="&#xb0;" horiz-adv-x="368" 
d="M186 726q31 0 59.5 -12.5t48.5 -33.5t31.5 -49t11.5 -59q0 -32 -11.5 -59.5t-32.5 -49t-48.5 -33.5t-60.5 -12t-60.5 12t-49 33t-33 50t-11.5 60q0 32 12 60t33 48.5t49.5 32.5t61.5 12zM183 641q-28 0 -47.5 -20.5t-19.5 -48.5q0 -29 19.5 -49t47.5 -20q29 0 48.5 20
t19.5 49t-19.5 49t-48.5 20z" />
    <glyph glyph-name="uni2113" unicode="&#x2113;" horiz-adv-x="446" 
d="M73 366q0 84 7.5 151t28.5 116.5t59 75.5t96 26q37 0 64.5 -12.5t44 -35.5t24 -55t7.5 -72q0 -119 -48.5 -215t-139.5 -156q10 -52 31.5 -69.5t55.5 -17.5q20 0 39 4t35 11l6 -107q-25 -8 -52.5 -12t-56.5 -4q-74 0 -116 33t-62 108q-33 -10 -71 -18v111q14 3 27 6.5
t25 8.5q-2 27 -3 57.5t-1 65.5zM203 309q42 38 63.5 104t21.5 144q0 28 -7 50.5t-26 23.5q-29 -1 -40.5 -70.5t-11.5 -194.5v-57z" />
    <glyph glyph-name="estimated" unicode="&#x212e;" horiz-adv-x="789" 
d="M689 126q-24 -27 -53 -52t-65.5 -43.5t-83.5 -30t-105 -11.5q-69 0 -131.5 22.5t-111 64.5t-77.5 104t-29 140q0 75 30 137t81.5 107.5t118.5 70.5t141 25q87 0 155 -29.5t111.5 -78t65.5 -107.5t22 -120v-3h-570l-8 -10v-213q45 -40 97.5 -58.5t110.5 -18.5
q78 0 138.5 29.5t99.5 74.5h63zM612 364v190q-50 44 -99 58.5t-109 14.5q-26 0 -53 -3.5t-57.5 -12.5t-59 -25t-54.5 -40v-182l8 -9h416z" />
    <glyph glyph-name="infinity" unicode="&#x221e;" horiz-adv-x="886" 
d="M379 254q-19 52 -50 83.5t-74 31.5q-23 0 -41 -9.5t-30 -25t-18 -36.5t-6 -45q0 -47 25 -77.5t69 -30.5q45 0 75.5 30.5t49.5 78.5zM436 141q-35 -58 -84 -87.5t-107 -29.5q-49 0 -87 17t-64 47.5t-39.5 73t-13.5 92.5q0 52 13.5 95t40 74t66 48t88.5 17q65 0 113 -28
t86 -91q36 60 85.5 89t106.5 29q49 0 87 -17t64.5 -47.5t40 -72.5t13.5 -93q0 -52 -13.5 -95t-40 -74t-65.5 -48t-89 -17q-66 0 -115 29t-86 89zM507 258q20 -54 50 -85t73 -31q24 0 42 9.5t30 25t18 36.5t6 45q0 48 -25 78.5t-69 30.5t-74.5 -31t-50.5 -78z" />
    <glyph glyph-name="partialdiff" unicode="&#x2202;" horiz-adv-x="627" 
d="M407 434q-18 35 -47.5 67t-68.5 60.5t-83 51.5t-87 38l85 78q72 -25 139 -66.5t119 -98.5t83 -131t31 -162q0 -69 -20.5 -122t-57 -88.5t-85 -53.5t-105.5 -18t-105 17t-82.5 49t-53.5 77t-19 102q0 55 17 98.5t47.5 74.5t72 47.5t91.5 16.5q35 0 67.5 -8.5t59.5 -28.5h2
zM317 379q-60 0 -93.5 -40t-33.5 -105q0 -62 33 -100.5t91 -38.5q26 0 49 9.5t40 27.5t27 44.5t10 61.5q-1 69 -36 105t-87 36z" />
    <glyph glyph-name="integral" unicode="&#x222b;" horiz-adv-x="397" 
d="M125 540q0 38 10 70t32.5 55t57.5 36t86 13q20 0 39 -1.5t37 -5.5l-10 -107q-12 3 -23.5 4t-21.5 1q-65 0 -65 -72v-558q0 -38 -10.5 -70t-33 -54t-58 -34.5t-86.5 -12.5q-18 0 -36.5 1.5t-36.5 5.5l10 107q12 -3 23 -4t21 -1q34 0 49.5 16t15.5 53v558z" />
    <glyph glyph-name="radical" unicode="&#x221a;" horiz-adv-x="608" 
d="M319 -86h2l153 800h132l-189 -909h-187l-99 337h-113v112h211z" />
    <glyph glyph-name="summation" unicode="&#x2211;" horiz-adv-x="655" 
d="M211 -79l412 1v-117h-581v116l251 347l-238 328v118h555v-117h-382l234 -324z" />
    <glyph glyph-name="product" unicode="&#x220f;" horiz-adv-x="725" 
d="M79 714h574v-909h-145v791h-283v-791h-146v909z" />
    <glyph glyph-name="lozenge" unicode="&#x25ca;" horiz-adv-x="528" 
d="M321 0h-116l-162 324l162 325h115l163 -325zM173 324l90 -203h2l88 203l-88 202h-3z" />
    <glyph glyph-name="uniF8FF" unicode="&#xf8ff;" horiz-adv-x="512" 
d="M222 117v67h56v-67h-56zM225 234l-2 17q0 56 13 81q7 13 18 27.5t28 31.5q16 15 26 26.5t15.5 21t7 18t1.5 17.5q0 36 -22.5 60.5t-53.5 24.5t-53 -22t-29 -73l-50 8q8 72 44 104.5t91 32.5q54 0 89 -36.5t35 -94.5q0 -34 -12.5 -59.5t-50.5 -60.5q-37 -33 -43 -52
q-6 -20 -6 -72h-46zM462 50v617h-412v-617h412zM512 718v-718h-512v718h512z" />
    <glyph glyph-name="uni03A9" unicode="&#x3a9;" horiz-adv-x="777" 
d="M388 609q-44 0 -78 -15.5t-56 -43.5t-32.5 -65t-10.5 -80q0 -79 28 -132.5t98 -82.5v-190h-272v117h150v26q-70 35 -109.5 99t-40.5 166q0 69 21.5 127t62.5 100.5t102.5 66.5t136.5 24q77 0 137.5 -24t102 -66.5t63 -100.5t21.5 -127q0 -99 -39 -164.5t-111 -100.5v-26
h150v-117h-272v190q69 28 98 82.5t28 132.5q0 43 -10.5 80t-32.5 65t-55.5 43.5t-79.5 15.5z" />
    <glyph glyph-name="uni03BC" unicode="&#x3bc;" horiz-adv-x="665" 
d="M428 73q-20 -42 -54.5 -63.5t-81.5 -21.5q-21 0 -43 5.5t-35 16.5h-2v-205h-142v723h142v-295q0 -69 21.5 -103t77.5 -35q21 0 41.5 8t36 25t25.5 45t10 69v286h142v-353q0 -22 2 -37.5t7 -23t12 -10t18 -2.5q5 0 12.5 0.5t12.5 2.5v-105q-17 -2 -35.5 -3.5t-30.5 -1.5
q-57 0 -89 18t-45 60h-2z" />
    <glyph glyph-name="pi" unicode="&#x3c0;" horiz-adv-x="721" 
d="M566 184q0 -26 2.5 -42t8.5 -25t17.5 -12t29.5 -3q9 0 20.5 1t19.5 3v-106q-20 -2 -40 -3.5t-44 -1.5q-47 0 -77 9t-47 27.5t-24 45t-7 65.5v278h-147l-45 -420h-147l52 420h-103v108h641v-108h-110v-236z" />
    <glyph glyph-name="uni0394" unicode="&#x394;" horiz-adv-x="708" 
d="M35 0v117l221 597h199l218 -597v-117h-638zM189 117h329l-164 483z" />
    <glyph glyph-name="zero.denominator" 
d="M192 436q82 -1 124 -60.5t42 -164.5q0 -104 -42.5 -161t-123.5 -57t-122.5 57t-41.5 161q0 103 40.5 163.5t123.5 61.5zM192 354q-17 0 -29.5 -11.5t-20.5 -30.5t-12 -45t-4 -56q0 -61 16 -98t50 -38q33 0 50 36.5t17 99.5q0 30 -4 56t-12.5 45.5t-21 30.5t-29.5 11z" />
    <glyph glyph-name="one.denominator" 
d="M265 0h-103v333l-77 -42l-33 77l111 60h102v-428z" />
    <glyph glyph-name="two.denominator" 
d="M339 0h-294v82q54 45 89.5 78t57.5 58t31 44.5t9 37.5q0 26 -16.5 40t-42.5 14q-19 0 -43.5 -6.5t-54.5 -23.5l-30 72q30 20 66.5 30t71.5 10q68 0 108 -34.5t40 -97.5q0 -29 -9.5 -54.5t-29.5 -51.5t-50.5 -54.5t-72.5 -63.5h170v-80z" />
    <glyph glyph-name="three.denominator" 
d="M100 258h53q36 0 57.5 11t22.5 39q0 24 -17.5 35.5t-43.5 11.5q-22 0 -45 -5t-49 -17l-23 77q27 13 60.5 19.5t68.5 6.5q30 0 57.5 -6.5t47.5 -20t32 -35t12 -52.5t-15.5 -57t-52.5 -39v-2q42 -13 60 -41t18 -60q0 -35 -13 -59.5t-36 -40.5t-53.5 -23t-64.5 -7
q-35 0 -69.5 7t-65.5 21l25 77q54 -24 104 -24q32 0 52 13t20 40q0 29 -25 40.5t-65 11.5h-52v79z" />
    <glyph glyph-name="four.denominator" 
d="M317 165h45v-81h-45v-84h-100v84h-194v96l160 248h134v-263zM217 335h-2l-101 -170h103v170z" />
    <glyph glyph-name="five.denominator" 
d="M243 133q0 19 -8.5 31t-22.5 19t-30.5 9.5t-33.5 2.5q-20 0 -41.5 -2t-42.5 -5l14 241h249v-81h-159l-6 -80q11 2 18.5 2h18.5q30 0 57 -9t46 -25.5t30.5 -41.5t11.5 -56q0 -37 -13 -64.5t-35.5 -45.5t-52 -26.5t-63.5 -8.5t-70.5 7t-68.5 21l24 76q20 -10 47.5 -17
t53.5 -7q15 0 29 3t24.5 10t17 18.5t6.5 28.5z" />
    <glyph glyph-name="six.denominator" 
d="M131 154q0 -14 4 -28.5t12 -26t20.5 -19t29.5 -7.5q27 0 44 20t17 51q0 28 -16.5 48t-45.5 20q-30 0 -47.5 -17.5t-17.5 -40.5zM132 256q17 16 40 23.5t43 7.5q68 0 104.5 -39.5t36.5 -103.5q0 -33 -11.5 -60t-32.5 -47.5t-51.5 -32t-66.5 -11.5q-46 0 -79.5 18.5t-52 49
t-26 66t-7.5 70.5q0 50 11.5 93.5t35.5 76t61.5 51t88.5 18.5q46 0 84 -11l-14 -80q-14 5 -29.5 7.5t-33.5 2.5q-45 0 -70.5 -26t-31.5 -73h1z" />
    <glyph glyph-name="seven.denominator" 
d="M46 429h293v-80q-55 -88 -86.5 -177t-37.5 -172h-104q4 41 14.5 86.5t26.5 90.5t36.5 88.5t44.5 82.5h-187v81z" />
    <glyph glyph-name="eight.denominator" 
d="M193 181q-11 0 -22.5 -3.5t-21 -10.5t-15.5 -17.5t-6 -24.5q0 -26 19 -39.5t46 -13.5q28 0 47 14t19 39q0 14 -6.5 24.5t-16 17.5t-21.5 10.5t-22 3.5zM190 436q30 0 58 -7.5t49 -21.5t34.5 -36t13.5 -51q0 -36 -17.5 -59.5t-46.5 -34.5v-2q33 -13 55 -40.5t22 -68.5
q0 -30 -13 -52.5t-35 -38t-52.5 -23.5t-65.5 -8t-65 8t-52 23.5t-35 38t-13 52.5q0 41 22 68t54 37v2q-29 13 -46.5 37t-17.5 61q0 27 12 49.5t34 37.5t49 22t56 7zM193 258q23 0 40 13t18 39q0 23 -17 36.5t-42 13.5q-24 0 -40.5 -13.5t-16.5 -36.5q0 -24 17 -38t41 -14z
" />
    <glyph glyph-name="nine.denominator" 
d="M254 275q0 13 -4 27.5t-12 26t-20.5 19t-29.5 7.5q-26 0 -43.5 -19.5t-17.5 -51.5q0 -27 16 -47.5t46 -20.5q29 0 47 18t18 41zM253 172q-18 -17 -41 -24.5t-43 -7.5q-70 1 -105 41t-35 102q0 33 11.5 61t32.5 48.5t51 32t66 11.5q47 0 80 -18.5t51.5 -48t26.5 -65
t8 -73.5q0 -50 -11.5 -93.5t-35.5 -75.5t-61.5 -50.5t-89.5 -18.5q-22 0 -45.5 2.5t-42.5 7.5l14 81q13 -5 31.5 -8t35.5 -3q46 0 72 26.5t31 72.5h-1z" />
    <glyph glyph-name="zero.inferior" unicode="&#x2080;" 
d="M192 297q82 -1 124 -60.5t42 -164.5q0 -104 -42.5 -161t-123.5 -57t-122.5 57t-41.5 161q0 103 40.5 163.5t123.5 61.5zM192 215q-17 0 -29.5 -11.5t-20.5 -30.5t-12 -45t-4 -56q0 -61 16 -98t50 -38q33 0 50 36.5t17 99.5q0 30 -4 56t-12.5 45.5t-21 30.5t-29.5 11z" />
    <glyph glyph-name="one.inferior" unicode="&#x2081;" 
d="M265 -139h-103v333l-77 -42l-33 77l111 60h102v-428z" />
    <glyph glyph-name="two.inferior" unicode="&#x2082;" 
d="M339 -139h-294v82q54 45 89.5 78t57.5 58t31 44.5t9 37.5q0 26 -16.5 40t-42.5 14q-19 0 -43.5 -6.5t-54.5 -23.5l-30 72q30 20 66.5 30t71.5 10q68 0 108 -34.5t40 -97.5q0 -29 -9.5 -54.5t-29.5 -51.5t-50.5 -54.5t-72.5 -63.5h170v-80z" />
    <glyph glyph-name="three.inferior" unicode="&#x2083;" 
d="M100 119h53q36 0 57.5 11t22.5 39q0 24 -17.5 35.5t-43.5 11.5q-22 0 -45 -5t-49 -17l-23 77q27 13 60.5 19.5t68.5 6.5q30 0 57.5 -6.5t47.5 -20t32 -35t12 -52.5t-15.5 -57t-52.5 -39v-2q42 -13 60 -41t18 -60q0 -35 -13 -59.5t-36 -40.5t-53.5 -23t-64.5 -7
q-35 0 -69.5 7t-65.5 21l25 77q54 -24 104 -24q32 0 52 13t20 40q0 29 -25 40.5t-65 11.5h-52v79z" />
    <glyph glyph-name="four.inferior" unicode="&#x2084;" 
d="M317 26h45v-81h-45v-84h-100v84h-194v96l160 248h134v-263zM217 196h-2l-101 -170h103v170z" />
    <glyph glyph-name="five.inferior" unicode="&#x2085;" 
d="M243 -6q0 19 -8.5 31t-22.5 19t-30.5 9.5t-33.5 2.5q-20 0 -41.5 -2t-42.5 -5l14 241h249v-81h-159l-6 -80q11 2 18.5 2h18.5q30 0 57 -9t46 -25.5t30.5 -41.5t11.5 -56q0 -37 -13 -64.5t-35.5 -45.5t-52 -26.5t-63.5 -8.5t-70.5 7t-68.5 21l24 76q20 -10 47.5 -17
t53.5 -7q15 0 29 3t24.5 10t17 18.5t6.5 28.5z" />
    <glyph glyph-name="six.inferior" unicode="&#x2086;" 
d="M131 15q0 -14 4 -28.5t12 -26t20.5 -19t29.5 -7.5q27 0 44 20t17 51q0 28 -16.5 48t-45.5 20q-30 0 -47.5 -17.5t-17.5 -40.5zM132 117q17 16 40 23.5t43 7.5q68 0 104.5 -39.5t36.5 -103.5q0 -33 -11.5 -60t-32.5 -47.5t-51.5 -32t-66.5 -11.5q-46 0 -79.5 18.5t-52 49
t-26 66t-7.5 70.5q0 50 11.5 93.5t35.5 76t61.5 51t88.5 18.5q46 0 84 -11l-14 -80q-14 5 -29.5 7.5t-33.5 2.5q-45 0 -70.5 -26t-31.5 -73h1z" />
    <glyph glyph-name="seven.inferior" unicode="&#x2087;" 
d="M46 290h293v-80q-55 -88 -86.5 -177t-37.5 -172h-104q4 41 14.5 86.5t26.5 90.5t36.5 88.5t44.5 82.5h-187v81z" />
    <glyph glyph-name="eight.inferior" unicode="&#x2088;" 
d="M193 42q-11 0 -22.5 -3.5t-21 -10.5t-15.5 -17.5t-6 -24.5q0 -26 19 -39.5t46 -13.5q28 0 47 14t19 39q0 14 -6.5 24.5t-16 17.5t-21.5 10.5t-22 3.5zM190 297q30 0 58 -7.5t49 -21.5t34.5 -36t13.5 -51q0 -36 -17.5 -59.5t-46.5 -34.5v-2q33 -13 55 -40.5t22 -68.5
q0 -30 -13 -52.5t-35 -38t-52.5 -23.5t-65.5 -8t-65 8t-52 23.5t-35 38t-13 52.5q0 41 22 68t54 37v2q-29 13 -46.5 37t-17.5 61q0 27 12 49.5t34 37.5t49 22t56 7zM193 119q23 0 40 13t18 39q0 23 -17 36.5t-42 13.5q-24 0 -40.5 -13.5t-16.5 -36.5q0 -24 17 -38t41 -14z
" />
    <glyph glyph-name="nine.inferior" unicode="&#x2089;" 
d="M254 136q0 13 -4 27.5t-12 26t-20.5 19t-29.5 7.5q-26 0 -43.5 -19.5t-17.5 -51.5q0 -27 16 -47.5t46 -20.5q29 0 47 18t18 41zM253 33q-18 -17 -41 -24.5t-43 -7.5q-70 1 -105 41t-35 102q0 33 11.5 61t32.5 48.5t51 32t66 11.5q47 0 80 -18.5t51.5 -48t26.5 -65
t8 -73.5q0 -50 -11.5 -93.5t-35.5 -75.5t-61.5 -50.5t-89.5 -18.5q-22 0 -45.5 2.5t-42.5 7.5l14 81q13 -5 31.5 -8t35.5 -3q46 0 72 26.5t31 72.5h-1z" />
    <glyph glyph-name="zero.numerator" 
d="M192 724q82 -1 124 -60.5t42 -164.5q0 -104 -42.5 -161t-123.5 -57t-122.5 57t-41.5 161q0 103 40.5 163.5t123.5 61.5zM192 642q-17 0 -29.5 -11.5t-20.5 -30.5t-12 -45t-4 -56q0 -61 16 -98t50 -38q33 0 50 36.5t17 99.5q0 30 -4 56t-12.5 45.5t-21 30.5t-29.5 11z" />
    <glyph glyph-name="one.numerator" 
d="M265 288h-103v333l-77 -42l-33 77l111 60h102v-428z" />
    <glyph glyph-name="two.numerator" 
d="M339 288h-294v82q54 45 89.5 78t57.5 58t31 44.5t9 37.5q0 26 -16.5 40t-42.5 14q-19 0 -43.5 -6.5t-54.5 -23.5l-30 72q30 20 66.5 30t71.5 10q68 0 108 -34.5t40 -97.5q0 -29 -9.5 -54.5t-29.5 -51.5t-50.5 -54.5t-72.5 -63.5h170v-80z" />
    <glyph glyph-name="three.numerator" 
d="M100 546h53q36 0 57.5 11t22.5 39q0 24 -17.5 35.5t-43.5 11.5q-22 0 -45 -5t-49 -17l-23 77q27 13 60.5 19.5t68.5 6.5q30 0 57.5 -6.5t47.5 -20t32 -35t12 -52.5t-15.5 -57t-52.5 -39v-2q42 -13 60 -41t18 -60q0 -35 -13 -59.5t-36 -40.5t-53.5 -23t-64.5 -7
q-35 0 -69.5 7t-65.5 21l25 77q54 -24 104 -24q32 0 52 13t20 40q0 29 -25 40.5t-65 11.5h-52v79z" />
    <glyph glyph-name="four.numerator" 
d="M317 453h45v-81h-45v-84h-100v84h-194v96l160 248h134v-263zM217 623h-2l-101 -170h103v170z" />
    <glyph glyph-name="five.numerator" 
d="M243 421q0 19 -8.5 31t-22.5 19t-30.5 9.5t-33.5 2.5q-20 0 -41.5 -2t-42.5 -5l14 241h249v-81h-159l-6 -80q11 2 18.5 2h18.5q30 0 57 -9t46 -25.5t30.5 -41.5t11.5 -56q0 -37 -13 -64.5t-35.5 -45.5t-52 -26.5t-63.5 -8.5t-70.5 7t-68.5 21l24 76q20 -10 47.5 -17
t53.5 -7q15 0 29 3t24.5 10t17 18.5t6.5 28.5z" />
    <glyph glyph-name="six.numerator" 
d="M131 442q0 -14 4 -28.5t12 -26t20.5 -19t29.5 -7.5q27 0 44 20t17 51q0 28 -16.5 48t-45.5 20q-30 0 -47.5 -17.5t-17.5 -40.5zM132 544q17 16 40 23.5t43 7.5q68 0 104.5 -39.5t36.5 -103.5q0 -33 -11.5 -60t-32.5 -47.5t-51.5 -32t-66.5 -11.5q-46 0 -79.5 18.5t-52 49
t-26 66t-7.5 70.5q0 50 11.5 93.5t35.5 76t61.5 51t88.5 18.5q46 0 84 -11l-14 -80q-14 5 -29.5 7.5t-33.5 2.5q-45 0 -70.5 -26t-31.5 -73h1z" />
    <glyph glyph-name="seven.numerator" 
d="M46 717h293v-80q-55 -88 -86.5 -177t-37.5 -172h-104q4 41 14.5 86.5t26.5 90.5t36.5 88.5t44.5 82.5h-187v81z" />
    <glyph glyph-name="eight.numerator" 
d="M193 469q-11 0 -22.5 -3.5t-21 -10.5t-15.5 -17.5t-6 -24.5q0 -26 19 -39.5t46 -13.5q28 0 47 14t19 39q0 14 -6.5 24.5t-16 17.5t-21.5 10.5t-22 3.5zM190 724q30 0 58 -7.5t49 -21.5t34.5 -36t13.5 -51q0 -36 -17.5 -59.5t-46.5 -34.5v-2q33 -13 55 -40.5t22 -68.5
q0 -30 -13 -52.5t-35 -38t-52.5 -23.5t-65.5 -8t-65 8t-52 23.5t-35 38t-13 52.5q0 41 22 68t54 37v2q-29 13 -46.5 37t-17.5 61q0 27 12 49.5t34 37.5t49 22t56 7zM193 546q23 0 40 13t18 39q0 23 -17 36.5t-42 13.5q-24 0 -40.5 -13.5t-16.5 -36.5q0 -24 17 -38t41 -14z
" />
    <glyph glyph-name="nine.numerator" 
d="M254 563q0 13 -4 27.5t-12 26t-20.5 19t-29.5 7.5q-26 0 -43.5 -19.5t-17.5 -51.5q0 -27 16 -47.5t46 -20.5q29 0 47 18t18 41zM253 460q-18 -17 -41 -24.5t-43 -7.5q-70 1 -105 41t-35 102q0 33 11.5 61t32.5 48.5t51 32t66 11.5q47 0 80 -18.5t51.5 -48t26.5 -65
t8 -73.5q0 -50 -11.5 -93.5t-35.5 -75.5t-61.5 -50.5t-89.5 -18.5q-22 0 -45.5 2.5t-42.5 7.5l14 81q13 -5 31.5 -8t35.5 -3q46 0 72 26.5t31 72.5h-1z" />
    <glyph glyph-name="zero.superior" unicode="&#x2070;" 
d="M192 864q82 -1 124 -60.5t42 -164.5q0 -104 -42.5 -161t-123.5 -57t-122.5 57t-41.5 161q0 103 40.5 163.5t123.5 61.5zM192 782q-17 0 -29.5 -11.5t-20.5 -30.5t-12 -45t-4 -56q0 -61 16 -98t50 -38q33 0 50 36.5t17 99.5q0 30 -4 56t-12.5 45.5t-21 30.5t-29.5 11z" />
    <glyph glyph-name="onesuperior" unicode="&#xb9;" 
d="M265 428h-103v333l-77 -42l-33 77l111 60h102v-428z" />
    <glyph glyph-name="twosuperior" unicode="&#xb2;" 
d="M339 428h-294v82q54 45 89.5 78t57.5 58t31 44.5t9 37.5q0 26 -16.5 40t-42.5 14q-19 0 -43.5 -6.5t-54.5 -23.5l-30 72q30 20 66.5 30t71.5 10q68 0 108 -34.5t40 -97.5q0 -29 -9.5 -54.5t-29.5 -51.5t-50.5 -54.5t-72.5 -63.5h170v-80z" />
    <glyph glyph-name="threesuperior" unicode="&#xb3;" 
d="M100 686h53q36 0 57.5 11t22.5 39q0 24 -17.5 35.5t-43.5 11.5q-22 0 -45 -5t-49 -17l-23 77q27 13 60.5 19.5t68.5 6.5q30 0 57.5 -6.5t47.5 -20t32 -35t12 -52.5t-15.5 -57t-52.5 -39v-2q42 -13 60 -41t18 -60q0 -35 -13 -59.5t-36 -40.5t-53.5 -23t-64.5 -7
q-35 0 -69.5 7t-65.5 21l25 77q54 -24 104 -24q32 0 52 13t20 40q0 29 -25 40.5t-65 11.5h-52v79z" />
    <glyph glyph-name="four.superior" unicode="&#x2074;" 
d="M317 593h45v-81h-45v-84h-100v84h-194v96l160 248h134v-263zM217 763h-2l-101 -170h103v170z" />
    <glyph glyph-name="five.superior" unicode="&#x2075;" 
d="M243 561q0 19 -8.5 31t-22.5 19t-30.5 9.5t-33.5 2.5q-20 0 -41.5 -2t-42.5 -5l14 241h249v-81h-159l-6 -80q11 2 18.5 2h18.5q30 0 57 -9t46 -25.5t30.5 -41.5t11.5 -56q0 -37 -13 -64.5t-35.5 -45.5t-52 -26.5t-63.5 -8.5t-70.5 7t-68.5 21l24 76q20 -10 47.5 -17
t53.5 -7q15 0 29 3t24.5 10t17 18.5t6.5 28.5z" />
    <glyph glyph-name="six.superior" unicode="&#x2076;" 
d="M131 582q0 -14 4 -28.5t12 -26t20.5 -19t29.5 -7.5q27 0 44 20t17 51q0 28 -16.5 48t-45.5 20q-30 0 -47.5 -17.5t-17.5 -40.5zM132 684q17 16 40 23.5t43 7.5q68 0 104.5 -39.5t36.5 -103.5q0 -33 -11.5 -60t-32.5 -47.5t-51.5 -32t-66.5 -11.5q-46 0 -79.5 18.5t-52 49
t-26 66t-7.5 70.5q0 50 11.5 93.5t35.5 76t61.5 51t88.5 18.5q46 0 84 -11l-14 -80q-14 5 -29.5 7.5t-33.5 2.5q-45 0 -70.5 -26t-31.5 -73h1z" />
    <glyph glyph-name="seven.superior" unicode="&#x2077;" 
d="M46 857h293v-80q-55 -88 -86.5 -177t-37.5 -172h-104q4 41 14.5 86.5t26.5 90.5t36.5 88.5t44.5 82.5h-187v81z" />
    <glyph glyph-name="eight.superior" unicode="&#x2078;" 
d="M193 609q-11 0 -22.5 -3.5t-21 -10.5t-15.5 -17.5t-6 -24.5q0 -26 19 -39.5t46 -13.5q28 0 47 14t19 39q0 14 -6.5 24.5t-16 17.5t-21.5 10.5t-22 3.5zM190 864q30 0 58 -7.5t49 -21.5t34.5 -36t13.5 -51q0 -36 -17.5 -59.5t-46.5 -34.5v-2q33 -13 55 -40.5t22 -68.5
q0 -30 -13 -52.5t-35 -38t-52.5 -23.5t-65.5 -8t-65 8t-52 23.5t-35 38t-13 52.5q0 41 22 68t54 37v2q-29 13 -46.5 37t-17.5 61q0 27 12 49.5t34 37.5t49 22t56 7zM193 686q23 0 40 13t18 39q0 23 -17 36.5t-42 13.5q-24 0 -40.5 -13.5t-16.5 -36.5q0 -24 17 -38t41 -14z
" />
    <glyph glyph-name="nine.superior" unicode="&#x2079;" 
d="M254 703q0 13 -4 27.5t-12 26t-20.5 19t-29.5 7.5q-26 0 -43.5 -19.5t-17.5 -51.5q0 -27 16 -47.5t46 -20.5q29 0 47 18t18 41zM253 600q-18 -17 -41 -24.5t-43 -7.5q-70 1 -105 41t-35 102q0 33 11.5 61t32.5 48.5t51 32t66 11.5q47 0 80 -18.5t51.5 -48t26.5 -65
t8 -73.5q0 -50 -11.5 -93.5t-35.5 -75.5t-61.5 -50.5t-89.5 -18.5q-22 0 -45.5 2.5t-42.5 7.5l14 81q13 -5 31.5 -8t35.5 -3q46 0 72 26.5t31 72.5h-1z" />
    <glyph glyph-name="interrobang" unicode="&#x203d;" horiz-adv-x="505" 
d="M274 400h2l22 19q27 25 39.5 47.5t12.5 53.5q0 26 -10 44t-26.5 29t-36 15.5t-39.5 4.5q-32 0 -71.5 -10t-81.5 -33l-39 102q46 28 98 41t107 13q45 0 85.5 -10.5t73.5 -34t52.5 -62.5t19.5 -94q0 -33 -7 -59t-20 -47t-31.5 -39.5t-41.5 -34.5q-26 -19 -43 -32.5
t-27 -25.5t-14 -24t-4 -27v-13h-133l-10 295h128zM152 150h155v-150h-155v150z" />
    <glyph glyph-name="uni2105" unicode="&#x2105;" horiz-adv-x="780" 
d="M212 391q-43 0 -76 12.5t-55 35t-33 52.5t-11 66t12 67t34.5 53.5t55 35t73.5 12.5q20 0 38.5 -2.5t38.5 -9.5l-16 -75q-17 7 -30 9t-25 2q-40 0 -61.5 -25.5t-21.5 -66.5q0 -40 21.5 -65t62.5 -25q12 0 24.5 2t32.5 10l15 -75q-39 -13 -79 -13zM528 714h100l-404 -714
h-102zM578 -12q-74 0 -119.5 44t-46.5 123q0 78 45 122.5t121 44.5q77 0 121.5 -44.5t44.5 -122.5q0 -76 -45 -121.5t-121 -45.5zM578 64q34 0 51 24t17 67t-17.5 67t-50.5 24q-34 0 -51 -24.5t-17 -66.5t17.5 -66.5t50.5 -24.5z" />
    <glyph glyph-name="uni2117" unicode="&#x2117;" horiz-adv-x="796" 
d="M92 355q0 -64 22.5 -120.5t63 -99t97.5 -67t125 -24.5q67 0 123.5 24.5t97 67t62.5 99t22 120.5q0 65 -22.5 122.5t-62.5 100.5t-96.5 68t-123.5 25t-124.5 -25t-98 -68t-63 -100.5t-22.5 -122.5zM33 355q0 77 27 144t76 117t117 78.5t147 28.5t146 -28.5t115 -78.5
t75 -117t27 -144q0 -76 -26.5 -142t-75.5 -116t-115.5 -78t-145.5 -28q-82 0 -148.5 28.5t-115.5 78t-76 115.5t-27 142zM260 567h170q32 0 61 -7t51 -23t35 -42.5t13 -65.5t-13 -66t-34.5 -44t-51 -25t-61.5 -8h-71v-144h-99v425zM359 366h61q31 0 50.5 13.5t20.5 47.5
q0 34 -20 46.5t-55 12.5h-57v-120z" />
    <glyph glyph-name="uni0406" unicode="&#x406;" horiz-adv-x="302" 
d="M78 714h146v-714h-146v714z" />
    <glyph glyph-name="uni0456" unicode="&#x456;" horiz-adv-x="282" 
d="M212 528v-528h-142v528h142zM212 732v-123h-142v123h142z" />
    <glyph glyph-name="uni0408" unicode="&#x408;" horiz-adv-x="360" 
d="M291 179q0 -97 -51 -144t-158 -47q-21 0 -43 1.5t-39 3.5v117q14 -2 31 -3.5t28 -1.5q43 0 64 19.5t22 68.5v521h146v-535z" />
    <glyph glyph-name="uni0458" unicode="&#x458;" horiz-adv-x="282" 
d="M212 -24q0 -39 -9 -70.5t-30 -54t-56.5 -34.5t-87.5 -12q-16 0 -34 1t-34 3v107q14 -2 24.5 -3t20.5 -1q35 0 49.5 17.5t14.5 63.5v535h142v-552zM212 732v-123h-142v123h142z" />
    <glyph glyph-name="uni0410" unicode="&#x410;" horiz-adv-x="717" 
d="M157 0h-155l257 714h200l256 -714h-157l-64 174h-275zM253 292h207l-103 308z" />
    <glyph glyph-name="uni0411" unicode="&#x411;" horiz-adv-x="657" 
d="M78 714h475v-117h-329v-162h135q52 0 97.5 -11t80.5 -37t54.5 -67t19.5 -101t-19.5 -102t-54 -68t-80.5 -37.5t-98 -11.5h-281v714zM333 117q64 0 98 23t34 78q0 53 -33 76.5t-92 23.5h-116v-201h109z" />
    <glyph glyph-name="uni0412" unicode="&#x412;" horiz-adv-x="659" 
d="M78 714h298q47 0 87 -10t69.5 -32t46 -56t16.5 -82q-1 -68 -33.5 -106.5t-81.5 -55.5v-2q29 -8 52 -21t41.5 -33t29 -49t10.5 -68q0 -40 -13.5 -76t-42 -63.5t-72 -43.5t-103.5 -16h-304v714zM224 423h103q60 0 90.5 21t31.5 69q0 26 -9.5 42.5t-25.5 25.5t-36.5 12.5
t-42.5 3.5h-111v-174zM224 117h118q28 0 50.5 4t39.5 14.5t26 29t9 46.5t-11 46.5t-29.5 29t-45 15t-57.5 4.5h-100v-189z" />
    <glyph glyph-name="uni0413" unicode="&#x413;" horiz-adv-x="512" 
d="M78 714h423v-117h-277v-597h-146v714z" />
    <glyph glyph-name="uni0414" unicode="&#x414;" horiz-adv-x="760" 
d="M10 117h58q56 80 80.5 204t24.5 300v93h486v-597h79v-272h-123l-10 155h-463l-9 -155h-123v272zM513 117v480h-201v-35q0 -159 -23 -269t-66 -176h290z" />
    <glyph glyph-name="uni0415" unicode="&#x415;" horiz-adv-x="559" 
d="M78 714h430v-117h-284v-174h261v-117h-261v-189h293v-117h-439v714z" />
    <glyph glyph-name="uni0416" unicode="&#x416;" horiz-adv-x="958" 
d="M247 369l-232 345h173l216 -337h2v337h146v-337h2l216 337h173l-232 -345l245 -369h-179l-223 356h-2v-356h-146v356h-2l-223 -356h-179z" />
    <glyph glyph-name="uni0417" unicode="&#x417;" horiz-adv-x="568" 
d="M250 -12q-49 0 -106 8.5t-107 27.5l26 119q94 -38 181 -38q60 0 96.5 25.5t36.5 77.5q0 29 -11 48t-30.5 30t-46.5 15.5t-59 4.5h-71v117h74q62 0 95.5 23t33.5 74q0 46 -32 67.5t-86 21.5q-39 0 -85 -8.5t-83 -21.5l-23 115q45 14 98.5 23t111.5 9q51 0 96 -11
t77.5 -33.5t52 -58.5t19.5 -85q0 -57 -28 -100.5t-87 -64.5v-2q66 -17 97.5 -63t31.5 -104q0 -56 -21 -97t-58 -67.5t-86.5 -39t-106.5 -12.5z" />
    <glyph glyph-name="uni0418" unicode="&#x418;" horiz-adv-x="743" 
d="M78 714h141v-514h2l261 514h183v-714h-141v522h-2l-269 -522h-175v714z" />
    <glyph glyph-name="uni0419" unicode="&#x419;" horiz-adv-x="743" 
d="M78 714h141v-514h2l261 514h183v-714h-141v522h-2l-269 -522h-175v714zM368 761q-46 0 -78 12.5t-52.5 35t-30 50t-10.5 57.5h95q1 -32 19 -51.5t57 -19.5t57.5 19.5t19.5 51.5h94q-1 -30 -10.5 -58.5t-29 -49.5t-52.5 -34t-79 -13z" />
    <glyph glyph-name="uni041A" unicode="&#x41a;" horiz-adv-x="650" 
d="M635 714l-254 -345l267 -369h-180l-242 355h-2v-355h-146v714h146v-335h2l235 335h174z" />
    <glyph glyph-name="uni041B" unicode="&#x41b;" horiz-adv-x="743" 
d="M83 -5q-30 0 -46 1.5t-30 3.5v117q18 -3 37 -3q48 0 75 30t41.5 100.5t20 185t6.5 284.5h478v-714h-146v597h-193q-1 -170 -10.5 -285t-36.5 -185.5t-74 -101t-122 -30.5z" />
    <glyph glyph-name="uni041C" unicode="&#x41c;" horiz-adv-x="925" 
d="M460 139h3l138 575h246v-714h-138v592h-2l-157 -592h-182l-154 592h-2v-592h-134v714h244z" />
    <glyph glyph-name="uni041D" unicode="&#x41d;" horiz-adv-x="721" 
d="M78 714h146v-291h274v291h146v-714h-146v306h-274v-306h-146v714z" />
    <glyph glyph-name="uni041E" unicode="&#x41e;" horiz-adv-x="777" 
d="M723 356q0 -80 -22 -147.5t-64.5 -116.5t-105 -76.5t-143.5 -27.5t-143.5 27.5t-105 76.5t-64.5 116.5t-22 147.5q0 81 22 148.5t64 117t105.5 77t143.5 27.5q81 0 144 -27.5t105.5 -77t64 -117t21.5 -148.5zM577 356q0 52 -11.5 98.5t-34 80.5t-58.5 54t-85 20
q-48 0 -84.5 -20t-59 -54t-34 -80.5t-11.5 -98.5t11.5 -98t35 -80t59 -53.5t84.5 -19.5t84.5 19.5t58.5 53.5t34 80t11 98z" />
    <glyph glyph-name="uni041F" unicode="&#x41f;" horiz-adv-x="715" 
d="M78 714h559v-714h-146v597h-267v-597h-146v714z" />
    <glyph glyph-name="uni0420" unicode="&#x420;" horiz-adv-x="637" 
d="M78 714h268q52 0 99 -11t82.5 -37t56 -68t20.5 -105t-20.5 -107.5t-56 -72t-82 -40t-98.5 -12.5h-123v-261h-146v714zM224 379h107q25 -1 50.5 5.5t41.5 19t25.5 33t9.5 51.5q-1 62 -37 86t-97 23h-100v-218z" />
    <glyph glyph-name="uni0421" unicode="&#x421;" horiz-adv-x="622" 
d="M555 584q-29 11 -62 18t-66 7q-57 0 -100.5 -20.5t-71.5 -55t-42.5 -81t-14.5 -98.5q0 -49 14.5 -94t43 -79.5t71.5 -55t99 -20.5q40 0 73 7t62 20l25 -113q-38 -16 -83.5 -23.5t-93.5 -7.5q-81 0 -147 27t-113 76t-72 116t-25 148t24.5 149t71 117.5t114.5 77t152 27.5
q48 0 90.5 -7t77.5 -21z" />
    <glyph glyph-name="uni0422" unicode="&#x422;" horiz-adv-x="543" 
d="M200 597h-190v117h522v-117h-186v-597h-146v597z" />
    <glyph glyph-name="uni0423" unicode="&#x423;" horiz-adv-x="672" 
d="M265 214l-264 500h164l179 -353l168 353h159l-355 -714h-163z" />
    <glyph glyph-name="uni0424" unicode="&#x424;" horiz-adv-x="880" 
d="M367 70q-79 2 -140 24t-101.5 61t-61 93.5t-20.5 120.5q0 65 21 118t62 90.5t101.5 59t138.5 23.5v66h146v-66q154 -5 238.5 -82t84.5 -209q0 -135 -82.5 -214.5t-240.5 -84.5v-82h-146v82zM367 543q-87 -4 -132 -49.5t-45 -124.5q0 -84 46 -130.5t131 -51.5v356z
M513 187q85 5 131 51t46 131q0 79 -45.5 124.5t-131.5 49.5v-356z" />
    <glyph glyph-name="uni0425" unicode="&#x425;" horiz-adv-x="656" 
d="M638 714l-210 -343l226 -371h-172l-153 268l-156 -268h-172l228 371l-209 343h170l139 -245l142 245h167z" />
    <glyph glyph-name="uni0426" unicode="&#x426;" horiz-adv-x="738" 
d="M583 0h-505v714h146v-597h267v597h146v-597h78v-272h-122z" />
    <glyph glyph-name="uni0427" unicode="&#x427;" horiz-adv-x="661" 
d="M437 280q-9 -3 -25.5 -6.5t-36.5 -6.5t-42 -5.5t-42 -2.5q-50 0 -92 9t-73.5 33.5t-49 72t-17.5 118.5v222h145v-200q0 -39 6 -64t20.5 -41.5t38.5 -24t61 -7.5q35 0 64 6t43 11v320h146v-714h-146v280z" />
    <glyph glyph-name="uni0428" unicode="&#x428;" horiz-adv-x="1027" 
d="M78 714h146v-597h216v597h146v-597h217v597h146v-714h-871v714z" />
    <glyph glyph-name="uni0429" unicode="&#x429;" horiz-adv-x="1050" 
d="M895 0h-817v714h146v-597h216v597h146v-597h217v597h146v-597h78v-272h-123z" />
    <glyph glyph-name="uni042A" unicode="&#x42a;" horiz-adv-x="724" 
d="M160 597h-150v117h296v-261h128q52 0 98.5 -11.5t82.5 -38t56.5 -70t20.5 -105.5q0 -64 -20.5 -107.5t-56.5 -70.5t-82.5 -38.5t-98.5 -11.5h-274v597zM410 117q30 0 55.5 5.5t43 18t27.5 34t10 53.5q0 30 -10 51t-27.5 33.5t-41 18t-50.5 5.5h-111v-219h104z" />
    <glyph glyph-name="uni042B" unicode="&#x42b;" horiz-adv-x="900" 
d="M78 714h146v-261h120q52 0 98 -11.5t82 -38t56.5 -69.5t20.5 -106q0 -64 -20.5 -107.5t-56 -70.5t-82 -38.5t-98.5 -11.5h-266v714zM320 117q30 0 55.5 5.5t42.5 18t27 34t10 53.5q0 30 -9.5 51t-27.5 33.5t-41 18t-50 5.5h-103v-219h96zM676 714h146v-714h-146v714z" />
    <glyph glyph-name="uni042C" unicode="&#x42c;" horiz-adv-x="642" 
d="M78 714h146v-261h128q52 0 98.5 -11.5t82.5 -38t56.5 -70t20.5 -105.5q0 -64 -20.5 -107.5t-56 -70.5t-82.5 -38.5t-99 -11.5h-274v714zM328 117q30 0 55.5 5.5t43 18t27.5 34t10 53.5q0 30 -10 51t-27.5 33.5t-41 18t-50.5 5.5h-111v-219h104z" />
    <glyph glyph-name="uni042D" unicode="&#x42d;" horiz-adv-x="628" 
d="M211 -12q-43 0 -88.5 7.5t-86.5 23.5l25 113q29 -13 64.5 -20t71.5 -7q57 0 99.5 16.5t71 45t44 65t18.5 76.5h-274v117h270q-3 37 -19 70t-44.5 58.5t-70 40.5t-93.5 15q-32 0 -66 -6t-63 -17l-27 113q37 13 81.5 20t89.5 7q86 0 154.5 -27.5t115 -78t69.5 -118
t23 -146.5q0 -81 -24.5 -148.5t-71.5 -116.5t-114.5 -76t-154.5 -27z" />
    <glyph glyph-name="uni042E" unicode="&#x42e;" horiz-adv-x="1015" 
d="M643 -12q-71 0 -127.5 23t-96 64.5t-63 100t-29.5 130.5h-103v-306h-146v714h146v-291h105q8 68 32 124t63.5 95.5t94 61.5t124.5 22q78 0 137 -27t99.5 -76t61 -117.5t20.5 -150.5t-21 -149.5t-61 -116t-99.5 -75t-136.5 -26.5zM643 105q45 0 78 19t53.5 52.5t30.5 79.5
t10 99q0 54 -10 100t-31 80.5t-53.5 54t-77.5 19.5q-43 0 -76.5 -19t-54.5 -54.5t-31 -81t-10 -99.5q0 -53 10.5 -99t31 -79.5t53 -52.5t77.5 -19z" />
    <glyph glyph-name="uni042F" unicode="&#x42f;" horiz-adv-x="659" 
d="M15 0l174 281q-60 20 -97 71t-37 134q0 62 20.5 106.5t57 71.5t84 38.5t102.5 11.5h262v-714h-146v261h-94l-152 -261h-174zM435 378v218h-98q-31 0 -56 -5t-43 -17.5t-27.5 -33.5t-9.5 -52q1 -60 35.5 -85.5t94.5 -24.5h104z" />
    <glyph glyph-name="uni0430" unicode="&#x430;" horiz-adv-x="583" 
d="M373 345q0 42 -29 65t-88 23q-29 0 -63 -6t-73 -20l-26 102q34 13 83 22t89 9q130 0 190.5 -53t58.5 -149v-218q0 -29 1.5 -62.5t6.5 -57.5h-126q-4 13 -7 32.5t-4 32.5h-2q-20 -35 -60 -56t-93 -21q-35 0 -69 8.5t-62 28.5t-43.5 50.5t-16.5 76.5q0 57 26 93t72 55
t108 26t127 6v13zM354 244q-36 0 -68 -3.5t-56.5 -13t-38 -26.5t-13.5 -43q0 -34 21 -53t57 -19q30 0 52.5 10t37 28t21 39t6.5 44v37h-19z" />
    <glyph glyph-name="uni0431" unicode="&#x431;" horiz-adv-x="624" 
d="M316 -12q-88 0 -149 39.5t-92 112.5q-14 40 -18.5 79t-4.5 93q0 56 3.5 105t13 91t27 76t45.5 60q37 32 91.5 49t120.5 22q25 2 52 4.5t53.5 5t47 5.5t36.5 6l15 -112q-28 -7 -76 -12.5t-100 -10.5q-60 -6 -99 -15t-62 -26q-29 -24 -39 -61.5t-10 -69.5h2q26 42 68.5 66
t106.5 24q49 0 91 -18t73 -52t48.5 -82.5t17.5 -109.5q0 -62 -19 -112t-53 -84.5t-82.5 -53.5t-107.5 -19zM316 95q59 0 89.5 43.5t30.5 117.5q0 73 -30.5 114.5t-89.5 41.5q-60 0 -90.5 -42t-30.5 -114q0 -77 31.5 -119t89.5 -42z" />
    <glyph glyph-name="uni0432" unicode="&#x432;" horiz-adv-x="588" 
d="M70 528h290q38 0 69.5 -7.5t54 -23.5t34.5 -41.5t12 -60.5q0 -49 -23 -77t-59 -41v-2q19 -5 36 -14.5t30.5 -25t21.5 -37.5t8 -51t-10.5 -56t-32 -47t-55.5 -32t-81 -12h-295v528zM317 96q41 0 63 12.5t22 50.5q0 37 -25 50.5t-73 13.5h-95v-127h108zM309 317q40 0 61 13
t21 47q-1 34 -21 44.5t-56 10.5h-105v-115h100z" />
    <glyph glyph-name="uni0433" unicode="&#x433;" horiz-adv-x="443" 
d="M70 528h363v-107h-221v-421h-142v528z" />
    <glyph glyph-name="uni0434" unicode="&#x434;" horiz-adv-x="647" 
d="M12 107h51q36 60 52 143.5t16 204.5v73h431v-421h68v-243h-113l-9 136h-374l-9 -136h-113v243zM420 107v314h-153v-19q0 -94 -13.5 -168t-42.5 -127h209z" />
    <glyph glyph-name="uni0435" unicode="&#x435;" horiz-adv-x="590" 
d="M186 222q4 -36 18.5 -59.5t37.5 -38.5t53.5 -22.5t64.5 -7.5q30 0 63.5 4.5t62.5 14.5l16 -104q-35 -10 -73.5 -15.5t-85.5 -5.5q-71 0 -126.5 20t-93.5 56.5t-58 87t-20 111.5q0 60 18.5 111t52.5 88t83.5 57.5t110.5 20.5q58 0 102.5 -18.5t74.5 -52.5t45.5 -82
t15.5 -108v-57h-362zM308 444q-50 0 -83 -34t-39 -89h229q1 55 -28.5 89t-78.5 34z" />
    <glyph glyph-name="uni0436" unicode="&#x436;" horiz-adv-x="835" 
d="M197 277l-181 251h163l165 -245h2v245h142v-245h2l165 245h164l-181 -251l193 -277h-165l-176 264h-2v-264h-142v264h-2l-175 -264h-165z" />
    <glyph glyph-name="uni0437" unicode="&#x437;" horiz-adv-x="510" 
d="M226 -12q-58 0 -106.5 8t-87.5 22l27 104q29 -12 69 -20t81 -8q112 0 112 65q-1 38 -30 50t-80 12h-68v100h58q50 0 77 14t27 48q-2 31 -28.5 42.5t-68.5 11.5q-31 0 -69 -6t-70 -17l-24 98q39 13 88 20.5t101 7.5q46 0 85.5 -7.5t68 -24t44.5 -42.5t16 -64
q0 -41 -23 -73.5t-70 -46.5v-2q52 -11 80 -44t28 -84q0 -45 -20 -76.5t-53 -51t-75.5 -28t-88.5 -8.5z" />
    <glyph glyph-name="uni0438" unicode="&#x438;" horiz-adv-x="643" 
d="M70 528h139v-347h2l199 347h163v-528h-139v353h-2l-206 -353h-156v528z" />
    <glyph glyph-name="uni0439" unicode="&#x439;" horiz-adv-x="643" 
d="M320 601q-46 0 -78 12.5t-52.5 34.5t-30 50t-10.5 58h95q1 -32 19 -51t57 -19q40 0 58 19t19 51h94q-1 -30 -10.5 -58.5t-29.5 -50t-52.5 -34t-78.5 -12.5zM70 528h139v-347h2l199 347h163v-528h-139v353h-2l-206 -353h-156v528z" />
    <glyph glyph-name="uni043A" unicode="&#x43a;" horiz-adv-x="573" 
d="M70 528h142v-243h2l178 243h169l-198 -251l210 -277h-171l-188 262h-2v-262h-142v528z" />
    <glyph glyph-name="uni043B" unicode="&#x43b;" horiz-adv-x="632" 
d="M72 -4q-17 0 -35.5 1t-29.5 3v107q8 -2 15 -2h13q34 0 52.5 20t28.5 65t13.5 116t5.5 222h427v-528h-142v421h-149q0 -123 -10 -205t-33 -130.5t-61 -69t-95 -20.5z" />
    <glyph glyph-name="uni043C" unicode="&#x43c;" horiz-adv-x="792" 
d="M70 528h205l119 -412h2l120 412h206v-528h-131v412h-1l-123 -412h-147l-122 412h-1v-412h-127v528z" />
    <glyph glyph-name="uni043D" unicode="&#x43d;" horiz-adv-x="633" 
d="M70 528h142v-201h209v201h142v-528h-142v220h-209v-220h-142v528z" />
    <glyph glyph-name="uni043E" unicode="&#x43e;" horiz-adv-x="630" 
d="M584 265q0 -65 -19.5 -116.5t-54.5 -87t-84.5 -54.5t-110.5 -19q-62 0 -111.5 19t-84.5 55t-54 87t-19 116q0 64 19 115.5t54 86.5t84.5 54t111.5 19t111.5 -19t84.5 -54t54 -86.5t19 -115.5zM442 265q0 37 -8 68.5t-23.5 53t-39.5 34t-56 12.5q-62 0 -94.5 -45
t-32.5 -123q0 -79 32 -124t95 -46q64 1 95.5 46t31.5 124z" />
    <glyph glyph-name="uni043F" unicode="&#x43f;" horiz-adv-x="628" 
d="M70 528h488v-528h-142v421h-204v-421h-142v528z" />
    <glyph glyph-name="uni0440" unicode="&#x440;" horiz-adv-x="642" 
d="M212 -195h-142v723h139v-68h2q31 41 73.5 60.5t88.5 19.5q54 0 96 -21.5t70 -59t42.5 -87.5t14.5 -108t-15 -108.5t-44 -88t-71.5 -58.5t-95.5 -21q-44 -1 -85.5 15.5t-70.5 54.5h-2v-253zM454 264q0 36 -7 67t-21.5 53.5t-37 35.5t-53.5 13q-30 0 -55 -12.5t-42 -35
t-26 -53.5t-9 -68t9 -68t25.5 -53.5t41.5 -35.5t56 -13t53.5 13t37 36t21.5 54t7 67z" />
    <glyph glyph-name="uni0441" unicode="&#x441;" horiz-adv-x="479" 
d="M426 417q-20 8 -42.5 12t-42.5 4q-38 0 -67 -13.5t-47.5 -36t-28.5 -54t-10 -66.5t9.5 -65.5t28.5 -53.5t48.5 -36t69.5 -13q21 0 43 3t43 12l22 -104q-29 -10 -59 -14t-61 -4q-71 0 -124.5 21t-89 57.5t-54 87t-18.5 109.5q0 60 19.5 111t55.5 87.5t89.5 57.5t120.5 21
q69 0 119 -17z" />
    <glyph glyph-name="uni0442" unicode="&#x442;" horiz-adv-x="486" 
d="M172 421h-162v107h466v-107h-162v-421h-142v421z" />
    <glyph glyph-name="uni0443" unicode="&#x443;" horiz-adv-x="566" 
d="M285 174h2l127 354h149l-286 -723h-151l86 207l-208 516h153z" />
    <glyph glyph-name="uni0444" unicode="&#x444;" horiz-adv-x="796" 
d="M327 -6q-60 2 -111.5 19t-89.5 50t-60 83t-22 118q0 67 20.5 116.5t58.5 83t89.5 50.5t114.5 20v201h142v-201q63 -1 115 -19.5t89.5 -51.5t58 -82.5t20.5 -116.5q0 -68 -22 -118t-60 -83t-89.5 -50t-111.5 -19v-189h-142v189zM327 427q-69 -4 -105 -47.5t-36 -115.5
q0 -73 36 -116t105 -47v326zM469 101q68 4 104.5 46.5t36.5 116.5q0 72 -36 115.5t-105 47.5v-326z" />
    <glyph glyph-name="uni0445" unicode="&#x445;" horiz-adv-x="556" 
d="M537 528l-162 -254l175 -274h-161l-110 186l-113 -186h-162l177 274l-163 254h160l101 -171l102 171h156z" />
    <glyph glyph-name="uni0446" unicode="&#x446;" horiz-adv-x="643" 
d="M504 0h-434v528h142v-421h204v421h142v-421h68v-243h-113z" />
    <glyph glyph-name="uni0447" unicode="&#x447;" horiz-adv-x="584" 
d="M372 196q-14 -5 -52.5 -12t-84.5 -7q-40 0 -73 8.5t-58 29t-39 56t-14 87.5v170h141v-136q0 -60 20.5 -83.5t75.5 -23.5q27 0 50 5t34 10v228h142v-528h-142v196z" />
    <glyph glyph-name="uni0448" unicode="&#x448;" horiz-adv-x="907" 
d="M70 528h142v-421h171v421h142v-421h170v421h142v-528h-767v528z" />
    <glyph glyph-name="uni0449" unicode="&#x449;" horiz-adv-x="922" 
d="M783 0h-713v528h142v-421h171v421h142v-421h170v421h142v-421h68v-243h-113z" />
    <glyph glyph-name="uni044A" unicode="&#x44a;" horiz-adv-x="630" 
d="M134 421h-124v107h266v-175h117q44 0 82.5 -9.5t65.5 -29.5t43 -53.5t16 -82.5q0 -50 -16 -84t-44 -55t-65.5 -30t-81.5 -9h-259v421zM366 103q21 0 38.5 3t30 11t19.5 22.5t7 37.5q0 39 -24 56t-66 17h-95v-147h90z" />
    <glyph glyph-name="uni044B" unicode="&#x44b;" horiz-adv-x="801" 
d="M70 528h142v-176h110q43 0 80.5 -9t65.5 -29.5t44 -54t16 -81.5q0 -50 -16 -84t-42.5 -54.5t-64 -30t-84.5 -9.5h-251v528zM294 102q45 0 69.5 15t25.5 60q0 39 -24.5 56t-64.5 17h-88v-148h82zM589 528h142v-528h-142v528z" />
    <glyph glyph-name="uni044C" unicode="&#x44c;" horiz-adv-x="565" 
d="M70 528h142v-176h117q43 0 80.5 -9t65.5 -29.5t44 -54t16 -81.5q0 -50 -16 -84t-44 -55t-65.5 -30t-80.5 -9h-259v528zM301 102q49 0 72 17t23 58q0 23 -8.5 37.5t-22.5 22t-32.5 10.5t-39.5 3h-81v-148h89z" />
    <glyph glyph-name="uni044D" unicode="&#x44d;" horiz-adv-x="496" 
d="M167 -12q-71 0 -136 20l22 104q26 -9 50 -13t48 -4q72 0 111.5 33.5t46.5 91.5h-196v100h193q-7 52 -48 82.5t-103 30.5q-22 0 -44 -3t-51 -11l-26 102q63 19 135 19q67 0 119 -20t88 -56.5t55 -87.5t19 -114q0 -61 -18.5 -111.5t-54 -86.5t-88.5 -56t-122 -20z" />
    <glyph glyph-name="uni044E" unicode="&#x44e;" horiz-adv-x="856" 
d="M550 -12q-53 0 -97.5 15.5t-78 45.5t-54.5 73t-28 98h-80v-220h-142v528h142v-201h83q17 102 85.5 157.5t169.5 55.5q57 0 105.5 -19t82.5 -53.5t53 -85t19 -116.5q0 -65 -19.5 -116.5t-54 -87.5t-82 -55t-104.5 -19zM550 95q58 0 88 46.5t30 124.5q0 36 -7.5 66.5
t-22 52.5t-36.5 35t-52 13t-52.5 -13t-37 -35t-22 -52.5t-7.5 -66.5q0 -77 30.5 -124t88.5 -47z" />
    <glyph glyph-name="uni044F" unicode="&#x44f;" horiz-adv-x="587" 
d="M152 195q-45 18 -72 55.5t-28 101.5q0 49 16.5 83t44.5 54.5t65 29.5t78 9h261v-528h-142v175h-80l-105 -175h-163zM375 277v149h-85q-50 0 -74.5 -17t-24.5 -58q0 -22 7 -36t19.5 -22.5t30 -12t37.5 -3.5h90z" />
    <glyph glyph-name="uni0490" unicode="&#x490;" horiz-adv-x="512" 
d="M78 714h299l10 148h114v-265h-277v-597h-146v714z" />
    <glyph glyph-name="uni0491" unicode="&#x491;" horiz-adv-x="443" 
d="M70 528h248l10 129h105v-236h-221v-421h-142v528z" />
    <glyph glyph-name="uni0403" unicode="&#x403;" horiz-adv-x="512" 
d="M311 763h-115l95 145h157zM78 714h423v-117h-277v-597h-146v714z" />
    <glyph glyph-name="uni0453" unicode="&#x453;" horiz-adv-x="443" 
d="M265 604h-107l91 164h149zM70 528h363v-107h-221v-421h-142v528z" />
    <glyph glyph-name="uni0405" unicode="&#x405;" horiz-adv-x="568" 
d="M460 583q-38 14 -77 20t-76 6q-22 0 -42.5 -3.5t-36.5 -12.5t-25.5 -23.5t-9.5 -36.5q0 -19 8 -33.5t24.5 -27.5t42 -25.5t60.5 -26.5q44 -18 80 -37.5t63 -45t41 -59t14 -80.5q0 -53 -21.5 -93t-58.5 -66t-84.5 -38.5t-99.5 -12.5q-49 0 -105.5 8.5t-111.5 27.5l26 119
q50 -20 98.5 -29t87.5 -9q60 0 91 20.5t32 62.5q0 20 -8 35.5t-25.5 29t-44 26.5t-62.5 27q-43 17 -78 37t-61 45.5t-40 57.5t-14 73q0 55 22 94.5t58.5 64.5t81 36.5t89.5 11.5q52 0 100 -6.5t87 -19.5z" />
    <glyph glyph-name="uni0455" unicode="&#x455;" horiz-adv-x="492" 
d="M394 405q-41 16 -76.5 22t-67.5 6q-31 0 -50 -9.5t-20 -33.5q0 -23 20.5 -37t77.5 -32q42 -13 74.5 -28.5t55.5 -36t34.5 -46.5t11.5 -61q0 -45 -19.5 -76t-50.5 -49.5t-70.5 -27t-78.5 -8.5q-49 0 -102.5 10t-95.5 27l28 108q44 -19 90.5 -28.5t78.5 -9.5q41 0 63 10.5
t22 36.5q0 23 -24.5 38.5t-86.5 34.5q-85 28 -123.5 66t-38.5 95q1 43 18 74t46.5 51t66.5 29.5t75 9.5q42 0 88 -7.5t85 -22.5z" />
    <glyph glyph-name="uni040C" unicode="&#x40c;" horiz-adv-x="650" 
d="M368 763h-115l95 145h157zM635 714l-254 -345l267 -369h-180l-242 355h-2v-355h-146v714h146v-335h2l235 335h174z" />
    <glyph glyph-name="uni045C" unicode="&#x45c;" horiz-adv-x="573" 
d="M326 604h-107l91 164h149zM70 528h142v-243h2l178 243h169l-198 -251l210 -277h-171l-188 262h-2v-262h-142v528z" />
    <glyph glyph-name="uni0407" unicode="&#x407;" horiz-adv-x="302" 
d="M112 783h-124v122h124v-122zM318 783h-125v122h125v-122zM78 714h146v-714h-146v714z" />
    <glyph glyph-name="uni0457" unicode="&#x457;" horiz-adv-x="282" 
d="M103 625h-124v118h124v-118zM309 625h-125v118h125v-118zM213 528v-528h-143v528h143z" />
    <glyph glyph-name="uni040E" unicode="&#x40e;" horiz-adv-x="672" 
d="M265 214l-264 500h164l179 -353l168 353h159l-355 -714h-163zM345 761q-46 0 -78 12.5t-52.5 35t-30 50t-10.5 57.5h95q1 -32 19 -51.5t57 -19.5t57.5 19.5t19.5 51.5h94q-1 -30 -10.5 -58.5t-29 -49.5t-52.5 -34t-79 -13z" />
    <glyph glyph-name="uni045E" unicode="&#x45e;" horiz-adv-x="566" 
d="M288 601q-46 0 -78 12.5t-52.5 34.5t-30 50t-10.5 58h95q1 -32 19 -51t57 -19q40 0 58 19t19 51h94q-1 -30 -10.5 -58.5t-29.5 -50t-52.5 -34t-78.5 -12.5zM285 174h2l127 354h149l-286 -723h-151l86 207l-208 516h153z" />
    <glyph glyph-name="uni040F" unicode="&#x40f;" horiz-adv-x="715" 
d="M294 0h-216v714h146v-597h267v597h146v-714h-216l-9 -155h-108z" />
    <glyph glyph-name="uni045F" unicode="&#x45f;" horiz-adv-x="628" 
d="M257 0h-187v528h142v-421h204v421h142v-528h-184l-9 -136h-99z" />
    <glyph glyph-name="uni0409" unicode="&#x409;" horiz-adv-x="1083" 
d="M83 -5q-27 0 -46 1.5t-30 3.5v117q18 -3 37 -3q47 0 74.5 30t42 102t19.5 183t7 285h478v-261h129q52 0 98 -11.5t82 -38t56.5 -69.5t20.5 -106q0 -64 -20.5 -107.5t-56.5 -70.5t-82.5 -38.5t-98.5 -11.5h-274v597h-193q-1 -172 -11 -287t-36.5 -184.5t-73 -100
t-122.5 -30.5zM769 117q30 0 55 5.5t43 18t28 34t10 53.5q0 30 -10 51t-27.5 33.5t-41 18t-50.5 5.5h-111v-219h104z" />
    <glyph glyph-name="uni0459" unicode="&#x459;" horiz-adv-x="915" 
d="M72 -4q-17 0 -35.5 1t-29.5 3v107q8 -2 15 -2h13q33 0 52 19.5t29 66.5t13.5 130t5.5 207h427v-175h117q43 0 80.5 -9t65.5 -29.5t44 -54t16 -82.5q0 -50 -16 -84t-44 -55t-65.5 -30t-81.5 -9h-258v421h-149q0 -123 -10 -205t-33 -130.5t-61 -69t-95 -20.5zM651 103
q21 0 38.5 3t30 11t19.5 22.5t7 37.5q0 40 -24.5 56.5t-64.5 16.5h-95v-147h89z" />
    <glyph glyph-name="uni040A" unicode="&#x40a;" horiz-adv-x="1063" 
d="M78 714h146v-279h274v279h146v-279h135q52 0 98 -11.5t80.5 -37t54 -66.5t19.5 -101t-20 -102.5t-54 -68t-80 -37t-98 -11.5h-281v318h-274v-318h-146v714zM753 117q62 0 96.5 22t35.5 79q0 54 -33.5 77t-91.5 23h-116v-201h109z" />
    <glyph glyph-name="uni045A" unicode="&#x45a;" horiz-adv-x="916" 
d="M70 528h142v-194h209v194h142v-194h127q46 0 82 -8.5t61.5 -28t39 -51t13.5 -77.5q0 -47 -13.5 -79.5t-39 -52.5t-61.5 -28.5t-82 -8.5h-269v228h-209v-228h-142v528zM660 102q43 0 65 14t22 53q0 36 -21.5 49.5t-60.5 13.5h-102v-130h97z" />
    <glyph glyph-name="uni0404" unicode="&#x404;" horiz-adv-x="628" 
d="M417 -12q-87 0 -155 27.5t-114.5 76t-71 116t-24.5 148.5t24 148.5t70.5 117t113.5 77t152 27.5q49 0 93 -7t80 -20l-26 -113q-31 11 -63.5 17t-66.5 6q-52 0 -93 -15t-69.5 -40.5t-44.5 -58.5t-19 -70h273v-117h-277q3 -40 18.5 -76.5t43.5 -64.5t70.5 -45t99.5 -17
q36 0 71.5 7t64.5 20l25 -113q-42 -16 -87 -23.5t-88 -7.5z" />
    <glyph glyph-name="uni0454" unicode="&#x454;" horiz-adv-x="496" 
d="M329 -12q-69 0 -122 20t-88.5 56t-54 86.5t-18.5 111.5q0 63 19 114t55 87.5t89 56.5t118 20q72 0 135 -19l-26 -102q-24 8 -48.5 11t-46.5 3q-62 0 -103 -30.5t-48 -82.5h190v-100h-193q4 -57 44.5 -91t113.5 -34q24 0 48 4t50 13l22 -104q-65 -20 -136 -20z" />
    <glyph glyph-name="uni2116" unicode="&#x2116;" horiz-adv-x="1090" 
d="M78 714h219l217 -551h2v551h136v-714h-211l-224 559h-3v-559h-136v714zM738 349h297v-90h-297v90zM887 391q-76 0 -122 45.5t-46 122.5q0 78 46.5 122.5t121.5 44.5t121 -44.5t46 -122.5t-46 -123t-121 -45zM887 466q34 0 50 24.5t16 68.5q0 41 -16 66t-50 25
q-35 0 -51 -26t-16 -65q0 -44 17 -68.5t50 -24.5z" />
    <glyph glyph-name="uni040B" unicode="&#x40b;" horiz-adv-x="790" 
d="M200 597h-190v117h522v-117h-186v-179q10 3 26.5 7t36.5 8t42 6.5t43 2.5q50 0 93.5 -9t75 -34t49.5 -70t18 -120v-209h-144v189q0 75 -28.5 105.5t-101.5 30.5q-33 0 -64.5 -8t-45.5 -14v-303h-146v597z" />
    <glyph glyph-name="uni0402" unicode="&#x402;" horiz-adv-x="784" 
d="M515 -4q-24 0 -43 1t-40 3v117q10 -2 21.5 -3t22.5 -1q61 0 95.5 25.5t34.5 81.5q0 54 -34 79.5t-89 25.5q-45 0 -83 -7.5t-54 -13.5v-304h-146v597h-190v117h522v-117h-186v-178q19 7 65.5 15t89.5 8q53 0 99 -12t79.5 -38.5t53 -68.5t19.5 -101t-18.5 -102.5
t-50.5 -70.5t-75.5 -40t-92.5 -13z" />
    <glyph glyph-name="uni045B" unicode="&#x45b;" horiz-adv-x="632" 
d="M70 565h-80v93h80v77h142v-77h158v-93h-158v-120h2q23 42 65.5 62.5t91.5 20.5q43 0 79.5 -13.5t62.5 -39.5t39.5 -61t13.5 -78v-336h-142v283q0 32 -4.5 58t-15.5 43.5t-30 27t-48 9.5q-21 0 -41 -8t-36.5 -25t-26.5 -45.5t-10 -68.5v-274h-142v565z" />
    <glyph glyph-name="uni0452" unicode="&#x452;" horiz-adv-x="632" 
d="M352 -195q-12 0 -34 1t-34 3v107q14 -2 24.5 -3t20.5 -1q53 0 74 33.5t21 104.5v233q0 32 -4.5 58.5t-15.5 43.5t-30 26.5t-48 9.5q-21 0 -41 -8t-36.5 -25t-26.5 -45.5t-10 -68.5v-274h-142v565h-80v93h80v77h142v-77h158v-93h-158v-120h2q23 42 65.5 62.5t91.5 20.5
q43 0 80 -13.5t62.5 -39t39 -61t13.5 -78.5v-310q0 -63 -14 -105t-41 -68t-67 -37t-92 -11z" />
    <glyph glyph-name="uni0401" unicode="&#x401;" horiz-adv-x="559" 
d="M250 783h-124v122h124v-122zM456 783h-125v122h125v-122zM78 714h430v-117h-284v-174h261v-117h-261v-189h293v-117h-439v714z" />
    <glyph glyph-name="uni0451" unicode="&#x451;" horiz-adv-x="592" 
d="M269 625h-124v118h124v-118zM475 625h-125v118h125v-118zM186 222q4 -36 18.5 -59.5t37.5 -38.5t53.5 -22.5t64.5 -7.5q30 0 63.5 4.5t62.5 14.5l16 -104q-35 -10 -73.5 -15.5t-85.5 -5.5q-71 0 -126.5 20t-93.5 56.5t-58 87t-20 111.5q0 60 18.5 111t52.5 88t83.5 57.5
t110.5 20.5q58 0 102.5 -18.5t74.5 -52.5t45.5 -82t15.5 -108v-57h-362zM308 444q-50 0 -83 -34t-39 -89h229q1 55 -28.5 89t-78.5 34z" />
    <glyph glyph-name="uni0400" unicode="&#x400;" horiz-adv-x="559" 
d="M270 908l94 -145h-115l-136 145h157zM78 714h430v-117h-284v-174h261v-117h-261v-189h293v-117h-439v714z" />
    <glyph glyph-name="uni0450" unicode="&#x450;" horiz-adv-x="592" 
d="M143 768h149l91 -164h-107zM186 222q4 -36 18.5 -59.5t37.5 -38.5t53.5 -22.5t64.5 -7.5q30 0 63.5 4.5t62.5 14.5l16 -104q-35 -10 -73.5 -15.5t-85.5 -5.5q-71 0 -126.5 20t-93.5 56.5t-58 87t-20 111.5q0 60 18.5 111t52.5 88t83.5 57.5t110.5 20.5q58 0 102.5 -18.5
t74.5 -52.5t45.5 -82t15.5 -108v-57h-362zM308 444q-50 0 -83 -34t-39 -89h229q1 55 -28.5 89t-78.5 34z" />
    <glyph glyph-name="uni040D" unicode="&#x40d;" horiz-adv-x="743" 
d="M78 714h141v-514h2l261 514h183v-714h-141v522h-2l-269 -522h-175v714zM347 908l94 -145h-115l-136 145h157z" />
    <glyph glyph-name="uni045D" unicode="&#x45d;" horiz-adv-x="643" 
d="M152 768h149l91 -164h-107zM70 528h139v-347h2l199 347h163v-528h-139v353h-2l-206 -353h-156v528z" />
    <glyph glyph-name="uni2010" unicode="&#x2010;" horiz-adv-x="396" 
d="M69 358h258v-115h-258v115z" />
    <glyph glyph-name="tonos" unicode="&#x384;" horiz-adv-x="428" 
d="M216 604h-98l48 164h159z" />
    <glyph glyph-name="dieresistonos" unicode="&#x385;" horiz-adv-x="608" 
d="M314 604h-88l21 164h156zM190 625h-124v118h124v-118zM542 625h-125v118h125v-118z" />
    <glyph glyph-name="Alphatonos" unicode="&#x386;" horiz-adv-x="717" 
d="M69 550h-98l48 164h159zM157 0h-155l257 714h200l256 -714h-157l-64 174h-275zM253 292h207l-103 308z" />
    <glyph glyph-name="anoteleia" unicode="&#x387;" horiz-adv-x="305" 
d="M76 380h154v-157h-154v157z" />
    <glyph glyph-name="Epsilontonos" unicode="&#x388;" horiz-adv-x="559" 
d="M-98 550h-98l48 164h159zM78 714h430v-117h-284v-174h261v-117h-261v-189h293v-117h-439v714z" />
    <glyph glyph-name="Etatonos" unicode="&#x389;" horiz-adv-x="722" 
d="M-98 550h-98l48 164h159zM78 714h146v-291h274v291h146v-714h-146v306h-274v-306h-146v714z" />
    <glyph glyph-name="Iotatonos" unicode="&#x38a;" horiz-adv-x="302" 
d="M-98 550h-98l48 164h159zM78 714h146v-714h-146v714z" />
    <glyph glyph-name="Omicrontonos" unicode="&#x38c;" horiz-adv-x="776" 
d="M-5 550h-98l48 164h159zM723 356q0 -80 -22 -147.5t-64.5 -116.5t-105 -76.5t-143.5 -27.5t-143.5 27.5t-105 76.5t-64.5 116.5t-22 147.5q0 81 22 148.5t64 117t105.5 77t143.5 27.5q81 0 144 -27.5t105.5 -77t64 -117t21.5 -148.5zM577 356q0 52 -11.5 98.5t-34 80.5
t-58.5 54t-85 20q-48 0 -84.5 -20t-59 -54t-34 -80.5t-11.5 -98.5t11.5 -98t35 -80t59 -53.5t84.5 -19.5t84.5 19.5t58.5 53.5t34 80t11 98z" />
    <glyph glyph-name="Upsilontonos" unicode="&#x38e;" horiz-adv-x="673" 
d="M-153 550h-98l48 164h159zM264 272l-263 442h171l166 -304l167 304h167l-262 -442v-272h-146v272z" />
    <glyph glyph-name="Omegatonos" unicode="&#x38f;" horiz-adv-x="777" 
d="M388 609q-44 0 -78 -15.5t-56 -43.5t-32.5 -65t-10.5 -80q0 -79 28 -132.5t98 -82.5v-190h-272v117h150v26q-70 35 -109.5 99t-40.5 166q0 69 21.5 127t62.5 100.5t102.5 66.5t136.5 24q77 0 137.5 -24t102 -66.5t63 -100.5t21.5 -127q0 -99 -39 -164.5t-111 -100.5v-26
h150v-117h-272v190q69 28 98 82.5t28 132.5q0 43 -10.5 80t-32.5 65t-55.5 43.5t-79.5 15.5zM-17 550h-98l48 164h159z" />
    <glyph glyph-name="iotadieresistonos" unicode="&#x390;" horiz-adv-x="344" 
d="M208 528v-343q0 -27 2.5 -43.5t9 -25.5t18 -11.5t29.5 -2.5q13 0 24.5 1t22.5 3v-106q-20 -2 -44 -3.5t-47 -1.5q-50 0 -80.5 10t-47.5 29.5t-23 48.5t-6 65v380h142zM180 604h-88l21 164h156zM56 625h-124v118h124v-118zM408 625h-125v118h125v-118z" />
    <glyph glyph-name="Alpha" unicode="&#x391;" horiz-adv-x="717" 
d="M157 0h-155l257 714h200l256 -714h-157l-64 174h-275zM253 292h207l-103 308z" />
    <glyph glyph-name="Beta" unicode="&#x392;" horiz-adv-x="659" 
d="M78 714h298q47 0 87 -10t69.5 -32t46 -56t16.5 -82q-1 -68 -33.5 -106.5t-81.5 -55.5v-2q29 -8 52 -21t41.5 -33t29 -49t10.5 -68q0 -40 -13.5 -76t-42 -63.5t-72 -43.5t-103.5 -16h-304v714zM224 423h103q60 0 90.5 21t31.5 69q0 26 -9.5 42.5t-25.5 25.5t-36.5 12.5
t-42.5 3.5h-111v-174zM224 117h118q28 0 50.5 4t39.5 14.5t26 29t9 46.5t-11 46.5t-29.5 29t-45 15t-57.5 4.5h-100v-189z" />
    <glyph glyph-name="Gamma" unicode="&#x393;" horiz-adv-x="537" 
d="M224 0h-146v714h428v-117h-282v-597z" />
    <glyph glyph-name="Epsilon" unicode="&#x395;" horiz-adv-x="559" 
d="M78 714h430v-117h-284v-174h261v-117h-261v-189h293v-117h-439v714z" />
    <glyph glyph-name="Zeta" unicode="&#x396;" horiz-adv-x="603" 
d="M382 597h-317v117h491v-117l-345 -480h352v-117h-526v117z" />
    <glyph glyph-name="Eta" unicode="&#x397;" horiz-adv-x="722" 
d="M78 714h146v-291h274v291h146v-714h-146v306h-274v-306h-146v714z" />
    <glyph glyph-name="Theta" unicode="&#x398;" horiz-adv-x="785" 
d="M731 356q0 -76 -20.5 -143t-62.5 -117t-106 -79t-150 -29q-84 0 -147.5 28t-106 77.5t-64 117t-21.5 145.5q0 75 20 142t61.5 118t106 80.5t151.5 29.5t152 -29.5t106.5 -80.5t61 -118t19.5 -142zM585 356q0 54 -11.5 100t-35 80t-60 53.5t-86.5 19.5q-48 0 -84.5 -18.5
t-60.5 -52t-36 -80.5t-12 -102q0 -52 11.5 -97.5t35 -80t60 -54t86.5 -19.5q53 0 90 21t60 56t33 80.5t10 93.5zM268 416h249v-113h-249v113z" />
    <glyph glyph-name="Iota" unicode="&#x399;" horiz-adv-x="302" 
d="M78 714h146v-714h-146v714z" />
    <glyph glyph-name="Kappa" unicode="&#x39a;" horiz-adv-x="650" 
d="M635 714l-254 -345l267 -369h-180l-242 355h-2v-355h-146v714h146v-335h2l235 335h174z" />
    <glyph glyph-name="Lambda" unicode="&#x39b;" horiz-adv-x="697" 
d="M347 600l-190 -600h-155l247 714h200l246 -714h-157z" />
    <glyph glyph-name="Mu" unicode="&#x39c;" horiz-adv-x="925" 
d="M460 139h3l138 575h246v-714h-138v592h-2l-157 -592h-182l-154 592h-2v-592h-134v714h244z" />
    <glyph glyph-name="Nu" unicode="&#x39d;" horiz-adv-x="737" 
d="M520 144h2v570h137v-714h-218l-225 578h-2v-578h-136v714h225z" />
    <glyph glyph-name="Xi" unicode="&#x39e;" horiz-adv-x="614" 
d="M42 125h530v-125h-530v125zM79 423h456v-125h-456v125zM42 714h530v-125h-530v125z" />
    <glyph glyph-name="Omicron" unicode="&#x39f;" horiz-adv-x="777" 
d="M723 356q0 -80 -22 -147.5t-64.5 -116.5t-105 -76.5t-143.5 -27.5t-143.5 27.5t-105 76.5t-64.5 116.5t-22 147.5q0 81 22 148.5t64 117t105.5 77t143.5 27.5q81 0 144 -27.5t105.5 -77t64 -117t21.5 -148.5zM577 356q0 52 -11.5 98.5t-34 80.5t-58.5 54t-85 20
q-48 0 -84.5 -20t-59 -54t-34 -80.5t-11.5 -98.5t11.5 -98t35 -80t59 -53.5t84.5 -19.5t84.5 19.5t58.5 53.5t34 80t11 98z" />
    <glyph glyph-name="Pi" unicode="&#x3a0;" horiz-adv-x="717" 
d="M78 714h561v-714h-146v597h-269v-597h-146v714z" />
    <glyph glyph-name="Rho" unicode="&#x3a1;" horiz-adv-x="637" 
d="M78 714h268q52 0 99 -11t82.5 -37t56 -68t20.5 -105t-20.5 -107.5t-56 -72t-82 -40t-98.5 -12.5h-123v-261h-146v714zM224 379h107q25 -1 50.5 5.5t41.5 19t25.5 33t9.5 51.5q-1 62 -37 86t-97 23h-100v-218z" />
    <glyph glyph-name="Sigma" unicode="&#x3a3;" horiz-adv-x="617" 
d="M38 112l185 250v2l-180 234v116h515v-117h-341l177 -230l-187 -250h362v-117h-531v112z" />
    <glyph glyph-name="Tau" unicode="&#x3a4;" horiz-adv-x="543" 
d="M200 597h-190v117h522v-117h-186v-597h-146v597z" />
    <glyph glyph-name="Upsilon" unicode="&#x3a5;" horiz-adv-x="673" 
d="M264 272l-263 442h171l166 -304l167 304h167l-262 -442v-272h-146v272z" />
    <glyph glyph-name="Phi" unicode="&#x3a6;" horiz-adv-x="872" 
d="M363 51q-154 9 -236 86.5t-82 224.5q0 62 16 115.5t53.5 94.5t98 66.5t150.5 30.5v72h146v-72q94 -5 156 -32.5t98 -71t50 -96t14 -107.5q0 -61 -16 -115.5t-53 -96.5t-98 -68t-151 -31v-71h-146v71zM363 556q-86 0 -130 -49.5t-44 -146.5q0 -94 42 -144t132 -51v391z
M509 165q49 1 82.5 15.5t53.5 39.5t29 61t9 79q0 44 -9.5 80t-30.5 62t-54 40t-80 14v-391z" />
    <glyph glyph-name="Chi" unicode="&#x3a7;" horiz-adv-x="656" 
d="M638 714l-210 -343l226 -371h-172l-153 268l-156 -268h-172l228 371l-209 343h170l139 -245l142 245h167z" />
    <glyph glyph-name="Psi" unicode="&#x3a8;" horiz-adv-x="850" 
d="M352 115q-64 1 -116.5 14t-91.5 43.5t-60 82t-21 123.5v336h144v-342q0 -37 8.5 -63.5t27 -43t45.5 -24t64 -8.5v481h146v-481q45 1 74 11.5t44.5 29.5t21 43.5t5.5 54.5v342h144v-336q0 -76 -21.5 -126t-60 -80t-92 -43t-115.5 -14v-115h-146v115z" />
    <glyph glyph-name="Iotadieresis" unicode="&#x3aa;" horiz-adv-x="302" 
d="M112 783h-124v122h124v-122zM318 783h-125v122h125v-122zM78 714h146v-714h-146v714z" />
    <glyph glyph-name="Upsilondieresis" unicode="&#x3ab;" horiz-adv-x="673" 
d="M297 783h-124v122h124v-122zM503 783h-125v122h125v-122zM264 272l-263 442h171l166 -304l167 304h167l-262 -442v-272h-146v272z" />
    <glyph glyph-name="alphatonos" unicode="&#x3ac;" horiz-adv-x="694" 
d="M639 528q-9 -83 -28.5 -160.5t-51.5 -154.5l24 -71q5 -14 11 -22t13 -12t14.5 -5t16.5 -1t21 3v-105q-25 -5 -57 -5q-52 0 -81 15t-47 65l-4 14h-2q-25 -46 -69.5 -73.5t-117.5 -27.5q-68 0 -114 26t-72 66t-37.5 89t-11.5 95q0 54 14 103.5t44 88t77 61.5t111 23
q46 0 80 -11.5t57.5 -31.5t37.5 -46.5t21 -56.5h2q3 14 7 32t7 37t5.5 34.5t4.5 30.5h125zM188 264q0 -83 32.5 -126.5t83.5 -43.5q33 0 55 14t35.5 37.5t19 54t5.5 64.5q0 84 -32 126.5t-83 42.5q-22 0 -42.5 -9.5t-37 -29.5t-26.5 -52t-10 -78zM371 604h-98l48 164h159z
" />
    <glyph glyph-name="epsilontonos" unicode="&#x3ad;" horiz-adv-x="515" 
d="M152 279q-47 16 -68 44t-21 71q0 26 10 50.5t34 46t68 35.5t111 14q59 0 108 -9.5t73 -21.5l-23 -105q-23 10 -63 19t-85 9q-57 -1 -79.5 -16t-22.5 -41q1 -32 28 -43t77 -11h28t28 1q15 0 30 1v-102h-33q-14 0 -28.5 0.5t-24.5 0.5q-57 0 -85 -14t-28 -48q0 -19 9 -31
t23.5 -19t34 -9.5t40.5 -2.5q41 0 83 6.5t83 20.5l22 -101q-37 -17 -86 -26.5t-109 -9.5q-115 0 -178 39t-63 118q0 53 28.5 86.5t78.5 45.5v2zM332 604h-98l48 164h159z" />
    <glyph glyph-name="etatonos" unicode="&#x3ae;" horiz-adv-x="638" 
d="M217 457q20 40 64.5 61.5t95.5 21.5q45 0 80.5 -13.5t61.5 -39t39.5 -61t13.5 -78.5v-543h-142v490q1 72 -22 105t-76 33q-23 0 -42.5 -8t-35.5 -25t-26 -46.5t-10 -67.5v-286h-142v410q0 51 -3 80t-5 38h136q4 -14 7.5 -34t3.5 -37h2zM354 604h-98l48 164h159z" />
    <glyph glyph-name="iotatonos" unicode="&#x3af;" horiz-adv-x="344" 
d="M208 528v-343q0 -27 2.5 -43.5t9 -25.5t18 -11.5t29.5 -2.5q13 0 24.5 1t22.5 3v-106q-20 -2 -44 -3.5t-47 -1.5q-50 0 -80.5 10t-47.5 29.5t-23 48.5t-6 65v380h142zM186 604h-98l48 164h159z" />
    <glyph glyph-name="upsilondieresistonos" unicode="&#x3b0;" horiz-adv-x="617" 
d="M306 -12q-70 0 -116.5 16t-73.5 46t-38.5 72t-11.5 94v312h142v-322q0 -30 7.5 -52.5t22 -35.5t33 -18t40.5 -5q40 0 62 14t33 39t13.5 59.5t2.5 74.5q0 59 -8.5 122t-26.5 124h139q13 -28 25.5 -91t13.5 -146q0 -63 -10.5 -118t-39 -96.5t-79.5 -65t-130 -23.5zM320 604
h-88l21 164h156zM196 625h-124v118h124v-118zM548 625h-125v118h125v-118z" />
    <glyph glyph-name="alpha" unicode="&#x3b1;" horiz-adv-x="694" 
d="M639 528q-9 -83 -28.5 -160.5t-51.5 -154.5l24 -71q5 -14 11 -22t13 -12t14.5 -5t16.5 -1t21 3v-105q-25 -5 -57 -5q-52 0 -81 15t-47 65l-4 14h-2q-25 -46 -69.5 -73.5t-117.5 -27.5q-68 0 -114 26t-72 66t-37.5 89t-11.5 95q0 54 14 103.5t44 88t77 61.5t111 23
q46 0 80 -11.5t57.5 -31.5t37.5 -46.5t21 -56.5h2q3 14 7 32t7 37t5.5 34.5t4.5 30.5h125zM188 264q0 -83 32.5 -126.5t83.5 -43.5q33 0 55 14t35.5 37.5t19 54t5.5 64.5q0 84 -32 126.5t-83 42.5q-22 0 -42.5 -9.5t-37 -29.5t-26.5 -52t-10 -78z" />
    <glyph glyph-name="beta" unicode="&#x3b2;" horiz-adv-x="647" 
d="M70 471q0 59 12.5 108t41.5 83.5t77.5 53.5t117.5 19q65 0 110.5 -15t74 -40.5t41.5 -59t13 -70.5q0 -29 -8 -53.5t-21 -43.5t-30 -33t-35 -21v-2q67 -18 102 -66.5t35 -124.5q0 -46 -14.5 -86t-42.5 -69t-70 -46t-95 -17q-113 0 -165 70h-2v-253h-142v666zM421 535
q0 26 -8 43.5t-22.5 28.5t-32.5 16t-38 5q-33 0 -54 -11t-33 -29.5t-16.5 -41t-4.5 -46.5v-250q0 -40 10 -69.5t27.5 -48.5t40 -28t48.5 -9q23 0 44 7t37 21.5t25.5 36t9.5 50.5q0 36 -11 59.5t-29 37t-44 19.5t-55 6h-20.5t-24.5 -1v108q8 -1 19 -1h17q32 0 54 8t35.5 21.5
t19.5 31t6 36.5z" />
    <glyph glyph-name="gamma" unicode="&#x3b3;" horiz-adv-x="587" 
d="M234 -62q0 5 -21.5 61t-58.5 153q-10 26 -21.5 56.5t-23 62t-23.5 62.5t-22 60q-25 67 -49 135h148q2 -6 11.5 -32.5t22.5 -65.5t29 -86t31 -92.5t27.5 -85.5t20.5 -65h2q52 109 80.5 213.5t28.5 194.5v19h136v-18q0 -136 -48 -270.5t-135 -274.5q1 -8 2 -19
q1 -10 1.5 -24t0.5 -33t-0.5 -40.5t-2.5 -43.5h-136v133z" />
    <glyph glyph-name="delta" unicode="&#x3b4;" horiz-adv-x="593" 
d="M297 -12q-60 0 -107 18t-79.5 51t-49.5 78.5t-17 100.5q0 38 8.5 75.5t27.5 70.5t51 60.5t78 45.5v2q-38 29 -53 55t-15 57q0 33 14.5 58t40 41.5t61 25t78.5 8.5q51 0 93 -5t78 -15l-11 -117q-45 12 -79 18.5t-66 6.5q-28 0 -40 -9t-12 -23q0 -16 14 -28.5t52 -35.5
q55 -34 91.5 -67t57.5 -67t29.5 -70t8.5 -76q0 -57 -18 -105t-51 -82t-80 -53t-105 -19zM298 95q54 0 87 38t33 114q0 23 -5 46.5t-18 46t-35.5 44.5t-58.5 42q-52 -19 -86.5 -68t-34.5 -119q0 -68 30.5 -106t87.5 -38z" />
    <glyph glyph-name="epsilon" unicode="&#x3b5;" horiz-adv-x="515" 
d="M152 279q-47 16 -68 44t-21 71q0 26 10 50.5t34 46t68 35.5t111 14q59 0 108 -9.5t73 -21.5l-23 -105q-23 10 -63 19t-85 9q-57 -1 -79.5 -16t-22.5 -41q1 -32 28 -43t77 -11h28t28 1q15 0 30 1v-102h-33q-14 0 -28.5 0.5t-24.5 0.5q-57 0 -85 -14t-28 -48q0 -19 9 -31
t23.5 -19t34 -9.5t40.5 -2.5q41 0 83 6.5t83 20.5l22 -101q-37 -17 -86 -26.5t-109 -9.5q-115 0 -178 39t-63 118q0 53 28.5 86.5t78.5 45.5v2z" />
    <glyph glyph-name="zeta" unicode="&#x3b6;" horiz-adv-x="494" 
d="M181 285q0 -34 7.5 -58.5t26.5 -44t50.5 -35t79.5 -31.5q38 -13 63.5 -26t41.5 -29.5t22.5 -38t6.5 -51.5q0 -33 -10.5 -74.5t-28.5 -80.5h-123q16 43 23 70t7 46q0 13 -3 23t-11 18t-22.5 15t-38.5 15q-55 18 -96.5 39.5t-71.5 52t-46 72t-16 100.5q0 58 15.5 109.5
t44 95.5t67 80.5t85.5 64.5v2h-184v116h403v-100q-76 -38 -131 -81t-90.5 -88t-53 -91t-17.5 -90z" />
    <glyph glyph-name="eta" unicode="&#x3b7;" horiz-adv-x="638" 
d="M217 457q20 40 64.5 61.5t95.5 21.5q45 0 80.5 -13.5t61.5 -39t39.5 -61t13.5 -78.5v-543h-142v490q1 72 -22 105t-76 33q-23 0 -42.5 -8t-35.5 -25t-26 -46.5t-10 -67.5v-286h-142v410q0 51 -3 80t-5 38h136q4 -14 7.5 -34t3.5 -37h2z" />
    <glyph glyph-name="theta" unicode="&#x3b8;" horiz-adv-x="639" 
d="M319 -12q-62 0 -112 21.5t-85 66.5t-53.5 116.5t-18.5 169.5q0 72 12 137.5t43 120t84.5 85t129.5 30.5q63 0 112 -21t84.5 -66t54.5 -116t19 -170t-19 -170t-54 -116.5t-85 -66.5t-112 -21zM191 306q1 -63 10.5 -104t26 -64.5t40 -33t51.5 -9.5q30 0 53.5 10t40 34.5
t25.5 64t10 102.5h-257zM448 414q-2 106 -33 160t-95 54t-95 -53.5t-34 -160.5h257z" />
    <glyph glyph-name="iota" unicode="&#x3b9;" horiz-adv-x="344" 
d="M208 528v-343q0 -27 2.5 -43.5t9 -25.5t18 -11.5t29.5 -2.5q13 0 24.5 1t22.5 3v-106q-20 -2 -44 -3.5t-47 -1.5q-50 0 -80.5 10t-47.5 29.5t-23 48.5t-6 65v380h142z" />
    <glyph glyph-name="kappa" unicode="&#x3ba;" horiz-adv-x="598" 
d="M313 426q24 31 44.5 52t40.5 34t41 18.5t48 5.5q21 0 35.5 -2t27.5 -4l-11 -116q-15 3 -31 3q-27 0 -50.5 -17t-45.5 -42l-39 -44l209 -314h-160l-147 217l-63 -70v-147h-142v528h142v-227h2z" />
    <glyph glyph-name="lambda" unicode="&#x3bb;" horiz-adv-x="619" 
d="M15 0l234 506l-25 66q-12 32 -26.5 43t-43.5 11q-4 0 -16.5 -1.5t-22.5 -3.5l-10 105q14 4 37 6.5t39 2.5q34 0 59 -5.5t44.5 -20.5t36 -41.5t32.5 -69.5l175 -460q9 -23 18.5 -29.5t24.5 -6.5q14 0 28 3v-105q-20 -3 -37 -4t-27 -1q-27 0 -47 3.5t-35 13t-26.5 27
t-21.5 46.5l-96 267h-2l-146 -352h-146z" />
    <glyph glyph-name="nu" unicode="&#x3bd;" horiz-adv-x="566" 
d="M10 528h149l129 -418h3q53 116 78 214t26 185v19h136v-19q0 -56 -8.5 -113.5t-27.5 -120t-50 -131.5t-75 -144h-179z" />
    <glyph glyph-name="xi" unicode="&#x3be;" horiz-adv-x="501" 
d="M317 -184q12 29 21 60.5t9 55.5q0 15 -3 25t-14.5 19t-32 17.5t-55.5 20.5q-59 20 -98 41.5t-61.5 46t-31.5 52.5t-9 63q0 60 32 103t87 60v2q-50 20 -70.5 53t-20.5 67q0 46 22 75t57 40v2h-90v116h403v-115l-115 -6q-44 -2 -73 -9.5t-46 -19t-24 -27.5t-7 -35
q0 -22 10 -37t27.5 -24t41.5 -13t53 -4h56q18 1 37 1v-119l-39 1q-17 -1 -35.5 -0.5t-32.5 0.5q-133 0 -133 -92q0 -24 9 -40t29 -29t48.5 -24t74.5 -26q41 -14 67.5 -28t42 -31t21 -38t5.5 -50q0 -21 -4 -43t-10 -42.5t-12.5 -38.5t-12.5 -30h-123v0z" />
    <glyph glyph-name="omicron" unicode="&#x3bf;" horiz-adv-x="630" 
d="M584 265q0 -65 -19.5 -116.5t-54.5 -87t-84.5 -54.5t-110.5 -19q-62 0 -111.5 19t-84.5 55t-54 87t-19 116q0 64 19 115.5t54 86.5t84.5 54t111.5 19t111.5 -19t84.5 -54t54 -86.5t19 -115.5zM442 265q0 37 -8 68.5t-23.5 53t-39.5 34t-56 12.5q-62 0 -94.5 -45
t-32.5 -123q0 -79 32 -124t95 -46q64 1 95.5 46t31.5 124z" />
    <glyph glyph-name="rho" unicode="&#x3c1;" horiz-adv-x="633" 
d="M200 -195h-142v443q0 77 20 132.5t56 91t84 52t105 16.5q66 0 115.5 -20.5t82.5 -57t49.5 -87t16.5 -111.5q0 -59 -17.5 -109t-48.5 -87.5t-74.5 -58.5t-95.5 -21q-40 0 -80 16.5t-69 53.5h-2v-253zM445 264q0 36 -7.5 67t-23 53.5t-39 35.5t-54.5 13q-58 0 -92 -44
t-34 -127q0 -78 32.5 -122t94.5 -45q61 1 92 47t31 122z" />
    <glyph glyph-name="sigma1" unicode="&#x3c2;" horiz-adv-x="509" 
d="M320 -184q12 31 21 61.5t9 55.5q0 26 -15 40.5t-61 30.5q-53 18 -95 39.5t-71.5 52t-45.5 72t-16 99.5q0 56 17 106t50.5 87t86.5 58.5t119 21.5q48 0 83 -5t73 -17l-26 -115q-28 10 -57.5 14.5t-59.5 4.5q-36 0 -63.5 -11t-45.5 -30.5t-27 -46t-9 -57.5q0 -30 6.5 -52.5
t22.5 -40.5t43.5 -32.5t70.5 -29.5q40 -14 68.5 -26t47 -28t27.5 -39t9 -59q0 -32 -11 -74.5t-28 -79.5h-123v0z" />
    <glyph glyph-name="sigma" unicode="&#x3c3;" horiz-adv-x="666" 
d="M636 420h-120v-1q32 -29 46 -71t14 -88q0 -60 -18.5 -110t-52.5 -86t-83 -56t-110 -20t-110.5 19.5t-84.5 55t-54 85.5t-19 112q0 51 15 99t48.5 85.5t88.5 60.5t130 23h310v-108zM439 261q0 31 -7.5 60t-22.5 51t-38.5 35t-55.5 13q-36 0 -60.5 -14.5t-40 -38t-22 -51.5
t-6.5 -56q0 -35 7.5 -65t23.5 -52.5t39.5 -35t55.5 -12.5q34 0 58 13t39.5 36t22.5 52.5t7 64.5z" />
    <glyph glyph-name="tau" unicode="&#x3c4;" horiz-adv-x="515" 
d="M480 528v-108h-169v-239q0 -26 3 -41.5t9.5 -24t18 -11t28.5 -2.5q11 0 22.5 1t21.5 3v-106q-20 -2 -43 -3.5t-45 -1.5q-50 0 -80.5 10t-47.5 30t-23 47.5t-6 65.5v272h-144v108h455z" />
    <glyph glyph-name="upsilon" unicode="&#x3c5;" horiz-adv-x="617" 
d="M306 -12q-70 0 -116.5 16t-73.5 46t-38.5 72t-11.5 94v312h142v-322q0 -30 7.5 -52.5t22 -35.5t33 -18t40.5 -5q40 0 62 14t33 39t13.5 59.5t2.5 74.5q0 59 -8.5 122t-26.5 124h139q13 -28 25.5 -91t13.5 -146q0 -63 -10.5 -118t-39 -96.5t-79.5 -65t-130 -23.5z" />
    <glyph glyph-name="phi" unicode="&#x3c6;" horiz-adv-x="807" 
d="M334 437q-70 -2 -109.5 -42.5t-39.5 -130.5q0 -47 11 -79.5t30 -52.5t47 -30t61 -11v346zM473 91q32 1 59.5 10.5t47.5 29.5t31 52.5t11 80.5q-1 89 -38.5 129.5t-110.5 43.5v-346zM334 688h139v-145q62 -1 114.5 -18.5t91.5 -52t60.5 -86.5t21.5 -121q0 -62 -18.5 -113
t-54.5 -87.5t-90 -57.5t-125 -22v-180h-139v180q-135 3 -211.5 76t-76.5 203q0 67 20 118t58 86.5t91 54t119 20.5v145z" />
    <glyph glyph-name="chi" unicode="&#x3c7;" horiz-adv-x="602" 
d="M235 168l-104 203q-9 18 -16 28.5t-14.5 16.5t-16 8t-20.5 2q-13 0 -20 -3l-10 107q17 3 35 4.5t33 1.5q28 0 48.5 -3.5t37 -13.5t30 -27.5t26.5 -44.5l78 -155h2l119 236h151l-195 -352l103 -199q13 -24 22 -38t17.5 -21t16.5 -9t19 -2q8 0 15 1t10 2v-105
q-15 -2 -29 -3.5t-28 -1.5q-27 0 -48 3.5t-38 14t-31.5 28.5t-29.5 47l-81 161h-2l-136 -249h-149z" />
    <glyph glyph-name="psi" unicode="&#x3c8;" horiz-adv-x="792" 
d="M469 -195h-139v183h-5q-74 0 -123 15t-80 46t-43.5 75.5t-12.5 103.5v300h142v-313q0 -37 8.5 -60.5t25 -37t38.5 -18t50 -4.5v593h139v-593h8q39 0 62.5 11.5t36.5 33t17.5 56t4.5 78.5q0 81 -10.5 143t-24.5 111h139q13 -31 25.5 -93.5t12.5 -143.5q0 -67 -12 -123
t-42.5 -96t-82 -62t-129.5 -22h-5v-183z" />
    <glyph glyph-name="omega" unicode="&#x3c9;" horiz-adv-x="829" 
d="M263 -12q-106 0 -156.5 65.5t-50.5 186.5q0 41 5 81.5t15 78t24.5 70t34.5 58.5h141q-37 -62 -57.5 -139t-20.5 -162q0 -70 20.5 -101t56.5 -31q37 0 53 27.5t16 81.5v193h141v-193q0 -34 5.5 -55t15 -33t22 -16.5t26.5 -4.5q40 0 58.5 34t18.5 98q0 54 -7.5 100.5
t-19.5 84t-25.5 67t-25.5 49.5h141q38 -49 58.5 -126t20.5 -161q0 -56 -11 -102.5t-35.5 -80t-64 -52t-95.5 -18.5q-65 0 -101.5 28t-50.5 72h-2q-15 -45 -51 -72.5t-99 -27.5z" />
    <glyph glyph-name="iotadieresis" unicode="&#x3ca;" horiz-adv-x="344" 
d="M208 528v-343q0 -27 2.5 -43.5t9 -25.5t18 -11.5t29.5 -2.5q13 0 24.5 1t22.5 3v-106q-20 -2 -44 -3.5t-47 -1.5q-50 0 -80.5 10t-47.5 29.5t-23 48.5t-6 65v380h142zM98 625h-124v118h124v-118zM304 625h-125v118h125v-118z" />
    <glyph glyph-name="upsilondieresis" unicode="&#x3cb;" horiz-adv-x="617" 
d="M306 -12q-70 0 -116.5 16t-73.5 46t-38.5 72t-11.5 94v312h142v-322q0 -30 7.5 -52.5t22 -35.5t33 -18t40.5 -5q40 0 62 14t33 39t13.5 59.5t2.5 74.5q0 59 -8.5 122t-26.5 124h139q13 -28 25.5 -91t13.5 -146q0 -63 -10.5 -118t-39 -96.5t-79.5 -65t-130 -23.5zM260 625
h-124v118h124v-118zM466 625h-125v118h125v-118z" />
    <glyph glyph-name="omicrontonos" unicode="&#x3cc;" horiz-adv-x="630" 
d="M371 604h-98l48 164h159zM584 265q0 -65 -19.5 -116.5t-54.5 -87t-84.5 -54.5t-110.5 -19q-62 0 -111.5 19t-84.5 55t-54 87t-19 116q0 64 19 115.5t54 86.5t84.5 54t111.5 19t111.5 -19t84.5 -54t54 -86.5t19 -115.5zM442 265q0 37 -8 68.5t-23.5 53t-39.5 34t-56 12.5
q-62 0 -94.5 -45t-32.5 -123q0 -79 32 -124t95 -46q64 1 95.5 46t31.5 124z" />
    <glyph glyph-name="upsilontonos" unicode="&#x3cd;" horiz-adv-x="617" 
d="M306 -12q-70 0 -116.5 16t-73.5 46t-38.5 72t-11.5 94v312h142v-322q0 -30 7.5 -52.5t22 -35.5t33 -18t40.5 -5q40 0 62 14t33 39t13.5 59.5t2.5 74.5q0 59 -8.5 122t-26.5 124h139q13 -28 25.5 -91t13.5 -146q0 -63 -10.5 -118t-39 -96.5t-79.5 -65t-130 -23.5zM345 604
h-98l48 164h159z" />
    <glyph glyph-name="omegatonos" unicode="&#x3ce;" horiz-adv-x="829" 
d="M263 -12q-106 0 -156.5 65.5t-50.5 186.5q0 41 5 81.5t15 78t24.5 70t34.5 58.5h141q-37 -62 -57.5 -139t-20.5 -162q0 -70 20.5 -101t56.5 -31q37 0 53 27.5t16 81.5v193h141v-193q0 -34 5.5 -55t15 -33t22 -16.5t26.5 -4.5q40 0 58.5 34t18.5 98q0 54 -7.5 100.5
t-19.5 84t-25.5 67t-25.5 49.5h141q38 -49 58.5 -126t20.5 -161q0 -56 -11 -102.5t-35.5 -80t-64 -52t-95.5 -18.5q-65 0 -101.5 28t-50.5 72h-2q-15 -45 -51 -72.5t-99 -27.5zM465 604h-98l48 164h159z" />
    <glyph glyph-name="tonos.cap" horiz-adv-x="428" 
d="M216 550h-98l48 164h159z" />
    <glyph glyph-name="uni2015" unicode="&#x2015;" horiz-adv-x="796" 
d="M771 253h-746v94h746v-94z" />
    <glyph glyph-name="questiongreek" unicode="&#x37e;" horiz-adv-x="361" 
d="M104 528h154v-157h-154v157zM113 156h145l-89 -284h-98z" />
    <glyph glyph-name="numeralsigngreek" unicode="&#x374;" horiz-adv-x="426" 
d="M216 531h-98l44 204h161z" />
    <glyph glyph-name="numeralsignlowergreek" unicode="&#x375;" horiz-adv-x="426" 
d="M225 22h98l-44 -204h-161z" />
    <glyph glyph-name="cyrbreve" horiz-adv-x="461" 
d="M230 601q-46 0 -78 12.5t-52.5 34.5t-30 50t-10.5 58h95q1 -32 19 -51t57 -19q40 0 58 19t19 51h94q-1 -30 -10.5 -58.5t-29.5 -50t-52.5 -34t-78.5 -12.5z" />
    <glyph glyph-name="cyrbreve.cap" horiz-adv-x="461" 
d="M230 761q-46 0 -78 12.5t-52.5 35t-30 50t-10.5 57.5h95q1 -32 19 -51.5t57 -19.5t57.5 19.5t19.5 51.5h94q-1 -30 -10.5 -58.5t-29 -49.5t-52.5 -34t-79 -13z" />
    <glyph glyph-name="hyphen.cap" horiz-adv-x="396" 
d="M69 423h258v-115h-258v115z" />
    <glyph glyph-name="endash.cap" horiz-adv-x="496" 
d="M471 318h-446v94h446v-94z" />
    <glyph glyph-name="emdash.cap" horiz-adv-x="796" 
d="M771 318h-746v94h746v-94z" />
    <glyph glyph-name="colon.cap" horiz-adv-x="361" 
d="M104 250h154v-157h-154v157zM104 621h154v-157h-154v157z" />
    <glyph glyph-name="registered.alt1" horiz-adv-x="796" 
d="M92 355q0 -64 22.5 -120.5t63 -99t97 -67t125.5 -24.5q67 0 123.5 24.5t96.5 67t62.5 99t22.5 120.5q0 65 -22.5 122.5t-62.5 100.5t-96.5 68t-123.5 25q-68 0 -125 -25t-97.5 -68t-63 -100.5t-22.5 -122.5zM33 355q0 77 27 144t76 117t116.5 78.5t147.5 28.5
q79 0 146 -28.5t115 -78.5t75 -117t27 -144q0 -76 -27 -142t-74 -115.5t-114.5 -78t-147.5 -28.5q-81 0 -148.5 28.5t-116 78t-75.5 115.5t-27 142zM244 572h172q29 0 56.5 -6t49.5 -19.5t35 -37t13 -56.5q0 -36 -17 -59t-51 -37v-2q20 -8 31.5 -23.5t22.5 -53.5
q10 -35 19.5 -66t20.5 -66h-110q-3 12 -7 26.5t-7.5 30t-7 29.5t-6.5 24q-5 20 -10.5 29t-13.5 14t-20.5 6.5t-30.5 1.5h-40v-161h-99v426zM343 382h49q36 0 57 11.5t22 42.5q0 17 -6.5 27.5t-17.5 16.5t-24.5 8t-28.5 2h-51v-108z" />
    <glyph glyph-name="zero.slash" horiz-adv-x="605" 
d="M302 726q64 0 112.5 -26t81 -74.5t48.5 -117.5t16 -155q0 -173 -64.5 -269t-193.5 -96q-65 0 -113.5 24.5t-80.5 71.5t-48 115t-16 154t16 155t48 117.5t80.5 74.5t113.5 26zM302 610q-31 0 -53 -19t-35.5 -55t-19 -82t-5.5 -101q0 -25 1 -48t3 -44l200 266
q-13 39 -35.5 61t-55.5 22zM416 353q0 23 -1.5 45.5t-3.5 42.5l-199 -265q14 -35 35.5 -53.5t54.5 -18.5q31 0 53 18t35.5 50.5t19.5 78.5t6 102z" />
    <glyph glyph-name="zero.tnum" horiz-adv-x="605" 
d="M302 726q64 0 112.5 -26t81 -74.5t48.5 -117.5t16 -155q0 -173 -64.5 -269t-193.5 -96q-65 0 -113.5 24.5t-80.5 71.5t-48 115t-16 154t16 155t48 117.5t80.5 74.5t113.5 26zM302 610q-32 0 -53.5 -19.5t-35 -54t-19 -81.5t-5.5 -102t5.5 -100t19 -79t35 -52t53.5 -18
q31 0 53 17.5t35.5 50.5t19.5 79t6 102q0 55 -6 102t-19.5 81.5t-35.5 54t-53 19.5z" />
    <glyph glyph-name="one.tnum" horiz-adv-x="605" 
d="M408 0h-146v577l-133 -80l-52 108l183 109h148v-714z" />
    <glyph glyph-name="two.tnum" horiz-adv-x="605" 
d="M542 0h-479v119q95 84 157.5 143t99.5 103.5t52 78t15 65.5q0 47 -31.5 73.5t-79.5 26.5q-36 0 -76 -13t-87 -42l-46 104q46 32 104.5 50t115.5 18q55 0 100.5 -14t78 -41t50 -67t17.5 -92q0 -48 -15.5 -90t-50.5 -87.5t-89.5 -98t-132.5 -119.5h297v-117z" />
    <glyph glyph-name="three.tnum" horiz-adv-x="605" 
d="M148 423h78q31 0 59 4.5t49 16t33 30t12 46.5q0 45 -31 67t-82 22q-38 0 -76.5 -9t-81.5 -30l-36 113q46 22 100.5 32.5t109.5 10.5q49 0 93 -11t77.5 -33.5t53 -58.5t19.5 -85q0 -57 -29.5 -100.5t-92.5 -64.5v-2q71 -16 105 -62.5t34 -104.5q0 -56 -21.5 -97t-58 -67.5
t-86 -39t-105.5 -12.5q-57 0 -114.5 12t-103.5 35l35 111q90 -41 176 -41q58 0 95.5 25t37.5 78q0 29 -14 48t-38 30t-55.5 15.5t-65.5 4.5h-76v117z" />
    <glyph glyph-name="four.tnum" horiz-adv-x="605" 
d="M502 266h78v-117h-78v-149h-146v149h-330v141l273 424h203v-448zM356 583h-2l-195 -317h197v317z" />
    <glyph glyph-name="five.tnum" horiz-adv-x="605" 
d="M399 220q0 34 -15 56.5t-40.5 36t-56.5 18.5t-62 5q-33 0 -66 -2.5t-68 -7.5l21 388h400v-117h-271l-11 -151q20 2 34 2.5t27 0.5q51 0 97 -14.5t80.5 -42t55 -69t20.5 -95.5q0 -60 -21.5 -105.5t-58.5 -75t-86.5 -44.5t-104.5 -15q-56 0 -112 10.5t-107 33.5l35 111
q37 -17 81.5 -27.5t87.5 -10.5q28 0 54 6t45 19.5t30.5 35.5t11.5 54z" />
    <glyph glyph-name="six.tnum" horiz-adv-x="605" 
d="M370 609q-44 0 -76.5 -15t-54 -41t-34.5 -61.5t-17 -76.5h2q28 29 68 45t80 16q57 0 100.5 -18t73 -49.5t44.5 -75t15 -95.5q0 -54 -19 -100t-53 -79t-82.5 -52t-107.5 -19q-80 0 -132 31t-81.5 79.5t-41.5 108.5t-12 118q0 85 19 158t58 127t98 84.5t143 31.5
q38 0 75 -6t66 -15l-23 -116q-23 8 -50 14t-58 6zM189 253q0 -26 7 -52.5t22 -48t38.5 -35t55.5 -13.5q53 0 85 37t32 97q0 25 -7 48t-21.5 40.5t-36 28t-50.5 10.5q-30 0 -53 -10t-39 -25.5t-24.5 -35.5t-8.5 -41z" />
    <glyph glyph-name="seven.tnum" horiz-adv-x="605" 
d="M67 714h472v-116q-49 -74 -87.5 -150.5t-65.5 -153t-43 -151t-22 -143.5h-147q6 70 24 148t45 157t63.5 154t77.5 139h-317v116z" />
    <glyph glyph-name="eight.tnum" horiz-adv-x="605" 
d="M302 311q-21 0 -42 -6.5t-38.5 -19.5t-29 -33.5t-11.5 -47.5q0 -50 34 -76t87 -26q52 0 87 26t35 76q0 27 -11.5 47.5t-29 33.5t-39 19.5t-42.5 6.5zM302 726q49 0 93.5 -12.5t77.5 -36t53 -60t20 -83.5q0 -63 -29 -102t-78 -57v-2q25 -10 48.5 -25.5t41.5 -37t29 -51.5
t11 -68q0 -50 -21 -88t-57 -63.5t-84.5 -38.5t-104.5 -13t-104.5 13t-84.5 38.5t-56.5 64t-20.5 87.5q0 38 10.5 67t28.5 50.5t41 36t48 23.5v2q-48 21 -77 61.5t-29 102.5q0 47 20 83t53.5 60t77 36.5t93.5 12.5zM302 422q21 0 40.5 6t34 18t23.5 30.5t9 44.5
q0 45 -29 69.5t-78 24.5q-47 0 -76.5 -25t-29.5 -69q0 -51 32 -75t74 -24z" />
    <glyph glyph-name="nine.tnum" horiz-adv-x="605" 
d="M234 104q45 0 77.5 15t54.5 41t34 61.5t16 76.5h-2q-26 -32 -67 -46.5t-81 -14.5q-57 0 -100.5 18t-73 49.5t-44.5 75t-15 95.5q0 54 19 100t53.5 79.5t82.5 52.5t107 19q76 0 129.5 -30t83.5 -80t42 -110t12 -118q0 -85 -19 -158t-58 -127t-99.5 -84.5t-143.5 -30.5
q-37 0 -78 5.5t-73 14.5l22 116q24 -8 57 -14t64 -6zM415 460q0 26 -7 52.5t-22 48t-38.5 35t-55.5 13.5q-53 0 -85 -37t-32 -97q0 -25 7 -48t21.5 -40.5t36.5 -28t51 -10.5t52.5 10t39 25.5t24 35.5t8.5 41z" />
    <glyph glyph-name="dollar.tnum" horiz-adv-x="605" 
d="M471 573q-29 11 -63.5 17.5t-66.5 8.5v-183q43 -17 78 -35.5t60 -42t39 -57t14 -78.5q0 -44 -15.5 -78t-43 -59t-64 -40t-78.5 -20v-84h-70v81q-45 2 -94.5 10.5t-95.5 25.5l26 112q42 -17 83 -26.5t81 -11.5v195q-42 16 -76.5 35.5t-58.5 43t-37.5 54.5t-13.5 70
q0 46 16.5 81t44 59t63 38t73.5 18v76h69v-74q43 -2 82.5 -8.5t72.5 -18.5zM399 197q0 29 -16.5 48.5t-51.5 36.5v-167q68 13 68 82zM203 524q0 -30 15.5 -48t53.5 -35v157q-31 -6 -50 -25t-19 -49z" />
    <glyph glyph-name="currency.tnum" horiz-adv-x="605" 
d="M303 235q38 0 62.5 25.5t24.5 64.5q0 38 -24.5 63t-62.5 25t-63.5 -25t-25.5 -63q0 -39 25 -64.5t64 -25.5zM144 570l71 -72q38 19 88 19q45 0 86 -19l71 72l87 -87l-71 -71q20 -40 20 -87q0 -50 -20 -88l71 -71l-88 -86l-70 70q-20 -11 -41.5 -15.5t-44.5 -4.5
q-51 0 -88 21l-71 -71l-87 86l71 71q-20 40 -20 88q0 46 20 86l-71 71z" />
    <glyph glyph-name="Euro.tnum" horiz-adv-x="605" 
d="M566 1q-29 -7 -59 -10t-62 -3q-67 0 -122.5 18.5t-97 52.5t-70 82t-41.5 107h-91l22 88h58q-1 8 -1 14v12q0 10 0.5 18t1.5 14h-80l22 88h73q15 55 43.5 100t70 77t95.5 49.5t122 17.5q29 0 57 -2.5t54 -7.5l-25 -115q-37 8 -72 8q-79 0 -127 -34t-70 -93h244l-20 -88
h-243q-1 -7 -1.5 -14.5t-0.5 -18.5v-12t1 -13h232l-20 -88h-199q19 -65 70.5 -103.5t133.5 -38.5q42 0 81 9z" />
    <glyph glyph-name="cent.tnum" horiz-adv-x="605" 
d="M475 415q-36 14 -69 17v-335q38 2 73 18l22 -108q-45 -15 -95 -18v-56h-77v59q-56 7 -98 30.5t-71 59t-43.5 82t-14.5 99.5q0 54 15 101t44.5 83t71.5 59.5t96 30.5v63h77v-61q25 -2 48 -5.5t44 -11.5zM244 263q0 -27 4.5 -53t14.5 -48t26.5 -38t39.5 -22v322
q-23 -7 -39 -23t-26 -37.5t-15 -47.5t-5 -53z" />
    <glyph glyph-name="sterling.tnum" horiz-adv-x="605" 
d="M495 585q-18 9 -43 14t-47 5q-56 0 -83.5 -31.5t-27.5 -86.5v-67h164v-100h-164v-202h257v-117h-498v117h97v202h-90v100h90v73q0 52 15.5 94t47 73t79.5 47.5t110 16.5q36 0 69 -6t60 -17z" />
    <glyph glyph-name="florin.tnum" horiz-adv-x="605" 
d="M502 329h-134l-57 -324q-11 -63 -57 -99.5t-128 -36.5q-15 0 -37.5 2.5t-50.5 10.5l21 106q17 -5 32.5 -7t26.5 -2q32 0 46.5 17.5t20.5 56.5l45 276h-110v104h128l20 111q6 35 18 67t34 57t58 40.5t89 15.5q25 0 50.5 -3t47.5 -11l-31 -106q-29 12 -58 12q-34 0 -52 -24
t-23 -60l-17 -99h118v-104z" />
    <glyph glyph-name="yen.tnum" horiz-adv-x="605" 
d="M232 233v59h-165v87h129l-182 335h154l136 -282l139 282h149l-184 -335h128v-87h-163v-59h163v-87h-163v-146h-141v146h-165v87h165z" />
    <glyph glyph-name="uni2011" unicode="&#x2011;" horiz-adv-x="396" 
d="M69 358h258v-115h-258v115z" />
    <glyph glyph-name="uniFEFF" unicode="&#xfeff;" horiz-adv-x="0" 
 />
    </font>
</defs>
</svg>
