<?xml version="1.0" standalone="no"?>
<!DOCTYPE svg PUBLIC "-//W3C//DTD SVG 1.1//EN" "http://www.w3.org/Graphics/SVG/1.1/DTD/svg11.dtd" >
<svg xmlns="http://www.w3.org/2000/svg" xmlns:xlink="http://www.w3.org/1999/xlink" version="1.1">
<metadata>
Created by FontForge 20170910 at Mon Mar 27 15:59:59 2017
 By Jimmy Wärting
Copyright (c) 2012-2017 Monotype GmbH. All rights reserved.
</metadata>
<defs>
<font id="SST-Italic" horiz-adv-x="381" >
  <font-face 
    font-family="SST"
    font-weight="400"
    font-style="italic"
    font-stretch="normal"
    units-per-em="1000"
    panose-1="2 11 5 4 3 5 4 9 2 4"
    ascent="770"
    descent="-230"
    x-height="528"
    cap-height="714"
    bbox="-218 -214 1073 946"
    underline-thickness="50"
    underline-position="-100"
    slope="-11"
    unicode-range="U+0020-FEFF"
  />
<missing-glyph horiz-adv-x="512" 
d="M278 117v67h56v-67h-56zM281 234l-2 17q0 56 13 81q7 13 18 27.5t28 31.5q16 15 26 26.5t15 20.5t7 18t2 18q0 36 -23 60.5t-53 24.5q-33 0 -54.5 -23t-27.5 -72l-50 8q8 73 44.5 105t90.5 32q53 0 88.5 -36t35.5 -95q0 -32 -12.5 -58.5t-50.5 -61.5q-37 -33 -43 -52
q-6 -20 -6 -72h-46zM518 50v617h-412v-617h412zM568 718v-718h-512v718h512z" />
    <glyph glyph-name="napostrophe" unicode="&#x22;n" horiz-adv-x="588" 
d="M234 528l-22 -98h2q28 50 74.5 80t102.5 30q70 0 109.5 -38t39.5 -109q0 -30 -9 -75l-66 -318h-82l67 316q4 18 6.5 37t2.5 33q0 16 -4 31.5t-13.5 28.5t-26 21t-40.5 8q-34 0 -65 -14.5t-56.5 -41t-43.5 -62.5t-27 -78l-58 -279h-82l112 528h79zM191 604h-52l47 164h79z
" />
    <glyph glyph-name="IJ" unicode="IJ" horiz-adv-x="580" 
d="M199 714h84l-151 -714h-84zM493 153q-8 -39 -21.5 -69.5t-35.5 -52t-53 -32.5t-75 -11q-13 0 -35 1.5t-40 5.5l12 71q16 -4 32.5 -5.5t28.5 -1.5q45 0 68.5 21.5t34.5 72.5l119 561h84z" />
    <glyph glyph-name="fi" unicode="fi" horiz-adv-x="576" 
d="M576 659q-35 6 -72 8.5t-76 2.5q-37 0 -64.5 -6.5t-46 -20t-30 -35.5t-17.5 -51l-6 -29h298l-112 -528h-82l98 463h-217l-97 -463h-80l97 463h-108l15 65h108l9 41q9 41 25.5 71t45.5 51.5t72 32.5t104 11q46 0 86 -3.5t69 -8.5z" />
    <glyph glyph-name="fl" unicode="fl" horiz-adv-x="576" 
d="M429 670q-73 0 -109.5 -25.5t-49.5 -87.5l-6 -29h123l-15 -65h-123l-97 -463h-80l97 463h-108l15 65h108l9 41q9 42 25.5 71.5t45.5 51t72 32.5t104 11q45 0 86.5 -3.5t76.5 -9.5l-153 -722h-82l141 667q-28 2 -49 2.5t-31 0.5z" />
    <glyph glyph-name="ij" unicode="ij" horiz-adv-x="502" 
d="M237 528l-112 -528h-82l112 528h82zM279 727l-19 -88h-88l19 88h88zM371 -37q-8 -37 -19.5 -65t-31 -49t-48.5 -32.5t-72 -11.5q-13 0 -28 1t-28 3l10 65q12 -2 23 -3t23 -1q21 0 36 7.5t25 20.5t16.5 31t11.5 41l119 558h82zM532 727l-19 -88h-88l19 88h88z" />
    <glyph glyph-name="ffl" unicode="ffl" horiz-adv-x="881" 
d="M489 528l9 41q9 41 25.5 71t45.5 51.5t72 32.5t104 11q45 0 86.5 -3.5t76.5 -9.5l-153 -722h-82l141 667q-28 2 -46.5 2.5t-33.5 0.5q-73 0 -109.5 -25.5t-49.5 -87.5l-6 -29h123l-15 -65h-123l-97 -463h-80l97 463h-225l-97 -463h-80l97 463h-108l15 65h107l9 41
q8 37 19.5 67t32 52.5t51.5 34.5t76 12q23 0 42.5 -3t33.5 -7l-14 -60q-29 8 -61 8q-26 0 -43 -7.5t-28.5 -22t-18.5 -35t-13 -50.5l-6 -30h226z" />
    <glyph glyph-name="ffi" unicode="ffi" horiz-adv-x="881" 
d="M489 528l9 41q9 42 26 72t45.5 51t71.5 32t104 11q46 0 86.5 -3.5t68.5 -8.5l-19 -64q-35 6 -72 8.5t-76 2.5q-37 0 -63 -6t-44.5 -18.5t-31.5 -35t-19 -53.5l-6 -29h298l-112 -528h-82l98 463h-217l-97 -463h-80l97 463h-225l-97 -463h-80l97 463h-108l15 65h107l9 41
q8 38 20 68t32 52t51 34t76 12q23 0 42.5 -3t33.5 -7l-14 -60q-29 8 -61 8q-26 0 -43 -7.5t-28.5 -22t-18.5 -35.5t-13 -50l-6 -30h226z" />
    <glyph glyph-name="ff" unicode="ff" horiz-adv-x="630" 
d="M489 528l9 41q8 38 19.5 67.5t32 52t52 34.5t77.5 12q20 0 38 -2.5t35 -7.5l-14 -61q-16 4 -32 6.5t-33 2.5q-24 0 -40.5 -7.5t-27.5 -23t-17.5 -35t-12.5 -49.5l-6 -30h123l-15 -65h-123l-97 -463h-80l97 463h-225l-97 -463h-80l97 463h-108l15 65h107l9 41
q8 38 19.5 67t31 51.5t51 35t77.5 12.5q23 0 42.5 -3t33.5 -7l-14 -60q-29 8 -61 8q-26 0 -43 -7.5t-28.5 -22t-18.5 -36t-13 -49.5l-6 -30h226z" />
    <glyph glyph-name=".notdef" horiz-adv-x="512" 
d="M278 117v67h56v-67h-56zM281 234l-2 17q0 56 13 81q7 13 18 27.5t28 31.5q16 15 26 26.5t15 20.5t7 18t2 18q0 36 -23 60.5t-53 24.5q-33 0 -54.5 -23t-27.5 -72l-50 8q8 73 44.5 105t90.5 32q53 0 88.5 -36t35.5 -95q0 -32 -12.5 -58.5t-50.5 -61.5q-37 -33 -43 -52
q-6 -20 -6 -72h-46zM518 50v617h-412v-617h412zM568 718v-718h-512v718h512z" />
    <glyph glyph-name=".null" horiz-adv-x="0" 
 />
    <glyph glyph-name=".null" horiz-adv-x="0" 
 />
    <glyph glyph-name="nonmarkingreturn" horiz-adv-x="0" 
 />
    <glyph glyph-name="space" unicode=" " horiz-adv-x="260" 
 />
    <glyph glyph-name="exclam" unicode="!" horiz-adv-x="305" 
d="M185 199h-64l92 515h98zM87 97h94l-20 -97h-94z" />
    <glyph glyph-name="quotedbl" unicode="&#x22;" horiz-adv-x="391" 
d="M192 735h90l-67 -223h-52zM341 735h89l-66 -223h-52z" />
    <glyph glyph-name="numbersign" unicode="#" horiz-adv-x="555" 
d="M140 216h-102l13 60h110l58 164h-109l13 60h118l74 214h62l-75 -214h134l74 214h62l-74 -214h91l-13 -60h-100l-57 -164h96l-13 -60h-105l-74 -216h-63l76 216h-134l-75 -216h-62zM224 276h133l58 164h-135z" />
    <glyph glyph-name="dollar" unicode="$" horiz-adv-x="521" 
d="M403 701q67 -5 116 -26l-20 -67q-26 11 -52.5 18t-57.5 9l-53 -251q62 -45 93 -87.5t31 -99.5q0 -46 -17 -80t-45.5 -57t-65.5 -35.5t-76 -15.5l-18 -87h-63l18 87q-36 2 -76.5 11.5t-74.5 25.5l22 67q35 -17 73 -26.5t70 -11.5l57 265q-59 40 -89.5 83.5t-30.5 98.5
q0 43 16.5 76.5t44 55t62.5 33.5t73 15l18 81h63zM380 190q0 30 -15 57t-47 54l-47 -222q49 8 79 36.5t30 74.5zM224 529q0 -30 13 -54.5t45 -50.5l44 209q-20 -3 -39 -11t-33 -20.5t-22 -30.5t-8 -42z" />
    <glyph glyph-name="percent" unicode="%" horiz-adv-x="796" 
d="M164 0h-62l602 714h62zM420 586q0 -41 -9.5 -84t-30.5 -79t-55 -58t-80 -22q-54 0 -84 34.5t-30 93.5q0 40 9.5 83.5t30.5 80t55 58.5t79 22q55 0 85 -33.5t30 -95.5zM250 398q26 0 46.5 17.5t33.5 48.5t18.5 63.5t5.5 57.5q0 39 -14.5 57t-39.5 18q-27 0 -47.5 -19.5
t-32.5 -49.5t-17.5 -62.5t-5.5 -56.5q0 -34 13.5 -54t39.5 -20zM738 243q0 -41 -9.5 -84t-30.5 -79t-55 -58t-80 -22q-54 0 -84 34.5t-30 93.5q0 40 9.5 83.5t30.5 80t55 58.5t79 22q55 0 85 -33.5t30 -95.5zM568 55q26 0 46.5 17.5t33.5 48.5t18.5 63.5t5.5 57.5
q0 39 -14.5 57t-39.5 18q-27 0 -47.5 -19.5t-32.5 -49.5t-17.5 -62.5t-5.5 -56.5q0 -34 13.5 -54t39.5 -20z" />
    <glyph glyph-name="ampersand" unicode="&#x26;" horiz-adv-x="695" 
d="M335 429q31 11 59.5 24.5t50.5 32t35 42t13 54.5q0 35 -22.5 57t-62.5 22q-50 0 -81 -33.5t-31 -86.5q0 -31 10.5 -59t28.5 -53zM299 348q-76 -28 -114.5 -70t-38.5 -106q0 -52 32 -84t82 -32q51 0 93 24.5t78 72.5zM637 0h-99l-64 96q-50 -56 -100.5 -82t-123.5 -26
q-42 0 -77 12.5t-60 36t-39 57t-14 75.5q0 46 16.5 82.5t44 64.5t65 49.5t77.5 36.5q-21 31 -34 66.5t-13 68.5q0 48 16 83.5t43 59t63 35t75 11.5q74 0 116.5 -39t42.5 -104q0 -39 -14.5 -70.5t-41 -56t-63.5 -44.5t-81 -37l109 -160q9 12 22.5 32.5t27 43.5t26.5 46t22 42
h90q-13 -23 -31 -53t-38 -60.5t-39.5 -58.5t-34.5 -47z" />
    <glyph glyph-name="quotesingle" unicode="'" horiz-adv-x="242" 
d="M192 735h90l-67 -223h-52z" />
    <glyph glyph-name="parenleft" unicode="(" horiz-adv-x="310" 
d="M373 797q-60 -72 -108.5 -156t-82.5 -175t-52.5 -187t-18.5 -193q0 -77 12.5 -148t38.5 -133h-72q-23 57 -37.5 131t-14.5 153q0 103 20 202.5t54.5 190.5t81.5 170.5t102 144.5h77z" />
    <glyph glyph-name="parenright" unicode=")" horiz-adv-x="310" 
d="M-18 -195q60 73 108.5 156.5t82.5 173t52.5 187t18.5 194.5q0 77 -12.5 147.5t-38.5 133.5h72q23 -56 37.5 -130.5t14.5 -153.5q0 -104 -20 -204t-54.5 -190t-81.5 -170t-102 -144h-77z" />
    <glyph glyph-name="asterisk" unicode="*" horiz-adv-x="413" 
d="M304 581l131 42l19 -52l-131 -42l84 -118l-45 -34l-86 121l-85 -121l-45 34l84 118l-131 42l19 52l131 -42v133h55v-133z" />
    <glyph glyph-name="plus" unicode="+" horiz-adv-x="539" 
d="M331 542v-196h195v-62h-195v-210h-65v210h-196v62h196v196h65z" />
    <glyph glyph-name="comma" unicode="," horiz-adv-x="279" 
d="M97 97h93l-132 -238h-54z" />
    <glyph glyph-name="hyphen" unicode="-" horiz-adv-x="400" 
d="M101 335h251l-15 -69h-251z" />
    <glyph glyph-name="period" unicode="." horiz-adv-x="279" 
d="M76 101h101l-21 -101h-101z" />
    <glyph glyph-name="slash" unicode="/" horiz-adv-x="493" 
d="M486 714h84l-492 -714h-84z" />
    <glyph glyph-name="zero" unicode="0" horiz-adv-x="613" 
d="M402 726q95 0 148.5 -61.5t53.5 -170.5q0 -47 -8 -103t-24.5 -112t-42.5 -108.5t-62 -93t-84 -65t-108 -24.5q-54 0 -93 16.5t-63.5 47t-36 73t-11.5 94.5q0 45 7 100.5t23 112t41.5 109.5t62.5 94t86 66t111 25zM397 655q-44 0 -79 -21.5t-62 -57t-46 -81t-31 -93
t-17.5 -94t-5.5 -83.5t7 -67.5t21.5 -52.5t38 -34t57.5 -12q43 0 77.5 21.5t61 57.5t45.5 81.5t31 93t18 93.5t6 82q0 79 -30.5 123t-91.5 44z" />
    <glyph glyph-name="one" unicode="1" horiz-adv-x="398" 
d="M241 0h-86l133 629l-173 -102l-31 65l211 122h97z" />
    <glyph glyph-name="two" unicode="2" horiz-adv-x="531" 
d="M449 0h-448l16 79q89 65 155.5 117t114.5 94.5t79.5 76.5t50.5 65t26 57.5t7 53.5q0 54 -34.5 83t-92.5 29q-35 0 -75.5 -9.5t-85.5 -32.5l-20 64q42 23 90.5 36t94.5 13q52 0 91.5 -13t65.5 -36.5t39 -56t13 -72.5q0 -59 -27.5 -113t-81.5 -110t-131 -117t-176 -134v-3
h344z" />
    <glyph glyph-name="three" unicode="3" horiz-adv-x="533" 
d="M162 403h58q43 0 81 7.5t69.5 25t50 47.5t18.5 73q0 47 -32.5 73t-89.5 26q-33 0 -71 -7t-81 -26l-14 67q44 20 88 28.5t87 8.5q42 0 77 -10t62 -30.5t42 -51.5t15 -72q0 -79 -47 -128t-129 -66v-2q62 -13 94.5 -54.5t32.5 -98.5t-21 -100t-57 -70.5t-83.5 -41
t-100.5 -13.5q-56 0 -106 10t-90 29l28 70q34 -18 77 -28t84 -10q37 0 69.5 8.5t58 26t41 46.5t15.5 69q0 33 -15 57.5t-42 39t-59 20.5t-67 6h-58z" />
    <glyph glyph-name="four" unicode="4" horiz-adv-x="583" 
d="M457 244h98l-15 -73h-98l-36 -171h-84l36 171h-342l19 89l390 454h132zM458 643h-2l-342 -399h259z" />
    <glyph glyph-name="five" unicode="5" horiz-adv-x="548" 
d="M213 59q40 0 76.5 10t64 31.5t43.5 54.5t16 78q0 37 -13 63t-35.5 43t-53.5 25t-66 8q-29 0 -60.5 -3t-76.5 -11l91 356h353l-15 -71h-277l-55 -206q25 3 40 4t28 1q45 0 86 -12t72 -36.5t49 -62t18 -89.5q0 -62 -21 -109.5t-59 -79.5t-90.5 -48.5t-114.5 -16.5
q-52 0 -101 9t-91 29l24 71q77 -38 168 -38z" />
    <glyph glyph-name="six" unicode="6" horiz-adv-x="581" 
d="M341 399q-38 0 -72 -14.5t-59 -39.5t-39.5 -59t-14.5 -74q0 -27 5.5 -54t20 -49.5t39.5 -36t61 -13.5q45 0 79.5 18t56 47.5t32.5 67t11 78.5q0 25 -7 48.5t-21.5 41.5t-37 28.5t-54.5 10.5zM180 383q32 41 78 63t95 22t85.5 -15.5t59.5 -42t34 -60t11 -71.5
q0 -56 -17 -108t-50 -93t-82.5 -65.5t-115.5 -24.5q-57 0 -97.5 19t-64 52.5t-33 74t-9.5 82.5q0 55 10.5 114.5t31 115.5t51.5 107t72.5 89.5t94.5 61t114 22.5q71 0 122 -22l-24 -67q-42 18 -99 18q-52 0 -96 -23.5t-78 -62t-58.5 -87t-36.5 -99.5h2z" />
    <glyph glyph-name="seven" unicode="7" horiz-adv-x="495" 
d="M147 714h432l-15 -72q-71 -80 -130.5 -163.5t-106.5 -166.5t-81.5 -162.5t-55.5 -149.5h-86q22 72 59 155t84.5 167t104.5 166.5t120 154.5h-340z" />
    <glyph glyph-name="eight" unicode="8" horiz-adv-x="582" 
d="M311 334q-32 0 -64.5 -9t-58.5 -27.5t-42.5 -46.5t-16.5 -65q0 -32 12.5 -56t32.5 -40t46.5 -23.5t53.5 -7.5q36 0 69.5 9.5t59 28t41 46t15.5 63.5q0 32 -14 56t-35.5 40t-47.5 24t-51 8zM377 726q39 0 77 -9.5t67 -30.5t47 -54.5t18 -81.5q0 -41 -12.5 -72t-33.5 -53.5
t-49 -36.5t-59 -21v-2q21 -8 41 -21t35.5 -32.5t25.5 -45.5t10 -59q0 -57 -23.5 -98t-61.5 -68t-87 -40t-101 -13q-45 0 -86.5 11t-72.5 34.5t-49.5 58.5t-18.5 83q0 45 17 79.5t43 60t58.5 41t63.5 22.5v2q-43 17 -69 53t-26 84q0 49 21 88t55.5 66t79 41t90.5 14zM342 404
q23 0 51 8t52 24.5t40 42.5t16 63q0 52 -36 82.5t-93 30.5q-33 0 -61.5 -9.5t-49.5 -27t-33 -43t-12 -56.5q0 -29 10.5 -50.5t28 -36t40 -21.5t47.5 -7z" />
    <glyph glyph-name="nine" unicode="9" horiz-adv-x="581" 
d="M300 315q38 0 72 14.5t59 39.5t39.5 59t14.5 74q0 27 -5.5 54.5t-20 49.5t-39 35.5t-61.5 13.5q-45 0 -79 -18t-56 -47t-33 -67.5t-11 -78.5q0 -25 7 -48.5t21.5 -41.5t37 -28.5t54.5 -10.5zM461 331q-31 -41 -77.5 -63t-95.5 -22t-85.5 15.5t-59 41.5t-34 60t-11.5 72
q0 57 17 108.5t50 92.5t83 65.5t115 24.5q58 0 98.5 -19.5t64 -53t32.5 -73.5t9 -82q0 -55 -9.5 -114t-29 -115.5t-49.5 -107.5t-71.5 -89.5t-94.5 -61t-118 -22.5q-73 0 -124 22l24 67q21 -9 47 -13.5t54 -4.5q55 0 99.5 22.5t77.5 61t55.5 87.5t34.5 101h-2z" />
    <glyph glyph-name="colon" unicode=":" horiz-adv-x="335" 
d="M98 101h101l-21 -101h-101zM189 528h101l-22 -100h-101z" />
    <glyph glyph-name="semicolon" unicode=";" horiz-adv-x="335" 
d="M189 528h101l-22 -100h-101zM104 97h93l-132 -238h-54z" />
    <glyph glyph-name="less" unicode="&#x3c;" horiz-adv-x="539" 
d="M70 264v89l456 165v-66l-395 -141v-2l395 -143v-66z" />
    <glyph glyph-name="equal" unicode="=" horiz-adv-x="539" 
d="M70 377v62h456v-62h-456zM70 191v62h456v-62h-456z" />
    <glyph glyph-name="greater" unicode="&#x3e;" horiz-adv-x="539" 
d="M70 100v66l394 143v2l-394 141v66l456 -165v-89z" />
    <glyph glyph-name="question" unicode="?" horiz-adv-x="464" 
d="M237 179h-73l7 34q7 33 17 58.5t25.5 47.5t36 41t47.5 38l38 26q22 15 39.5 29.5t29.5 31t18 35t6 43.5q0 23 -8.5 40.5t-24 29t-36.5 17t-43 5.5q-33 0 -70.5 -8.5t-75.5 -26.5l-12 66q39 20 83.5 30t88.5 10q35 0 67.5 -9t58.5 -28t41.5 -49.5t15.5 -72.5
q0 -41 -12.5 -71.5t-33.5 -54t-47.5 -43t-55.5 -38.5q-26 -17 -47 -34t-34.5 -33.5t-23.5 -37.5t-17 -53zM136 97h99l-20 -97h-99z" />
    <glyph glyph-name="at" unicode="@" horiz-adv-x="945" 
d="M531 448q-37 0 -70.5 -26t-57.5 -66.5t-37 -84.5t-13 -78q0 -16 2.5 -32.5t10 -30t20.5 -21.5t34 -8q33 0 59.5 15.5t47.5 40t36.5 54.5t26 59.5t15.5 55t5 40.5q0 40 -20 61t-59 21zM707 -131q-53 -23 -118.5 -38.5t-144.5 -15.5q-95 0 -168 30t-120.5 80.5t-71.5 116.5
t-24 139q0 114 37 213.5t104 173t163.5 116t213.5 42.5q79 0 144 -23.5t111 -66t71.5 -103t25.5 -134.5q0 -58 -16 -121.5t-50 -119t-88 -90t-123 -34.5q-45 0 -71.5 20t-26.5 54v8.5t1 8.5h-2q-8 -14 -22.5 -30t-34 -29.5t-44.5 -22.5t-53 -9q-33 0 -57 11.5t-39.5 31.5
t-23 47t-7.5 58q0 54 19 113.5t55 110.5t86 80t105 29q45 0 78 -22t41 -55h2l24 59h70l-94 -230q-17 -40 -27 -71t-10 -51q-1 -44 48 -44q38 0 71 24t57 65t38 95t14 113t-19 107t-55 82t-88 52.5t-117 18.5q-100 0 -180.5 -38.5t-136 -104.5t-84.5 -151.5t-29 -178.5
q0 -64 19.5 -118t58.5 -95.5t97.5 -64.5t134.5 -23q72 0 134.5 13t117.5 38z" />
    <glyph glyph-name="A" unicode="A" horiz-adv-x="645" 
d="M58 0h-94l425 714h115l89 -714h-91l-24 214h-294zM222 287h250l-39 361z" />
    <glyph glyph-name="B" unicode="B" horiz-adv-x="606" 
d="M199 714h219q42 0 77.5 -9.5t61 -29t40 -49t14.5 -70.5t-11.5 -72.5t-33.5 -54.5t-50.5 -37.5t-65.5 -23.5v-2q54 -12 86.5 -51.5t32.5 -93.5q0 -45 -17.5 -85t-52 -70.5t-84.5 -48t-116 -17.5h-251zM217 403h130q38 0 70.5 8.5t56.5 26t37.5 45t13.5 64.5
q0 26 -11.5 45.5t-31 30.5t-43.5 15.5t-49 4.5h-122zM147 71h153q38 0 70.5 8t57.5 25t40.5 45.5t15.5 69.5q0 54 -41.5 83.5t-110.5 29.5h-130z" />
    <glyph glyph-name="C" unicode="C" horiz-adv-x="570" 
d="M500 6q-32 -9 -68 -13.5t-70 -4.5q-74 0 -127.5 22t-87 61t-49 91t-15.5 112q0 85 27.5 166.5t81 146.5t129 102t164.5 37q33 0 71.5 -6t67.5 -16l-24 -69q-27 10 -57.5 15t-63.5 5q-69 0 -127.5 -32t-99.5 -86.5t-62.5 -121.5t-21.5 -137q0 -47 11.5 -87t36.5 -69.5
t65 -46t97 -16.5q29 0 60.5 4.5t61.5 13.5v-71z" />
    <glyph glyph-name="D" unicode="D" horiz-adv-x="690" 
d="M199 714h180q77 0 132 -19.5t90 -55.5t51.5 -86.5t16.5 -111.5q0 -87 -26 -166.5t-80 -141.5t-137 -97.5t-190 -35.5h-188zM147 71h88q87 0 153 29t109 78t65 114.5t22 139.5q0 48 -12 87t-39 66.5t-71 42.5t-108 15h-86z" />
    <glyph glyph-name="E" unicode="E" horiz-adv-x="525" 
d="M199 714h357l-15 -71h-273l-51 -240h259l-15 -71h-259l-55 -261h298l-15 -71h-382z" />
    <glyph glyph-name="F" unicode="F" horiz-adv-x="488" 
d="M199 714h360l-15 -71h-276l-51 -240h259l-15 -71h-259l-70 -332h-84z" />
    <glyph glyph-name="G" unicode="G" horiz-adv-x="690" 
d="M629 624q-64 31 -153 31q-73 0 -130.5 -29.5t-96.5 -79t-60 -115t-21 -137.5q0 -49 14.5 -91.5t42.5 -74t72 -50.5t102 -19q31 0 56 3.5t49 13.5l52 238h-152l15 71h235l-78 -361q-42 -19 -87 -27.5t-93 -8.5q-82 0 -142 24t-97.5 65.5t-55.5 96.5t-18 118
q0 84 26.5 162.5t78.5 140t127.5 96.5t167.5 35q106 0 175 -30z" />
    <glyph glyph-name="H" unicode="H" horiz-adv-x="684" 
d="M199 714h84l-66 -311h337l66 311h84l-151 -714h-84l70 332h-337l-70 -332h-84z" />
    <glyph glyph-name="I" unicode="I" horiz-adv-x="263" 
d="M199 714h84l-151 -714h-84z" />
    <glyph glyph-name="J" unicode="J" horiz-adv-x="329" 
d="M235 153q-8 -39 -21.5 -69.5t-35.5 -52t-53 -32.5t-75 -11q-13 0 -35 1.5t-40 5.5l12 71q16 -4 32.5 -5.5t28.5 -1.5q45 0 68.5 21.5t34.5 72.5l119 561h84z" />
    <glyph glyph-name="K" unicode="K" horiz-adv-x="580" 
d="M659 714l-360 -347l241 -367h-100l-230 358h-2l-76 -358h-84l151 714h84l-71 -334h2l332 334h113z" />
    <glyph glyph-name="L" unicode="L" horiz-adv-x="484" 
d="M199 714h84l-136 -643h299l-15 -71h-383z" />
    <glyph glyph-name="M" unicode="M" horiz-adv-x="865" 
d="M402 79h2l335 635h146l-151 -714h-82l137 648h-2l-343 -648h-112l-65 648h-2l-137 -648h-80l151 714h143z" />
    <glyph glyph-name="N" unicode="N" horiz-adv-x="687" 
d="M491 92h2l132 622h82l-151 -714h-121l-170 627h-2l-133 -627h-82l151 714h124z" />
    <glyph glyph-name="O" unicode="O" horiz-adv-x="733" 
d="M715 461q0 -53 -10 -108.5t-30 -108t-50.5 -99t-71.5 -81.5t-94 -55.5t-117 -20.5q-63 0 -112.5 19.5t-81.5 55t-48.5 83.5t-16.5 108q0 97 27 183t76.5 150.5t119.5 101.5t152 37q66 0 114.5 -20t80 -55t47 -83.5t15.5 -106.5zM348 59q47 0 86.5 16.5t71.5 46t55 68
t38.5 81.5t23 88.5t7.5 87.5q0 43 -10.5 81t-32 66t-55.5 44.5t-81 16.5q-64 0 -117 -33t-90 -88.5t-56.5 -125.5t-19.5 -142q0 -43 10.5 -80t33 -66.5t57.5 -45t79 -15.5z" />
    <glyph glyph-name="P" unicode="P" horiz-adv-x="601" 
d="M199 714h204q46 0 85 -10.5t67.5 -31.5t44.5 -54.5t16 -77.5q0 -56 -20.5 -100.5t-57.5 -75.5t-89 -47.5t-114 -16.5h-140l-63 -300h-84zM211 371h132q34 0 66.5 8t60.5 27t44 50.5t16 73.5q0 33 -11.5 55t-32.5 35t-47 18t-56 5h-115z" />
    <glyph glyph-name="Q" unicode="Q" horiz-adv-x="733" 
d="M715 461q0 -56 -11.5 -116t-34.5 -115t-58 -103t-82 -81l108 -163h-104l-78 124q-26 -9 -54 -14t-59 -5q-63 0 -112.5 19.5t-81.5 55t-48.5 84t-16.5 107.5q0 97 27 182.5t76.5 150.5t119.5 102t152 37q65 0 113.5 -19.5t80.5 -55t47.5 -84t15.5 -106.5zM348 59
q46 0 85.5 16t72 46t55.5 68.5t38.5 81.5t23 88.5t7.5 87.5q0 45 -10.5 82t-31.5 65t-55.5 44.5t-81.5 16.5q-63 0 -117 -33t-90.5 -89t-56 -125.5t-19.5 -141.5q0 -43 10.5 -81t33 -66t56 -44t80.5 -16z" />
    <glyph glyph-name="R" unicode="R" horiz-adv-x="623" 
d="M199 714h209q43 0 81.5 -9t67.5 -29.5t45.5 -53t16.5 -78.5q0 -75 -41.5 -124t-122.5 -67l-1 -2q21 -7 34.5 -23.5t21.5 -51.5q14 -65 27.5 -136t27.5 -140h-86q-11 60 -23 125.5t-25 127.5q-7 34 -26.5 51.5t-77.5 17.5h-127l-68 -322h-84zM215 393h128q94 0 142.5 38
t48.5 108q0 52 -34.5 78t-107.5 26h-124z" />
    <glyph glyph-name="S" unicode="S" horiz-adv-x="524" 
d="M514 625q-69 30 -143 30q-26 0 -51.5 -5.5t-47 -17.5t-36.5 -34.5t-15 -55.5q0 -20 6 -38t19 -35t34 -35t51 -39q35 -25 61.5 -48t44.5 -48t26.5 -51.5t8.5 -59.5q0 -53 -21 -91.5t-57 -62.5t-80.5 -35t-91.5 -11q-44 0 -95.5 9.5t-98.5 30.5l23 72q44 -21 89.5 -31
t83.5 -10q34 0 63.5 7t52 22t35 38t12.5 54q0 44 -28.5 80t-88.5 75q-68 44 -101 92t-33 108q0 50 20 87t54.5 60t76.5 33.5t84 10.5q46 0 87.5 -7.5t76.5 -22.5z" />
    <glyph glyph-name="T" unicode="T" horiz-adv-x="506" 
d="M300 643h-205l15 71h489l-15 -71h-200l-136 -643h-84z" />
    <glyph glyph-name="U" unicode="U" horiz-adv-x="662" 
d="M591 211q-11 -50 -31.5 -90.5t-55 -70t-84.5 -46t-119 -16.5q-106 0 -166 42.5t-61 128.5q0 14 2.5 33t5.5 32l104 490h84l-102 -481q-3 -13 -5.5 -32t-2.5 -32q1 -56 39 -83t110 -27q51 0 85.5 12t57.5 33t36 50.5t21 65.5l105 494h84z" />
    <glyph glyph-name="V" unicode="V" horiz-adv-x="587" 
d="M109 714h91l49 -635h2l352 635h95l-407 -714h-112z" />
    <glyph glyph-name="W" unicode="W" horiz-adv-x="941" 
d="M572 648h-2l-286 -648h-124l-7 714h88l-4 -635h2l278 635h134l-17 -635h2l293 635h92l-340 -714h-124z" />
    <glyph glyph-name="X" unicode="X" horiz-adv-x="598" 
d="M390 367l160 -367h-96l-127 306l-259 -306h-105l324 377l-147 337h94l116 -281l233 281h104z" />
    <glyph glyph-name="Y" unicode="Y" horiz-adv-x="543" 
d="M244 291l-144 423h91l109 -346l258 346h98l-328 -423l-61 -291h-84z" />
    <glyph glyph-name="Z" unicode="Z" horiz-adv-x="582" 
d="M507 643h-337l15 71h443l-15 -71l-486 -572h388l-15 -71h-493l15 73z" />
    <glyph glyph-name="bracketleft" unicode="[" horiz-adv-x="310" 
d="M346 742h-95l-187 -882h95l-12 -55h-165l211 992h165z" />
    <glyph glyph-name="backslash" unicode="\" horiz-adv-x="493" 
d="M436 0h-74l-233 714h74z" />
    <glyph glyph-name="bracketright" unicode="]" horiz-adv-x="310" 
d="M11 -140h95l187 882h-95l12 55h165l-211 -992h-165z" />
    <glyph glyph-name="asciicircum" unicode="^" horiz-adv-x="539" 
d="M415 299l-114 310h-1l-113 -310h-85l161 397h77l162 -397h-87z" />
    <glyph glyph-name="underscore" unicode="_" horiz-adv-x="465" 
d="M405 -93l-10 -47h-464l10 47h464z" />
    <glyph glyph-name="grave" unicode="`" horiz-adv-x="465" 
d="M196 768h86l76 -164h-56z" />
    <glyph glyph-name="a" unicode="a" horiz-adv-x="544" 
d="M406 329q5 21 6.5 31.5t1.5 20.5q0 46 -28.5 70t-83.5 24q-28 0 -63.5 -5t-71.5 -16l-4 65q34 10 71.5 15.5t73.5 5.5q91 0 139 -39.5t48 -111.5q0 -17 -2 -32t-6 -32l-43 -205q-6 -29 -10.5 -62t-4.5 -58h-69q-1 7 -1 10.5v7.5q0 14 1.5 29t3.5 32h-2q-21 -39 -66 -65
t-105 -26q-30 0 -56.5 9.5t-46 27.5t-31 45t-11.5 61q0 57 27.5 95.5t76 61t114 32t142.5 9.5zM366 268q-48 0 -91.5 -6.5t-76.5 -21.5t-52.5 -41t-19.5 -63t23 -60t61 -23q39 0 68.5 14t50.5 37.5t34.5 54.5t20.5 64l9 45h-27z" />
    <glyph glyph-name="b" unicode="b" horiz-adv-x="592" 
d="M117 0h-74l157 735h82l-63 -283h2q24 38 65.5 63t91.5 25q52 0 88 -19t57 -49.5t29.5 -69t8.5 -77.5q0 -68 -19.5 -129.5t-54.5 -107.5t-85.5 -73t-111.5 -27q-58 0 -97 22t-58 62h-2zM291 53q46 0 82 26t59.5 68t34.5 89t11 88q0 30 -6 57.5t-19.5 48.5t-35.5 33t-54 12
q-45 0 -81.5 -25t-61 -65t-38 -90t-13.5 -101q0 -65 31.5 -103t90.5 -38z" />
    <glyph glyph-name="c" unicode="c" horiz-adv-x="440" 
d="M379 2q-50 -14 -99 -14q-55 0 -96.5 17t-68 46t-40 68t-13.5 84q0 64 19.5 124t58 108.5t94 76.5t122.5 28q24 0 51.5 -3.5t50.5 -11.5l-22 -65q-20 8 -42 11.5t-41 3.5q-46 0 -85.5 -22t-67 -60.5t-41.5 -85.5t-14 -95q0 -33 7.5 -61t24.5 -50.5t44.5 -35t66.5 -12.5
q22 0 44.5 3t46.5 10v-64z" />
    <glyph glyph-name="d" unicode="d" horiz-adv-x="592" 
d="M540 735h81l-156 -735h-74l15 69h-2q-26 -37 -64.5 -59t-89.5 -22t-87.5 17.5t-59 47.5t-33 69t-10.5 81q0 68 20.5 129.5t56.5 107.5t86 73t108 27q52 0 89.5 -21t57.5 -63h2zM330 475q-46 0 -83 -27t-59.5 -68.5t-33.5 -88t-11 -87.5q0 -30 6.5 -58t20 -48.5
t35.5 -32.5t53 -12q44 0 80.5 24.5t61.5 64.5t38.5 90.5t13.5 101.5q0 64 -32.5 102.5t-89.5 38.5z" />
    <glyph glyph-name="e" unicode="e" horiz-adv-x="539" 
d="M413 7q-52 -19 -125 -19q-58 0 -101 16t-70.5 44t-41 66.5t-13.5 84.5q0 69 20 132t57 109.5t88 73t112 26.5q86 0 131.5 -46.5t45.5 -132.5q0 -20 -4 -51.5t-13 -68.5h-353q-1 -7 -1.5 -16.5t-0.5 -20.5q0 -72 40.5 -111.5t116.5 -39.5q30 0 56.5 4t55.5 13v-63z
M332 475q-35 0 -64.5 -13.5t-51.5 -37t-37 -53.5t-23 -63h280q6 25 6 48q0 57 -27.5 88t-82.5 31z" />
    <glyph glyph-name="f" unicode="f" horiz-adv-x="325" 
d="M433 665q-29 8 -61 8q-26 0 -43 -7.5t-28.5 -22t-18.5 -35.5t-13 -50l-6 -30h124l-15 -65h-123l-97 -463h-80l97 463h-108l15 65h107l9 41q7 34 19 65.5t33 54.5t52.5 34.5t74.5 11.5q22 0 42 -3t34 -7z" />
    <glyph glyph-name="g" unicode="g" horiz-adv-x="592" 
d="M466 12q-12 -57 -36 -97t-58 -64.5t-76.5 -35t-91.5 -10.5q-37 0 -78 7t-74 19l19 64q31 -11 67 -18t69 -7q80 0 122 34.5t60 111.5l17 70h-2q-26 -36 -66.5 -57t-90.5 -21t-86.5 17t-58.5 47.5t-32 69.5t-10 81q0 64 20.5 122t56.5 101t86 68.5t108 25.5
q52 0 89.5 -21.5t56.5 -62.5h2l16 72h80zM330 475q-46 0 -81.5 -23.5t-59 -61.5t-35 -82t-11.5 -84q0 -30 5.5 -57t18.5 -48t34.5 -33.5t52.5 -12.5q46 0 82.5 22t61.5 58t38 83t13 98q0 68 -31 104.5t-88 36.5z" />
    <glyph glyph-name="h" unicode="h" horiz-adv-x="588" 
d="M281 735l-65 -303h2q29 50 73.5 79t97.5 29q40 0 68.5 -11.5t47 -31t27.5 -46.5t9 -57q0 -14 -3 -35.5t-6 -35.5l-67 -323h-82l67 316q4 18 7 36.5t3 32.5q0 16 -4 31.5t-14 28.5t-28.5 21.5t-44.5 8.5q-31 0 -60 -13.5t-54 -38.5t-43.5 -61.5t-28.5 -82.5l-58 -279h-82
l156 735h82z" />
    <glyph glyph-name="i" unicode="i" horiz-adv-x="251" 
d="M237 528l-112 -528h-82l112 528h82zM279 727l-19 -88h-88l19 88h88z" />
    <glyph glyph-name="j" unicode="j" horiz-adv-x="251" 
d="M120 -37q-8 -37 -19.5 -65t-31 -49t-48.5 -32.5t-72 -11.5q-13 0 -28 1t-28 3l10 65q12 -2 23 -3t23 -1q21 0 36 7.5t25 20.5t16.5 31t11.5 41l119 558h82zM281 727l-19 -88h-88l19 88h88z" />
    <glyph glyph-name="k" unicode="k" horiz-adv-x="481" 
d="M537 528l-266 -242l186 -286h-96l-175 280h-2l-59 -280h-82l156 735h82l-93 -435h2l242 228h105z" />
    <glyph glyph-name="l" unicode="l" horiz-adv-x="251" 
d="M281 735l-156 -735h-82l156 735h82z" />
    <glyph glyph-name="m" unicode="m" horiz-adv-x="908" 
d="M711 540q71 0 110 -38.5t39 -108.5q0 -30 -9 -75l-66 -318h-82l67 316q4 20 6.5 38t2.5 32q0 16 -4 31.5t-14.5 29t-27 21t-39.5 7.5q-25 0 -51 -8.5t-50.5 -27t-42.5 -46.5t-27 -68l-69 -325h-80l69 325q4 17 6 31t2 28q0 45 -19.5 68t-63.5 23q-30 0 -58.5 -14
t-53.5 -39t-43.5 -60t-27.5 -77l-60 -285h-82l112 528h79l-22 -98h2q28 50 74.5 80t100.5 30q58 0 93.5 -28.5t39.5 -75.5h3q35 54 83.5 79t102.5 25z" />
    <glyph glyph-name="n" unicode="n" horiz-adv-x="588" 
d="M234 528l-22 -98h2q28 50 74.5 80t102.5 30q70 0 109.5 -38t39.5 -109q0 -30 -9 -75l-66 -318h-82l67 316q4 18 6.5 37t2.5 33q0 16 -4 31.5t-13.5 28.5t-26 21t-40.5 8q-34 0 -65 -14.5t-56.5 -41t-43.5 -62.5t-27 -78l-58 -279h-82l112 528h79z" />
    <glyph glyph-name="o" unicode="o" horiz-adv-x="580" 
d="M543 335q0 -54 -16.5 -114.5t-50.5 -113.5t-89 -86t-123 -33q-53 0 -91 15.5t-63.5 43.5t-37.5 66t-12 84q0 70 20.5 132.5t57.5 109.5t89 74t112 27q52 0 91 -15t64 -42t37 -64.5t12 -83.5zM267 53q48 0 86.5 28t61.5 72t34 92t11 87q0 31 -6.5 57t-21 45t-38.5 30
t-58 11q-45 0 -81.5 -23.5t-61.5 -62.5t-37.5 -88t-12.5 -99q0 -31 7 -58.5t21.5 -47.5t38 -31.5t57.5 -11.5z" />
    <glyph glyph-name="p" unicode="p" horiz-adv-x="592" 
d="M81 -195h-81l154 723h82l-17 -76h2q25 39 67 63.5t88 24.5q53 0 88.5 -18.5t56.5 -48.5t30 -69t9 -79q0 -68 -19.5 -129.5t-55 -107.5t-85.5 -73t-111 -27q-59 0 -96 21.5t-54 60.5h-2zM290 53q45 0 81.5 26t60 67.5t34.5 89t11 88.5q0 30 -6.5 57.5t-20 48.5t-35.5 33
t-53 12q-44 0 -80.5 -24.5t-61.5 -65t-38.5 -90.5t-13.5 -101q0 -65 31.5 -103t90.5 -38z" />
    <glyph glyph-name="q" unicode="q" horiz-adv-x="592" 
d="M501 528h77l-155 -723h-78l58 257h-2q-26 -36 -63 -55t-87 -19q-52 0 -88 17.5t-59 47.5t-33.5 69t-10.5 81q0 68 20.5 129.5t56.5 107.5t85.5 73t108.5 27q112 0 152 -84h2zM330 475q-46 0 -81.5 -26t-59.5 -67.5t-35 -89t-11 -88.5q0 -30 6.5 -57.5t20 -48.5t35.5 -33
t53 -12q45 0 81 24.5t61 64.5t38.5 90.5t13.5 101.5q0 64 -31 102.5t-91 38.5z" />
    <glyph glyph-name="r" unicode="r" horiz-adv-x="352" 
d="M396 471q-8 2 -17 3t-19 1q-62 0 -108.5 -47t-65.5 -136l-61 -292h-82l112 528h79l-19 -82h2q23 42 62.5 68t95.5 26q10 0 20 -0.5t17 -2.5z" />
    <glyph glyph-name="s" unicode="s" horiz-adv-x="410" 
d="M387 450q-59 25 -115 25q-14 0 -34 -3t-37 -12t-27.5 -24t-10.5 -39q0 -28 20 -50.5t60 -48.5q55 -36 84 -74t29 -87q0 -42 -16 -70.5t-42.5 -46t-61.5 -25t-72 -7.5q-17 0 -38 2t-43.5 6t-43.5 10t-40 14l23 65q39 -17 75.5 -24.5t65.5 -7.5q55 0 84.5 20t29.5 58
q0 32 -21.5 57.5t-62.5 52.5q-54 36 -81 70t-27 81q0 39 16.5 67.5t44 46.5t60.5 26t66 8q36 0 71 -6.5t65 -18.5z" />
    <glyph glyph-name="t" unicode="t" horiz-adv-x="344" 
d="M78 528h100l28 133h80l-28 -133h119l-15 -65h-119l-66 -317q-7 -31 -7 -46q0 -23 14.5 -32t46.5 -9q17 0 36.5 1t28.5 2l-11 -62q-12 -2 -37 -4t-51 -2q-55 0 -81.5 22t-26.5 69q0 12 2.5 31t6.5 38l65 309h-100z" />
    <glyph glyph-name="u" unicode="u" horiz-adv-x="588" 
d="M377 0l22 98h-2q-27 -49 -74.5 -79.5t-104.5 -30.5q-38 0 -66 11t-46 30.5t-26.5 46.5t-8.5 59q0 30 9 75l66 318h82l-67 -316q-4 -20 -6.5 -38t-2.5 -32q0 -16 3.5 -31.5t12.5 -28.5t25 -21t40 -8q34 0 65.5 14.5t57.5 41t44.5 62t27.5 78.5l58 279h82l-112 -528h-79z
" />
    <glyph glyph-name="v" unicode="v" horiz-adv-x="494" 
d="M192 72h2l278 456h90l-335 -528h-106l-31 528h83z" />
    <glyph glyph-name="w" unicode="w" horiz-adv-x="795" 
d="M513 72h2l242 456h90l-295 -528h-111l14 458h-2l-239 -458h-111l-5 528h83l-7 -456h2l238 456h118z" />
    <glyph glyph-name="x" unicode="x" horiz-adv-x="490" 
d="M315 269l121 -269h-90l-93 218l-191 -218h-99l248 277l-113 251h89l87 -204l176 204h99z" />
    <glyph glyph-name="y" unicode="y" horiz-adv-x="494" 
d="M206 95h2l265 433h90l-464 -723h-89l127 197l-46 526h83z" />
    <glyph glyph-name="z" unicode="z" horiz-adv-x="486" 
d="M379 463h-261l15 65h360l-15 -65l-349 -398h290l-14 -65h-392l13 65z" />
    <glyph glyph-name="braceleft" unicode="{" horiz-adv-x="310" 
d="M38 332q23 2 41.5 9.5t30 22t19.5 37t15 56.5l45 206q15 68 48.5 101t88.5 33h59l-12 -55h-29q-23 0 -38 -5.5t-25 -17.5t-16.5 -31t-12.5 -48l-39 -186q-8 -38 -18 -63.5t-24 -42.5t-34 -27.5t-49 -17.5l-1 -2q37 -13 51.5 -36t14.5 -63q0 -29 -9 -68l-36 -171
q-6 -27 -6 -45q0 -30 17 -44t48 -14h19l-12 -55h-29q-53 0 -83 26.5t-30 74.5q0 11 2.5 30.5t5.5 31.5l37 166q5 23 8 41.5t3 33.5q0 29 -14.5 45t-47.5 21z" />
    <glyph glyph-name="bar" unicode="|" horiz-adv-x="465" 
d="M302 735v-930h-65v930h65z" />
    <glyph glyph-name="braceright" unicode="}" horiz-adv-x="310" 
d="M320 270q-23 -2 -41.5 -9.5t-30 -22t-19.5 -37t-15 -56.5l-45 -206q-15 -68 -48.5 -101t-88.5 -33h-59l12 55h29q23 0 38 5.5t25 17.5t16.5 31t12.5 48l39 186q8 38 18 63.5t24 42.5t34 27.5t49 17.5l1 2q-37 13 -51.5 36t-14.5 63q0 29 9 68l36 171q6 27 6 45
q0 30 -17 44t-48 14h-19l12 55h29q53 0 83 -26.5t30 -74.5q0 -11 -2.5 -30.5t-5.5 -31.5l-37 -166q-5 -23 -8 -41.5t-3 -33.5q0 -29 14.5 -45t47.5 -21z" />
    <glyph glyph-name="asciitilde" unicode="~" horiz-adv-x="539" 
d="M414 315q38 2 65.5 15t46.5 34v-69q-49 -43 -125 -43q-32 0 -59.5 9t-52.5 22t-50 22t-52 9q-37 0 -67 -13.5t-50 -35.5v69q22 21 54.5 32t70.5 11q31 0 59 -9t55 -22.5t51.5 -22t53.5 -8.5z" />
    <glyph glyph-name="uni00A0" unicode="&#xa0;" horiz-adv-x="260" 
 />
    <glyph glyph-name="Agrave" unicode="&#xc0;" horiz-adv-x="645" 
d="M58 0h-94l425 714h115l89 -714h-91l-24 214h-294zM222 287h250l-39 361zM414 897l88 -134h-59l-120 134h91z" />
    <glyph glyph-name="Aacute" unicode="&#xc1;" horiz-adv-x="645" 
d="M58 0h-94l425 714h115l89 -714h-91l-24 214h-294zM222 287h250l-39 361zM472 763h-63l106 134h96z" />
    <glyph glyph-name="Acircumflex" unicode="&#xc2;" horiz-adv-x="645" 
d="M58 0h-94l425 714h115l89 -714h-91l-24 214h-294zM222 287h250l-39 361zM545 756l-71 98l-112 -98h-73l149 146h83l88 -146h-64z" />
    <glyph glyph-name="Atilde" unicode="&#xc3;" horiz-adv-x="645" 
d="M58 0h-94l425 714h115l89 -714h-91l-24 214h-294zM222 287h250l-39 361zM483 853q18 -17 29.5 -23.5t24.5 -6.5q20 0 33.5 18.5t18.5 49.5h59q-12 -60 -41 -93t-72 -33q-23 0 -40.5 9t-40.5 30q-20 18 -32 24t-23 6q-20 0 -33.5 -18t-19.5 -51h-59q10 57 39.5 91.5
t73.5 34.5q23 0 41.5 -9t41.5 -29z" />
    <glyph glyph-name="Adieresis" unicode="&#xc4;" horiz-adv-x="645" 
d="M58 0h-94l425 714h115l89 -714h-91l-24 214h-294zM222 287h250l-39 361zM415 790h-82l20 94h82zM592 790h-81l20 94h81z" />
    <glyph glyph-name="Amacron" unicode="&#x100;" horiz-adv-x="645" 
d="M58 0h-94l425 714h115l89 -714h-91l-24 214h-294zM222 287h250l-39 361zM593 799h-257l13 60h257z" />
    <glyph glyph-name="Abreve" unicode="&#x102;" horiz-adv-x="645" 
d="M58 0h-94l425 714h115l89 -714h-91l-24 214h-294zM222 287h250l-39 361zM634 908q-6 -30 -17 -55t-30.5 -44.5t-49 -30.5t-70.5 -11q-64 0 -97 28.5t-33 78.5q0 16 3 34h58q-3 -15 -3 -28q0 -28 18 -43t57 -15q46 0 71 20.5t33 65.5h60z" />
    <glyph glyph-name="Aring" unicode="&#xc5;" horiz-adv-x="645" 
d="M58 0h-94l425 714h115l89 -714h-91l-24 214h-294zM222 287h250l-39 361zM473 908q-25 0 -43.5 -18t-18.5 -43q0 -26 18.5 -44.5t44.5 -18.5q25 0 43 18.5t18 44.5t-18.5 43.5t-43.5 17.5zM475 946q20 0 38 -8t31.5 -22t21 -31.5t7.5 -37.5q0 -21 -7.5 -39t-21.5 -32
t-32 -21.5t-38 -7.5q-21 0 -39 7.5t-32 21t-22 32t-8 39.5t8 39t22 31.5t32.5 21t39.5 7.5z" />
    <glyph glyph-name="Aogonek" unicode="&#x104;" horiz-adv-x="645" 
d="M58 0h-94l425 714h115l89 -714h-41q-27 -24 -44 -41t-27.5 -31.5t-15 -27t-4.5 -24.5q0 -17 11 -24.5t30 -7.5q14 0 29.5 3t29.5 9l-2 -46q-35 -15 -76 -15q-38 0 -60 17t-22 49q0 33 23 65.5t78 73.5l-24 214h-294zM222 287h250l-39 361z" />
    <glyph glyph-name="AE" unicode="&#xc6;" horiz-adv-x="870" 
d="M434 194h-236l-140 -194h-94l522 714h415l-15 -71h-273l-51 -240h259l-15 -71h-259l-55 -261h298l-15 -71h-382zM251 267h198l81 381h-2z" />
    <glyph glyph-name="Cacute" unicode="&#x106;" horiz-adv-x="570" 
d="M500 6q-32 -9 -68 -13.5t-70 -4.5q-74 0 -127.5 22t-87 61t-49 91t-15.5 112q0 85 27.5 166.5t81 146.5t129 102t164.5 37q33 0 71.5 -6t67.5 -16l-24 -69q-27 10 -57.5 15t-63.5 5q-69 0 -127.5 -32t-99.5 -86.5t-62.5 -121.5t-21.5 -137q0 -47 11.5 -87t36.5 -69.5
t65 -46t97 -16.5q29 0 60.5 4.5t61.5 13.5v-71zM485 763h-63l106 134h96z" />
    <glyph glyph-name="Ccircumflex" unicode="&#x108;" horiz-adv-x="570" 
d="M500 6q-32 -9 -68 -13.5t-70 -4.5q-74 0 -127.5 22t-87 61t-49 91t-15.5 112q0 85 27.5 166.5t81 146.5t129 102t164.5 37q33 0 71.5 -6t67.5 -16l-24 -69q-27 10 -57.5 15t-63.5 5q-69 0 -127.5 -32t-99.5 -86.5t-62.5 -121.5t-21.5 -137q0 -47 11.5 -87t36.5 -69.5
t65 -46t97 -16.5q29 0 60.5 4.5t61.5 13.5v-71zM572 756l-71 98l-112 -98h-73l149 146h83l88 -146h-64z" />
    <glyph glyph-name="Ccaron" unicode="&#x10c;" horiz-adv-x="570" 
d="M500 6q-32 -9 -68 -13.5t-70 -4.5q-74 0 -127.5 22t-87 61t-49 91t-15.5 112q0 85 27.5 166.5t81 146.5t129 102t164.5 37q33 0 71.5 -6t67.5 -16l-24 -69q-27 10 -57.5 15t-63.5 5q-69 0 -127.5 -32t-99.5 -86.5t-62.5 -121.5t-21.5 -137q0 -47 11.5 -87t36.5 -69.5
t65 -46t97 -16.5q29 0 60.5 4.5t61.5 13.5v-71zM417 901l71 -97l112 97h72l-149 -146h-83l-88 146h65z" />
    <glyph glyph-name="Cdotaccent" unicode="&#x10a;" horiz-adv-x="570" 
d="M500 6q-32 -9 -68 -13.5t-70 -4.5q-74 0 -127.5 22t-87 61t-49 91t-15.5 112q0 85 27.5 166.5t81 146.5t129 102t164.5 37q33 0 71.5 -6t67.5 -16l-24 -69q-27 10 -57.5 15t-63.5 5q-69 0 -127.5 -32t-99.5 -86.5t-62.5 -121.5t-21.5 -137q0 -47 11.5 -87t36.5 -69.5
t65 -46t97 -16.5q29 0 60.5 4.5t61.5 13.5v-71zM537 784h-94l21 98h94z" />
    <glyph glyph-name="Ccedilla" unicode="&#xc7;" horiz-adv-x="570" 
d="M500 6q-32 -9 -68 -13.5t-70 -4.5h-7.5t-19.5 1l-19 -47q11 1 14 1h8q33 0 53 -17t20 -49q0 -28 -11.5 -46t-29.5 -27.5t-39.5 -13.5t-46.5 -4q-12 0 -26 1.5t-28 4.5l7 43q14 -2 24.5 -3t21.5 -1q12 0 24 1.5t22.5 5.5t17 13t6.5 22q0 16 -11.5 23t-42.5 7
q-8 0 -19 -0.5t-22 -1.5l33 93q-55 10 -94.5 35t-65 63t-37 83.5t-11.5 98.5q0 85 27.5 166.5t80 145.5t127.5 102t167 38q33 0 71.5 -6t67.5 -16l-24 -69q-26 10 -57 15t-64 5q-72 0 -130 -33t-98 -86t-61.5 -120.5t-21.5 -137.5q0 -47 11.5 -87t36.5 -69.5t65 -46
t97 -16.5q29 0 60.5 4.5t61.5 13.5v-71z" />
    <glyph glyph-name="Dcaron" unicode="&#x10e;" horiz-adv-x="690" 
d="M199 714h180q77 0 132 -19.5t90 -55.5t51.5 -86.5t16.5 -111.5q0 -87 -26 -166.5t-80 -141.5t-137 -97.5t-190 -35.5h-188zM147 71h88q87 0 153 29t109 78t65 114.5t22 139.5q0 48 -12 87t-39 66.5t-71 42.5t-108 15h-86zM342 901l71 -97l112 97h72l-149 -146h-83
l-88 146h65z" />
    <glyph glyph-name="Dcroat" unicode="&#x110;" horiz-adv-x="690" 
d="M120 342h-72l11 51h72l68 321h180q77 0 132 -19.5t90 -55.5t51.5 -86.5t16.5 -111.5q0 -87 -26 -165.5t-79 -141t-137 -98.5t-191 -36h-188zM215 393h128l-11 -51h-128l-57 -271h88q87 0 153 29t109 78t65 114.5t22 139.5q0 48 -12 87t-39 66.5t-71 42.5t-108 15h-86z
" />
    <glyph glyph-name="Eth" unicode="&#xd0;" horiz-adv-x="690" 
d="M120 342h-72l11 51h72l68 321h180q77 0 132 -19.5t90 -55.5t51.5 -86.5t16.5 -111.5q0 -87 -26 -165.5t-79 -141t-137 -98.5t-191 -36h-188zM215 393h128l-11 -51h-128l-57 -271h88q87 0 153 29t109 78t65 114.5t22 139.5q0 48 -12 87t-39 66.5t-71 42.5t-108 15h-86z
" />
    <glyph glyph-name="Egrave" unicode="&#xc8;" horiz-adv-x="525" 
d="M199 714h357l-15 -71h-273l-51 -240h259l-15 -71h-259l-55 -261h298l-15 -71h-382zM343 897l88 -134h-59l-120 134h91z" />
    <glyph glyph-name="Eacute" unicode="&#xc9;" horiz-adv-x="525" 
d="M199 714h357l-15 -71h-273l-51 -240h259l-15 -71h-259l-55 -261h298l-15 -71h-382zM401 763h-63l106 134h96z" />
    <glyph glyph-name="Ecircumflex" unicode="&#xca;" horiz-adv-x="525" 
d="M199 714h357l-15 -71h-273l-51 -240h259l-15 -71h-259l-55 -261h298l-15 -71h-382zM482 756l-71 98l-112 -98h-73l149 146h83l88 -146h-64z" />
    <glyph glyph-name="Ecaron" unicode="&#x11a;" horiz-adv-x="525" 
d="M199 714h357l-15 -71h-273l-51 -240h259l-15 -71h-259l-55 -261h298l-15 -71h-382zM322 901l71 -97l112 97h72l-149 -146h-83l-88 146h65z" />
    <glyph glyph-name="Edieresis" unicode="&#xcb;" horiz-adv-x="525" 
d="M199 714h357l-15 -71h-273l-51 -240h259l-15 -71h-259l-55 -261h298l-15 -71h-382zM345 790h-82l20 94h82zM522 790h-81l20 94h81z" />
    <glyph glyph-name="Emacron" unicode="&#x112;" horiz-adv-x="525" 
d="M199 714h357l-15 -71h-273l-51 -240h259l-15 -71h-259l-55 -261h298l-15 -71h-382zM523 799h-257l13 60h257z" />
    <glyph glyph-name="Ebreve" unicode="&#x114;" horiz-adv-x="525" 
d="M199 714h357l-15 -71h-273l-51 -240h259l-15 -71h-259l-55 -261h298l-15 -71h-382zM565 908q-6 -30 -17 -55t-30.5 -44.5t-49 -30.5t-70.5 -11q-64 0 -97 28.5t-33 78.5q0 16 3 34h58q-3 -15 -3 -28q0 -28 18 -43t57 -15q46 0 71 20.5t33 65.5h60z" />
    <glyph glyph-name="Edotaccent" unicode="&#x116;" horiz-adv-x="525" 
d="M199 714h357l-15 -71h-273l-51 -240h259l-15 -71h-259l-55 -261h298l-15 -71h-382zM440 784h-94l21 98h94z" />
    <glyph glyph-name="Eogonek" unicode="&#x118;" horiz-adv-x="525" 
d="M199 714h357l-15 -71h-273l-51 -240h259l-15 -71h-259l-55 -261h298l-15 -71h-33q-51 -45 -71.5 -72t-20.5 -52q0 -15 10 -23.5t31 -8.5q14 0 29.5 3t29.5 9l-2 -46q-35 -15 -76 -15q-38 0 -60 17t-22 49q0 33 23 65.5t78 73.5h-298z" />
    <glyph glyph-name="Gcircumflex" unicode="&#x11c;" horiz-adv-x="690" 
d="M629 624q-64 31 -153 31q-73 0 -130.5 -29.5t-96.5 -79t-60 -115t-21 -137.5q0 -49 14.5 -91.5t42.5 -74t72 -50.5t102 -19q31 0 56 3.5t49 13.5l52 238h-152l15 71h235l-78 -361q-42 -19 -87 -27.5t-93 -8.5q-82 0 -142 24t-97.5 65.5t-55.5 96.5t-18 118
q0 84 26.5 162.5t78.5 140t127.5 96.5t167.5 35q106 0 175 -30zM590 756l-71 98l-112 -98h-73l149 146h83l88 -146h-64z" />
    <glyph glyph-name="Gbreve" unicode="&#x11e;" horiz-adv-x="690" 
d="M629 624q-64 31 -153 31q-73 0 -130.5 -29.5t-96.5 -79t-60 -115t-21 -137.5q0 -49 14.5 -91.5t42.5 -74t72 -50.5t102 -19q31 0 56 3.5t49 13.5l52 238h-152l15 71h235l-78 -361q-42 -19 -87 -27.5t-93 -8.5q-82 0 -142 24t-97.5 65.5t-55.5 96.5t-18 118
q0 84 26.5 162.5t78.5 140t127.5 96.5t167.5 35q106 0 175 -30zM676 908q-6 -30 -17 -55t-30.5 -44.5t-49 -30.5t-70.5 -11q-64 0 -97 28.5t-33 78.5q0 16 3 34h58q-3 -15 -3 -28q0 -28 18 -43t57 -15q46 0 71 20.5t33 65.5h60z" />
    <glyph glyph-name="Gdotaccent" unicode="&#x120;" horiz-adv-x="690" 
d="M629 624q-64 31 -153 31q-73 0 -130.5 -29.5t-96.5 -79t-60 -115t-21 -137.5q0 -49 14.5 -91.5t42.5 -74t72 -50.5t102 -19q31 0 56 3.5t49 13.5l52 238h-152l15 71h235l-78 -361q-42 -19 -87 -27.5t-93 -8.5q-82 0 -142 24t-97.5 65.5t-55.5 96.5t-18 118
q0 84 26.5 162.5t78.5 140t127.5 96.5t167.5 35q106 0 175 -30zM547 784h-94l21 98h94z" />
    <glyph glyph-name="Gcommaaccent" unicode="&#x122;" horiz-adv-x="690" 
d="M629 624q-64 31 -153 31q-73 0 -130.5 -29.5t-96.5 -79t-60 -115t-21 -137.5q0 -49 14.5 -91.5t42.5 -74t72 -50.5t102 -19q31 0 56 3.5t49 13.5l52 238h-152l15 71h235l-78 -361q-42 -19 -87 -27.5t-93 -8.5q-82 0 -142 24t-97.5 65.5t-55.5 96.5t-18 118
q0 84 26.5 162.5t78.5 140t127.5 96.5t167.5 35q106 0 175 -30zM271 -214h-59l80 156h92z" />
    <glyph glyph-name="Hcircumflex" unicode="&#x124;" horiz-adv-x="684" 
d="M199 714h84l-66 -311h337l66 311h84l-151 -714h-84l70 332h-337l-70 -332h-84zM556 756l-71 98l-112 -98h-73l149 146h83l88 -146h-64z" />
    <glyph glyph-name="Hbar" unicode="&#x126;" horiz-adv-x="684" 
d="M165 555h-72l13 58h71l22 101h84l-22 -101h337l22 101h84l-22 -101h74l-13 -58h-73l-117 -555h-84l70 332h-337l-70 -332h-84zM554 403l32 152h-337l-32 -152h337z" />
    <glyph glyph-name="Igrave" unicode="&#xcc;" horiz-adv-x="263" 
d="M199 714h84l-151 -714h-84zM204 897l88 -134h-59l-120 134h91z" />
    <glyph glyph-name="Iacute" unicode="&#xcd;" horiz-adv-x="263" 
d="M199 714h84l-151 -714h-84zM275 763h-63l106 134h96z" />
    <glyph glyph-name="Icircumflex" unicode="&#xce;" horiz-adv-x="263" 
d="M199 714h84l-151 -714h-84zM343 756l-71 98l-112 -98h-73l149 146h83l88 -146h-64z" />
    <glyph glyph-name="Itilde" unicode="&#x128;" horiz-adv-x="263" 
d="M199 714h84l-151 -714h-84zM283 853q18 -17 29.5 -23.5t24.5 -6.5q20 0 33.5 18.5t18.5 49.5h59q-12 -60 -41 -93t-72 -33q-23 0 -40.5 9t-40.5 30q-20 18 -32 24t-23 6q-20 0 -33.5 -18t-19.5 -51h-59q10 57 39.5 91.5t73.5 34.5q23 0 41.5 -9t41.5 -29z" />
    <glyph glyph-name="Idieresis" unicode="&#xcf;" horiz-adv-x="263" 
d="M199 714h84l-151 -714h-84zM212 790h-82l20 94h82zM389 790h-81l20 94h81z" />
    <glyph glyph-name="Imacron" unicode="&#x12a;" horiz-adv-x="263" 
d="M199 714h84l-151 -714h-84zM388 799h-257l13 60h257z" />
    <glyph glyph-name="Idotaccent" unicode="&#x130;" horiz-adv-x="263" 
d="M199 714h84l-151 -714h-84zM304 784h-94l21 98h94z" />
    <glyph glyph-name="Ibreve" unicode="&#x12c;" horiz-adv-x="263" 
d="M199 714h84l-151 -714h-84zM427 908q-6 -30 -17 -55t-30.5 -44.5t-49 -30.5t-70.5 -11q-64 0 -97 28.5t-33 78.5q0 16 3 34h58q-3 -15 -3 -28q0 -28 18 -43t57 -15q46 0 71 20.5t33 65.5h60z" />
    <glyph glyph-name="Iogonek" unicode="&#x12e;" horiz-adv-x="263" 
d="M97 0q-28 -24 -45.5 -42.5t-27.5 -32.5t-14 -26t-4 -23q0 -15 10 -23.5t31 -8.5q14 0 29.5 3t29.5 9l-2 -46q-35 -15 -76 -15q-38 0 -60 17t-22 49q0 33 23.5 65.5t78.5 73.5l151 714h84l-151 -714h-35z" />
    <glyph glyph-name="Jcircumflex" unicode="&#x134;" horiz-adv-x="329" 
d="M235 153q-8 -39 -21.5 -69.5t-35.5 -52t-53 -32.5t-75 -11q-13 0 -35 1.5t-40 5.5l12 71q16 -4 32.5 -5.5t28.5 -1.5q45 0 68.5 21.5t34.5 72.5l119 561h84zM413 756l-71 98l-112 -98h-73l149 146h83l88 -146h-64z" />
    <glyph glyph-name="Kcommaaccent" unicode="&#x136;" horiz-adv-x="580" 
d="M659 714l-360 -347l241 -367h-100l-230 358h-2l-76 -358h-84l151 714h84l-71 -334h2l332 334h113zM196 -214h-59l80 156h92z" />
    <glyph glyph-name="Lacute" unicode="&#x139;" horiz-adv-x="484" 
d="M199 714h84l-136 -643h299l-15 -71h-383zM283 763h-63l106 134h96z" />
    <glyph glyph-name="Lcaron" unicode="&#x13d;" horiz-adv-x="484" 
d="M199 714h84l-136 -643h299l-15 -71h-383zM389 604h-52l47 164h79z" />
    <glyph glyph-name="Lcommaaccent" unicode="&#x13b;" horiz-adv-x="484" 
d="M199 714h84l-136 -643h299l-15 -71h-383zM148 -214h-59l80 156h92z" />
    <glyph glyph-name="Lslash" unicode="&#x141;" horiz-adv-x="484" 
d="M115 319l-77 -44l13 61l77 44l71 334h84l-61 -287l109 62l-13 -61l-109 -63l-62 -294h299l-15 -71h-383z" />
    <glyph glyph-name="Ldot" unicode="&#x13f;" horiz-adv-x="498" 
d="M199 714h84l-136 -643h299l-15 -71h-383zM457 338h-94l21 98h94z" />
    <glyph glyph-name="Nacute" unicode="&#x143;" horiz-adv-x="687" 
d="M491 92h2l132 622h82l-151 -714h-121l-170 627h-2l-133 -627h-82l151 714h124zM478 763h-63l106 134h96z" />
    <glyph glyph-name="Ncaron" unicode="&#x147;" horiz-adv-x="687" 
d="M491 92h2l132 622h82l-151 -714h-121l-170 627h-2l-133 -627h-82l151 714h124zM406 901l71 -97l112 97h72l-149 -146h-83l-88 146h65z" />
    <glyph glyph-name="Ntilde" unicode="&#xd1;" horiz-adv-x="687" 
d="M491 92h2l132 622h82l-151 -714h-121l-170 627h-2l-133 -627h-82l151 714h124zM493 853q18 -17 29.5 -23.5t24.5 -6.5q20 0 33.5 18.5t18.5 49.5h59q-12 -60 -41 -93t-72 -33q-23 0 -40.5 9t-40.5 30q-20 18 -32 24t-23 6q-20 0 -33.5 -18t-19.5 -51h-59q10 57 39.5 91.5
t73.5 34.5q23 0 41.5 -9t41.5 -29z" />
    <glyph glyph-name="Ncommaaccent" unicode="&#x145;" horiz-adv-x="687" 
d="M491 92h2l132 622h82l-151 -714h-121l-170 627h-2l-133 -627h-82l151 714h124zM237 -214h-59l80 156h92z" />
    <glyph glyph-name="Eng" unicode="&#x14a;" horiz-adv-x="687" 
d="M491 92h2l132 622h82l-159 -751q-8 -35 -19.5 -64t-31 -50t-48.5 -32.5t-72 -11.5q-13 0 -27 1t-29 3l10 65q14 -2 24 -3t22 -1q22 0 37 7.5t25 21t16 32t11 39.5l7 30h-38l-170 627h-2l-133 -627h-82l151 714h124z" />
    <glyph glyph-name="Ograve" unicode="&#xd2;" horiz-adv-x="733" 
d="M715 461q0 -53 -10 -108.5t-30 -108t-50.5 -99t-71.5 -81.5t-94 -55.5t-117 -20.5q-63 0 -112.5 19.5t-81.5 55t-48.5 83.5t-16.5 108q0 97 27 183t76.5 150.5t119.5 101.5t152 37q66 0 114.5 -20t80 -55t47 -83.5t15.5 -106.5zM348 59q47 0 86.5 16.5t71.5 46t55 68
t38.5 81.5t23 88.5t7.5 87.5q0 43 -10.5 81t-32 66t-55.5 44.5t-81 16.5q-64 0 -117 -33t-90 -88.5t-56.5 -125.5t-19.5 -142q0 -43 10.5 -80t33 -66.5t57.5 -45t79 -15.5zM454 897l88 -134h-59l-120 134h91z" />
    <glyph glyph-name="Oacute" unicode="&#xd3;" horiz-adv-x="733" 
d="M715 461q0 -53 -10 -108.5t-30 -108t-50.5 -99t-71.5 -81.5t-94 -55.5t-117 -20.5q-63 0 -112.5 19.5t-81.5 55t-48.5 83.5t-16.5 108q0 97 27 183t76.5 150.5t119.5 101.5t152 37q66 0 114.5 -20t80 -55t47 -83.5t15.5 -106.5zM348 59q47 0 86.5 16.5t71.5 46t55 68
t38.5 81.5t23 88.5t7.5 87.5q0 43 -10.5 81t-32 66t-55.5 44.5t-81 16.5q-64 0 -117 -33t-90 -88.5t-56.5 -125.5t-19.5 -142q0 -43 10.5 -80t33 -66.5t57.5 -45t79 -15.5zM492 763h-63l106 134h96z" />
    <glyph glyph-name="Ocircumflex" unicode="&#xd4;" horiz-adv-x="733" 
d="M715 461q0 -53 -10 -108.5t-30 -108t-50.5 -99t-71.5 -81.5t-94 -55.5t-117 -20.5q-63 0 -112.5 19.5t-81.5 55t-48.5 83.5t-16.5 108q0 97 27 183t76.5 150.5t119.5 101.5t152 37q66 0 114.5 -20t80 -55t47 -83.5t15.5 -106.5zM348 59q47 0 86.5 16.5t71.5 46t55 68
t38.5 81.5t23 88.5t7.5 87.5q0 43 -10.5 81t-32 66t-55.5 44.5t-81 16.5q-64 0 -117 -33t-90 -88.5t-56.5 -125.5t-19.5 -142q0 -43 10.5 -80t33 -66.5t57.5 -45t79 -15.5zM577 756l-71 98l-112 -98h-73l149 146h83l88 -146h-64z" />
    <glyph glyph-name="Otilde" unicode="&#xd5;" horiz-adv-x="733" 
d="M715 461q0 -53 -10 -108.5t-30 -108t-50.5 -99t-71.5 -81.5t-94 -55.5t-117 -20.5q-63 0 -112.5 19.5t-81.5 55t-48.5 83.5t-16.5 108q0 97 27 183t76.5 150.5t119.5 101.5t152 37q66 0 114.5 -20t80 -55t47 -83.5t15.5 -106.5zM348 59q47 0 86.5 16.5t71.5 46t55 68
t38.5 81.5t23 88.5t7.5 87.5q0 43 -10.5 81t-32 66t-55.5 44.5t-81 16.5q-64 0 -117 -33t-90 -88.5t-56.5 -125.5t-19.5 -142q0 -43 10.5 -80t33 -66.5t57.5 -45t79 -15.5zM515 853q18 -17 29.5 -23.5t24.5 -6.5q20 0 33.5 18.5t18.5 49.5h59q-12 -60 -41 -93t-72 -33
q-23 0 -40.5 9t-40.5 30q-20 18 -32 24t-23 6q-20 0 -33.5 -18t-19.5 -51h-59q10 57 39.5 91.5t73.5 34.5q23 0 41.5 -9t41.5 -29z" />
    <glyph glyph-name="Odieresis" unicode="&#xd6;" horiz-adv-x="733" 
d="M715 461q0 -53 -10 -108.5t-30 -108t-50.5 -99t-71.5 -81.5t-94 -55.5t-117 -20.5q-63 0 -112.5 19.5t-81.5 55t-48.5 83.5t-16.5 108q0 97 27 183t76.5 150.5t119.5 101.5t152 37q66 0 114.5 -20t80 -55t47 -83.5t15.5 -106.5zM348 59q47 0 86.5 16.5t71.5 46t55 68
t38.5 81.5t23 88.5t7.5 87.5q0 43 -10.5 81t-32 66t-55.5 44.5t-81 16.5q-64 0 -117 -33t-90 -88.5t-56.5 -125.5t-19.5 -142q0 -43 10.5 -80t33 -66.5t57.5 -45t79 -15.5zM443 790h-82l20 94h82zM620 790h-81l20 94h81z" />
    <glyph glyph-name="Omacron" unicode="&#x14c;" horiz-adv-x="733" 
d="M715 461q0 -53 -10 -108.5t-30 -108t-50.5 -99t-71.5 -81.5t-94 -55.5t-117 -20.5q-63 0 -112.5 19.5t-81.5 55t-48.5 83.5t-16.5 108q0 97 27 183t76.5 150.5t119.5 101.5t152 37q66 0 114.5 -20t80 -55t47 -83.5t15.5 -106.5zM348 59q47 0 86.5 16.5t71.5 46t55 68
t38.5 81.5t23 88.5t7.5 87.5q0 43 -10.5 81t-32 66t-55.5 44.5t-81 16.5q-64 0 -117 -33t-90 -88.5t-56.5 -125.5t-19.5 -142q0 -43 10.5 -80t33 -66.5t57.5 -45t79 -15.5zM622 799h-257l13 60h257z" />
    <glyph glyph-name="Obreve" unicode="&#x14e;" horiz-adv-x="733" 
d="M715 461q0 -53 -10 -108.5t-30 -108t-50.5 -99t-71.5 -81.5t-94 -55.5t-117 -20.5q-63 0 -112.5 19.5t-81.5 55t-48.5 83.5t-16.5 108q0 97 27 183t76.5 150.5t119.5 101.5t152 37q66 0 114.5 -20t80 -55t47 -83.5t15.5 -106.5zM348 59q47 0 86.5 16.5t71.5 46t55 68
t38.5 81.5t23 88.5t7.5 87.5q0 43 -10.5 81t-32 66t-55.5 44.5t-81 16.5q-64 0 -117 -33t-90 -88.5t-56.5 -125.5t-19.5 -142q0 -43 10.5 -80t33 -66.5t57.5 -45t79 -15.5zM663 908q-6 -30 -17 -55t-30.5 -44.5t-49 -30.5t-70.5 -11q-64 0 -97 28.5t-33 78.5q0 16 3 34h58
q-3 -15 -3 -28q0 -28 18 -43t57 -15q46 0 71 20.5t33 65.5h60z" />
    <glyph glyph-name="Ohungarumlaut" unicode="&#x150;" horiz-adv-x="733" 
d="M715 461q0 -53 -10 -108.5t-30 -108t-50.5 -99t-71.5 -81.5t-94 -55.5t-117 -20.5q-63 0 -112.5 19.5t-81.5 55t-48.5 83.5t-16.5 108q0 97 27 183t76.5 150.5t119.5 101.5t152 37q66 0 114.5 -20t80 -55t47 -83.5t15.5 -106.5zM348 59q47 0 86.5 16.5t71.5 46t55 68
t38.5 81.5t23 88.5t7.5 87.5q0 43 -10.5 81t-32 66t-55.5 44.5t-81 16.5q-64 0 -117 -33t-90 -88.5t-56.5 -125.5t-19.5 -142q0 -43 10.5 -80t33 -66.5t57.5 -45t79 -15.5zM434 763h-58l88 137h90zM567 763h-60l100 137h95z" />
    <glyph glyph-name="Oslash" unicode="&#xd8;" horiz-adv-x="733" 
d="M715 461q0 -53 -10 -108.5t-30 -108t-50.5 -99t-72.5 -82t-94.5 -55.5t-115.5 -20q-65 0 -114.5 20t-81.5 56l-83 -84l-37 37l90 91q-33 61 -33 146q0 97 27 183t77 151t119.5 101.5t151.5 36.5q66 0 114.5 -20t80.5 -55l77 78l37 -37l-84 -85q32 -62 32 -146zM348 59
q48 0 87.5 17t71 46t54.5 67.5t38.5 81.5t23 88.5t7.5 87.5q0 48 -14 92l-410 -414q23 -31 57.5 -48.5t84.5 -17.5zM168 266q0 -25 3.5 -49t10.5 -42l409 414q-22 30 -56 48t-84 18q-65 0 -118 -33.5t-89.5 -88.5t-56 -125t-19.5 -142z" />
    <glyph glyph-name="OE" unicode="&#x152;" horiz-adv-x="932" 
d="M377 0q-79 0 -134.5 21t-91 57.5t-52 85.5t-16.5 106q0 89 27.5 169.5t81.5 142t131 97t175 35.5h465l-15 -71h-273l-51 -240h259l-15 -71h-259l-55 -261h298l-15 -71h-460zM168 275q-1 -96 53.5 -150t165.5 -54h83l121 572h-97q-80 0 -141.5 -29.5t-102.5 -80
t-61.5 -117.5t-20.5 -141z" />
    <glyph glyph-name="Racute" unicode="&#x154;" horiz-adv-x="623" 
d="M199 714h209q43 0 81.5 -9t67.5 -29.5t45.5 -53t16.5 -78.5q0 -75 -41.5 -124t-122.5 -67l-1 -2q21 -7 34.5 -23.5t21.5 -51.5q14 -65 27.5 -136t27.5 -140h-86q-11 60 -23 125.5t-25 127.5q-7 34 -26.5 51.5t-77.5 17.5h-127l-68 -322h-84zM215 393h128q94 0 142.5 38
t48.5 108q0 52 -34.5 78t-107.5 26h-124zM416 763h-63l106 134h96z" />
    <glyph glyph-name="Rcaron" unicode="&#x158;" horiz-adv-x="623" 
d="M199 714h209q43 0 81.5 -9t67.5 -29.5t45.5 -53t16.5 -78.5q0 -75 -41.5 -124t-122.5 -67l-1 -2q21 -7 34.5 -23.5t21.5 -51.5q14 -65 27.5 -136t27.5 -140h-86q-11 60 -23 125.5t-25 127.5q-7 34 -26.5 51.5t-77.5 17.5h-127l-68 -322h-84zM215 393h128q94 0 142.5 38
t48.5 108q0 52 -34.5 78t-107.5 26h-124zM347 901l71 -97l112 97h72l-149 -146h-83l-88 146h65z" />
    <glyph glyph-name="Rcommaaccent" unicode="&#x156;" horiz-adv-x="623" 
d="M199 714h209q43 0 81.5 -9t67.5 -29.5t45.5 -53t16.5 -78.5q0 -75 -41.5 -124t-122.5 -67l-1 -2q21 -7 34.5 -23.5t21.5 -51.5q14 -65 27.5 -136t27.5 -140h-86q-11 60 -23 125.5t-25 127.5q-7 34 -26.5 51.5t-77.5 17.5h-127l-68 -322h-84zM215 393h128q94 0 142.5 38
t48.5 108q0 52 -34.5 78t-107.5 26h-124zM229 -214h-59l80 156h92z" />
    <glyph glyph-name="Sacute" unicode="&#x15a;" horiz-adv-x="524" 
d="M514 625q-69 30 -143 30q-26 0 -51.5 -5.5t-47 -17.5t-36.5 -34.5t-15 -55.5q0 -20 6 -38t19 -35t34 -35t51 -39q35 -25 61.5 -48t44.5 -48t26.5 -51.5t8.5 -59.5q0 -53 -21 -91.5t-57 -62.5t-80.5 -35t-91.5 -11q-44 0 -95.5 9.5t-98.5 30.5l23 72q44 -21 89.5 -31
t83.5 -10q34 0 63.5 7t52 22t35 38t12.5 54q0 44 -28.5 80t-88.5 75q-68 44 -101 92t-33 108q0 50 20 87t54.5 60t76.5 33.5t84 10.5q46 0 87.5 -7.5t76.5 -22.5zM402 763h-63l106 134h96z" />
    <glyph glyph-name="Scircumflex" unicode="&#x15c;" horiz-adv-x="524" 
d="M514 625q-69 30 -143 30q-26 0 -51.5 -5.5t-47 -17.5t-36.5 -34.5t-15 -55.5q0 -20 6 -38t19 -35t34 -35t51 -39q35 -25 61.5 -48t44.5 -48t26.5 -51.5t8.5 -59.5q0 -53 -21 -91.5t-57 -62.5t-80.5 -35t-91.5 -11q-44 0 -95.5 9.5t-98.5 30.5l23 72q44 -21 89.5 -31
t83.5 -10q34 0 63.5 7t52 22t35 38t12.5 54q0 44 -28.5 80t-88.5 75q-68 44 -101 92t-33 108q0 50 20 87t54.5 60t76.5 33.5t84 10.5q46 0 87.5 -7.5t76.5 -22.5zM473 756l-71 98l-112 -98h-73l149 146h83l88 -146h-64z" />
    <glyph glyph-name="Scaron" unicode="&#x160;" horiz-adv-x="524" 
d="M514 625q-69 30 -143 30q-26 0 -51.5 -5.5t-47 -17.5t-36.5 -34.5t-15 -55.5q0 -20 6 -38t19 -35t34 -35t51 -39q35 -25 61.5 -48t44.5 -48t26.5 -51.5t8.5 -59.5q0 -53 -21 -91.5t-57 -62.5t-80.5 -35t-91.5 -11q-44 0 -95.5 9.5t-98.5 30.5l23 72q44 -21 89.5 -31
t83.5 -10q34 0 63.5 7t52 22t35 38t12.5 54q0 44 -28.5 80t-88.5 75q-68 44 -101 92t-33 108q0 50 20 87t54.5 60t76.5 33.5t84 10.5q46 0 87.5 -7.5t76.5 -22.5zM319 901l71 -97l112 97h72l-149 -146h-83l-88 146h65z" />
    <glyph glyph-name="Scedilla" unicode="&#x15e;" horiz-adv-x="524" 
d="M514 625q-69 30 -143 30q-24 0 -50.5 -5.5t-48.5 -17.5t-36.5 -35t-14.5 -55q0 -20 5.5 -37t19 -35t34.5 -36t51 -39q35 -25 61.5 -48t44 -47t26.5 -51.5t9 -60.5q0 -52 -19.5 -88.5t-52 -60.5t-73.5 -36t-87 -14l-19 -47q12 1 14.5 1h7.5q33 0 53 -17t20 -49
q0 -27 -11 -45t-28 -27.5t-39.5 -14t-48.5 -4.5q-12 0 -26 1.5t-28 4.5l7 43q13 -2 24 -3t22 -1q14 0 25.5 1.5t22 6t16.5 13t6 21.5q0 16 -12 23t-42 7q-8 0 -17.5 -0.5t-23.5 -1.5l31 88q-39 2 -82.5 11.5t-83.5 27.5l23 72q44 -21 90 -31t83 -10q34 0 63 7t52 22
t35.5 38.5t12.5 53.5q0 44 -28 79.5t-89 75.5q-66 43 -100 90.5t-34 109.5q0 52 21 88.5t54.5 59t74.5 33t85 10.5q46 0 87.5 -7.5t76.5 -22.5z" />
    <glyph glyph-name="Scommaaccent" unicode="&#x218;" horiz-adv-x="524" 
d="M514 625q-69 30 -143 30q-26 0 -51.5 -5.5t-47 -17.5t-36.5 -34.5t-15 -55.5q0 -20 6 -38t19 -35t34 -35t51 -39q35 -25 61.5 -48t44.5 -48t26.5 -51.5t8.5 -59.5q0 -53 -21 -91.5t-57 -62.5t-80.5 -35t-91.5 -11q-44 0 -95.5 9.5t-98.5 30.5l23 72q44 -21 89.5 -31
t83.5 -10q34 0 63.5 7t52 22t35 38t12.5 54q0 44 -28.5 80t-88.5 75q-68 44 -101 92t-33 108q0 50 20 87t54.5 60t76.5 33.5t84 10.5q46 0 87.5 -7.5t76.5 -22.5zM161 -214h-59l80 156h92z" />
    <glyph glyph-name="Tcaron" unicode="&#x164;" horiz-adv-x="506" 
d="M300 643h-205l15 71h489l-15 -71h-200l-136 -643h-84zM302 901l71 -97l112 97h72l-149 -146h-83l-88 146h65z" />
    <glyph glyph-name="uni0162" unicode="&#x162;" horiz-adv-x="506" 
d="M300 643h-205l15 71h489l-15 -71h-200l-136 -643h-84zM131 -214h-59l80 156h92z" />
    <glyph glyph-name="uni021A" unicode="&#x21a;" horiz-adv-x="506" 
d="M300 643h-205l15 71h489l-15 -71h-200l-136 -643h-84zM131 -214h-59l80 156h92z" />
    <glyph glyph-name="Tbar" unicode="&#x166;" horiz-adv-x="506" 
d="M245 382h-107l11 51h106l45 210h-205l15 71h489l-15 -71h-200l-45 -210h107l-11 -51h-106l-81 -382h-84z" />
    <glyph glyph-name="Thorn" unicode="&#xde;" horiz-adv-x="604" 
d="M199 714h84l-26 -123h119q46 0 85 -10.5t67.5 -31.5t44.5 -54t16 -78q0 -56 -20.5 -100.5t-57.5 -75.5t-88.5 -47.5t-114.5 -16.5h-139l-37 -177h-84zM242 520l-58 -272h132q33 0 66 8t60.5 27t44 49.5t16.5 74.5q0 33 -11.5 55t-32 35t-47 18t-56.5 5h-114z" />
    <glyph glyph-name="Ugrave" unicode="&#xd9;" horiz-adv-x="662" 
d="M591 211q-11 -50 -31.5 -90.5t-55 -70t-84.5 -46t-119 -16.5q-106 0 -166 42.5t-61 128.5q0 14 2.5 33t5.5 32l104 490h84l-102 -481q-3 -13 -5.5 -32t-2.5 -32q1 -56 39 -83t110 -27q51 0 85.5 12t57.5 33t36 50.5t21 65.5l105 494h84zM408 897l88 -134h-59l-120 134h91
z" />
    <glyph glyph-name="Uacute" unicode="&#xda;" horiz-adv-x="662" 
d="M591 211q-11 -50 -31.5 -90.5t-55 -70t-84.5 -46t-119 -16.5q-106 0 -166 42.5t-61 128.5q0 14 2.5 33t5.5 32l104 490h84l-102 -481q-3 -13 -5.5 -32t-2.5 -32q1 -56 39 -83t110 -27q51 0 85.5 12t57.5 33t36 50.5t21 65.5l105 494h84zM466 763h-63l106 134h96z" />
    <glyph glyph-name="Ucircumflex" unicode="&#xdb;" horiz-adv-x="662" 
d="M591 211q-11 -50 -31.5 -90.5t-55 -70t-84.5 -46t-119 -16.5q-106 0 -166 42.5t-61 128.5q0 14 2.5 33t5.5 32l104 490h84l-102 -481q-3 -13 -5.5 -32t-2.5 -32q1 -56 39 -83t110 -27q51 0 85.5 12t57.5 33t36 50.5t21 65.5l105 494h84zM546 756l-71 98l-112 -98h-73
l149 146h83l88 -146h-64z" />
    <glyph glyph-name="Utilde" unicode="&#x168;" horiz-adv-x="662" 
d="M591 211q-11 -50 -31.5 -90.5t-55 -70t-84.5 -46t-119 -16.5q-106 0 -166 42.5t-61 128.5q0 14 2.5 33t5.5 32l104 490h84l-102 -481q-3 -13 -5.5 -32t-2.5 -32q1 -56 39 -83t110 -27q51 0 85.5 12t57.5 33t36 50.5t21 65.5l105 494h84zM483 853q18 -17 29.5 -23.5
t24.5 -6.5q20 0 33.5 18.5t18.5 49.5h59q-12 -60 -41 -93t-72 -33q-23 0 -40.5 9t-40.5 30q-20 18 -32 24t-23 6q-20 0 -33.5 -18t-19.5 -51h-59q10 57 39.5 91.5t73.5 34.5q23 0 41.5 -9t41.5 -29z" />
    <glyph glyph-name="Udieresis" unicode="&#xdc;" horiz-adv-x="662" 
d="M591 211q-11 -50 -31.5 -90.5t-55 -70t-84.5 -46t-119 -16.5q-106 0 -166 42.5t-61 128.5q0 14 2.5 33t5.5 32l104 490h84l-102 -481q-3 -13 -5.5 -32t-2.5 -32q1 -56 39 -83t110 -27q51 0 85.5 12t57.5 33t36 50.5t21 65.5l105 494h84zM410 790h-82l20 94h82zM587 790
h-81l20 94h81z" />
    <glyph glyph-name="Umacron" unicode="&#x16a;" horiz-adv-x="662" 
d="M591 211q-11 -50 -31.5 -90.5t-55 -70t-84.5 -46t-119 -16.5q-106 0 -166 42.5t-61 128.5q0 14 2.5 33t5.5 32l104 490h84l-102 -481q-3 -13 -5.5 -32t-2.5 -32q1 -56 39 -83t110 -27q51 0 85.5 12t57.5 33t36 50.5t21 65.5l105 494h84zM588 799h-257l13 60h257z" />
    <glyph glyph-name="Ubreve" unicode="&#x16c;" horiz-adv-x="662" 
d="M591 211q-11 -50 -31.5 -90.5t-55 -70t-84.5 -46t-119 -16.5q-106 0 -166 42.5t-61 128.5q0 14 2.5 33t5.5 32l104 490h84l-102 -481q-3 -13 -5.5 -32t-2.5 -32q1 -56 39 -83t110 -27q51 0 85.5 12t57.5 33t36 50.5t21 65.5l105 494h84zM630 908q-6 -30 -17 -55
t-30.5 -44.5t-49 -30.5t-70.5 -11q-64 0 -97 28.5t-33 78.5q0 16 3 34h58q-3 -15 -3 -28q0 -28 18 -43t57 -15q46 0 71 20.5t33 65.5h60z" />
    <glyph glyph-name="Uring" unicode="&#x16e;" horiz-adv-x="662" 
d="M591 211q-11 -50 -31.5 -90.5t-55 -70t-84.5 -46t-119 -16.5q-106 0 -166 42.5t-61 128.5q0 14 2.5 33t5.5 32l104 490h84l-102 -481q-3 -13 -5.5 -32t-2.5 -32q1 -56 39 -83t110 -27q51 0 85.5 12t57.5 33t36 50.5t21 65.5l105 494h84zM471 908q-25 0 -43.5 -18
t-18.5 -43q0 -26 18.5 -44.5t44.5 -18.5q25 0 43 18.5t18 44.5t-18.5 43.5t-43.5 17.5zM473 946q20 0 38 -8t31.5 -22t21 -31.5t7.5 -37.5q0 -21 -7.5 -39t-21.5 -32t-32 -21.5t-38 -7.5q-21 0 -39 7.5t-32 21t-22 32t-8 39.5t8 39t22 31.5t32.5 21t39.5 7.5z" />
    <glyph glyph-name="Uhungarumlaut" unicode="&#x170;" horiz-adv-x="662" 
d="M591 211q-11 -50 -31.5 -90.5t-55 -70t-84.5 -46t-119 -16.5q-106 0 -166 42.5t-61 128.5q0 14 2.5 33t5.5 32l104 490h84l-102 -481q-3 -13 -5.5 -32t-2.5 -32q1 -56 39 -83t110 -27q51 0 85.5 12t57.5 33t36 50.5t21 65.5l105 494h84zM403 763h-58l88 137h90zM536 763
h-60l100 137h95z" />
    <glyph glyph-name="Uogonek" unicode="&#x172;" horiz-adv-x="662" 
d="M591 211q-10 -47 -29.5 -86.5t-51.5 -69t-78 -46.5t-109 -20q-46 -42 -62 -66.5t-16 -46.5q0 -17 11 -24.5t30 -7.5q14 0 29.5 3t29.5 9l-2 -46q-35 -15 -76 -15q-37 0 -59.5 16.5t-22.5 49.5q0 31 20 61t67 67q-95 6 -146.5 49t-51.5 121q0 14 2.5 33t5.5 32l104 490h84
l-102 -481q-3 -13 -5.5 -32t-2.5 -32q0 -55 38.5 -82.5t110.5 -27.5q51 0 86 12t57.5 33.5t35.5 50t21 65.5l105 494h84z" />
    <glyph glyph-name="Wcircumflex" unicode="&#x174;" horiz-adv-x="941" 
d="M572 648h-2l-286 -648h-124l-7 714h88l-4 -635h2l278 635h134l-17 -635h2l293 635h92l-340 -714h-124zM687 756l-71 98l-112 -98h-73l149 146h83l88 -146h-64z" />
    <glyph glyph-name="Wacute" unicode="&#x1e82;" horiz-adv-x="941" 
d="M572 648h-2l-286 -648h-124l-7 714h88l-4 -635h2l278 635h134l-17 -635h2l293 635h92l-340 -714h-124zM613 763h-63l106 134h96z" />
    <glyph glyph-name="Wdieresis" unicode="&#x1e84;" horiz-adv-x="941" 
d="M572 648h-2l-286 -648h-124l-7 714h88l-4 -635h2l278 635h134l-17 -635h2l293 635h92l-340 -714h-124zM552 790h-82l20 94h82zM729 790h-81l20 94h81z" />
    <glyph glyph-name="Wgrave" unicode="&#x1e80;" horiz-adv-x="941" 
d="M572 648h-2l-286 -648h-124l-7 714h88l-4 -635h2l278 635h134l-17 -635h2l293 635h92l-340 -714h-124zM552 897l88 -134h-59l-120 134h91z" />
    <glyph glyph-name="Yacute" unicode="&#xdd;" horiz-adv-x="543" 
d="M244 291l-144 423h91l109 -346l258 346h98l-328 -423l-61 -291h-84zM388 763h-63l106 134h96z" />
    <glyph glyph-name="Ycircumflex" unicode="&#x176;" horiz-adv-x="543" 
d="M244 291l-144 423h91l109 -346l258 346h98l-328 -423l-61 -291h-84zM478 756l-71 98l-112 -98h-73l149 146h83l88 -146h-64z" />
    <glyph glyph-name="Ydieresis" unicode="&#x178;" horiz-adv-x="543" 
d="M244 291l-144 423h91l109 -346l258 346h98l-328 -423l-61 -291h-84zM344 790h-82l20 94h82zM521 790h-81l20 94h81z" />
    <glyph glyph-name="Ygrave" unicode="&#x1ef2;" horiz-adv-x="543" 
d="M244 291l-144 423h91l109 -346l258 346h98l-328 -423l-61 -291h-84zM344 897l88 -134h-59l-120 134h91z" />
    <glyph glyph-name="Zacute" unicode="&#x179;" horiz-adv-x="582" 
d="M507 643h-337l15 71h443l-15 -71l-486 -572h388l-15 -71h-493l15 73zM418 763h-63l106 134h96z" />
    <glyph glyph-name="Zcaron" unicode="&#x17d;" horiz-adv-x="582" 
d="M507 643h-337l15 71h443l-15 -71l-486 -572h388l-15 -71h-493l15 73zM343 901l71 -97l112 97h72l-149 -146h-83l-88 146h65z" />
    <glyph glyph-name="Zdotaccent" unicode="&#x17b;" horiz-adv-x="582" 
d="M507 643h-337l15 71h443l-15 -71l-486 -572h388l-15 -71h-493l15 73zM459 784h-94l21 98h94z" />
    <glyph glyph-name="agrave" unicode="&#xe0;" horiz-adv-x="544" 
d="M406 329q5 21 6.5 31.5t1.5 20.5q0 46 -28.5 70t-83.5 24q-28 0 -63.5 -5t-71.5 -16l-4 65q34 10 71.5 15.5t73.5 5.5q91 0 139 -39.5t48 -111.5q0 -17 -2 -32t-6 -32l-43 -205q-6 -29 -10.5 -62t-4.5 -58h-69q-1 7 -1 10.5v7.5q0 14 1.5 29t3.5 32h-2q-21 -39 -66 -65
t-105 -26q-30 0 -56.5 9.5t-46 27.5t-31 45t-11.5 61q0 57 27.5 95.5t76 61t114 32t142.5 9.5zM366 268q-48 0 -91.5 -6.5t-76.5 -21.5t-52.5 -41t-19.5 -63t23 -60t61 -23q39 0 68.5 14t50.5 37.5t34.5 54.5t20.5 64l9 45h-27zM238 768h86l76 -164h-56z" />
    <glyph glyph-name="aacute" unicode="&#xe1;" horiz-adv-x="544" 
d="M406 329q5 21 6.5 31.5t1.5 20.5q0 46 -28.5 70t-83.5 24q-28 0 -63.5 -5t-71.5 -16l-4 65q34 10 71.5 15.5t73.5 5.5q91 0 139 -39.5t48 -111.5q0 -17 -2 -32t-6 -32l-43 -205q-6 -29 -10.5 -62t-4.5 -58h-69q-1 7 -1 10.5v7.5q0 14 1.5 29t3.5 32h-2q-21 -39 -66 -65
t-105 -26q-30 0 -56.5 9.5t-46 27.5t-31 45t-11.5 61q0 57 27.5 95.5t76 61t114 32t142.5 9.5zM366 268q-48 0 -91.5 -6.5t-76.5 -21.5t-52.5 -41t-19.5 -63t23 -60t61 -23q39 0 68.5 14t50.5 37.5t34.5 54.5t20.5 64l9 45h-27zM363 604h-61l126 164h91z" />
    <glyph glyph-name="acircumflex" unicode="&#xe2;" horiz-adv-x="544" 
d="M406 329q5 21 6.5 31.5t1.5 20.5q0 46 -28.5 70t-83.5 24q-28 0 -63.5 -5t-71.5 -16l-4 65q34 10 71.5 15.5t73.5 5.5q91 0 139 -39.5t48 -111.5q0 -17 -2 -32t-6 -32l-43 -205q-6 -29 -10.5 -62t-4.5 -58h-69q-1 7 -1 10.5v7.5q0 14 1.5 29t3.5 32h-2q-21 -39 -66 -65
t-105 -26q-30 0 -56.5 9.5t-46 27.5t-31 45t-11.5 61q0 57 27.5 95.5t76 61t114 32t142.5 9.5zM366 268q-48 0 -91.5 -6.5t-76.5 -21.5t-52.5 -41t-19.5 -63t23 -60t61 -23q39 0 68.5 14t50.5 37.5t34.5 54.5t20.5 64l9 45h-27zM445 604l-67 116l-116 -116h-73l153 164h83
l84 -164h-64z" />
    <glyph glyph-name="atilde" unicode="&#xe3;" horiz-adv-x="544" 
d="M406 329q5 21 6.5 31.5t1.5 20.5q0 46 -28.5 70t-83.5 24q-28 0 -63.5 -5t-71.5 -16l-4 65q34 10 71.5 15.5t73.5 5.5q91 0 139 -39.5t48 -111.5q0 -17 -2 -32t-6 -32l-43 -205q-6 -29 -10.5 -62t-4.5 -58h-69q-1 7 -1 10.5v7.5q0 14 1.5 29t3.5 32h-2q-21 -39 -66 -65
t-105 -26q-30 0 -56.5 9.5t-46 27.5t-31 45t-11.5 61q0 57 27.5 95.5t76 61t114 32t142.5 9.5zM366 268q-48 0 -91.5 -6.5t-76.5 -21.5t-52.5 -41t-19.5 -63t23 -60t61 -23q39 0 68.5 14t50.5 37.5t34.5 54.5t20.5 64l9 45h-27zM374 705q19 -18 30.5 -24.5t23.5 -6.5
q20 0 33.5 19t18.5 49h59q-12 -59 -41 -92.5t-75 -33.5q-22 0 -40 9t-39 29q-20 18 -31.5 24.5t-22.5 6.5q-20 0 -33.5 -18.5t-19.5 -50.5h-59q11 57 41 91.5t76 34.5q23 0 41 -9t38 -28z" />
    <glyph glyph-name="adieresis" unicode="&#xe4;" horiz-adv-x="544" 
d="M406 329q5 21 6.5 31.5t1.5 20.5q0 46 -28.5 70t-83.5 24q-28 0 -63.5 -5t-71.5 -16l-4 65q34 10 71.5 15.5t73.5 5.5q91 0 139 -39.5t48 -111.5q0 -17 -2 -32t-6 -32l-43 -205q-6 -29 -10.5 -62t-4.5 -58h-69q-1 7 -1 10.5v7.5q0 14 1.5 29t3.5 32h-2q-21 -39 -66 -65
t-105 -26q-30 0 -56.5 9.5t-46 27.5t-31 45t-11.5 61q0 57 27.5 95.5t76 61t114 32t142.5 9.5zM366 268q-48 0 -91.5 -6.5t-76.5 -21.5t-52.5 -41t-19.5 -63t23 -60t61 -23q39 0 68.5 14t50.5 37.5t34.5 54.5t20.5 64l9 45h-27zM303 626h-82l20 94h82zM480 626h-81l20 94h81
z" />
    <glyph glyph-name="amacron" unicode="&#x101;" horiz-adv-x="544" 
d="M406 329q5 21 6.5 31.5t1.5 20.5q0 46 -28.5 70t-83.5 24q-28 0 -63.5 -5t-71.5 -16l-4 65q34 10 71.5 15.5t73.5 5.5q91 0 139 -39.5t48 -111.5q0 -17 -2 -32t-6 -32l-43 -205q-6 -29 -10.5 -62t-4.5 -58h-69q-1 7 -1 10.5v7.5q0 14 1.5 29t3.5 32h-2q-21 -39 -66 -65
t-105 -26q-30 0 -56.5 9.5t-46 27.5t-31 45t-11.5 61q0 57 27.5 95.5t76 61t114 32t142.5 9.5zM366 268q-48 0 -91.5 -6.5t-76.5 -21.5t-52.5 -41t-19.5 -63t23 -60t61 -23q39 0 68.5 14t50.5 37.5t34.5 54.5t20.5 64l9 45h-27zM483 640h-257l13 60h257z" />
    <glyph glyph-name="abreve" unicode="&#x103;" horiz-adv-x="544" 
d="M406 329q5 21 6.5 31.5t1.5 20.5q0 46 -28.5 70t-83.5 24q-28 0 -63.5 -5t-71.5 -16l-4 65q34 10 71.5 15.5t73.5 5.5q91 0 139 -39.5t48 -111.5q0 -17 -2 -32t-6 -32l-43 -205q-6 -29 -10.5 -62t-4.5 -58h-69q-1 7 -1 10.5v7.5q0 14 1.5 29t3.5 32h-2q-21 -39 -66 -65
t-105 -26q-30 0 -56.5 9.5t-46 27.5t-31 45t-11.5 61q0 57 27.5 95.5t76 61t114 32t142.5 9.5zM366 268q-48 0 -91.5 -6.5t-76.5 -21.5t-52.5 -41t-19.5 -63t23 -60t61 -23q39 0 68.5 14t50.5 37.5t34.5 54.5t20.5 64l9 45h-27zM522 748q-6 -30 -17 -55t-30.5 -44.5
t-49 -30.5t-70.5 -11q-64 0 -97 28.5t-33 78.5q0 16 3 34h58q-3 -15 -3 -28q0 -28 18 -43t57 -15q46 0 71 20.5t33 65.5h60z" />
    <glyph glyph-name="aring" unicode="&#xe5;" horiz-adv-x="544" 
d="M406 329q5 21 6.5 31.5t1.5 20.5q0 46 -28.5 70t-83.5 24q-28 0 -63.5 -5t-71.5 -16l-4 65q34 10 71.5 15.5t73.5 5.5q91 0 139 -39.5t48 -111.5q0 -17 -2 -32t-6 -32l-43 -205q-6 -29 -10.5 -62t-4.5 -58h-69q-1 7 -1 10.5v7.5q0 14 1.5 29t3.5 32h-2q-21 -39 -66 -65
t-105 -26q-30 0 -56.5 9.5t-46 27.5t-31 45t-11.5 61q0 57 27.5 95.5t76 61t114 32t142.5 9.5zM366 268q-48 0 -91.5 -6.5t-76.5 -21.5t-52.5 -41t-19.5 -63t23 -60t61 -23q39 0 68.5 14t50.5 37.5t34.5 54.5t20.5 64l9 45h-27zM367 757q-25 0 -43.5 -18t-18.5 -43
q0 -26 18.5 -44.5t44.5 -18.5q25 0 43 18.5t18 44.5t-18.5 43.5t-43.5 17.5zM369 795q20 0 38 -8t31.5 -22t21 -31.5t7.5 -37.5q0 -21 -7.5 -39t-21.5 -32t-32 -21.5t-38 -7.5q-21 0 -39 7.5t-32 21t-22 32t-8 39.5t8 39t22 31.5t32.5 21t39.5 7.5z" />
    <glyph glyph-name="aogonek" unicode="&#x105;" horiz-adv-x="544" 
d="M406 329q5 20 6.5 31t1.5 21q0 46 -28.5 70t-83.5 24q-29 0 -64 -5t-71 -16l-4 65q34 10 72.5 15.5t72.5 5.5q89 0 138 -38.5t49 -112.5q0 -17 -2 -32t-6 -32l-43 -205q-6 -29 -10.5 -62t-4.5 -58h-20q-27 -24 -44.5 -41.5t-28 -32.5t-14.5 -26.5t-4 -23.5
q0 -16 10.5 -24t30.5 -8q14 0 29.5 3t29.5 9l-2 -46q-35 -15 -76 -15q-37 0 -59.5 16.5t-22.5 49.5t23.5 65.5t78.5 73.5q-1 6 -1 11v7q0 14 1.5 29t3.5 32h-2q-23 -41 -67 -66t-104 -25q-30 0 -56.5 9.5t-46.5 28.5t-31 45t-11 60q0 55 26.5 94t75.5 62t114.5 32.5
t143.5 9.5zM366 268q-48 0 -91.5 -6.5t-76.5 -21.5t-52.5 -41t-19.5 -63q0 -38 23.5 -60.5t60.5 -22.5q39 0 68.5 14t50.5 37.5t34.5 54.5t20.5 64l9 45h-27z" />
    <glyph glyph-name="ae" unicode="&#xe6;" horiz-adv-x="862" 
d="M736 7q-53 -19 -125 -19q-83 0 -133 31t-71 86h-2q-17 -28 -36.5 -50t-44 -37t-54 -22.5t-66.5 -7.5q-72 0 -115 37.5t-43 101.5q0 51 25 87.5t71 59t112 33t149 10.5q11 47 11 64q0 45 -28 69.5t-84 24.5q-28 0 -63.5 -5t-71.5 -16l-4 65q35 10 72 15.5t73 5.5
q62 0 107 -20t64 -64h2q33 40 80.5 62t100.5 22q86 0 131.5 -46.5t45.5 -132.5q0 -20 -3.5 -48t-12.5 -65h-353q-3 -23 -3 -44q0 -69 38 -109.5t119 -41.5q30 0 56.5 4t55.5 13v-63zM366 256q-114 0 -177 -31.5t-63 -93.5q0 -35 24 -56.5t66 -21.5q39 0 67.5 14t48.5 37.5
t32.5 53.5t19.5 65l6 33h-24zM655 475q-35 0 -63.5 -13t-50 -35t-37 -51t-24.5 -61h280q3 13 4 21.5t1 19.5q0 58 -28 88.5t-82 30.5z" />
    <glyph glyph-name="cacute" unicode="&#x107;" horiz-adv-x="440" 
d="M379 2q-50 -14 -99 -14q-55 0 -96.5 17t-68 46t-40 68t-13.5 84q0 64 19.5 124t58 108.5t94 76.5t122.5 28q24 0 51.5 -3.5t50.5 -11.5l-22 -65q-20 8 -42 11.5t-41 3.5q-46 0 -85.5 -22t-67 -60.5t-41.5 -85.5t-14 -95q0 -33 7.5 -61t24.5 -50.5t44.5 -35t66.5 -12.5
q22 0 44.5 3t46.5 10v-64zM360 604h-61l126 164h91z" />
    <glyph glyph-name="ccircumflex" unicode="&#x109;" horiz-adv-x="440" 
d="M379 2q-50 -14 -99 -14q-55 0 -96.5 17t-68 46t-40 68t-13.5 84q0 64 19.5 124t58 108.5t94 76.5t122.5 28q24 0 51.5 -3.5t50.5 -11.5l-22 -65q-20 8 -42 11.5t-41 3.5q-46 0 -85.5 -22t-67 -60.5t-41.5 -85.5t-14 -95q0 -33 7.5 -61t24.5 -50.5t44.5 -35t66.5 -12.5
q22 0 44.5 3t46.5 10v-64zM438 604l-67 116l-116 -116h-73l153 164h83l84 -164h-64z" />
    <glyph glyph-name="ccaron" unicode="&#x10d;" horiz-adv-x="440" 
d="M379 2q-50 -14 -99 -14q-55 0 -96.5 17t-68 46t-40 68t-13.5 84q0 64 19.5 124t58 108.5t94 76.5t122.5 28q24 0 51.5 -3.5t50.5 -11.5l-22 -65q-20 8 -42 11.5t-41 3.5q-46 0 -85.5 -22t-67 -60.5t-41.5 -85.5t-14 -95q0 -33 7.5 -61t24.5 -50.5t44.5 -35t66.5 -12.5
q22 0 44.5 3t46.5 10v-64zM286 767l67 -116l116 116h72l-153 -164h-83l-84 164h65z" />
    <glyph glyph-name="cdotaccent" unicode="&#x10b;" horiz-adv-x="440" 
d="M379 2q-50 -14 -99 -14q-55 0 -96.5 17t-68 46t-40 68t-13.5 84q0 64 19.5 124t58 108.5t94 76.5t122.5 28q24 0 51.5 -3.5t50.5 -11.5l-22 -65q-20 8 -42 11.5t-41 3.5q-46 0 -85.5 -22t-67 -60.5t-41.5 -85.5t-14 -95q0 -33 7.5 -61t24.5 -50.5t44.5 -35t66.5 -12.5
q22 0 44.5 3t46.5 10v-64zM402 625h-94l21 98h94z" />
    <glyph glyph-name="ccedilla" unicode="&#xe7;" horiz-adv-x="440" 
d="M379 2q-50 -14 -99 -14q-9 0 -18 0.5t-17 1.5l-19 -48q13 1 16 1h6q33 0 53 -17t20 -49q0 -28 -11.5 -46t-29.5 -27.5t-39.5 -13.5t-46.5 -4q-12 0 -26 1.5t-28 4.5l7 43q14 -2 24.5 -3t21.5 -1q12 0 25 1.5t23 6t16 13t6 21.5q0 17 -13 23.5t-41 6.5q-8 0 -19 -0.5
t-22 -1.5l35 98q-71 20 -106 76t-35 128q0 64 20 125t58 108t92.5 75.5t123.5 28.5q25 0 53.5 -3.5t48.5 -11.5l-22 -65q-18 8 -40 11.5t-43 3.5q-50 0 -88.5 -23t-65 -60.5t-40.5 -84.5t-14 -95q0 -33 7.5 -61.5t25 -50.5t44.5 -34.5t66 -12.5q22 0 44.5 3t46.5 10v-64z
" />
    <glyph glyph-name="dcaron" unicode="&#x10f;" horiz-adv-x="592" 
d="M540 735h81l-156 -735h-74l15 69h-2q-26 -37 -64.5 -59t-89.5 -22t-87.5 17.5t-59 47.5t-33 69t-10.5 81q0 68 20.5 129.5t56.5 107.5t86 73t108 27q52 0 89.5 -21t57.5 -63h2zM330 475q-46 0 -83 -27t-59.5 -68.5t-33.5 -88t-11 -87.5q0 -30 6.5 -58t20 -48.5
t35.5 -32.5t53 -12q44 0 80.5 24.5t61.5 64.5t38.5 90.5t13.5 101.5q0 64 -32.5 102.5t-89.5 38.5zM713 604h-52l47 164h79z" />
    <glyph glyph-name="dcroat" unicode="&#x111;" horiz-adv-x="592" 
d="M413 660h111l16 75h82l-16 -75h45l-12 -57h-45l-128 -603h-75l15 69h-2q-26 -38 -65 -59.5t-89 -21.5t-87 17.5t-59.5 47.5t-33 68.5t-10.5 81.5q0 68 20.5 129.5t56.5 107.5t86 73t108 27q52 0 90 -21.5t57 -62.5h2l31 147h-110zM330 475q-45 0 -81.5 -26t-60 -68.5
t-34.5 -89t-11 -87.5q0 -30 6.5 -58t20 -48.5t35.5 -32.5t53 -12q44 0 80.5 24.5t61.5 65t38.5 90.5t13.5 101q0 64 -32.5 102.5t-89.5 38.5z" />
    <glyph glyph-name="eth" unicode="&#xf0;" horiz-adv-x="580" 
d="M292 734q86 -20 144 -66l125 47v-58l-83 -31q68 -89 68 -232q0 -40 -5.5 -85.5t-18.5 -91t-34.5 -87t-52.5 -73t-73.5 -50.5t-97.5 -19q-51 0 -89 15.5t-63.5 43t-38.5 66t-13 84.5q0 59 20 113t55.5 95t85.5 65t108 24q48 0 84 -18.5t53 -46.5h2q0 49 -17.5 92.5
t-47.5 76.5l-162 -61v57l113 43q-42 25 -93 35zM267 53q48 0 84 26t57.5 63t31.5 76t10 68q0 31 -6.5 56.5t-22 45.5t-39 30.5t-56.5 10.5q-45 0 -79 -21t-57 -53.5t-35 -73t-12 -79.5q0 -31 6.5 -57t21.5 -47.5t39.5 -33t56.5 -11.5z" />
    <glyph glyph-name="egrave" unicode="&#xe8;" horiz-adv-x="539" 
d="M413 7q-52 -19 -125 -19q-58 0 -101 16t-70.5 44t-41 66.5t-13.5 84.5q0 69 20 132t57 109.5t88 73t112 26.5q86 0 131.5 -46.5t45.5 -132.5q0 -20 -4 -51.5t-13 -68.5h-353q-1 -7 -1.5 -16.5t-0.5 -20.5q0 -72 40.5 -111.5t116.5 -39.5q30 0 56.5 4t55.5 13v-63z
M332 475q-35 0 -64.5 -13.5t-51.5 -37t-37 -53.5t-23 -63h280q6 25 6 48q0 57 -27.5 88t-82.5 31zM239 768h86l76 -164h-56z" />
    <glyph glyph-name="eacute" unicode="&#xe9;" horiz-adv-x="539" 
d="M413 7q-52 -19 -125 -19q-58 0 -101 16t-70.5 44t-41 66.5t-13.5 84.5q0 69 20 132t57 109.5t88 73t112 26.5q86 0 131.5 -46.5t45.5 -132.5q0 -20 -4 -51.5t-13 -68.5h-353q-1 -7 -1.5 -16.5t-0.5 -20.5q0 -72 40.5 -111.5t116.5 -39.5q30 0 56.5 4t55.5 13v-63z
M332 475q-35 0 -64.5 -13.5t-51.5 -37t-37 -53.5t-23 -63h280q6 25 6 48q0 57 -27.5 88t-82.5 31zM365 604h-61l126 164h91z" />
    <glyph glyph-name="ecircumflex" unicode="&#xea;" horiz-adv-x="539" 
d="M413 7q-52 -19 -125 -19q-58 0 -101 16t-70.5 44t-41 66.5t-13.5 84.5q0 69 20 132t57 109.5t88 73t112 26.5q86 0 131.5 -46.5t45.5 -132.5q0 -20 -4 -51.5t-13 -68.5h-353q-1 -7 -1.5 -16.5t-0.5 -20.5q0 -72 40.5 -111.5t116.5 -39.5q30 0 56.5 4t55.5 13v-63z
M332 475q-35 0 -64.5 -13.5t-51.5 -37t-37 -53.5t-23 -63h280q6 25 6 48q0 57 -27.5 88t-82.5 31zM460 604l-67 116l-116 -116h-73l153 164h83l84 -164h-64z" />
    <glyph glyph-name="ecaron" unicode="&#x11b;" horiz-adv-x="539" 
d="M413 7q-52 -19 -125 -19q-58 0 -101 16t-70.5 44t-41 66.5t-13.5 84.5q0 69 20 132t57 109.5t88 73t112 26.5q86 0 131.5 -46.5t45.5 -132.5q0 -20 -4 -51.5t-13 -68.5h-353q-1 -7 -1.5 -16.5t-0.5 -20.5q0 -72 40.5 -111.5t116.5 -39.5q30 0 56.5 4t55.5 13v-63z
M332 475q-35 0 -64.5 -13.5t-51.5 -37t-37 -53.5t-23 -63h280q6 25 6 48q0 57 -27.5 88t-82.5 31zM303 767l67 -116l116 116h72l-153 -164h-83l-84 164h65z" />
    <glyph glyph-name="edieresis" unicode="&#xeb;" horiz-adv-x="539" 
d="M413 7q-52 -19 -125 -19q-58 0 -101 16t-70.5 44t-41 66.5t-13.5 84.5q0 69 20 132t57 109.5t88 73t112 26.5q86 0 131.5 -46.5t45.5 -132.5q0 -20 -4 -51.5t-13 -68.5h-353q-1 -7 -1.5 -16.5t-0.5 -20.5q0 -72 40.5 -111.5t116.5 -39.5q30 0 56.5 4t55.5 13v-63z
M332 475q-35 0 -64.5 -13.5t-51.5 -37t-37 -53.5t-23 -63h280q6 25 6 48q0 57 -27.5 88t-82.5 31zM325 626h-82l20 94h82zM502 626h-81l20 94h81z" />
    <glyph glyph-name="emacron" unicode="&#x113;" horiz-adv-x="539" 
d="M413 7q-52 -19 -125 -19q-58 0 -101 16t-70.5 44t-41 66.5t-13.5 84.5q0 69 20 132t57 109.5t88 73t112 26.5q86 0 131.5 -46.5t45.5 -132.5q0 -20 -4 -51.5t-13 -68.5h-353q-1 -7 -1.5 -16.5t-0.5 -20.5q0 -72 40.5 -111.5t116.5 -39.5q30 0 56.5 4t55.5 13v-63z
M332 475q-35 0 -64.5 -13.5t-51.5 -37t-37 -53.5t-23 -63h280q6 25 6 48q0 57 -27.5 88t-82.5 31zM504 640h-257l13 60h257z" />
    <glyph glyph-name="ebreve" unicode="&#x115;" horiz-adv-x="539" 
d="M413 7q-52 -19 -125 -19q-58 0 -101 16t-70.5 44t-41 66.5t-13.5 84.5q0 69 20 132t57 109.5t88 73t112 26.5q86 0 131.5 -46.5t45.5 -132.5q0 -20 -4 -51.5t-13 -68.5h-353q-1 -7 -1.5 -16.5t-0.5 -20.5q0 -72 40.5 -111.5t116.5 -39.5q30 0 56.5 4t55.5 13v-63z
M332 475q-35 0 -64.5 -13.5t-51.5 -37t-37 -53.5t-23 -63h280q6 25 6 48q0 57 -27.5 88t-82.5 31zM540 748q-6 -30 -17 -55t-30.5 -44.5t-49 -30.5t-70.5 -11q-64 0 -97 28.5t-33 78.5q0 16 3 34h58q-3 -15 -3 -28q0 -28 18 -43t57 -15q46 0 71 20.5t33 65.5h60z" />
    <glyph glyph-name="edotaccent" unicode="&#x117;" horiz-adv-x="539" 
d="M413 7q-52 -19 -125 -19q-58 0 -101 16t-70.5 44t-41 66.5t-13.5 84.5q0 69 20 132t57 109.5t88 73t112 26.5q86 0 131.5 -46.5t45.5 -132.5q0 -20 -4 -51.5t-13 -68.5h-353q-1 -7 -1.5 -16.5t-0.5 -20.5q0 -72 40.5 -111.5t116.5 -39.5q30 0 56.5 4t55.5 13v-63z
M332 475q-35 0 -64.5 -13.5t-51.5 -37t-37 -53.5t-23 -63h280q6 25 6 48q0 57 -27.5 88t-82.5 31zM417 625h-94l21 98h94z" />
    <glyph glyph-name="eogonek" unicode="&#x119;" horiz-adv-x="539" 
d="M413 7q-8 -3 -15 -5t-18 -4q-26 -23 -43 -41t-27 -32t-14 -26t-4 -23q0 -17 11 -24.5t30 -7.5q14 0 29.5 3t29.5 9l-2 -46q-35 -15 -76 -15q-38 0 -60 17t-22 49q0 31 20.5 61.5t66.5 66.5q-13 -1 -18 -1h-13q-58 0 -101 16t-70.5 44t-41 67t-13.5 84q0 69 20 132
t56.5 109t87 73t113.5 27q89 0 133 -47.5t44 -131.5q0 -20 -4 -51.5t-13 -68.5h-353q-2 -17 -2 -26v-11q0 -70 39 -110.5t118 -40.5q30 0 56.5 4t55.5 13v-63zM332 475q-36 0 -64.5 -13.5t-51 -37t-37.5 -53.5t-23 -63h280q6 25 6 48q0 54 -26 86.5t-84 32.5z" />
    <glyph glyph-name="gcircumflex" unicode="&#x11d;" horiz-adv-x="592" 
d="M466 12q-12 -57 -36 -97t-58 -64.5t-76.5 -35t-91.5 -10.5q-37 0 -78 7t-74 19l19 64q31 -11 67 -18t69 -7q80 0 122 34.5t60 111.5l17 70h-2q-26 -36 -66.5 -57t-90.5 -21t-86.5 17t-58.5 47.5t-32 69.5t-10 81q0 64 20.5 122t56.5 101t86 68.5t108 25.5
q52 0 89.5 -21.5t56.5 -62.5h2l16 72h80zM330 475q-46 0 -81.5 -23.5t-59 -61.5t-35 -82t-11.5 -84q0 -30 5.5 -57t18.5 -48t34.5 -33.5t52.5 -12.5q46 0 82.5 22t61.5 58t38 83t13 98q0 68 -31 104.5t-88 36.5zM468 604l-67 116l-116 -116h-73l153 164h83l84 -164h-64z" />
    <glyph glyph-name="gbreve" unicode="&#x11f;" horiz-adv-x="592" 
d="M466 12q-12 -57 -36 -97t-58 -64.5t-76.5 -35t-91.5 -10.5q-37 0 -78 7t-74 19l19 64q31 -11 67 -18t69 -7q80 0 122 34.5t60 111.5l17 70h-2q-26 -36 -66.5 -57t-90.5 -21t-86.5 17t-58.5 47.5t-32 69.5t-10 81q0 64 20.5 122t56.5 101t86 68.5t108 25.5
q52 0 89.5 -21.5t56.5 -62.5h2l16 72h80zM330 475q-46 0 -81.5 -23.5t-59 -61.5t-35 -82t-11.5 -84q0 -30 5.5 -57t18.5 -48t34.5 -33.5t52.5 -12.5q46 0 82.5 22t61.5 58t38 83t13 98q0 68 -31 104.5t-88 36.5zM531 748q-6 -30 -17 -55t-30.5 -44.5t-49 -30.5t-70.5 -11
q-64 0 -97 28.5t-33 78.5q0 16 3 34h58q-3 -15 -3 -28q0 -28 18 -43t57 -15q46 0 71 20.5t33 65.5h60z" />
    <glyph glyph-name="gdotaccent" unicode="&#x121;" horiz-adv-x="592" 
d="M466 12q-12 -57 -36 -97t-58 -64.5t-76.5 -35t-91.5 -10.5q-37 0 -78 7t-74 19l19 64q31 -11 67 -18t69 -7q80 0 122 34.5t60 111.5l17 70h-2q-26 -36 -66.5 -57t-90.5 -21t-86.5 17t-58.5 47.5t-32 69.5t-10 81q0 64 20.5 122t56.5 101t86 68.5t108 25.5
q52 0 89.5 -21.5t56.5 -62.5h2l16 72h80zM330 475q-46 0 -81.5 -23.5t-59 -61.5t-35 -82t-11.5 -84q0 -30 5.5 -57t18.5 -48t34.5 -33.5t52.5 -12.5q46 0 82.5 22t61.5 58t38 83t13 98q0 68 -31 104.5t-88 36.5zM412 625h-94l21 98h94z" />
    <glyph glyph-name="gcommaaccent" unicode="&#x123;" horiz-adv-x="592" 
d="M466 12q-12 -57 -36 -97t-58 -64.5t-76.5 -35t-91.5 -10.5q-37 0 -78 7t-74 19l19 64q31 -11 67 -18t69 -7q80 0 122 34.5t60 111.5l17 70h-2q-26 -36 -66.5 -57t-90.5 -21t-86.5 17t-58.5 47.5t-32 69.5t-10 81q0 64 20.5 122t56.5 101t86 68.5t108 25.5
q52 0 89.5 -21.5t56.5 -62.5h2l16 72h80zM330 475q-46 0 -81.5 -23.5t-59 -61.5t-35 -82t-11.5 -84q0 -30 5.5 -57t18.5 -48t34.5 -33.5t52.5 -12.5q46 0 82.5 22t61.5 58t38 83t13 98q0 68 -31 104.5t-88 36.5zM425 768h57l-84 -164h-90z" />
    <glyph glyph-name="hcircumflex" unicode="&#x125;" horiz-adv-x="588" 
d="M281 735l-65 -303h2q29 50 73.5 79t97.5 29q40 0 68.5 -11.5t47 -31t27.5 -46.5t9 -57q0 -14 -3 -35.5t-6 -35.5l-67 -323h-82l67 316q4 18 7 36.5t3 32.5q0 16 -4 31.5t-14 28.5t-28.5 21.5t-44.5 8.5q-31 0 -60 -13.5t-54 -38.5t-43.5 -61.5t-28.5 -82.5l-58 -279h-82
l156 735h82zM504 794l-71 98l-112 -98h-73l149 146h83l88 -146h-64z" />
    <glyph glyph-name="hbar" unicode="&#x127;" horiz-adv-x="588" 
d="M281 735l-16 -75h92l-12 -57h-93l-36 -171h2q26 47 71 77.5t100 30.5q40 0 69 -11.5t47 -31t27 -46.5t9 -57q0 -14 -3 -35.5t-6 -35.5l-67 -323h-82l67 316q4 18 7 36.5t3 32.5q0 16 -4.5 32t-14.5 29t-28 21t-44 8q-31 0 -60 -13.5t-54 -38.5t-43.5 -61.5t-28.5 -82.5
l-58 -279h-82l128 603h-64l12 57h64l16 75h82z" />
    <glyph glyph-name="dotlessi" unicode="&#x131;" horiz-adv-x="251" 
d="M237 528l-112 -528h-82l112 528h82z" />
    <glyph glyph-name="igrave" unicode="&#xec;" horiz-adv-x="251" 
d="M237 528l-112 -528h-82l112 528h82zM90 768h86l76 -164h-56z" />
    <glyph glyph-name="iacute" unicode="&#xed;" horiz-adv-x="251" 
d="M237 528l-112 -528h-82l112 528h82zM235 604h-61l126 164h91z" />
    <glyph glyph-name="icircumflex" unicode="&#xee;" horiz-adv-x="251" 
d="M237 528l-112 -528h-82l112 528h82zM306 604l-67 116l-116 -116h-73l153 164h83l84 -164h-64z" />
    <glyph glyph-name="itilde" unicode="&#x129;" horiz-adv-x="251" 
d="M237 528l-112 -528h-82l112 528h82zM245 705q19 -18 30.5 -24.5t23.5 -6.5q20 0 33.5 19t18.5 49h59q-12 -59 -41 -92.5t-75 -33.5q-22 0 -40 9t-39 29q-20 18 -31.5 24.5t-22.5 6.5q-20 0 -33.5 -18.5t-19.5 -50.5h-59q11 57 41 91.5t76 34.5q23 0 41 -9t38 -28z" />
    <glyph glyph-name="idieresis" unicode="&#xef;" horiz-adv-x="251" 
d="M237 528l-112 -528h-82l112 528h82zM170 626h-82l20 94h82zM347 626h-81l20 94h81z" />
    <glyph glyph-name="imacron" unicode="&#x12b;" horiz-adv-x="251" 
d="M237 528l-112 -528h-82l112 528h82zM349 640h-257l13 60h257z" />
    <glyph glyph-name="ibreve" unicode="&#x12d;" horiz-adv-x="251" 
d="M237 528l-112 -528h-82l112 528h82zM391 748q-6 -30 -17 -55t-30.5 -44.5t-49 -30.5t-70.5 -11q-64 0 -97 28.5t-33 78.5q0 16 3 34h58q-3 -15 -3 -28q0 -28 18 -43t57 -15q46 0 71 20.5t33 65.5h60z" />
    <glyph glyph-name="iogonek" unicode="&#x12f;" horiz-adv-x="251" 
d="M237 528l-112 -528h-21q-27 -24 -44.5 -41.5t-28 -32.5t-14.5 -26.5t-4 -23.5q0 -16 10.5 -24t30.5 -8q14 0 29.5 3t29.5 9l-2 -46q-35 -15 -76 -15q-38 0 -60 17t-22 49q0 34 23 66t78 73h-11l112 528h82zM279 727l-19 -88h-88l19 88h88z" />
    <glyph glyph-name="dotlessj" unicode="&#x237;" horiz-adv-x="251" 
d="M120 -37q-8 -37 -19.5 -65t-31 -49t-48.5 -32.5t-72 -11.5q-13 0 -27.5 1t-28.5 3l10 65q13 -2 23.5 -3t22.5 -1q22 0 37 8t25 21.5t16 30.5t11 40l119 558h82z" />
    <glyph glyph-name="jcircumflex" unicode="&#x135;" horiz-adv-x="251" 
d="M120 -37q-8 -37 -19.5 -65t-31 -49t-48.5 -32.5t-72 -11.5q-13 0 -27.5 1t-28.5 3l10 65q13 -2 23.5 -3t22.5 -1q22 0 37 8t25 21.5t16 30.5t11 40l119 558h82zM308 604l-67 116l-116 -116h-73l153 164h83l84 -164h-64z" />
    <glyph glyph-name="kcommaaccent" unicode="&#x137;" horiz-adv-x="481" 
d="M537 528l-266 -242l186 -286h-96l-175 280h-2l-59 -280h-82l156 735h82l-93 -435h2l242 228h105zM169 -214h-59l80 156h92z" />
    <glyph glyph-name="kgreenlandic" unicode="&#x138;" horiz-adv-x="481" 
d="M537 528l-266 -242l186 -286h-96l-175 280h-2l-59 -280h-82l112 528h82l-49 -228h2l242 228h105z" />
    <glyph glyph-name="lacute" unicode="&#x13a;" horiz-adv-x="251" 
d="M282 801h-63l106 134h96zM281 735l-156 -735h-82l156 735h82z" />
    <glyph glyph-name="lcaron" unicode="&#x13e;" horiz-adv-x="251" 
d="M366 604h-52l47 164h79zM281 735l-156 -735h-82l156 735h82z" />
    <glyph glyph-name="lcommaaccent" unicode="&#x13c;" horiz-adv-x="251" 
d="M8 -214h-59l80 156h92zM281 735l-156 -735h-82l156 735h82z" />
    <glyph glyph-name="lslash" unicode="&#x142;" horiz-adv-x="251" 
d="M281 735l-56 -262l80 51l-13 -60l-80 -51l-87 -413h-82l75 355l-75 -48l13 60l75 48l68 320h82z" />
    <glyph glyph-name="ldot" unicode="&#x140;" horiz-adv-x="377" 
d="M281 735l-156 -735h-82l156 735h82zM391 338h-94l21 98h94z" />
    <glyph glyph-name="nacute" unicode="&#x144;" horiz-adv-x="588" 
d="M234 528l-22 -98h2q28 50 74.5 80t102.5 30q70 0 109.5 -38t39.5 -109q0 -30 -9 -75l-66 -318h-82l67 316q4 18 6.5 37t2.5 33q0 16 -4 31.5t-13.5 28.5t-26 21t-40.5 8q-34 0 -65 -14.5t-56.5 -41t-43.5 -62.5t-27 -78l-58 -279h-82l112 528h79zM400 604h-61l126 164h91
z" />
    <glyph glyph-name="ncaron" unicode="&#x148;" horiz-adv-x="588" 
d="M234 528l-22 -98h2q28 50 74.5 80t102.5 30q70 0 109.5 -38t39.5 -109q0 -30 -9 -75l-66 -318h-82l67 316q4 18 6.5 37t2.5 33q0 16 -4 31.5t-13.5 28.5t-26 21t-40.5 8q-34 0 -65 -14.5t-56.5 -41t-43.5 -62.5t-27 -78l-58 -279h-82l112 528h79zM336 767l67 -116
l116 116h72l-153 -164h-83l-84 164h65z" />
    <glyph glyph-name="ntilde" unicode="&#xf1;" horiz-adv-x="588" 
d="M234 528l-22 -98h2q28 50 74.5 80t102.5 30q70 0 109.5 -38t39.5 -109q0 -30 -9 -75l-66 -318h-82l67 316q4 18 6.5 37t2.5 33q0 16 -4 31.5t-13.5 28.5t-26 21t-40.5 8q-34 0 -65 -14.5t-56.5 -41t-43.5 -62.5t-27 -78l-58 -279h-82l112 528h79zM418 705
q19 -18 30.5 -24.5t23.5 -6.5q20 0 33.5 19t18.5 49h59q-12 -59 -41 -92.5t-75 -33.5q-22 0 -40 9t-39 29q-20 18 -31.5 24.5t-22.5 6.5q-20 0 -33.5 -18.5t-19.5 -50.5h-59q11 57 41 91.5t76 34.5q23 0 41 -9t38 -28z" />
    <glyph glyph-name="ncommaaccent" unicode="&#x146;" horiz-adv-x="588" 
d="M234 528l-22 -98h2q28 50 74.5 80t102.5 30q70 0 109.5 -38t39.5 -109q0 -30 -9 -75l-66 -318h-82l67 316q4 18 6.5 37t2.5 33q0 16 -4 31.5t-13.5 28.5t-26 21t-40.5 8q-34 0 -65 -14.5t-56.5 -41t-43.5 -62.5t-27 -78l-58 -279h-82l112 528h79zM183 -214h-59l80 156h92
z" />
    <glyph glyph-name="eng" unicode="&#x14b;" horiz-adv-x="588" 
d="M457 -37q-8 -37 -19 -64.5t-30.5 -49t-48.5 -33t-72 -11.5q-13 0 -27.5 1t-28.5 3l10 65q13 -2 23.5 -3t22.5 -1q22 0 37 8t25 21.5t16 31t11 39.5l74 346q4 18 6.5 37t2.5 33q0 16 -4 31.5t-13.5 28.5t-26 21t-40.5 8q-34 0 -65 -14.5t-56.5 -41t-43.5 -62t-27 -78.5
l-58 -279h-82l112 528h79l-22 -98h2q30 52 76 81t101 29q72 0 110.5 -39t38.5 -108q0 -30 -9 -75z" />
    <glyph glyph-name="ograve" unicode="&#xf2;" horiz-adv-x="580" 
d="M543 335q0 -54 -16.5 -114.5t-50.5 -113.5t-89 -86t-123 -33q-53 0 -91 15.5t-63.5 43.5t-37.5 66t-12 84q0 70 20.5 132.5t57.5 109.5t89 74t112 27q52 0 91 -15t64 -42t37 -64.5t12 -83.5zM267 53q48 0 86.5 28t61.5 72t34 92t11 87q0 31 -6.5 57t-21 45t-38.5 30
t-58 11q-45 0 -81.5 -23.5t-61.5 -62.5t-37.5 -88t-12.5 -99q0 -31 7 -58.5t21.5 -47.5t38 -31.5t57.5 -11.5zM258 768h86l76 -164h-56z" />
    <glyph glyph-name="oacute" unicode="&#xf3;" horiz-adv-x="580" 
d="M543 335q0 -54 -16.5 -114.5t-50.5 -113.5t-89 -86t-123 -33q-53 0 -91 15.5t-63.5 43.5t-37.5 66t-12 84q0 70 20.5 132.5t57.5 109.5t89 74t112 27q52 0 91 -15t64 -42t37 -64.5t12 -83.5zM267 53q48 0 86.5 28t61.5 72t34 92t11 87q0 31 -6.5 57t-21 45t-38.5 30
t-58 11q-45 0 -81.5 -23.5t-61.5 -62.5t-37.5 -88t-12.5 -99q0 -31 7 -58.5t21.5 -47.5t38 -31.5t57.5 -11.5zM382 604h-61l126 164h91z" />
    <glyph glyph-name="ocircumflex" unicode="&#xf4;" horiz-adv-x="580" 
d="M543 335q0 -54 -16.5 -114.5t-50.5 -113.5t-89 -86t-123 -33q-53 0 -91 15.5t-63.5 43.5t-37.5 66t-12 84q0 70 20.5 132.5t57.5 109.5t89 74t112 27q52 0 91 -15t64 -42t37 -64.5t12 -83.5zM267 53q48 0 86.5 28t61.5 72t34 92t11 87q0 31 -6.5 57t-21 45t-38.5 30
t-58 11q-45 0 -81.5 -23.5t-61.5 -62.5t-37.5 -88t-12.5 -99q0 -31 7 -58.5t21.5 -47.5t38 -31.5t57.5 -11.5zM469 604l-67 116l-116 -116h-73l153 164h83l84 -164h-64z" />
    <glyph glyph-name="otilde" unicode="&#xf5;" horiz-adv-x="580" 
d="M543 335q0 -54 -16.5 -114.5t-50.5 -113.5t-89 -86t-123 -33q-53 0 -91 15.5t-63.5 43.5t-37.5 66t-12 84q0 70 20.5 132.5t57.5 109.5t89 74t112 27q52 0 91 -15t64 -42t37 -64.5t12 -83.5zM267 53q48 0 86.5 28t61.5 72t34 92t11 87q0 31 -6.5 57t-21 45t-38.5 30
t-58 11q-45 0 -81.5 -23.5t-61.5 -62.5t-37.5 -88t-12.5 -99q0 -31 7 -58.5t21.5 -47.5t38 -31.5t57.5 -11.5zM409 705q19 -18 30.5 -24.5t23.5 -6.5q20 0 33.5 19t18.5 49h59q-12 -59 -41 -92.5t-75 -33.5q-22 0 -40 9t-39 29q-20 18 -31.5 24.5t-22.5 6.5
q-20 0 -33.5 -18.5t-19.5 -50.5h-59q11 57 41 91.5t76 34.5q23 0 41 -9t38 -28z" />
    <glyph glyph-name="odieresis" unicode="&#xf6;" horiz-adv-x="580" 
d="M543 335q0 -54 -16.5 -114.5t-50.5 -113.5t-89 -86t-123 -33q-53 0 -91 15.5t-63.5 43.5t-37.5 66t-12 84q0 70 20.5 132.5t57.5 109.5t89 74t112 27q52 0 91 -15t64 -42t37 -64.5t12 -83.5zM267 53q48 0 86.5 28t61.5 72t34 92t11 87q0 31 -6.5 57t-21 45t-38.5 30
t-58 11q-45 0 -81.5 -23.5t-61.5 -62.5t-37.5 -88t-12.5 -99q0 -31 7 -58.5t21.5 -47.5t38 -31.5t57.5 -11.5zM330 626h-82l20 94h82zM507 626h-81l20 94h81z" />
    <glyph glyph-name="omacron" unicode="&#x14d;" horiz-adv-x="580" 
d="M543 335q0 -54 -16.5 -114.5t-50.5 -113.5t-89 -86t-123 -33q-53 0 -91 15.5t-63.5 43.5t-37.5 66t-12 84q0 70 20.5 132.5t57.5 109.5t89 74t112 27q52 0 91 -15t64 -42t37 -64.5t12 -83.5zM267 53q48 0 86.5 28t61.5 72t34 92t11 87q0 31 -6.5 57t-21 45t-38.5 30
t-58 11q-45 0 -81.5 -23.5t-61.5 -62.5t-37.5 -88t-12.5 -99q0 -31 7 -58.5t21.5 -47.5t38 -31.5t57.5 -11.5zM508 640h-257l13 60h257z" />
    <glyph glyph-name="obreve" unicode="&#x14f;" horiz-adv-x="580" 
d="M543 335q0 -54 -16.5 -114.5t-50.5 -113.5t-89 -86t-123 -33q-53 0 -91 15.5t-63.5 43.5t-37.5 66t-12 84q0 70 20.5 132.5t57.5 109.5t89 74t112 27q52 0 91 -15t64 -42t37 -64.5t12 -83.5zM267 53q48 0 86.5 28t61.5 72t34 92t11 87q0 31 -6.5 57t-21 45t-38.5 30
t-58 11q-45 0 -81.5 -23.5t-61.5 -62.5t-37.5 -88t-12.5 -99q0 -31 7 -58.5t21.5 -47.5t38 -31.5t57.5 -11.5zM550 748q-6 -30 -17 -55t-30.5 -44.5t-49 -30.5t-70.5 -11q-64 0 -97 28.5t-33 78.5q0 16 3 34h58q-3 -15 -3 -28q0 -28 18 -43t57 -15q46 0 71 20.5t33 65.5h60z
" />
    <glyph glyph-name="ohungarumlaut" unicode="&#x151;" horiz-adv-x="580" 
d="M543 335q0 -54 -16.5 -114.5t-50.5 -113.5t-89 -86t-123 -33q-53 0 -91 15.5t-63.5 43.5t-37.5 66t-12 84q0 70 20.5 132.5t57.5 109.5t89 74t112 27q52 0 91 -15t64 -42t37 -64.5t12 -83.5zM267 53q48 0 86.5 28t61.5 72t34 92t11 87q0 31 -6.5 57t-21 45t-38.5 30
t-58 11q-45 0 -81.5 -23.5t-61.5 -62.5t-37.5 -88t-12.5 -99q0 -31 7 -58.5t21.5 -47.5t38 -31.5t57.5 -11.5zM325 604h-55l107 164h87zM458 604h-56l118 164h92z" />
    <glyph glyph-name="oslash" unicode="&#xf8;" horiz-adv-x="580" 
d="M6 15l76 72q-11 23 -16.5 51t-5.5 59q0 70 20.5 132.5t57.5 109t88.5 74t112.5 27.5q54 0 92.5 -15.5t64.5 -44.5l64 61l29 -31l-69 -66q23 -48 23 -109q0 -54 -16.5 -115t-50.5 -113.5t-88 -85.5t-124 -33q-55 0 -94 16.5t-65 46.5l-70 -67zM267 53q50 0 87.5 28.5
t60.5 71.5t34 91t11 88q0 25 -5 50l-291 -275q14 -25 40 -39.5t63 -14.5zM143 202q0 -14 1 -27t4 -25l290 275q-14 23 -39 36.5t-63 13.5q-45 0 -81.5 -23.5t-61.5 -63t-37.5 -88t-12.5 -98.5z" />
    <glyph glyph-name="oe" unicode="&#x153;" horiz-adv-x="920" 
d="M794 7q-53 -19 -125 -19q-78 0 -128.5 30.5t-73.5 84.5q-35 -57 -85.5 -86t-117.5 -29q-53 0 -91.5 15.5t-63.5 43.5t-37 66t-12 84q0 70 20.5 132.5t58 109.5t89 74t111.5 27q69 0 115.5 -29t63.5 -80q35 53 87.5 81t114.5 28q89 0 133 -47.5t44 -131.5q0 -20 -4 -51.5
t-13 -68.5h-353q-2 -11 -2 -19v-18q0 -71 39.5 -111t117.5 -40q30 0 56.5 4t55.5 13v-63zM267 53q49 0 87 28.5t61 72t34 91.5t11 87q0 31 -7 57t-21.5 45t-38 30t-57.5 11q-45 0 -81.5 -23.5t-61.5 -63t-37.5 -88t-12.5 -98.5q0 -31 6.5 -57.5t21.5 -47.5t39 -32.5
t57 -11.5zM713 475q-36 0 -65 -13.5t-51 -37t-37 -53.5t-23 -63h280q6 25 6 48q0 54 -26 86.5t-84 32.5z" />
    <glyph glyph-name="racute" unicode="&#x155;" horiz-adv-x="352" 
d="M396 471q-8 2 -17 3t-19 1q-62 0 -108.5 -47t-65.5 -136l-61 -292h-82l112 528h79l-19 -82h2q23 42 62.5 68t95.5 26q10 0 20 -0.5t17 -2.5zM302 604h-61l126 164h91z" />
    <glyph glyph-name="rcaron" unicode="&#x159;" horiz-adv-x="352" 
d="M396 471q-8 2 -17 3t-19 1q-62 0 -108.5 -47t-65.5 -136l-61 -292h-82l112 528h79l-19 -82h2q23 42 62.5 68t95.5 26q10 0 20 -0.5t17 -2.5zM225 767l67 -116l116 116h72l-153 -164h-83l-84 164h65z" />
    <glyph glyph-name="rcommaaccent" unicode="&#x157;" horiz-adv-x="352" 
d="M396 471q-8 2 -17 3t-19 1q-62 0 -108.5 -47t-65.5 -136l-61 -292h-82l112 528h79l-19 -82h2q23 42 62.5 68t95.5 26q10 0 20 -0.5t17 -2.5zM13 -214h-59l80 156h92z" />
    <glyph glyph-name="sacute" unicode="&#x15b;" horiz-adv-x="410" 
d="M387 450q-59 25 -115 25q-14 0 -34 -3t-37 -12t-27.5 -24t-10.5 -39q0 -28 20 -50.5t60 -48.5q55 -36 84 -74t29 -87q0 -42 -16 -70.5t-42.5 -46t-61.5 -25t-72 -7.5q-17 0 -38 2t-43.5 6t-43.5 10t-40 14l23 65q39 -17 75.5 -24.5t65.5 -7.5q55 0 84.5 20t29.5 58
q0 32 -21.5 57.5t-62.5 52.5q-54 36 -81 70t-27 81q0 39 16.5 67.5t44 46.5t60.5 26t66 8q36 0 71 -6.5t65 -18.5zM307 604h-61l126 164h91z" />
    <glyph glyph-name="scircumflex" unicode="&#x15d;" horiz-adv-x="410" 
d="M387 450q-59 25 -115 25q-14 0 -34 -3t-37 -12t-27.5 -24t-10.5 -39q0 -28 20 -50.5t60 -48.5q55 -36 84 -74t29 -87q0 -42 -16 -70.5t-42.5 -46t-61.5 -25t-72 -7.5q-17 0 -38 2t-43.5 6t-43.5 10t-40 14l23 65q39 -17 75.5 -24.5t65.5 -7.5q55 0 84.5 20t29.5 58
q0 32 -21.5 57.5t-62.5 52.5q-54 36 -81 70t-27 81q0 39 16.5 67.5t44 46.5t60.5 26t66 8q36 0 71 -6.5t65 -18.5zM385 604l-67 116l-116 -116h-73l153 164h83l84 -164h-64z" />
    <glyph glyph-name="scaron" unicode="&#x161;" horiz-adv-x="410" 
d="M387 450q-59 25 -115 25q-14 0 -34 -3t-37 -12t-27.5 -24t-10.5 -39q0 -28 20 -50.5t60 -48.5q55 -36 84 -74t29 -87q0 -42 -16 -70.5t-42.5 -46t-61.5 -25t-72 -7.5q-17 0 -38 2t-43.5 6t-43.5 10t-40 14l23 65q39 -17 75.5 -24.5t65.5 -7.5q55 0 84.5 20t29.5 58
q0 32 -21.5 57.5t-62.5 52.5q-54 36 -81 70t-27 81q0 39 16.5 67.5t44 46.5t60.5 26t66 8q36 0 71 -6.5t65 -18.5zM231 767l67 -116l116 116h72l-153 -164h-83l-84 164h65z" />
    <glyph glyph-name="scedilla" unicode="&#x15f;" horiz-adv-x="410" 
d="M387 450q-59 25 -115 25q-17 0 -36.5 -3t-35.5 -12t-26.5 -24t-10.5 -39q0 -30 21 -51.5t59 -47.5q52 -35 82.5 -72t30.5 -89q0 -41 -15 -68.5t-39.5 -45t-57 -26t-68.5 -9.5l-19 -46q13 1 15 1h7q34 0 53.5 -17.5t19.5 -48.5q0 -28 -11.5 -46t-29.5 -27.5t-39.5 -13.5
t-46.5 -4q-12 0 -26 1.5t-28 4.5l7 43q13 -2 24 -3t22 -1q12 0 24.5 1.5t23 6t16.5 13t6 21.5q0 17 -13 23.5t-41 6.5q-8 0 -18 -0.5t-23 -1.5l31 89q-31 2 -65.5 9.5t-65.5 20.5l23 65q38 -17 75 -24.5t66 -7.5q50 0 82 18t32 60q0 34 -22 58.5t-62 51.5q-51 35 -79.5 68
t-28.5 83q0 40 16.5 68t43.5 46t60.5 26t66.5 8q36 0 71 -6.5t65 -18.5z" />
    <glyph glyph-name="scommaaccent" unicode="&#x219;" horiz-adv-x="410" 
d="M387 450q-59 25 -115 25q-14 0 -34 -3t-37 -12t-27.5 -24t-10.5 -39q0 -28 20 -50.5t60 -48.5q55 -36 84 -74t29 -87q0 -42 -16 -70.5t-42.5 -46t-61.5 -25t-72 -7.5q-17 0 -38 2t-43.5 6t-43.5 10t-40 14l23 65q39 -17 75.5 -24.5t65.5 -7.5q55 0 84.5 20t29.5 58
q0 32 -21.5 57.5t-62.5 52.5q-54 36 -81 70t-27 81q0 39 16.5 67.5t44 46.5t60.5 26t66 8q36 0 71 -6.5t65 -18.5zM102 -214h-59l80 156h92z" />
    <glyph glyph-name="germandbls" unicode="&#xdf;" horiz-adv-x="638" 
d="M419 735q90 0 143 -47.5t53 -129.5q0 -36 -12.5 -67.5t-36 -56t-57.5 -40.5t-78 -21v-2q67 -9 106.5 -53.5t39.5 -108.5q0 -50 -16 -91t-47 -70t-74.5 -44.5t-99.5 -15.5q-16 0 -34 1.5t-36 4.5t-32.5 7t-26.5 10l22 63q22 -10 50.5 -15.5t55.5 -5.5q73 0 113.5 41
t40.5 111q0 27 -9 50t-27 40t-48 27t-70 10l15 71q34 2 66.5 12.5t57 29t39 45.5t14.5 61q0 30 -9.5 52t-25.5 35t-39 19.5t-49 6.5q-69 0 -115 -44.5t-66 -138.5l-102 -481h-82l103 487q50 248 273 248z" />
    <glyph glyph-name="tcaron" unicode="&#x165;" horiz-adv-x="344" 
d="M78 528h100l28 133h80l-28 -133h119l-15 -65h-119l-66 -317q-7 -31 -7 -46q0 -23 14.5 -32t46.5 -9q17 0 36.5 1t28.5 2l-11 -62q-12 -2 -37 -4t-51 -2q-55 0 -81.5 22t-26.5 69q0 12 2.5 31t6.5 38l65 309h-100zM412 604h-52l47 164h79z" />
    <glyph glyph-name="uni0163" unicode="&#x163;" horiz-adv-x="344" 
d="M78 528h100l28 133h80l-28 -133h119l-15 -65h-119l-66 -317q-7 -31 -7 -46q0 -23 14.5 -32t46.5 -9q17 0 36.5 1t28.5 2l-11 -62q-12 -2 -37 -4t-51 -2q-55 0 -81.5 22t-26.5 69q0 12 2.5 31t6.5 38l65 309h-100zM84 -214h-59l80 156h92z" />
    <glyph glyph-name="uni021B" unicode="&#x21b;" horiz-adv-x="344" 
d="M78 528h100l28 133h80l-28 -133h119l-15 -65h-119l-66 -317q-7 -31 -7 -46q0 -23 14.5 -32t46.5 -9q17 0 36.5 1t28.5 2l-11 -62q-12 -2 -37 -4t-51 -2q-55 0 -81.5 22t-26.5 69q0 12 2.5 31t6.5 38l65 309h-100zM84 -214h-59l80 156h92z" />
    <glyph glyph-name="tbar" unicode="&#x167;" horiz-adv-x="344" 
d="M78 528h100l28 133h80l-28 -133h119l-15 -65h-119l-35 -166h91l-10 -46h-90l-22 -105q-7 -31 -7 -46q0 -22 13.5 -31.5t47.5 -9.5q17 0 36 1t29 2l-11 -62q-12 -2 -37 -4t-51 -2q-56 0 -82 22t-26 69q0 13 2.5 31t6.5 38l20 97h-76l10 46h76l35 166h-100z" />
    <glyph glyph-name="thorn" unicode="&#xfe;" horiz-adv-x="592" 
d="M81 -195h-81l199 930h82l-63 -283h2q25 39 66.5 63.5t90.5 24.5q50 0 87 -18.5t58 -50t29.5 -69.5t8.5 -77q0 -68 -19.5 -129.5t-54.5 -107.5t-86 -73t-111 -27q-57 0 -94 20.5t-56 61.5h-2zM290 53q47 0 82.5 26.5t59 68t34.5 88.5t11 88q0 30 -6 57.5t-19.5 48.5
t-36 33t-53.5 12q-43 0 -80 -24.5t-62 -65t-38.5 -90.5t-13.5 -101q0 -65 31.5 -103t90.5 -38z" />
    <glyph glyph-name="ugrave" unicode="&#xf9;" horiz-adv-x="588" 
d="M377 0l22 98h-2q-27 -49 -74.5 -79.5t-104.5 -30.5q-38 0 -66 11t-46 30.5t-26.5 46.5t-8.5 59q0 30 9 75l66 318h82l-67 -316q-4 -20 -6.5 -38t-2.5 -32q0 -16 3.5 -31.5t12.5 -28.5t25 -21t40 -8q34 0 65.5 14.5t57.5 41t44.5 62t27.5 78.5l58 279h82l-112 -528h-79z
M252 768h86l76 -164h-56z" />
    <glyph glyph-name="uacute" unicode="&#xfa;" horiz-adv-x="588" 
d="M377 0l22 98h-2q-27 -49 -74.5 -79.5t-104.5 -30.5q-38 0 -66 11t-46 30.5t-26.5 46.5t-8.5 59q0 30 9 75l66 318h82l-67 -316q-4 -20 -6.5 -38t-2.5 -32q0 -16 3.5 -31.5t12.5 -28.5t25 -21t40 -8q34 0 65.5 14.5t57.5 41t44.5 62t27.5 78.5l58 279h82l-112 -528h-79z
M392 604h-61l126 164h91z" />
    <glyph glyph-name="ucircumflex" unicode="&#xfb;" horiz-adv-x="588" 
d="M377 0l22 98h-2q-27 -49 -74.5 -79.5t-104.5 -30.5q-38 0 -66 11t-46 30.5t-26.5 46.5t-8.5 59q0 30 9 75l66 318h82l-67 -316q-4 -20 -6.5 -38t-2.5 -32q0 -16 3.5 -31.5t12.5 -28.5t25 -21t40 -8q34 0 65.5 14.5t57.5 41t44.5 62t27.5 78.5l58 279h82l-112 -528h-79z
M466 604l-67 116l-116 -116h-73l153 164h83l84 -164h-64z" />
    <glyph glyph-name="utilde" unicode="&#x169;" horiz-adv-x="588" 
d="M377 0l22 98h-2q-27 -49 -74.5 -79.5t-104.5 -30.5q-38 0 -66 11t-46 30.5t-26.5 46.5t-8.5 59q0 30 9 75l66 318h82l-67 -316q-4 -20 -6.5 -38t-2.5 -32q0 -16 3.5 -31.5t12.5 -28.5t25 -21t40 -8q34 0 65.5 14.5t57.5 41t44.5 62t27.5 78.5l58 279h82l-112 -528h-79z
M407 705q19 -18 30.5 -24.5t23.5 -6.5q20 0 33.5 19t18.5 49h59q-12 -59 -41 -92.5t-75 -33.5q-22 0 -40 9t-39 29q-20 18 -31.5 24.5t-22.5 6.5q-20 0 -33.5 -18.5t-19.5 -50.5h-59q11 57 41 91.5t76 34.5q23 0 41 -9t38 -28z" />
    <glyph glyph-name="udieresis" unicode="&#xfc;" horiz-adv-x="588" 
d="M377 0l22 98h-2q-27 -49 -74.5 -79.5t-104.5 -30.5q-38 0 -66 11t-46 30.5t-26.5 46.5t-8.5 59q0 30 9 75l66 318h82l-67 -316q-4 -20 -6.5 -38t-2.5 -32q0 -16 3.5 -31.5t12.5 -28.5t25 -21t40 -8q34 0 65.5 14.5t57.5 41t44.5 62t27.5 78.5l58 279h82l-112 -528h-79z
M333 626h-82l20 94h82zM510 626h-81l20 94h81z" />
    <glyph glyph-name="umacron" unicode="&#x16b;" horiz-adv-x="588" 
d="M377 0l22 98h-2q-27 -49 -74.5 -79.5t-104.5 -30.5q-38 0 -66 11t-46 30.5t-26.5 46.5t-8.5 59q0 30 9 75l66 318h82l-67 -316q-4 -20 -6.5 -38t-2.5 -32q0 -16 3.5 -31.5t12.5 -28.5t25 -21t40 -8q34 0 65.5 14.5t57.5 41t44.5 62t27.5 78.5l58 279h82l-112 -528h-79z
M511 640h-257l13 60h257z" />
    <glyph glyph-name="ubreve" unicode="&#x16d;" horiz-adv-x="588" 
d="M377 0l22 98h-2q-27 -49 -74.5 -79.5t-104.5 -30.5q-38 0 -66 11t-46 30.5t-26.5 46.5t-8.5 59q0 30 9 75l66 318h82l-67 -316q-4 -20 -6.5 -38t-2.5 -32q0 -16 3.5 -31.5t12.5 -28.5t25 -21t40 -8q34 0 65.5 14.5t57.5 41t44.5 62t27.5 78.5l58 279h82l-112 -528h-79z
M550 748q-6 -30 -17 -55t-30.5 -44.5t-49 -30.5t-70.5 -11q-64 0 -97 28.5t-33 78.5q0 16 3 34h58q-3 -15 -3 -28q0 -28 18 -43t57 -15q46 0 71 20.5t33 65.5h60z" />
    <glyph glyph-name="uring" unicode="&#x16f;" horiz-adv-x="588" 
d="M377 0l22 98h-2q-27 -49 -74.5 -79.5t-104.5 -30.5q-38 0 -66 11t-46 30.5t-26.5 46.5t-8.5 59q0 30 9 75l66 318h82l-67 -316q-4 -20 -6.5 -38t-2.5 -32q0 -16 3.5 -31.5t12.5 -28.5t25 -21t40 -8q34 0 65.5 14.5t57.5 41t44.5 62t27.5 78.5l58 279h82l-112 -528h-79z
M394 757q-25 0 -43.5 -18t-18.5 -43q0 -26 18.5 -44.5t44.5 -18.5q25 0 43 18.5t18 44.5t-18.5 43.5t-43.5 17.5zM396 795q20 0 38 -8t31.5 -22t21 -31.5t7.5 -37.5q0 -21 -7.5 -39t-21.5 -32t-32 -21.5t-38 -7.5q-21 0 -39 7.5t-32 21t-22 32t-8 39.5t8 39t22 31.5t32.5 21
t39.5 7.5z" />
    <glyph glyph-name="uhungarumlaut" unicode="&#x171;" horiz-adv-x="588" 
d="M377 0l22 98h-2q-27 -49 -74.5 -79.5t-104.5 -30.5q-38 0 -66 11t-46 30.5t-26.5 46.5t-8.5 59q0 30 9 75l66 318h82l-67 -316q-4 -20 -6.5 -38t-2.5 -32q0 -16 3.5 -31.5t12.5 -28.5t25 -21t40 -8q34 0 65.5 14.5t57.5 41t44.5 62t27.5 78.5l58 279h82l-112 -528h-79z
M326 604h-55l107 164h87zM459 604h-56l118 164h92z" />
    <glyph glyph-name="uogonek" unicode="&#x173;" horiz-adv-x="588" 
d="M426 0q-27 -24 -44.5 -41.5t-28 -32.5t-14.5 -26.5t-4 -23.5q0 -16 10.5 -24t30.5 -8q14 0 29.5 3t29.5 9l-2 -46q-35 -15 -76 -15q-38 0 -60 17t-22 49q0 33 23.5 65.5t78.5 73.5l22 98h-2q-27 -48 -73.5 -79t-105.5 -31q-38 0 -66 11t-46 30.5t-26.5 46.5t-8.5 59
q0 30 9 75l66 318h82l-67 -316q-4 -18 -6.5 -37t-2.5 -33q0 -16 3.5 -31.5t12.5 -28.5t25 -21t40 -8q34 0 65.5 14.5t57.5 41t44.5 62t27.5 78.5l58 279h82l-112 -528h-30z" />
    <glyph glyph-name="wcircumflex" unicode="&#x175;" horiz-adv-x="795" 
d="M513 72h2l242 456h90l-295 -528h-111l14 458h-2l-239 -458h-111l-5 528h83l-7 -456h2l238 456h118zM583 604l-67 116l-116 -116h-73l153 164h83l84 -164h-64z" />
    <glyph glyph-name="wacute" unicode="&#x1e83;" horiz-adv-x="795" 
d="M513 72h2l242 456h90l-295 -528h-111l14 458h-2l-239 -458h-111l-5 528h83l-7 -456h2l238 456h118zM508 604h-61l126 164h91z" />
    <glyph glyph-name="wdieresis" unicode="&#x1e85;" horiz-adv-x="795" 
d="M513 72h2l242 456h90l-295 -528h-111l14 458h-2l-239 -458h-111l-5 528h83l-7 -456h2l238 456h118zM444 626h-82l20 94h82zM621 626h-81l20 94h81z" />
    <glyph glyph-name="wgrave" unicode="&#x1e81;" horiz-adv-x="795" 
d="M513 72h2l242 456h90l-295 -528h-111l14 458h-2l-239 -458h-111l-5 528h83l-7 -456h2l238 456h118zM371 768h86l76 -164h-56z" />
    <glyph glyph-name="yacute" unicode="&#xfd;" horiz-adv-x="494" 
d="M206 95h2l265 433h90l-464 -723h-89l127 197l-46 526h83zM353 604h-61l126 164h91z" />
    <glyph glyph-name="ycircumflex" unicode="&#x177;" horiz-adv-x="494" 
d="M206 95h2l265 433h90l-464 -723h-89l127 197l-46 526h83zM435 604l-67 116l-116 -116h-73l153 164h83l84 -164h-64z" />
    <glyph glyph-name="ydieresis" unicode="&#xff;" horiz-adv-x="494" 
d="M206 95h2l265 433h90l-464 -723h-89l127 197l-46 526h83zM291 626h-82l20 94h82zM468 626h-81l20 94h81z" />
    <glyph glyph-name="ygrave" unicode="&#x1ef3;" horiz-adv-x="494" 
d="M206 95h2l265 433h90l-464 -723h-89l127 197l-46 526h83zM209 768h86l76 -164h-56z" />
    <glyph glyph-name="zacute" unicode="&#x17a;" horiz-adv-x="486" 
d="M379 463h-261l15 65h360l-15 -65l-349 -398h290l-14 -65h-392l13 65zM333 604h-61l126 164h91z" />
    <glyph glyph-name="zcaron" unicode="&#x17e;" horiz-adv-x="486" 
d="M379 463h-261l15 65h360l-15 -65l-349 -398h290l-14 -65h-392l13 65zM262 767l67 -116l116 116h72l-153 -164h-83l-84 164h65z" />
    <glyph glyph-name="zdotaccent" unicode="&#x17c;" horiz-adv-x="486" 
d="M379 463h-261l15 65h360l-15 -65l-349 -398h290l-14 -65h-392l13 65zM371 625h-94l21 98h94z" />
    <glyph glyph-name="f_i" unicode="&#xf001;" horiz-adv-x="576" 
d="M576 659q-35 6 -72 8.5t-76 2.5q-37 0 -64.5 -6.5t-46 -20t-30 -35.5t-17.5 -51l-6 -29h298l-112 -528h-82l98 463h-217l-97 -463h-80l97 463h-108l15 65h108l9 41q9 41 25.5 71t45.5 51.5t72 32.5t104 11q46 0 86 -3.5t69 -8.5z" />
    <glyph glyph-name="f_l" unicode="&#xf002;" horiz-adv-x="576" 
d="M429 670q-73 0 -109.5 -25.5t-49.5 -87.5l-6 -29h123l-15 -65h-123l-97 -463h-80l97 463h-108l15 65h108l9 41q9 42 25.5 71.5t45.5 51t72 32.5t104 11q45 0 86.5 -3.5t76.5 -9.5l-153 -722h-82l141 667q-28 2 -49 2.5t-31 0.5z" />
    <glyph glyph-name="grave.cap" horiz-adv-x="465" 
d="M294 897l88 -134h-59l-120 134h91z" />
    <glyph glyph-name="acute" unicode="&#xb4;" horiz-adv-x="465" 
d="M324 604h-61l126 164h91z" />
    <glyph glyph-name="acute.cap" horiz-adv-x="465" 
d="M349 763h-63l106 134h96z" />
    <glyph glyph-name="circumflex" unicode="&#x2c6;" horiz-adv-x="465" 
d="M402 604l-67 116l-116 -116h-73l153 164h83l84 -164h-64z" />
    <glyph glyph-name="circumflex.cap" horiz-adv-x="465" 
d="M424 756l-71 98l-112 -98h-73l149 146h83l88 -146h-64z" />
    <glyph glyph-name="caron" unicode="&#x2c7;" horiz-adv-x="465" 
d="M250 767l67 -116l116 116h72l-153 -164h-83l-84 164h65z" />
    <glyph glyph-name="caron.cap" horiz-adv-x="465" 
d="M268 901l71 -97l112 97h72l-149 -146h-83l-88 146h65z" />
    <glyph glyph-name="caron.alt" horiz-adv-x="465" 
d="M306 604h-52l47 164h79z" />
    <glyph glyph-name="tilde" unicode="&#x2dc;" horiz-adv-x="465" 
d="M343 705q19 -18 30.5 -24.5t23.5 -6.5q20 0 33.5 19t18.5 49h59q-12 -59 -41 -92.5t-75 -33.5q-22 0 -40 9t-39 29q-20 18 -31.5 24.5t-22.5 6.5q-20 0 -33.5 -18.5t-19.5 -50.5h-59q11 57 41 91.5t76 34.5q23 0 41 -9t38 -28z" />
    <glyph glyph-name="tilde.cap" horiz-adv-x="465" 
d="M368 853q18 -17 29.5 -23.5t24.5 -6.5q20 0 33.5 18.5t18.5 49.5h59q-12 -60 -41 -93t-72 -33q-23 0 -40.5 9t-40.5 30q-20 18 -32 24t-23 6q-20 0 -33.5 -18t-19.5 -51h-59q10 57 39.5 91.5t73.5 34.5q23 0 41.5 -9t41.5 -29z" />
    <glyph glyph-name="dieresis" unicode="&#xa8;" horiz-adv-x="465" 
d="M266 626h-82l20 94h82zM443 626h-81l20 94h81z" />
    <glyph glyph-name="dieresis.cap" horiz-adv-x="465" 
d="M290 790h-82l20 94h82zM467 790h-81l20 94h81z" />
    <glyph glyph-name="macron" unicode="&#xaf;" horiz-adv-x="465" 
d="M446 640h-257l13 60h257z" />
    <glyph glyph-name="macron.cap" horiz-adv-x="465" 
d="M468 799h-257l13 60h257z" />
    <glyph glyph-name="uni02C9" unicode="&#x2c9;" horiz-adv-x="465" 
d="M470 705h-257l13 60h257z" />
    <glyph glyph-name="breve" unicode="&#x2d8;" horiz-adv-x="465" 
d="M485 748q-6 -30 -17 -55t-30.5 -44.5t-49 -30.5t-70.5 -11q-64 0 -97 28.5t-33 78.5q0 16 3 34h58q-3 -15 -3 -28q0 -28 18 -43t57 -15q46 0 71 20.5t33 65.5h60z" />
    <glyph glyph-name="breve.cap" horiz-adv-x="465" 
d="M510 908q-6 -30 -17 -55t-30.5 -44.5t-49 -30.5t-70.5 -11q-64 0 -97 28.5t-33 78.5q0 16 3 34h58q-3 -15 -3 -28q0 -28 18 -43t57 -15q46 0 71 20.5t33 65.5h60z" />
    <glyph glyph-name="ring" unicode="&#x2da;" horiz-adv-x="465" 
d="M331 757q-25 0 -43.5 -18t-18.5 -43q0 -26 18.5 -44.5t44.5 -18.5q25 0 43 18.5t18 44.5t-18.5 43.5t-43.5 17.5zM333 795q20 0 38 -8t31.5 -22t21 -31.5t7.5 -37.5q0 -21 -7.5 -39t-21.5 -32t-32 -21.5t-38 -7.5q-21 0 -39 7.5t-32 21t-22 32t-8 39.5t8 39t22 31.5
t32.5 21t39.5 7.5z" />
    <glyph glyph-name="ring.cap" horiz-adv-x="465" 
d="M346 908q-25 0 -43.5 -18t-18.5 -43q0 -26 18.5 -44.5t44.5 -18.5q25 0 43 18.5t18 44.5t-18.5 43.5t-43.5 17.5zM348 946q20 0 38 -8t31.5 -22t21 -31.5t7.5 -37.5q0 -21 -7.5 -39t-21.5 -32t-32 -21.5t-38 -7.5q-21 0 -39 7.5t-32 21t-22 32t-8 39.5t8 39t22 31.5
t32.5 21t39.5 7.5z" />
    <glyph glyph-name="hungarumlaut" unicode="&#x2dd;" horiz-adv-x="465" 
d="M247 604h-55l107 164h87zM380 604h-56l118 164h92z" />
    <glyph glyph-name="hungarumlaut.cap" horiz-adv-x="465" 
d="M276 763h-58l88 137h90zM409 763h-60l100 137h95z" />
    <glyph glyph-name="dotaccent" unicode="&#x2d9;" horiz-adv-x="465" 
d="M364 625h-94l21 98h94z" />
    <glyph glyph-name="dotaccent.cap" horiz-adv-x="465" 
d="M388 784h-94l21 98h94z" />
    <glyph glyph-name="cedilla" unicode="&#xb8;" horiz-adv-x="465" 
d="M150 -58q13 1 15 1h7q33 0 53 -17t20 -49q0 -28 -11.5 -46t-29.5 -27.5t-39.5 -13.5t-46.5 -4q-12 0 -26 1.5t-28 4.5l7 43q14 -2 24.5 -3t21.5 -1q12 0 24.5 1.5t23 6t16.5 13t6 21.5q0 17 -13 23.5t-41 6.5q-8 0 -18 -0.5t-23 -1.5l39 109h47z" />
    <glyph glyph-name="ogonek" unicode="&#x2db;" horiz-adv-x="465" 
d="M249 9q-30 -26 -50.5 -46.5t-31.5 -35t-15.5 -27t-4.5 -24.5q0 -16 10.5 -24t30.5 -8q14 0 29.5 3t29.5 9l-2 -46q-35 -15 -76 -15q-38 0 -60 17t-22 49q0 35 26 69t88 79h48z" />
    <glyph glyph-name="commaaccent" horiz-adv-x="465" 
d="M133 -214h-59l80 156h92z" />
    <glyph glyph-name="commaaccent.alt" horiz-adv-x="465" 
d="M355 768h57l-84 -164h-90z" />
    <glyph glyph-name="ellipsis" unicode="&#x2026;" horiz-adv-x="841" 
d="M72 101h101l-21 -101h-101zM351 101h101l-21 -101h-101zM630 101h101l-21 -101h-101z" />
    <glyph glyph-name="uni00AD" unicode="&#xad;" horiz-adv-x="400" 
d="M105 335h251l-15 -69h-251z" />
    <glyph glyph-name="exclamdown" unicode="&#xa1;" horiz-adv-x="305" 
d="M150 329h64l-92 -515h-98zM248 431h-94l20 97h94z" />
    <glyph glyph-name="questiondown" unicode="&#xbf;" horiz-adv-x="464" 
d="M253 349h76l-7 -34q-7 -33 -17 -58t-25.5 -47.5t-36.5 -41.5t-48 -38l-37 -26q-21 -15 -37.5 -29.5t-28.5 -30t-19.5 -36.5t-7.5 -45q0 -23 8.5 -40t23.5 -28t35 -16.5t45 -5.5q37 0 74 8.5t72 26.5l12 -66q-36 -20 -79 -30t-93 -10q-35 0 -67.5 9t-58.5 27.5t-41.5 47.5
t-16.5 72q1 44 13.5 73.5t33.5 53t47.5 43t55.5 38.5q26 17 47 34t34.5 35t22.5 37.5t16 54.5zM357 431h-99l20 97h99z" />
    <glyph glyph-name="quoteleft" unicode="&#x2018;" horiz-adv-x="280" 
d="M232 513h-93l130 222h55z" />
    <glyph glyph-name="quoteright" unicode="&#x2019;" horiz-adv-x="280" 
d="M231 735h93l-131 -223h-55z" />
    <glyph glyph-name="quotedblleft" unicode="&#x201c;" horiz-adv-x="420" 
d="M370 512h-88l128 223h54zM226 512h-88l132 223h54z" />
    <glyph glyph-name="quotedblright" unicode="&#x201d;" horiz-adv-x="420" 
d="M231 735h89l-127 -222h-54zM375 735h89l-132 -222h-54z" />
    <glyph glyph-name="quotesinglbase" unicode="&#x201a;" horiz-adv-x="280" 
d="M92 84h93l-131 -222h-54z" />
    <glyph glyph-name="quotedblbase" unicode="&#x201e;" horiz-adv-x="420" 
d="M92 84h89l-127 -222h-54zM236 84h89l-132 -222h-54z" />
    <glyph glyph-name="guilsinglleft" unicode="&#x2039;" horiz-adv-x="342" 
d="M172 295l78 -188h-72l-81 193l1 5l160 183h77z" />
    <glyph glyph-name="guilsinglright" unicode="&#x203a;" horiz-adv-x="342" 
d="M217 300l-78 188h72l81 -193l-1 -5l-160 -183h-77z" />
    <glyph glyph-name="guillemotleft" unicode="&#xab;" horiz-adv-x="528" 
d="M172 295l78 -188h-72l-81 193l1 5l160 183h77zM352 295l78 -188h-72l-81 193l1 5l160 183h77z" />
    <glyph glyph-name="guillemotright" unicode="&#xbb;" horiz-adv-x="528" 
d="M400 300l-78 188h72l81 -193l-1 -5l-160 -183h-77zM220 300l-78 188h72l81 -193l-1 -5l-160 -183h-77z" />
    <glyph glyph-name="endash" unicode="&#x2013;" horiz-adv-x="500" 
d="M487 273h-446l11 54h446z" />
    <glyph glyph-name="emdash" unicode="&#x2014;" horiz-adv-x="800" 
d="M787 273h-746l11 54h746z" />
    <glyph glyph-name="bullet" unicode="&#x2022;" horiz-adv-x="465" 
d="M96 329q0 34 13 64.5t35 52.5t52 35t64 13t64.5 -13t53 -36t35 -52.5t12.5 -63.5t-13 -64t-35.5 -52.5t-52.5 -35t-64 -12.5t-64 13t-52 34.5t-35 52t-13 64.5z" />
    <glyph glyph-name="periodcentered" unicode="&#xb7;" horiz-adv-x="279" 
d="M122 353h101l-22 -101h-101z" />
    <glyph glyph-name="uni2219" unicode="&#x2219;" horiz-adv-x="279" 
d="M122 353h101l-22 -101h-101z" />
    <glyph glyph-name="dagger" unicode="&#x2020;" horiz-adv-x="517" 
d="M358 477h190l-15 -72h-190l-113 -531h-78l113 531h-191l15 72h191l40 191h79z" />
    <glyph glyph-name="daggerdbl" unicode="&#x2021;" horiz-adv-x="517" 
d="M360 489h183l-16 -73h-182l-62 -291h182l-15 -73h-183l-37 -178h-78l38 178h-183l15 73h183l62 291h-183l15 73h184l37 179h78z" />
    <glyph glyph-name="section" unicode="&#xa7;" horiz-adv-x="539" 
d="M98 304q0 31 11.5 55.5t31.5 41.5t45 27t56 14q-35 34 -49.5 64t-14.5 64t12.5 62.5t37.5 49.5t62 32.5t84 11.5q40 0 78.5 -7t59.5 -17l-25 -67q-22 9 -52.5 15t-62.5 6q-54 0 -83 -21.5t-29 -60.5q0 -35 27 -65.5t77 -66.5q36 -27 59 -49.5t36.5 -43.5t19 -42t5.5 -44
q0 -54 -36.5 -89.5t-101.5 -45.5q38 -36 51.5 -67t13.5 -61q0 -40 -17 -70t-46.5 -49.5t-68.5 -29t-83 -9.5q-16 0 -37 2t-41.5 6t-39.5 9.5t-33 12.5l28 68q10 -5 26 -10t34 -9t37 -6.5t35 -2.5q55 0 89.5 23t34.5 63q0 14 -5.5 28t-18.5 30.5t-35 35.5t-55 43
q-63 45 -90 83.5t-27 85.5zM292 174q57 5 84.5 24.5t27.5 59.5q0 32 -18 58t-52 51l-40 30q-57 -2 -86.5 -23t-29.5 -60q0 -14 3.5 -27t12.5 -26.5t24 -28t38 -31.5z" />
    <glyph glyph-name="paragraph" unicode="&#xb6;" horiz-adv-x="558" 
d="M424 -117h-65l165 778h-126l-165 -778h-65l93 441q-79 0 -125.5 42t-46.5 113q0 53 20 96t57 74t88 48t113 17h233z" />
    <glyph glyph-name="brokenbar" unicode="&#xa6;" horiz-adv-x="465" 
d="M302 735v-368h-65v368h65zM302 172v-367h-65v367h65z" />
    <glyph glyph-name="copyright" unicode="&#xa9;" horiz-adv-x="800" 
d="M128 355q0 -64 22.5 -120.5t63 -99t97 -67t125.5 -24.5q67 0 123.5 24.5t96.5 66.5t62.5 99t22.5 121q0 65 -22.5 122.5t-62.5 100.5t-96.5 68t-123.5 25q-69 0 -125.5 -25t-97 -68t-63 -100.5t-22.5 -122.5zM69 355q0 77 27 144t76 117t116 78.5t148 28.5
q80 0 146.5 -28.5t114.5 -78t75 -117t27 -144.5q0 -76 -27 -142.5t-75 -116t-114.5 -77.5t-146.5 -28q-81 0 -148.5 28.5t-116 78t-75.5 115.5t-27 142zM537 507q-18 8 -38.5 12.5t-40.5 4.5q-38 0 -65.5 -13.5t-44.5 -36.5t-25 -53t-8 -64q0 -33 8.5 -62.5t25.5 -52
t44.5 -35.5t63.5 -13q51 0 87 18l14 -58q-24 -12 -51 -16.5t-58 -4.5q-49 0 -88 16.5t-66 46.5t-41 71t-14 90t13.5 90t40 71.5t66.5 47.5t92 17q29 0 55 -4t46 -14z" />
    <glyph glyph-name="registered" unicode="&#xae;" horiz-adv-x="502" 
d="M109 525q0 44 15.5 82t43.5 66.5t67.5 45t86.5 16.5t86.5 -16.5t66.5 -44.5t42.5 -66.5t15.5 -82.5t-15.5 -83t-43.5 -67t-66.5 -44t-85.5 -16t-86 16t-67.5 44.5t-44 67t-15.5 82.5zM143 525q0 -37 12.5 -69.5t36 -57t56.5 -38.5t74 -14q40 0 73 14t56 38t36 57t13 70
t-13 69.5t-36 56.5t-56 38t-73 14q-41 0 -74 -14t-56.5 -38.5t-36 -56.5t-12.5 -69zM238 647h97q39 0 58.5 -14.5t19.5 -48.5q0 -46 -45 -59v-1q12 -3 20.5 -13t14.5 -31q6 -20 12.5 -39.5t11.5 -36.5h-45q-5 15 -10 34t-9 32q-5 22 -15 29.5t-37 7.5h-29v-103h-44v243z
M282 538h39q24 0 37 10t13 30t-11 29t-36 9h-42v-78z" />
    <glyph glyph-name="trademark" unicode="&#x2122;" horiz-adv-x="930" 
d="M427 664h-103v-333h-60v333h-105v50h268v-50zM852 331h-55v322h-2l-102 -322h-55l-101 322h-2v-322h-56v383h96l91 -307h2l91 307h93v-383z" />
    <glyph glyph-name="currency" unicode="&#xa4;" horiz-adv-x="538" 
d="M477 354q0 -39 -14 -74t-38 -62l63 -80l-56 -41l-62 78q-47 -25 -102 -25q-53 0 -94 30l-80 -65l-43 54l80 64q-13 26 -13 60q0 39 13.5 74t38.5 62l-63 81l56 41l62 -79q46 26 102 26q54 0 93 -30l81 65l43 -54l-80 -65q13 -29 13 -60zM276 222q24 0 46 9.5t39 26
t27 38.5t10 48q0 35 -21 58.5t-58 23.5q-25 0 -47.5 -10t-39 -27t-26 -39.5t-9.5 -47.5q0 -35 21.5 -57.5t57.5 -22.5z" />
    <glyph glyph-name="Euro" unicode="&#x20ac;" horiz-adv-x="660" 
d="M139 319q2 21 7 46.5t12 46.5h-78l25 55h71q22 53 55.5 99.5t78.5 82.5t103 56.5t127 20.5q36 0 70 -5t60 -15l-25 -67q-46 16 -107 16q-50 0 -94 -14t-78.5 -39.5t-60.5 -60t-43 -74.5h322l-24 -55h-318q-15 -43 -20 -93h308l-25 -55h-285q0 -42 11.5 -79t36 -65.5
t64 -44.5t91.5 -16q41 0 72.5 5.5t66.5 18.5l9 -68q-36 -14 -74 -20.5t-87 -6.5q-69 0 -120.5 21.5t-85 58.5t-50.5 87.5t-17 108.5h-88l26 55h64z" />
    <glyph glyph-name="cent" unicode="&#xa2;" horiz-adv-x="495" 
d="M476 458q-33 15 -75 15l-89 -418q27 1 49 5.5t51 16.5v-67q-61 -21 -114 -22l-12 -55h-64l13 59q-41 6 -73 25t-52.5 47.5t-30.5 63.5t-10 74q0 66 21.5 124.5t59 103t88.5 72.5t112 34l14 64h64l-13 -60q26 -1 44 -4t39 -11zM337 468q-45 -8 -79.5 -33t-58 -61.5
t-35.5 -79.5t-12 -88q0 -27 5.5 -51.5t17 -44t30.5 -33t45 -18.5z" />
    <glyph glyph-name="sterling" unicode="&#xa3;" horiz-adv-x="595" 
d="M576 635q-17 8 -42 14t-55 6q-39 0 -66.5 -13t-47 -34t-31.5 -49t-18 -57l-21 -98h160l-12 -57h-160l-58 -275h284l-15 -72h-473l15 72h105l58 275h-98l12 57h98l22 104q9 43 27 82.5t45.5 69t71 48t101.5 18.5q39 0 70.5 -6.5t53.5 -16.5z" />
    <glyph glyph-name="florin" unicode="&#x192;" horiz-adv-x="539" 
d="M478 339h-137l-88 -317q-9 -33 -23 -61.5t-34.5 -50t-50.5 -33.5t-70 -12q-20 0 -42.5 4t-41.5 12l15 68q17 -6 35.5 -9.5t34.5 -3.5q40 0 61.5 23t35.5 77l82 303h-126l17 65h127l47 167q9 32 22 58.5t34 48.5t54 35t79 13q26 0 48.5 -3.5t36.5 -8.5l-21 -68
q-29 9 -63 9q-28 0 -47 -8t-31 -21.5t-20 -32.5t-14 -42l-41 -147h138z" />
    <glyph glyph-name="yen" unicode="&#xa5;" horiz-adv-x="595" 
d="M259 205l20 93h-164l12 55h148l-137 361h89l112 -335l249 335h92l-284 -361h146l-12 -55h-170l-20 -93h170l-11 -55h-170l-32 -150h-81l32 150h-164l11 55h164z" />
    <glyph glyph-name="ordfeminine" unicode="&#xaa;" horiz-adv-x="342" 
d="M307 571q5 18 5 30q1 43 -57 43q-21 0 -45 -5t-45 -12l-2 53q28 8 54.5 12.5t50.5 4.5q52 0 82 -24t30 -70q0 -19 -4 -36l-27 -127q-4 -18 -7 -36.5t-3 -31.5h-62q0 8 1 18t3 23h-2q-17 -24 -40.5 -36.5t-52.5 -12.5q-42 0 -67 23.5t-25 59.5t16.5 60.5t46 38.5
t67.5 19.5t83 5.5zM286 526q-63 0 -94.5 -17.5t-31.5 -54.5q0 -18 10.5 -29t29.5 -11q21 0 37 8.5t28 22.5t19 30.5t10 31.5l4 19h-12z" />
    <glyph glyph-name="ordmasculine" unicode="&#xba;" horiz-adv-x="376" 
d="M414 572q0 -42 -11.5 -79.5t-34 -66t-56.5 -45t-79 -16.5q-58 0 -93 34t-35 92q0 42 11.5 79t34 65.5t57 45t78.5 16.5q59 0 93.5 -34t34.5 -91zM240 417q26 0 45.5 14t32.5 36.5t19.5 50t6.5 53.5q0 34 -16 54t-49 20q-25 0 -44.5 -13.5t-32.5 -35.5t-19.5 -49t-6.5 -54
q0 -35 16 -55.5t48 -20.5z" />
    <glyph glyph-name="fraction" unicode="&#x2044;" horiz-adv-x="121" 
d="M-152 0h-66l563 714h66z" />
    <glyph glyph-name="uni2215" unicode="&#x2215;" horiz-adv-x="121" 
d="M-152 0h-66l563 714h66z" />
    <glyph glyph-name="onequarter" unicode="&#xbc;" horiz-adv-x="883" 
d="M242 0h-66l563 714h66zM264 288h-72l76 356l-94 -54l-25 52l134 75h72zM788 153h56l-12 -57h-56l-20 -96h-68l20 96h-195l14 66l229 267h91zM763 356h-2l-171 -203h130z" />
    <glyph glyph-name="onehalf" unicode="&#xbd;" horiz-adv-x="883" 
d="M238 0h-66l563 714h66zM264 288h-72l76 356l-94 -54l-25 52l134 75h72zM803 0h-277l13 65q81 59 129 99t73 67.5t34 47.5t9 41q0 25 -17 41t-46 16q-20 0 -44 -7t-56 -23l-15 56q26 14 58.5 23.5t68.5 9.5q55 0 89 -29t34 -78q0 -34 -13 -63t-40.5 -59t-71.5 -65.5
t-105 -81.5v-1h189z" />
    <glyph glyph-name="threequarters" unicode="&#xbe;" horiz-adv-x="883" 
d="M244 0h-66l563 714h66zM180 536h52q17 0 35 4.5t34.5 14.5t26.5 25t10 35q0 24 -15.5 38t-44.5 14q-20 0 -46 -6.5t-55 -19.5l-13 55q61 28 123 28q58 0 90 -26.5t32 -70.5q0 -45 -24 -74t-69 -43v-2q32 -10 48 -34.5t16 -53.5q0 -68 -46 -103.5t-126 -35.5
q-29 0 -60 6.5t-57 19.5l23 56q21 -10 44.5 -16.5t49.5 -6.5q46 0 73.5 20.5t27.5 59.5q0 61 -88 61h-52zM788 153h56l-12 -57h-56l-20 -96h-68l20 96h-195l14 66l229 267h91zM763 356h-2l-171 -203h130z" />
    <glyph glyph-name="perthousand" unicode="&#x2030;" horiz-adv-x="1123" 
d="M164 0h-62l602 714h62zM420 586q0 -41 -9.5 -84t-30.5 -79t-55 -58t-80 -22q-54 0 -84 34.5t-30 93.5q0 40 9.5 83.5t30.5 80t55 58.5t79 22q55 0 85 -33.5t30 -95.5zM250 398q26 0 46.5 17.5t33.5 48.5t18.5 63.5t5.5 57.5q0 39 -14.5 57t-39.5 18q-27 0 -47.5 -19.5
t-32.5 -49.5t-17.5 -62.5t-5.5 -56.5q0 -34 13.5 -54t39.5 -20zM738 243q0 -41 -9.5 -84t-30.5 -79t-55 -58t-80 -22q-54 0 -84 34.5t-30 93.5q0 40 9.5 83.5t30.5 80t55 58.5t79 22q55 0 85 -33.5t30 -95.5zM568 55q26 0 46.5 17.5t33.5 48.5t18.5 63.5t5.5 57.5
q0 39 -14.5 57t-39.5 18q-27 0 -47.5 -19.5t-32.5 -49.5t-17.5 -62.5t-5.5 -56.5q0 -34 13.5 -54t39.5 -20zM1073 243q0 -41 -9.5 -84t-30.5 -79t-55 -58t-80 -22q-54 0 -84 34.5t-30 93.5q0 40 9.5 83.5t30.5 80t55 58.5t79 22q55 0 85 -33.5t30 -95.5zM903 55
q26 0 46.5 17.5t33.5 48.5t18.5 63.5t5.5 57.5q0 39 -14.5 57t-39.5 18q-27 0 -47.5 -19.5t-32.5 -49.5t-17.5 -62.5t-5.5 -56.5q0 -34 13.5 -54t39.5 -20z" />
    <glyph glyph-name="minus" unicode="&#x2212;" horiz-adv-x="539" 
d="M70 284v62h456v-62h-456z" />
    <glyph glyph-name="plusminus" unicode="&#xb1;" horiz-adv-x="539" 
d="M70 77v62h456v-62h-456zM266 355h-196v63h196v152h66v-152h194v-63h-194v-152h-66v152z" />
    <glyph glyph-name="multiply" unicode="&#xd7;" horiz-adv-x="539" 
d="M343 308l185 -185l-45 -46l-185 185l-185 -185l-47 46l185 185l-185 185l47 46l185 -185l185 185l45 -46z" />
    <glyph glyph-name="divide" unicode="&#xf7;" horiz-adv-x="539" 
d="M70 284v62h456v-62h-456zM344 91h-84v87h84v-87zM344 450h-84v87h84v-87z" />
    <glyph glyph-name="notequal" unicode="&#x2260;" horiz-adv-x="539" 
d="M368 379l-66 -127h224v-62h-257l-76 -146h-73l76 146h-126v62h160l67 127h-227v62h259l78 147h71l-77 -147h125v-62h-158z" />
    <glyph glyph-name="approxequal" unicode="&#x2248;" horiz-adv-x="539" 
d="M414 405q39 2 66.5 15.5t45.5 33.5v-69q-49 -43 -125 -43q-33 0 -61 9.5t-52 22t-49 21.5t-52 9q-38 0 -68 -14t-49 -35v69q24 22 56 32.5t69 10.5q33 0 61.5 -9.5t52.5 -22t50 -21.5t55 -9zM414 215q38 2 65.5 15t46.5 34v-69q-49 -43 -125 -43q-32 0 -60.5 9.5t-53 22
t-49 21.5t-51.5 9q-37 0 -67 -13.5t-50 -35.5v69q24 22 55.5 32.5t69.5 10.5q31 0 59.5 -9t53 -21.5t51 -22t55.5 -9.5z" />
    <glyph glyph-name="lessequal" unicode="&#x2264;" horiz-adv-x="539" 
d="M70 321v89l456 146v-66l-395 -123v-2l395 -124v-65zM70 77v62h456v-62h-456z" />
    <glyph glyph-name="greaterequal" unicode="&#x2265;" horiz-adv-x="539" 
d="M70 176v65l394 124v2l-394 123v66l456 -146v-89zM70 77v62h456v-62h-456z" />
    <glyph glyph-name="logicalnot" unicode="&#xac;" horiz-adv-x="539" 
d="M68 390v59h459v-270h-62v211h-397z" />
    <glyph glyph-name="Delta" unicode="&#x2206;" horiz-adv-x="646" 
d="M-8 0l15 73l382 641h115l81 -641l-15 -73h-578zM101 73h393l-61 575z" />
    <glyph glyph-name="Omega" unicode="&#x2126;" horiz-adv-x="730" 
d="M444 653q-52 0 -92.5 -15t-69.5 -39.5t-49 -56t-32.5 -66t-18 -69t-5.5 -63.5q0 -73 34 -117t103 -65l-33 -162h-246l14 73h169l11 49q-72 32 -106.5 81.5t-34.5 131.5q0 41 8.5 86t27 89t47.5 82.5t69.5 68.5t95 47.5t121.5 17.5q65 0 113.5 -19t79 -52t45.5 -77.5
t15 -96.5q0 -72 -19 -132t-51 -104t-75 -75.5t-92 -47.5l-11 -49h179l-14 -73h-257l33 162q62 16 104 48t67.5 74.5t36 90.5t10.5 96q0 40 -10.5 73.5t-32 57.5t-55 37.5t-79.5 13.5z" />
    <glyph glyph-name="mu" unicode="&#xb5;" horiz-adv-x="609" 
d="M403 98q-31 -53 -77.5 -81.5t-101.5 -28.5q-34 0 -61.5 9.5t-34.5 22.5h-2l-45 -215h-81l152 723h82l-68 -324q-7 -34 -7 -61t7.5 -45.5t19.5 -28t25 -13t28 -3.5q30 0 60.5 13t57.5 38t47.5 62t29.5 82l58 280h82l-87 -409q-5 -25 -5 -36q0 -12 7 -18t30 -6q3 0 8.5 0.5
t10.5 1.5l-11 -62q-23 -5 -43 -5q-40 0 -60 20t-20 62v7t1 15h-2z" />
    <glyph glyph-name="degree" unicode="&#xb0;" horiz-adv-x="372" 
d="M254 725q27 0 52 -11t44 -30.5t29.5 -44.5t10.5 -53q0 -29 -11 -55t-29.5 -44.5t-44 -29.5t-54.5 -11t-54.5 11t-44.5 30t-30 44.5t-11 55.5q0 29 11 53.5t30.5 44t46.5 30t55 10.5zM250 677q-37 0 -63 -27t-26 -64q0 -19 7 -36t19.5 -29t28.5 -19t35 -7q38 0 64 27
t26 65q0 19 -7 35.5t-19.5 28.5t-29 19t-35.5 7z" />
    <glyph glyph-name="uni2113" unicode="&#x2113;" horiz-adv-x="410" 
d="M44 209q39 7 74 21q24 131 47 224.5t50.5 156.5t61.5 93.5t81 30.5t69.5 -27.5t22.5 -79.5q0 -56 -19 -118.5t-53 -122t-80.5 -108.5t-100.5 -77q-3 -30 -3 -52q0 -30 5 -48.5t14 -28t20 -12.5t24 -3q20 0 37 4t31 9l-14 -64q-22 -8 -34.5 -10.5t-31.5 -2.5
q-70 0 -101.5 36t-31.5 114v20q-41 -14 -82 -21zM354 673q-16 0 -32.5 -20.5t-34.5 -67t-38 -121.5t-41 -184q37 28 68 71.5t54 92t36 98.5t13 91q0 19 -6 29.5t-19 10.5z" />
    <glyph glyph-name="estimated" unicode="&#x212e;" horiz-adv-x="793" 
d="M715 126q-24 -27 -53.5 -52t-65 -43.5t-83 -30t-105.5 -11.5q-69 0 -132 22.5t-111 64.5t-77 104t-29 140q0 74 30 137t81.5 108t118.5 70t141 25q87 0 154.5 -29t111.5 -77t66 -108t22 -121v-3h-570l-8 -10v-213q45 -40 97 -58.5t111 -18.5q76 0 136.5 28.5t101.5 75.5
h63zM638 364v190q-47 43 -98.5 58.5t-109.5 14.5q-26 0 -54 -3.5t-57.5 -12.5t-58 -25t-54.5 -40v-182l8 -9h416z" />
    <glyph glyph-name="infinity" unicode="&#x221e;" horiz-adv-x="857" 
d="M404 249q-11 27 -25 50.5t-33 41.5t-42.5 29t-52.5 11q-54 0 -86 -38t-32 -99q0 -60 33.5 -98t87.5 -38q31 0 55 11.5t42 31t31 45t22 53.5zM429 180q-29 -70 -75 -107t-109 -37q-41 0 -74.5 15.5t-57.5 43t-37.5 66.5t-13.5 86q0 45 13.5 83t38 65.5t59.5 43t77 15.5
q131 0 200 -143q29 70 75 106.5t108 36.5q41 0 75.5 -15.5t58 -43t37 -66.5t13.5 -86q0 -45 -13.5 -83t-38 -65.5t-59 -43t-77.5 -15.5q-67 0 -117 36.5t-83 107.5zM474 242q11 -27 25 -51t33 -42t42.5 -29t53.5 -11q54 0 86.5 38.5t32.5 98.5q0 30 -9 55t-24.5 43
t-38.5 28.5t-50 10.5q-31 0 -55 -12t-42 -31.5t-31.5 -45t-22.5 -52.5z" />
    <glyph glyph-name="partialdiff" unicode="&#x2202;" horiz-adv-x="611" 
d="M458 427q-16 46 -46.5 87.5t-70.5 74.5t-86.5 58t-93.5 40l50 48q82 -29 147.5 -75t110.5 -107t69 -136t24 -162q0 -59 -17.5 -108t-50 -84.5t-77.5 -55t-100 -19.5q-53 0 -97 17.5t-76 49.5t-50 78.5t-18 103.5q0 55 17 101.5t48 79.5t73 50.5t92 17.5q42 0 81.5 -15
t67.5 -44h3zM320 427q-75 0 -118.5 -52t-43.5 -138q0 -43 12 -77t33.5 -58t51 -36.5t65.5 -12.5q74 1 117 53t43 138q0 43 -12.5 77.5t-34 57.5t-51 35.5t-62.5 12.5z" />
    <glyph glyph-name="integral" unicode="&#x222b;" horiz-adv-x="338" 
d="M153 543q0 38 8 69t25.5 54t44 35.5t63.5 12.5q17 0 34 -2t32 -7l-9 -70q-20 9 -46 9q-37 0 -53.5 -25t-16.5 -79v-573q0 -79 -37 -120.5t-109 -41.5q-15 0 -29.5 1.5t-27.5 5.5l7 71q21 -8 44 -8q38 0 54 21t16 72v575z" />
    <glyph glyph-name="radical" unicode="&#x221a;" horiz-adv-x="601" 
d="M346 -121h2l188 835h72l-219 -909h-83l-109 359h-129v60h183z" />
    <glyph glyph-name="summation" unicode="&#x2211;" horiz-adv-x="641" 
d="M165 -125h461v-70h-546v70l276 393l-267 374v72h524v-71h-428l265 -370z" />
    <glyph glyph-name="product" unicode="&#x220f;" horiz-adv-x="729" 
d="M672 -195h-83v838h-376v-838h-84v909h543v-909z" />
    <glyph glyph-name="lozenge" unicode="&#x25ca;" horiz-adv-x="456" 
d="M293 0h-74l-164 324l163 324h74l163 -324zM128 324l127 -265h2l125 264l-125 266h-3z" />
    <glyph glyph-name="uniF8FF" unicode="&#xf8ff;" horiz-adv-x="512" 
d="M278 117v67h56v-67h-56zM281 234l-2 17q0 56 13 81q7 13 18 27.5t28 31.5q16 15 26 26.5t15 20.5t7 18t2 18q0 36 -23 60.5t-53 24.5q-33 0 -54.5 -23t-27.5 -72l-50 8q8 73 44.5 105t90.5 32q53 0 88.5 -36t35.5 -95q0 -32 -12.5 -58.5t-50.5 -61.5q-37 -33 -43 -52
q-6 -20 -6 -72h-46zM518 50v617h-412v-617h412zM568 718v-718h-512v718h512z" />
    <glyph glyph-name="uni03A9" unicode="&#x3a9;" horiz-adv-x="730" 
d="M444 653q-52 0 -92.5 -15t-69.5 -39.5t-49 -56t-32.5 -66t-18 -69t-5.5 -63.5q0 -73 34 -117t103 -65l-33 -162h-246l14 73h169l11 49q-72 32 -106.5 81.5t-34.5 131.5q0 41 8.5 86t27 89t47.5 82.5t69.5 68.5t95 47.5t121.5 17.5q65 0 113.5 -19t79 -52t45.5 -77.5
t15 -96.5q0 -72 -19 -132t-51 -104t-75 -75.5t-92 -47.5l-11 -49h179l-14 -73h-257l33 162q62 16 104 48t67.5 74.5t36 90.5t10.5 96q0 40 -10.5 73.5t-32 57.5t-55 37.5t-79.5 13.5z" />
    <glyph glyph-name="uni03BC" unicode="&#x3bc;" horiz-adv-x="609" 
d="M403 98q-31 -53 -77.5 -81.5t-101.5 -28.5q-34 0 -61.5 9.5t-34.5 22.5h-2l-45 -215h-81l152 723h82l-68 -324q-7 -34 -7 -61t7.5 -45.5t19.5 -28t25 -13t28 -3.5q30 0 60.5 13t57.5 38t47.5 62t29.5 82l58 280h82l-87 -409q-5 -25 -5 -36q0 -12 7 -18t30 -6q3 0 8.5 0.5
t10.5 1.5l-11 -62q-23 -5 -43 -5q-40 0 -60 20t-20 62v7t1 15h-2z" />
    <glyph glyph-name="pi" unicode="&#x3c0;" horiz-adv-x="647" 
d="M474 132q-4 -16 -4 -32q0 -20 10.5 -30t38.5 -10q9 0 14.5 0.5t13.5 1.5l-11 -62q-27 -6 -48 -6q-51 0 -75 23t-24 68q0 24 6 53l66 323h-173l-140 -461h-83l145 461h-123l15 67h570l-15 -67h-115z" />
    <glyph glyph-name="uni0394" unicode="&#x394;" horiz-adv-x="646" 
d="M-8 0l15 73l382 641h115l81 -641l-15 -73h-578zM101 73h393l-61 575z" />
    <glyph glyph-name="zero.denominator" 
d="M234 436q61 0 94 -37t33 -105q0 -48 -11 -100.5t-36 -99t-64.5 -74t-91.5 -27.5q-61 0 -94.5 37t-33.5 105q0 50 11.5 103t37 99t65.5 72.5t90 26.5zM230 380q-32 0 -57.5 -25.5t-41.5 -66.5t-23 -82t-7 -69q0 -42 14.5 -65t45.5 -23q32 0 57.5 25t41.5 64.5t23 79.5
t7 69q0 46 -14.5 69.5t-45.5 23.5z" />
    <glyph glyph-name="one.denominator" 
d="M203 0h-72l76 356l-94 -54l-25 52l134 75h72z" />
    <glyph glyph-name="two.denominator" 
d="M290 0h-277l13 65q81 59 129 99t73 67.5t34 47.5t9 41q0 25 -17 41t-46 16q-20 0 -44 -7t-56 -23l-15 56q26 14 58.5 23.5t68.5 9.5q55 0 89 -29t34 -78q0 -34 -13 -63t-40.5 -59t-71.5 -65.5t-105 -81.5v-1h189z" />
    <glyph glyph-name="three.denominator" 
d="M119 248h52q17 0 35 4.5t34.5 14.5t26.5 25t10 35q0 24 -15.5 38t-44.5 14q-20 0 -46 -6.5t-55 -19.5l-13 55q61 28 123 28q58 0 90 -26.5t32 -70.5q0 -45 -24 -74t-69 -43v-2q32 -10 48 -34.5t16 -53.5q0 -68 -46 -103.5t-126 -35.5q-29 0 -60 6.5t-57 19.5l23 56
q21 -10 44.5 -16.5t49.5 -6.5q46 0 73.5 20.5t27.5 59.5q0 61 -88 61h-52z" />
    <glyph glyph-name="four.denominator" 
d="M286 153h56l-12 -57h-56l-20 -96h-68l20 96h-195l14 66l229 267h91zM261 356h-2l-171 -203h130z" />
    <glyph glyph-name="five.denominator" 
d="M140 51q51 0 81 24t30 66q0 35 -23 53t-64 18q-21 0 -45.5 -3.5t-47.5 -8.5l60 229h225l-12 -58h-163l-29 -108q11 3 22 4t21 1q59 0 93.5 -31.5t34.5 -89.5q0 -39 -14 -68t-39 -48t-58.5 -28.5t-72.5 -9.5q-30 0 -59 6t-57 19l21 57q22 -11 45.5 -17.5t50.5 -6.5z" />
    <glyph glyph-name="six.denominator" 
d="M124 237q14 20 38.5 33t53.5 13q52 0 83 -33t31 -85q0 -35 -11.5 -66.5t-32.5 -55t-52 -37t-68 -13.5q-63 0 -95.5 37.5t-32.5 104.5q0 48 13.5 100.5t42 98.5t73 74t100.5 28q48 0 81 -14l-20 -56q-26 13 -64 13q-27 0 -49.5 -12t-40.5 -32t-31 -45.5t-21 -52.5h2z
M193 228q-39 0 -62.5 -28.5t-23.5 -75.5q0 -32 16.5 -53t48.5 -21q20 0 36.5 9t28 24.5t17.5 35.5t6 41q0 31 -18 49.5t-49 18.5z" />
    <glyph glyph-name="seven.denominator" 
d="M105 429h272l-12 -54q-77 -98 -131.5 -192.5t-79.5 -182.5h-71q23 91 79.5 185.5t128.5 185.5h-199z" />
    <glyph glyph-name="eight.denominator" 
d="M188 193q-17 0 -34 -5t-30.5 -15.5t-21.5 -25.5t-8 -36q0 -27 20 -44t52 -17q40 0 67 21t27 57q0 30 -20.5 47.5t-51.5 17.5zM227 436q25 0 48.5 -6.5t41 -20t27 -32.5t9.5 -44q0 -82 -85 -110l-1 -2q28 -11 45.5 -35t17.5 -58q0 -35 -13.5 -61t-36.5 -42t-52.5 -24
t-63.5 -8q-29 0 -54.5 6.5t-44.5 20t-30 34t-11 47.5q0 48 28 79.5t76 45.5l1 2q-26 9 -41.5 30.5t-15.5 49.5q0 31 12.5 55.5t34 40.5t49.5 24t59 8zM203 249q35 0 57.5 20.5t22.5 57.5q0 23 -17 38t-45 15q-33 0 -56 -20t-23 -55q0 -26 17.5 -41t43.5 -15z" />
    <glyph glyph-name="nine.denominator" 
d="M265 191q-14 -20 -38.5 -33t-53.5 -13q-56 0 -85 35t-29 83q0 35 11.5 66t32.5 54.5t51.5 37.5t68.5 14q62 0 95 -37.5t33 -104.5q0 -52 -13.5 -105t-41.5 -97t-72 -71.5t-102 -27.5q-50 0 -81 14l20 56q26 -13 64 -13q51 0 88 39t54 103h-2zM196 200q40 0 63 28.5
t23 75.5q0 32 -17 53t-48 21q-21 0 -37 -9.5t-27.5 -24.5t-17.5 -35t-6 -41q0 -29 17 -48.5t50 -19.5z" />
    <glyph glyph-name="zero.inferior" unicode="&#x2080;" 
d="M206 297q61 0 94 -37t33 -105q0 -48 -11 -100.5t-36 -99t-64.5 -74t-91.5 -27.5q-61 0 -94.5 37t-33.5 105q0 50 11.5 103t37 99t65.5 72.5t90 26.5zM202 241q-32 0 -57.5 -25.5t-41.5 -66.5t-23 -82t-7 -69q0 -42 14.5 -65t45.5 -23q32 0 57.5 25t41.5 64.5t23 79.5
t7 69q0 46 -14.5 69.5t-45.5 23.5z" />
    <glyph glyph-name="one.inferior" unicode="&#x2081;" 
d="M174 -139h-72l76 356l-94 -54l-25 52l134 75h72z" />
    <glyph glyph-name="two.inferior" unicode="&#x2082;" 
d="M261 -139h-277l13 65q81 59 129 99t73 67.5t34 47.5t9 41q0 25 -17 41t-46 16q-20 0 -44 -7t-56 -23l-15 56q26 14 58.5 23.5t68.5 9.5q55 0 89 -29t34 -78q0 -34 -13 -63t-40.5 -59t-71.5 -65.5t-105 -81.5v-1h189z" />
    <glyph glyph-name="three.inferior" unicode="&#x2083;" 
d="M90 109h52q17 0 35 4.5t34.5 14.5t26.5 25t10 35q0 24 -15.5 38t-44.5 14q-20 0 -46 -6.5t-55 -19.5l-13 55q61 28 123 28q58 0 90 -26.5t32 -70.5q0 -45 -24 -74t-69 -43v-2q32 -10 48 -34.5t16 -53.5q0 -68 -46 -103.5t-126 -35.5q-29 0 -60 6.5t-57 19.5l23 56
q21 -10 44.5 -16.5t49.5 -6.5q46 0 73.5 20.5t27.5 59.5q0 61 -88 61h-52z" />
    <glyph glyph-name="four.inferior" unicode="&#x2084;" 
d="M257 14h56l-12 -57h-56l-20 -96h-68l20 96h-195l14 66l229 267h91zM232 217h-2l-171 -203h130z" />
    <glyph glyph-name="five.inferior" unicode="&#x2085;" 
d="M112 -88q51 0 81 24t30 66q0 35 -23 53t-64 18q-21 0 -45.5 -3.5t-47.5 -8.5l60 229h225l-12 -58h-163l-29 -108q11 3 22 4t21 1q59 0 93.5 -31.5t34.5 -89.5q0 -39 -14 -68t-39 -48t-58.5 -28.5t-72.5 -9.5q-30 0 -59 6t-57 19l21 57q22 -11 45.5 -17.5t50.5 -6.5z" />
    <glyph glyph-name="six.inferior" unicode="&#x2086;" 
d="M95 98q14 20 38.5 33t53.5 13q52 0 83 -33t31 -85q0 -35 -11.5 -66.5t-32.5 -55t-52 -37t-68 -13.5q-63 0 -95.5 37.5t-32.5 104.5q0 48 13.5 100.5t42 98.5t73 74t100.5 28q48 0 81 -14l-20 -56q-26 13 -64 13q-27 0 -49.5 -12t-40.5 -32t-31 -45.5t-21 -52.5h2zM164 89
q-39 0 -62.5 -28.5t-23.5 -75.5q0 -32 16.5 -53t48.5 -21q20 0 36.5 9t28 24.5t17.5 35.5t6 41q0 31 -18 49.5t-49 18.5z" />
    <glyph glyph-name="seven.inferior" unicode="&#x2087;" 
d="M76 290h272l-12 -54q-77 -98 -131.5 -192.5t-79.5 -182.5h-71q23 91 79.5 185.5t128.5 185.5h-199z" />
    <glyph glyph-name="eight.inferior" unicode="&#x2088;" 
d="M160 54q-17 0 -34 -5t-30.5 -15.5t-21.5 -25.5t-8 -36q0 -27 20 -44t52 -17q40 0 67 21t27 57q0 30 -20.5 47.5t-51.5 17.5zM199 297q25 0 48.5 -6.5t41 -20t27 -32.5t9.5 -44q0 -82 -85 -110l-1 -2q28 -11 45.5 -35t17.5 -58q0 -35 -13.5 -61t-36.5 -42t-52.5 -24
t-63.5 -8q-29 0 -54.5 6.5t-44.5 20t-30 34t-11 47.5q0 48 28 79.5t76 45.5l1 2q-26 9 -41.5 30.5t-15.5 49.5q0 31 12.5 55.5t34 40.5t49.5 24t59 8zM175 110q35 0 57.5 20.5t22.5 57.5q0 23 -17 38t-45 15q-33 0 -56 -20t-23 -55q0 -26 17.5 -41t43.5 -15z" />
    <glyph glyph-name="nine.inferior" unicode="&#x2089;" 
d="M237 52q-14 -20 -38.5 -33t-53.5 -13q-56 0 -85 35t-29 83q0 35 11.5 66t32.5 54.5t51.5 37.5t68.5 14q62 0 95 -37.5t33 -104.5q0 -52 -13.5 -105t-41.5 -97t-72 -71.5t-102 -27.5q-50 0 -81 14l20 56q26 -13 64 -13q51 0 88 39t54 103h-2zM168 61q40 0 63 28.5t23 75.5
q0 32 -17 53t-48 21q-21 0 -37 -9.5t-27.5 -24.5t-17.5 -35t-6 -41q0 -29 17 -48.5t50 -19.5z" />
    <glyph glyph-name="zero.numerator" 
d="M295 724q61 0 94 -37t33 -105q0 -48 -11 -100.5t-36 -99t-64.5 -74t-91.5 -27.5q-61 0 -94.5 37t-33.5 105q0 50 11.5 103t37 99t65.5 72.5t90 26.5zM291 668q-32 0 -57.5 -25.5t-41.5 -66.5t-23 -82t-7 -69q0 -42 14.5 -65t45.5 -23q32 0 57.5 25t41.5 64.5t23 79.5
t7 69q0 46 -14.5 69.5t-45.5 23.5z" />
    <glyph glyph-name="one.numerator" 
d="M264 288h-72l76 356l-94 -54l-25 52l134 75h72z" />
    <glyph glyph-name="two.numerator" 
d="M351 288h-277l13 65q81 59 129 99t73 67.5t34 47.5t9 41q0 25 -17 41t-46 16q-20 0 -44 -7t-56 -23l-15 56q26 14 58.5 23.5t68.5 9.5q55 0 89 -29t34 -78q0 -34 -13 -63t-40.5 -59t-71.5 -65.5t-105 -81.5v-1h189z" />
    <glyph glyph-name="three.numerator" 
d="M180 536h52q17 0 35 4.5t34.5 14.5t26.5 25t10 35q0 24 -15.5 38t-44.5 14q-20 0 -46 -6.5t-55 -19.5l-13 55q61 28 123 28q58 0 90 -26.5t32 -70.5q0 -45 -24 -74t-69 -43v-2q32 -10 48 -34.5t16 -53.5q0 -68 -46 -103.5t-126 -35.5q-29 0 -60 6.5t-57 19.5l23 56
q21 -10 44.5 -16.5t49.5 -6.5q46 0 73.5 20.5t27.5 59.5q0 61 -88 61h-52z" />
    <glyph glyph-name="four.numerator" 
d="M347 441h56l-12 -57h-56l-20 -96h-68l20 96h-195l14 66l229 267h91zM322 644h-2l-171 -203h130z" />
    <glyph glyph-name="five.numerator" 
d="M201 339q51 0 81 24t30 66q0 35 -23 53t-64 18q-21 0 -45.5 -3.5t-47.5 -8.5l60 229h225l-12 -58h-163l-29 -108q11 3 22 4t21 1q59 0 93.5 -31.5t34.5 -89.5q0 -39 -14 -68t-39 -48t-58.5 -28.5t-72.5 -9.5q-30 0 -59 6t-57 19l21 57q22 -11 45.5 -17.5t50.5 -6.5z" />
    <glyph glyph-name="six.numerator" 
d="M185 525q14 20 38.5 33t53.5 13q52 0 83 -33t31 -85q0 -35 -11.5 -66.5t-32.5 -55t-52 -37t-68 -13.5q-63 0 -95.5 37.5t-32.5 104.5q0 48 13.5 100.5t42 98.5t73 74t100.5 28q48 0 81 -14l-20 -56q-26 13 -64 13q-27 0 -49.5 -12t-40.5 -32t-31 -45.5t-21 -52.5h2z
M254 516q-39 0 -62.5 -28.5t-23.5 -75.5q0 -32 16.5 -53t48.5 -21q20 0 36.5 9t28 24.5t17.5 35.5t6 41q0 31 -18 49.5t-49 18.5z" />
    <glyph glyph-name="seven.numerator" 
d="M166 717h272l-12 -54q-77 -98 -131.5 -192.5t-79.5 -182.5h-71q23 91 79.5 185.5t128.5 185.5h-199z" />
    <glyph glyph-name="eight.numerator" 
d="M249 481q-17 0 -34 -5t-30.5 -15.5t-21.5 -25.5t-8 -36q0 -27 20 -44t52 -17q40 0 67 21t27 57q0 30 -20.5 47.5t-51.5 17.5zM288 724q25 0 48.5 -6.5t41 -20t27 -32.5t9.5 -44q0 -82 -85 -110l-1 -2q28 -11 45.5 -35t17.5 -58q0 -35 -13.5 -61t-36.5 -42t-52.5 -24
t-63.5 -8q-29 0 -54.5 6.5t-44.5 20t-30 34t-11 47.5q0 48 28 79.5t76 45.5l1 2q-26 9 -41.5 30.5t-15.5 49.5q0 31 12.5 55.5t34 40.5t49.5 24t59 8zM264 537q35 0 57.5 20.5t22.5 57.5q0 23 -17 38t-45 15q-33 0 -56 -20t-23 -55q0 -26 17.5 -41t43.5 -15z" />
    <glyph glyph-name="nine.numerator" 
d="M326 479q-14 -20 -38.5 -33t-53.5 -13q-56 0 -85 35t-29 83q0 35 11.5 66t32.5 54.5t51.5 37.5t68.5 14q62 0 95 -37.5t33 -104.5q0 -52 -13.5 -105t-41.5 -97t-72 -71.5t-102 -27.5q-50 0 -81 14l20 56q26 -13 64 -13q51 0 88 39t54 103h-2zM257 488q40 0 63 28.5
t23 75.5q0 32 -17 53t-48 21q-21 0 -37 -9.5t-27.5 -24.5t-17.5 -35t-6 -41q0 -29 17 -48.5t50 -19.5z" />
    <glyph glyph-name="zero.superior" unicode="&#x2070;" 
d="M325 864q61 0 94 -37t33 -105q0 -48 -11 -100.5t-36 -99t-64.5 -74t-91.5 -27.5q-61 0 -94.5 37t-33.5 105q0 50 11.5 103t37 99t65.5 72.5t90 26.5zM321 808q-32 0 -57.5 -25.5t-41.5 -66.5t-23 -82t-7 -69q0 -42 14.5 -65t45.5 -23q32 0 57.5 25t41.5 64.5t23 79.5
t7 69q0 46 -14.5 69.5t-45.5 23.5z" />
    <glyph glyph-name="onesuperior" unicode="&#xb9;" 
d="M294 428h-72l76 356l-94 -54l-25 52l134 75h72z" />
    <glyph glyph-name="twosuperior" unicode="&#xb2;" 
d="M381 428h-277l13 65q81 59 129 99t73 67.5t34 47.5t9 41q0 25 -17 41t-46 16q-20 0 -44 -7t-56 -23l-15 56q26 14 58.5 23.5t68.5 9.5q55 0 89 -29t34 -78q0 -34 -13 -63t-40.5 -59t-71.5 -65.5t-105 -81.5v-1h189z" />
    <glyph glyph-name="threesuperior" unicode="&#xb3;" 
d="M210 676h52q17 0 35 4.5t34.5 14.5t26.5 25t10 35q0 24 -15.5 38t-44.5 14q-20 0 -46 -6.5t-55 -19.5l-13 55q61 28 123 28q58 0 90 -26.5t32 -70.5q0 -45 -24 -74t-69 -43v-2q32 -10 48 -34.5t16 -53.5q0 -68 -46 -103.5t-126 -35.5q-29 0 -60 6.5t-57 19.5l23 56
q21 -10 44.5 -16.5t49.5 -6.5q46 0 73.5 20.5t27.5 59.5q0 61 -88 61h-52z" />
    <glyph glyph-name="four.superior" unicode="&#x2074;" 
d="M377 581h56l-12 -57h-56l-20 -96h-68l20 96h-195l14 66l229 267h91zM352 784h-2l-171 -203h130z" />
    <glyph glyph-name="five.superior" unicode="&#x2075;" 
d="M230 479q51 0 81 24t30 66q0 35 -23 53t-64 18q-21 0 -45.5 -3.5t-47.5 -8.5l60 229h225l-12 -58h-163l-29 -108q11 3 22 4t21 1q59 0 93.5 -31.5t34.5 -89.5q0 -39 -14 -68t-39 -48t-58.5 -28.5t-72.5 -9.5q-30 0 -59 6t-57 19l21 57q22 -11 45.5 -17.5t50.5 -6.5z" />
    <glyph glyph-name="six.superior" unicode="&#x2076;" 
d="M214 665q14 20 38.5 33t53.5 13q52 0 83 -33t31 -85q0 -35 -11.5 -66.5t-32.5 -55t-52 -37t-68 -13.5q-63 0 -95.5 37.5t-32.5 104.5q0 48 13.5 100.5t42 98.5t73 74t100.5 28q48 0 81 -14l-20 -56q-26 13 -64 13q-27 0 -49.5 -12t-40.5 -32t-31 -45.5t-21 -52.5h2z
M283 656q-39 0 -62.5 -28.5t-23.5 -75.5q0 -32 16.5 -53t48.5 -21q20 0 36.5 9t28 24.5t17.5 35.5t6 41q0 31 -18 49.5t-49 18.5z" />
    <glyph glyph-name="seven.superior" unicode="&#x2077;" 
d="M196 857h272l-12 -54q-77 -98 -131.5 -192.5t-79.5 -182.5h-71q23 91 79.5 185.5t128.5 185.5h-199z" />
    <glyph glyph-name="eight.superior" unicode="&#x2078;" 
d="M278 621q-17 0 -34 -5t-30.5 -15.5t-21.5 -25.5t-8 -36q0 -27 20 -44t52 -17q40 0 67 21t27 57q0 30 -20.5 47.5t-51.5 17.5zM317 864q25 0 48.5 -6.5t41 -20t27 -32.5t9.5 -44q0 -82 -85 -110l-1 -2q28 -11 45.5 -35t17.5 -58q0 -35 -13.5 -61t-36.5 -42t-52.5 -24
t-63.5 -8q-29 0 -54.5 6.5t-44.5 20t-30 34t-11 47.5q0 48 28 79.5t76 45.5l1 2q-26 9 -41.5 30.5t-15.5 49.5q0 31 12.5 55.5t34 40.5t49.5 24t59 8zM293 677q35 0 57.5 20.5t22.5 57.5q0 23 -17 38t-45 15q-33 0 -56 -20t-23 -55q0 -26 17.5 -41t43.5 -15z" />
    <glyph glyph-name="nine.superior" unicode="&#x2079;" 
d="M356 619q-14 -20 -38.5 -33t-53.5 -13q-56 0 -85 35t-29 83q0 35 11.5 66t32.5 54.5t51.5 37.5t68.5 14q62 0 95 -37.5t33 -104.5q0 -52 -13.5 -105t-41.5 -97t-72 -71.5t-102 -27.5q-50 0 -81 14l20 56q26 -13 64 -13q51 0 88 39t54 103h-2zM287 628q40 0 63 28.5
t23 75.5q0 32 -17 53t-48 21q-21 0 -37 -9.5t-27.5 -24.5t-17.5 -35t-6 -41q0 -29 17 -48.5t50 -19.5z" />
    <glyph glyph-name="interrobang" unicode="&#x203d;" horiz-adv-x="464" 
d="M273 371h2l62 46q49 36 70 70t21 73q0 46 -30.5 71t-83.5 25q-32 0 -71.5 -8.5t-72.5 -25.5l-12 65q41 20 81.5 29.5t90.5 9.5q37 0 70 -9.5t58.5 -28.5t40.5 -49t15 -69q0 -38 -12 -68.5t-33 -55.5t-49.5 -48t-61.5 -45q-26 -17 -44.5 -32t-32 -31.5t-22.5 -36.5
t-15 -47l-6 -27h-73l66 356h81zM136 97h99l-20 -97h-99z" />
    <glyph glyph-name="uni2105" unicode="&#x2105;" horiz-adv-x="768" 
d="M710 195q0 -42 -11.5 -79.5t-34 -66t-56.5 -45t-79 -16.5q-58 0 -93 33.5t-35 92.5q0 42 11.5 79t34 65.5t57 45t78.5 16.5q60 0 94 -34t34 -91zM536 40q26 0 45.5 14t32.5 36.5t19.5 50t6.5 53.5q0 34 -16 54t-49 20q-24 0 -44 -13.5t-33 -36t-19.5 -49t-6.5 -53.5
q0 -35 16 -55.5t48 -20.5zM340 403q-20 -5 -36.5 -7.5t-32.5 -2.5q-33 0 -60.5 10t-45 29t-25.5 42t-8 50q0 38 12.5 74.5t37 65t58.5 45t76 16.5q16 0 36 -3t37 -9l-18 -52q-32 12 -56 12q-26 0 -47.5 -12.5t-35.5 -33t-21.5 -46.5t-7.5 -52q0 -39 18 -61.5t55 -22.5
q12 0 28 2t36 8v-52zM166 0h-66l563 714h66z" />
    <glyph glyph-name="uni2117" unicode="&#x2117;" horiz-adv-x="800" 
d="M128 355q0 -64 22.5 -121t63 -99t97.5 -66.5t125 -24.5q67 0 123.5 24.5t96.5 66.5t62.5 99t22.5 121q0 65 -22.5 122.5t-62.5 100.5t-96.5 68t-123.5 25q-68 0 -125 -25t-97.5 -68t-63 -100.5t-22.5 -122.5zM69 355q0 77 27 144t76 117t116.5 78.5t147.5 28.5
q78 0 145 -28t116 -78.5t75.5 -117.5t26.5 -144q0 -76 -27 -142.5t-74.5 -115.5t-115 -77.5t-146.5 -28.5q-80 0 -148 28.5t-116.5 78t-75.5 115.5t-27 142zM308 569h155q30 0 56 -7t47.5 -22.5t34 -41t12.5 -61.5t-12.5 -63t-33 -43t-47.5 -24t-56 -8h-86v-162h-70v432z
M378 359h80q17 0 32.5 4t27 12.5t18.5 23.5t7 37t-7 36t-19 22t-28.5 11t-35.5 3h-75v-149z" />
    <glyph glyph-name="uni0406" unicode="&#x406;" horiz-adv-x="263" 
d="M199 714h84l-151 -714h-84z" />
    <glyph glyph-name="uni0456" unicode="&#x456;" horiz-adv-x="251" 
d="M237 528l-112 -528h-82l112 528h82zM279 727l-19 -88h-88l19 88h88z" />
    <glyph glyph-name="uni0408" unicode="&#x408;" horiz-adv-x="329" 
d="M235 153q-8 -39 -21.5 -69.5t-35.5 -52t-53 -32.5t-75 -11q-13 0 -35 1.5t-40 5.5l12 71q16 -4 32.5 -5.5t28.5 -1.5q45 0 68.5 21.5t34.5 72.5l119 561h84z" />
    <glyph glyph-name="uni0458" unicode="&#x458;" horiz-adv-x="251" 
d="M120 -37q-8 -37 -19.5 -65t-31 -49t-48.5 -32.5t-72 -11.5q-13 0 -28 1t-28 3l10 65q12 -2 23 -3t23 -1q21 0 36 7.5t25 20.5t16.5 31t11.5 41l119 558h82zM281 727l-19 -88h-88l19 88h88z" />
    <glyph glyph-name="uni0410" unicode="&#x410;" horiz-adv-x="645" 
d="M58 0h-94l425 714h115l89 -714h-91l-24 214h-294zM222 287h250l-39 361z" />
    <glyph glyph-name="uni0411" unicode="&#x411;" horiz-adv-x="606" 
d="M199 714h409l-15 -71h-325l-48 -229h135q46 0 85 -10.5t67.5 -32.5t44.5 -57t16 -82q0 -53 -20.5 -95.5t-57.5 -73t-88.5 -47t-114.5 -16.5h-239zM295 71q33 0 66 8t60 26.5t44 49.5t17 75q0 33 -11.5 55t-32.5 35t-47 18t-56 5h-130l-57 -272h147z" />
    <glyph glyph-name="uni0412" unicode="&#x412;" horiz-adv-x="606" 
d="M199 714h219q42 0 77.5 -9.5t61 -29t40 -49t14.5 -70.5t-11.5 -72.5t-33.5 -54.5t-50.5 -37.5t-65.5 -23.5v-2q54 -12 86.5 -51.5t32.5 -93.5q0 -45 -17.5 -85t-52 -70.5t-84.5 -48t-116 -17.5h-251zM217 403h130q38 0 70.5 8.5t56.5 26t37.5 45t13.5 64.5
q0 26 -11.5 45.5t-31 30.5t-43.5 15.5t-49 4.5h-122zM147 71h153q38 0 70.5 8t57.5 25t40.5 45.5t15.5 69.5q0 54 -41.5 83.5t-110.5 29.5h-130z" />
    <glyph glyph-name="uni0413" unicode="&#x413;" horiz-adv-x="485" 
d="M199 714h379l-15 -71h-295l-136 -643h-84z" />
    <glyph glyph-name="uni0414" unicode="&#x414;" horiz-adv-x="711" 
d="M-19 71h60q38 40 70 86.5t60 107t52.5 141t47.5 189.5l25 119h417l-136 -643h92l-51 -239h-72l27 168h-529l-43 -168h-71zM493 71l121 572h-253l-17 -81q-20 -95 -42 -170t-47 -134.5t-53.5 -105.5t-60.5 -81h352z" />
    <glyph glyph-name="uni0415" unicode="&#x415;" horiz-adv-x="525" 
d="M199 714h357l-15 -71h-273l-51 -240h259l-15 -71h-259l-55 -261h298l-15 -71h-382z" />
    <glyph glyph-name="uni0416" unicode="&#x416;" horiz-adv-x="887" 
d="M344 371l-225 343h100l214 -334h2l71 334h84l-71 -334h2l332 334h113l-360 -347l241 -367h-100l-230 358h-2l-76 -358h-84l76 358h-2l-356 -358h-113z" />
    <glyph glyph-name="uni0417" unicode="&#x417;" horiz-adv-x="530" 
d="M206 -12q-45 0 -92 8.5t-94 29.5l23 72q44 -21 86 -30t79 -9q38 0 72 9.5t59 28.5t39.5 47.5t14.5 67.5q0 34 -12.5 57t-34 37t-49.5 20t-58 6h-58l13 71h58q40 0 73.5 9t58 27t39 48t14.5 72q0 45 -32 70.5t-87 25.5q-45 0 -87.5 -11.5t-72.5 -25.5l-13 71
q38 16 84.5 26.5t92.5 10.5q89 0 143.5 -44t54.5 -122q0 -35 -12 -66t-33 -56t-50.5 -43t-64.5 -28v-2q56 -12 86.5 -53.5t30.5 -98.5q0 -49 -19 -90t-54.5 -71t-85.5 -47t-112 -17z" />
    <glyph glyph-name="uni0418" unicode="&#x418;" horiz-adv-x="705" 
d="M199 714h84l-130 -614h2l446 614h124l-151 -714h-84l131 620h-2l-450 -620h-121z" />
    <glyph glyph-name="uni0419" unicode="&#x419;" horiz-adv-x="705" 
d="M199 714h84l-130 -614h2l446 614h124l-151 -714h-84l131 620h-2l-450 -620h-121zM465 767q-63 0 -96.5 28t-33.5 79q0 16 3 34h58q-3 -15 -3 -28q0 -29 18.5 -43.5t56.5 -14.5q45 0 70.5 20t33.5 66h60q-6 -32 -17.5 -56.5t-30.5 -43.5t-48.5 -30t-70.5 -11z" />
    <glyph glyph-name="uni041A" unicode="&#x41a;" horiz-adv-x="580" 
d="M659 714l-360 -347l241 -367h-100l-230 358h-2l-76 -358h-84l151 714h84l-71 -334h2l332 334h113z" />
    <glyph glyph-name="uni041B" unicode="&#x41b;" horiz-adv-x="699" 
d="M20 -4q-13 0 -26.5 1t-25.5 3l15 69q16 -3 33 -3q59 0 97.5 38.5t68 119t58.5 201.5t70 289h409l-152 -714h-84l136 643h-245q-39 -172 -70 -294t-67.5 -200.5t-87 -115.5t-129.5 -37z" />
    <glyph glyph-name="uni041C" unicode="&#x41c;" horiz-adv-x="865" 
d="M402 79h2l335 635h146l-151 -714h-82l137 648h-2l-343 -648h-112l-65 648h-2l-137 -648h-80l151 714h143z" />
    <glyph glyph-name="uni041D" unicode="&#x41d;" horiz-adv-x="684" 
d="M199 714h84l-66 -311h337l66 311h84l-151 -714h-84l70 332h-337l-70 -332h-84z" />
    <glyph glyph-name="uni041E" unicode="&#x41e;" horiz-adv-x="733" 
d="M715 461q0 -53 -10 -108.5t-30 -108t-50.5 -99t-71.5 -81.5t-94 -55.5t-117 -20.5q-63 0 -112.5 19.5t-81.5 55t-48.5 83.5t-16.5 108q0 97 27 183t76.5 150.5t119.5 101.5t152 37q66 0 114.5 -20t80 -55t47 -83.5t15.5 -106.5zM348 59q47 0 86.5 16.5t71.5 46t55 68
t38.5 81.5t23 88.5t7.5 87.5q0 43 -10.5 81t-32 66t-55.5 44.5t-81 16.5q-64 0 -117 -33t-90 -88.5t-56.5 -125.5t-19.5 -142q0 -43 10.5 -80t33 -66.5t57.5 -45t79 -15.5z" />
    <glyph glyph-name="uni041F" unicode="&#x41f;" horiz-adv-x="671" 
d="M199 714h492l-151 -714h-84l136 643h-324l-136 -643h-84z" />
    <glyph glyph-name="uni0420" unicode="&#x420;" horiz-adv-x="601" 
d="M199 714h204q46 0 85 -10.5t67.5 -31.5t44.5 -54.5t16 -77.5q0 -56 -20.5 -100.5t-57.5 -75.5t-89 -47.5t-114 -16.5h-140l-63 -300h-84zM211 371h132q34 0 66.5 8t60.5 27t44 50.5t16 73.5q0 33 -11.5 55t-32.5 35t-47 18t-56 5h-115z" />
    <glyph glyph-name="uni0421" unicode="&#x421;" horiz-adv-x="570" 
d="M500 6q-32 -9 -68 -13.5t-70 -4.5q-74 0 -127.5 22t-87 61t-49 91t-15.5 112q0 85 27.5 166.5t81 146.5t129 102t164.5 37q33 0 71.5 -6t67.5 -16l-24 -69q-27 10 -57.5 15t-63.5 5q-69 0 -127.5 -32t-99.5 -86.5t-62.5 -121.5t-21.5 -137q0 -47 11.5 -87t36.5 -69.5
t65 -46t97 -16.5q29 0 60.5 4.5t61.5 13.5v-71z" />
    <glyph glyph-name="uni0422" unicode="&#x422;" horiz-adv-x="506" 
d="M300 643h-205l15 71h489l-15 -71h-200l-136 -643h-84z" />
    <glyph glyph-name="uni0423" unicode="&#x423;" horiz-adv-x="595" 
d="M256 237l-152 477h91l123 -395l289 395h98l-535 -714h-100z" />
    <glyph glyph-name="uni0424" unicode="&#x424;" horiz-adv-x="806" 
d="M340 80q-67 9 -116.5 32.5t-81.5 58t-47.5 77t-15.5 89.5q0 66 24.5 124t73 101.5t121.5 68.5t165 26l15 69h83l-16 -73q67 -8 118 -31.5t82.5 -58.5t46 -77.5t14.5 -89.5q0 -67 -25 -125.5t-73.5 -101.5t-120 -68t-165.5 -26l-18 -87h-83zM448 586q-63 -2 -115 -20
t-89.5 -50.5t-58 -78t-20.5 -101.5q0 -33 11 -62.5t33.5 -54.5t60 -43t85.5 -25zM437 146q60 1 113 19t90.5 50t58.5 78t21 103q0 31 -10 61.5t-32.5 55.5t-59 43t-88.5 26z" />
    <glyph glyph-name="uni0425" unicode="&#x425;" horiz-adv-x="598" 
d="M390 367l160 -367h-96l-127 306l-259 -306h-105l324 377l-147 337h94l116 -281l233 281h104z" />
    <glyph glyph-name="uni0426" unicode="&#x426;" horiz-adv-x="690" 
d="M552 0h-504l152 714h84l-136 -643h324l136 643h84l-136 -643h92l-51 -239h-72z" />
    <glyph glyph-name="uni0427" unicode="&#x427;" horiz-adv-x="611" 
d="M460 303q-10 -3 -28 -6.5t-40 -7.5t-45 -6.5t-43 -2.5q-36 0 -69 6t-57.5 22t-39 45t-14.5 76q0 38 10 84l42 201h84l-45 -211q-7 -32 -7 -60q0 -51 29.5 -71.5t97.5 -20.5q20 0 41.5 2.5t41 6.5t34.5 7.5t23 6.5l72 340h84l-151 -714h-84z" />
    <glyph glyph-name="uni0428" unicode="&#x428;" horiz-adv-x="959" 
d="M199 714h84l-136 -643h264l136 643h84l-136 -643h264l136 643h84l-151 -714h-780z" />
    <glyph glyph-name="uni0429" unicode="&#x429;" horiz-adv-x="978" 
d="M840 0h-792l152 714h84l-136 -643h264l136 643h84l-136 -643h264l136 643h84l-136 -643h92l-51 -239h-72z" />
    <glyph glyph-name="uni042A" unicode="&#x42a;" horiz-adv-x="678" 
d="M262 643h-167l15 71h251l-63 -300h125q46 0 85 -10.5t67.5 -32.5t44.5 -56.5t16 -82.5q0 -53 -20.5 -95.5t-57.5 -73t-88.5 -47t-114.5 -16.5h-229zM363 71q33 0 66 8t60 26.5t44 49t17 75.5q0 33 -11.5 55t-32 35t-47 18t-56.5 5h-120l-57 -272h137z" />
    <glyph glyph-name="uni042B" unicode="&#x42b;" horiz-adv-x="814" 
d="M199 714h84l-63 -300h125q46 0 85 -10.5t67.5 -32.5t44.5 -56.5t16 -82.5q0 -53 -20.5 -95.5t-57.5 -73t-88.5 -47t-114.5 -16.5h-229zM285 71q33 0 66 8t60 26.5t44 49.5t17 75q0 33 -11.5 55t-32.5 35t-47 18t-56 5h-120l-57 -272h137zM750 714h84l-151 -714h-84z" />
    <glyph glyph-name="uni042C" unicode="&#x42c;" horiz-adv-x="600" 
d="M199 714h84l-63 -300h125q46 0 85 -10.5t67.5 -32.5t44.5 -56.5t16 -82.5q0 -53 -20.5 -95.5t-57.5 -73t-88.5 -47t-114.5 -16.5h-229zM285 71q33 0 66 8t60 26.5t44 49t17 75.5q0 33 -11.5 55t-32 35t-47 18t-56.5 5h-120l-57 -272h137z" />
    <glyph glyph-name="uni042D" unicode="&#x42d;" horiz-adv-x="570" 
d="M133 694q30 13 72.5 22.5t90.5 9.5q65 0 114 -22t80.5 -61t46.5 -91t15 -112q0 -82 -23 -161t-71.5 -145t-126.5 -106t-181 -40q-33 0 -71.5 6t-67.5 16l24 69q26 -10 57 -15t64 -5q61 0 111.5 22t88 60.5t62.5 88t37 102.5h-259l15 71h255q1 15 1 21v12q0 46 -11 86.5
t-34 70t-58 46t-82 16.5q-40 0 -77 -9.5t-62 -20.5z" />
    <glyph glyph-name="uni042E" unicode="&#x42e;" horiz-adv-x="953" 
d="M571 -12q-63 0 -109.5 19t-77 53t-46 82t-15.5 105q0 21 1.5 42t3.5 42h-121l-70 -331h-87l151 714h87l-66 -310h120q17 67 48 125.5t75 102.5t101 69t123 25q63 0 109 -19t76.5 -53.5t45.5 -81.5t15 -104q0 -52 -9.5 -107.5t-29 -109t-49 -101t-70 -84t-92.5 -57.5
t-114 -21zM576 59q46 0 85 17.5t69.5 48.5t53 70.5t37.5 84t22 89.5t7 86q0 42 -9.5 78t-30 63.5t-52.5 43t-76 15.5q-63 0 -115.5 -35.5t-87.5 -94t-53 -128.5t-18 -139q0 -42 10 -78.5t30.5 -63.5t52.5 -42t75 -15z" />
    <glyph glyph-name="uni042F" unicode="&#x42f;" horiz-adv-x="611" 
d="M250 311q-59 16 -92.5 59t-33.5 112q0 52 20.5 95t57.5 73.5t89 47t114 16.5h226l-151 -714h-84l63 300h-117l-244 -300h-110zM474 371l58 272h-135q-33 0 -66 -8t-60.5 -27t-44 -50t-16.5 -74q0 -33 11.5 -55t32 -35t47 -18t56.5 -5h117z" />
    <glyph glyph-name="uni0430" unicode="&#x430;" horiz-adv-x="544" 
d="M406 329q5 21 6.5 31.5t1.5 20.5q0 46 -28.5 70t-83.5 24q-28 0 -63.5 -5t-71.5 -16l-4 65q34 10 71.5 15.5t73.5 5.5q91 0 139 -39.5t48 -111.5q0 -17 -2 -32t-6 -32l-43 -205q-6 -29 -10.5 -62t-4.5 -58h-69q-1 7 -1 10.5v7.5q0 14 1.5 29t3.5 32h-2q-21 -39 -66 -65
t-105 -26q-30 0 -56.5 9.5t-46 27.5t-31 45t-11.5 61q0 57 27.5 95.5t76 61t114 32t142.5 9.5zM366 268q-48 0 -91.5 -6.5t-76.5 -21.5t-52.5 -41t-19.5 -63t23 -60t61 -23q39 0 68.5 14t50.5 37.5t34.5 54.5t20.5 64l9 45h-27z" />
    <glyph glyph-name="uni0431" unicode="&#x431;" horiz-adv-x="583" 
d="M262 -12q-48 0 -84 15t-60.5 42t-36.5 64t-12 82q0 46 10.5 111.5t31 132.5t51.5 123.5t72 88.5q33 24 73.5 37t89 20.5t100 13.5t107.5 15l9 -68q-31 -6 -63 -10t-65.5 -8t-68 -9.5t-65.5 -13.5q-36 -9 -63.5 -27t-47 -43.5t-33 -57t-25.5 -70.5h2q28 43 76 72.5
t104 29.5q49 0 83.5 -14.5t56 -41t31.5 -64t10 -82.5q0 -74 -21.5 -136t-60 -107t-90 -70t-111.5 -25zM272 52q40 0 74.5 20t60 56t40.5 86.5t15 110.5q0 31 -6 56t-19 44t-34.5 29t-49.5 10q-41 0 -78 -19.5t-64.5 -54.5t-43.5 -84t-16 -108q0 -71 31 -108.5t90 -37.5z" />
    <glyph glyph-name="uni0432" unicode="&#x432;" horiz-adv-x="538" 
d="M155 528h213q68 0 105 -30.5t37 -86.5q0 -57 -30.5 -91t-88.5 -48v-1q38 -8 63 -37.5t25 -70.5q0 -33 -13 -62.5t-38 -52t-62.5 -35.5t-85.5 -13h-237zM274 65q24 0 46 5t39.5 17t27.5 30.5t10 46.5q0 36 -28 56t-74 20h-119l-37 -175h135zM324 305q53 0 82.5 24.5
t29.5 71.5q0 18 -7.5 30t-19.5 19t-27 10t-31 3h-128l-33 -158h134z" />
    <glyph glyph-name="uni0433" unicode="&#x433;" horiz-adv-x="422" 
d="M155 528h321l-15 -65h-239l-97 -463h-82z" />
    <glyph glyph-name="uni0434" unicode="&#x434;" horiz-adv-x="611" 
d="M-15 65h58q28 32 52 67t44 77t36.5 95.5t30.5 123.5l20 100h352l-98 -463h82l-47 -218h-66l25 153h-429l-41 -153h-65zM398 65l83 398h-191l-9 -50q-19 -106 -54.5 -195t-90.5 -153h262z" />
    <glyph glyph-name="uni0435" unicode="&#x435;" horiz-adv-x="539" 
d="M413 7q-52 -19 -125 -19q-58 0 -101 16t-70.5 44t-41 66.5t-13.5 84.5q0 69 20 132t57 109.5t88 73t112 26.5q86 0 131.5 -46.5t45.5 -132.5q0 -20 -4 -51.5t-13 -68.5h-353q-1 -7 -1.5 -16.5t-0.5 -20.5q0 -72 40.5 -111.5t116.5 -39.5q30 0 56.5 4t55.5 13v-63z
M332 475q-35 0 -64.5 -13.5t-51.5 -37t-37 -53.5t-23 -63h280q6 25 6 48q0 57 -27.5 88t-82.5 31z" />
    <glyph glyph-name="uni0436" unicode="&#x436;" horiz-adv-x="708" 
d="M237 273l-177 255h96l166 -245h2l52 245h82l-52 -245h2l245 245h105l-269 -255l189 -273h-96l-178 263h-2l-56 -263h-82l56 263h-2l-263 -263h-105z" />
    <glyph glyph-name="uni0437" unicode="&#x437;" horiz-adv-x="443" 
d="M171 -12q-49 0 -94 8.5t-77 23.5l23 65q37 -18 72.5 -25t70.5 -7q31 0 58 8.5t45 23t28 33.5t10 42q0 41 -28.5 60.5t-94.5 19.5h-49l14 65h44q30 0 55.5 6.5t44 19t29.5 31t11 43.5q0 35 -25.5 52.5t-70.5 17.5q-38 0 -72 -8.5t-61 -21.5l-17 61q29 14 73.5 24t93.5 10
q72 0 114.5 -34.5t42.5 -94.5q0 -46 -31.5 -83t-82.5 -52v-2q40 -9 65 -38.5t25 -74.5q0 -42 -18 -75t-48.5 -54.5t-69 -32.5t-80.5 -11z" />
    <glyph glyph-name="uni0438" unicode="&#x438;" horiz-adv-x="609" 
d="M155 528h81l-93 -434h2l328 434h116l-112 -528h-81l93 438h-2l-331 -438h-113z" />
    <glyph glyph-name="uni0439" unicode="&#x439;" horiz-adv-x="609" 
d="M155 528h81l-93 -434h2l328 434h116l-112 -528h-81l93 438h-2l-331 -438h-113zM369 607q-63 0 -96.5 28t-33.5 79q0 16 3 34h58q-3 -15 -3 -28q0 -29 18.5 -43.5t56.5 -14.5q46 0 71 20.5t33 65.5h60q-6 -31 -17 -55.5t-30 -44t-49.5 -30.5t-70.5 -11z" />
    <glyph glyph-name="uni043A" unicode="&#x43a;" horiz-adv-x="497" 
d="M155 528h82l-52 -245h2l255 245h105l-279 -255l199 -273h-96l-188 263h-2l-56 -263h-82z" />
    <glyph glyph-name="uni043B" unicode="&#x43b;" horiz-adv-x="589" 
d="M19 -4q-11 0 -27 1t-27 3l14 65q8 -1 14.5 -1.5t17.5 -0.5q38 0 65 24t50 78t46 143t51 220h346l-112 -528h-82l97 463h-186q-27 -125 -49 -211t-50.5 -144t-68 -85t-99.5 -27z" />
    <glyph glyph-name="uni043C" unicode="&#x43c;" horiz-adv-x="742" 
d="M155 528h130l50 -457h2l248 457h137l-112 -528h-81l98 462h-2l-252 -462h-100l-51 462h-1l-98 -462h-80z" />
    <glyph glyph-name="uni043D" unicode="&#x43d;" horiz-adv-x="593" 
d="M155 528h82l-47 -223h254l47 223h82l-112 -528h-82l50 240h-254l-50 -240h-82z" />
    <glyph glyph-name="uni043E" unicode="&#x43e;" horiz-adv-x="580" 
d="M543 335q0 -54 -16.5 -114.5t-50.5 -113.5t-89 -86t-123 -33q-53 0 -91 15.5t-63.5 43.5t-37.5 66t-12 84q0 70 20.5 132.5t57.5 109.5t89 74t112 27q52 0 91 -15t64 -42t37 -64.5t12 -83.5zM267 53q48 0 86.5 28t61.5 72t34 92t11 87q0 31 -6.5 57t-21 45t-38.5 30
t-58 11q-45 0 -81.5 -23.5t-61.5 -62.5t-37.5 -88t-12.5 -99q0 -31 7 -58.5t21.5 -47.5t38 -31.5t57.5 -11.5z" />
    <glyph glyph-name="uni043F" unicode="&#x43f;" horiz-adv-x="587" 
d="M155 528h412l-112 -528h-82l97 463h-248l-97 -463h-82z" />
    <glyph glyph-name="uni0440" unicode="&#x440;" horiz-adv-x="592" 
d="M81 -195h-81l154 723h82l-17 -76h2q25 39 67 63.5t88 24.5q53 0 88.5 -18.5t56.5 -48.5t30 -69t9 -79q0 -68 -19.5 -129.5t-55 -107.5t-85.5 -73t-111 -27q-59 0 -96 21.5t-54 60.5h-2zM290 53q45 0 81.5 26t60 67.5t34.5 89t11 88.5q0 30 -6.5 57.5t-20 48.5t-35.5 33
t-53 12q-44 0 -80.5 -24.5t-61.5 -65t-38.5 -90.5t-13.5 -101q0 -65 31.5 -103t90.5 -38z" />
    <glyph glyph-name="uni0441" unicode="&#x441;" horiz-adv-x="440" 
d="M379 2q-50 -14 -99 -14q-55 0 -96.5 17t-68 46t-40 68t-13.5 84q0 64 19.5 124t58 108.5t94 76.5t122.5 28q24 0 51.5 -3.5t50.5 -11.5l-22 -65q-20 8 -42 11.5t-41 3.5q-46 0 -85.5 -22t-67 -60.5t-41.5 -85.5t-14 -95q0 -33 7.5 -61t24.5 -50.5t44.5 -35t66.5 -12.5
q22 0 44.5 3t46.5 10v-64z" />
    <glyph glyph-name="uni0442" unicode="&#x442;" horiz-adv-x="435" 
d="M227 461h-167l15 67h414l-15 -67h-165l-97 -461h-82z" />
    <glyph glyph-name="uni0443" unicode="&#x443;" horiz-adv-x="494" 
d="M206 95h2l265 433h90l-464 -723h-89l127 197l-46 526h83z" />
    <glyph glyph-name="uni0444" unicode="&#x444;" horiz-adv-x="720" 
d="M273 -5q-97 8 -155 65.5t-58 152.5q0 78 26.5 138t71.5 99.5t104.5 61t125.5 23.5l43 200h82l-43 -202q50 -5 89 -22t66 -44t42.5 -65.5t15.5 -86.5q0 -78 -27 -138t-72 -99.5t-104.5 -61t-124.5 -23.5l-40 -188h-82zM374 470q-49 -2 -91.5 -21t-73.5 -52.5t-48.5 -80
t-17.5 -102.5q0 -66 37.5 -107.5t106.5 -47.5zM369 58q49 2 91.5 21t73.5 52.5t48.5 79.5t17.5 103q0 66 -38 107.5t-106 47.5z" />
    <glyph glyph-name="uni0445" unicode="&#x445;" horiz-adv-x="490" 
d="M315 269l121 -269h-90l-93 218l-191 -218h-99l248 277l-113 251h89l87 -204l176 204h99z" />
    <glyph glyph-name="uni0446" unicode="&#x446;" horiz-adv-x="600" 
d="M463 0h-420l112 528h82l-98 -463h248l98 463h82l-98 -463h82l-47 -218h-66z" />
    <glyph glyph-name="uni0447" unicode="&#x447;" horiz-adv-x="533" 
d="M364 214q-9 -3 -25 -7t-35.5 -7.5t-41.5 -6t-44 -2.5q-72 0 -106 30t-34 88q0 14 1.5 28.5t5.5 32.5l34 158h82l-32 -151q-6 -29 -6 -50q0 -37 21 -53.5t73 -16.5q16 0 35 3t36.5 7t30.5 8t19 6l53 247h82l-112 -528h-82z" />
    <glyph glyph-name="uni0448" unicode="&#x448;" horiz-adv-x="859" 
d="M155 528h82l-98 -463h219l98 463h82l-98 -463h219l98 463h82l-112 -528h-684z" />
    <glyph glyph-name="uni0449" unicode="&#x449;" horiz-adv-x="872" 
d="M735 0h-692l112 528h82l-98 -463h219l98 463h82l-98 -463h219l98 463h82l-98 -463h82l-47 -218h-66z" />
    <glyph glyph-name="uni044A" unicode="&#x44a;" horiz-adv-x="584" 
d="M202 463h-142l15 65h223l-43 -205h120q36 0 66.5 -8t53 -25t35 -44t12.5 -64q0 -41 -16 -75t-45 -57.5t-70 -36.5t-90 -13h-217zM326 65q23 0 47 6t43 19.5t30.5 35t11.5 51.5q0 23 -8 39t-23 25.5t-33.5 13t-39.5 3.5h-114l-40 -193h126z" />
    <glyph glyph-name="uni044B" unicode="&#x44b;" horiz-adv-x="722" 
d="M155 528h82l-43 -205h112q36 0 66.5 -8t53 -25t35 -44t12.5 -64q0 -41 -16 -75t-45 -57.5t-70 -36.5t-90 -13h-209zM257 65q24 0 47.5 6t42 19t30.5 34.5t12 52.5q0 24 -8 39.5t-22.5 25t-33.5 13t-40 3.5h-106l-40 -193h118zM620 528h82l-112 -528h-82z" />
    <glyph glyph-name="uni044C" unicode="&#x44c;" horiz-adv-x="523" 
d="M155 528h82l-43 -205h120q36 0 66.5 -8t53 -25t35 -44t12.5 -64q0 -41 -16 -75t-45 -57.5t-70 -36.5t-90 -13h-217zM264 65q23 0 45 5.5t42.5 18.5t32.5 35.5t12 52.5q0 24 -8 39.5t-23 25t-33.5 13t-39.5 3.5h-113l-40 -193h125z" />
    <glyph glyph-name="uni044D" unicode="&#x44d;" horiz-adv-x="440" 
d="M109 -12q-25 0 -52 3.5t-50 11.5l22 65q20 -8 41 -11.5t42 -3.5q39 0 72 15t58 41t42.5 59.5t26.5 71.5h-182l15 65h176v11q0 33 -5.5 61.5t-20 50.5t-40 34.5t-63.5 12.5q-44 0 -87 -13l-10 63q25 7 52.5 11t56.5 4q53 0 91.5 -17.5t62.5 -48t35 -70t11 -85.5
q0 -65 -20 -124.5t-58.5 -106t-93 -73.5t-122.5 -27z" />
    <glyph glyph-name="uni044E" unicode="&#x44e;" horiz-adv-x="782" 
d="M471 -12q-50 0 -87.5 15.5t-62 43t-37 66t-12.5 84.5v13.5t2 29.5h-99l-50 -240h-82l112 528h82l-47 -223h96q13 50 38.5 94t59.5 75t75 48.5t87 17.5q50 0 87.5 -15t62 -42t37 -64.5t12.5 -83.5q0 -34 -7 -73t-21 -77.5t-36 -73.5t-52 -62.5t-70 -44t-88 -16.5zM474 53
q47 0 83 28.5t59.5 72t34.5 91.5t11 87q0 31 -6 57t-19.5 45t-36.5 30t-57 11q-42 0 -77.5 -23t-60 -62t-37.5 -88.5t-13 -99.5q0 -31 6.5 -58t21 -47.5t37 -32t54.5 -11.5z" />
    <glyph glyph-name="uni044F" unicode="&#x44f;" horiz-adv-x="543" 
d="M186 212q-44 14 -68.5 46.5t-24.5 85.5q0 42 16 75.5t45.5 58t70.5 37.5t91 13h207l-112 -528h-82l42 202h-99l-170 -202h-106zM385 267l41 196h-117q-23 0 -47 -6t-43.5 -19.5t-31.5 -35t-12 -53.5q0 -24 8.5 -40.5t23.5 -25.5t33.5 -12.5t40.5 -3.5h104z" />
    <glyph glyph-name="uni0490" unicode="&#x490;" horiz-adv-x="485" 
d="M199 714h302l42 148h67l-47 -219h-295l-136 -643h-84z" />
    <glyph glyph-name="uni0491" unicode="&#x491;" horiz-adv-x="422" 
d="M155 528h248l36 133h65l-43 -198h-238l-98 -463h-82z" />
    <glyph glyph-name="uni0403" unicode="&#x403;" horiz-adv-x="485" 
d="M199 714h379l-15 -71h-295l-136 -643h-84zM393 763h-63l106 134h96z" />
    <glyph glyph-name="uni0453" unicode="&#x453;" horiz-adv-x="422" 
d="M155 528h321l-15 -65h-239l-97 -463h-82zM323 604h-61l126 164h91z" />
    <glyph glyph-name="uni0405" unicode="&#x405;" horiz-adv-x="524" 
d="M514 625q-69 30 -143 30q-26 0 -51.5 -5.5t-47 -17.5t-36.5 -34.5t-15 -55.5q0 -20 6 -38t19 -35t34 -35t51 -39q35 -25 61.5 -48t44.5 -48t26.5 -51.5t8.5 -59.5q0 -53 -21 -91.5t-57 -62.5t-80.5 -35t-91.5 -11q-44 0 -95.5 9.5t-98.5 30.5l23 72q44 -21 89.5 -31
t83.5 -10q34 0 63.5 7t52 22t35 38t12.5 54q0 44 -28.5 80t-88.5 75q-68 44 -101 92t-33 108q0 50 20 87t54.5 60t76.5 33.5t84 10.5q46 0 87.5 -7.5t76.5 -22.5z" />
    <glyph glyph-name="uni0455" unicode="&#x455;" horiz-adv-x="410" 
d="M387 450q-59 25 -115 25q-14 0 -34 -3t-37 -12t-27.5 -24t-10.5 -39q0 -28 20 -50.5t60 -48.5q55 -36 84 -74t29 -87q0 -42 -16 -70.5t-42.5 -46t-61.5 -25t-72 -7.5q-17 0 -38 2t-43.5 6t-43.5 10t-40 14l23 65q39 -17 75.5 -24.5t65.5 -7.5q55 0 84.5 20t29.5 58
q0 32 -21.5 57.5t-62.5 52.5q-54 36 -81 70t-27 81q0 39 16.5 67.5t44 46.5t60.5 26t66 8q36 0 71 -6.5t65 -18.5z" />
    <glyph glyph-name="uni040C" unicode="&#x40c;" horiz-adv-x="580" 
d="M423 763h-63l106 134h96zM659 714l-360 -347l241 -367h-100l-230 358h-2l-76 -358h-84l151 714h84l-71 -334h2l332 334h113z" />
    <glyph glyph-name="uni045C" unicode="&#x45c;" horiz-adv-x="497" 
d="M155 528h82l-52 -245h2l255 245h105l-279 -255l199 -273h-96l-188 263h-2l-56 -263h-82zM356 604h-61l126 164h91z" />
    <glyph glyph-name="uni0407" unicode="&#x407;" horiz-adv-x="263" 
d="M209 790h-82l20 94h82zM386 790h-81l20 94h81zM199 714h84l-151 -714h-84z" />
    <glyph glyph-name="uni0457" unicode="&#x457;" horiz-adv-x="251" 
d="M237 528l-112 -528h-82l112 528h82zM168 626h-82l20 94h82zM345 626h-81l20 94h81z" />
    <glyph glyph-name="uni040E" unicode="&#x40e;" horiz-adv-x="595" 
d="M256 237l-152 477h91l123 -395l289 395h98l-535 -714h-100zM409 767q-63 0 -96.5 28t-33.5 79q0 16 3 34h58q-3 -15 -3 -28q0 -29 18.5 -43.5t56.5 -14.5q45 0 70.5 20t33.5 66h60q-6 -32 -17.5 -56.5t-30.5 -43.5t-48.5 -30t-70.5 -11z" />
    <glyph glyph-name="uni045E" unicode="&#x45e;" horiz-adv-x="494" 
d="M329 607q-63 0 -96.5 28t-33.5 79q0 16 3 34h58q-3 -15 -3 -28q0 -29 18.5 -43.5t56.5 -14.5q46 0 71 20.5t33 65.5h60q-6 -31 -17 -55.5t-30 -44t-49.5 -30.5t-70.5 -11zM206 95h2l265 433h90l-464 -723h-89l127 197l-46 526h83z" />
    <glyph glyph-name="uni040F" unicode="&#x40f;" horiz-adv-x="672" 
d="M252 0h-204l152 714h84l-136 -643h324l136 643h84l-152 -714h-204l-44 -168h-65z" />
    <glyph glyph-name="uni045F" unicode="&#x45f;" horiz-adv-x="587" 
d="M209 0h-166l112 528h82l-98 -463h248l98 463h82l-112 -528h-166l-42 -153h-62z" />
    <glyph glyph-name="uni0409" unicode="&#x409;" horiz-adv-x="1035" 
d="M21 -4q-13 0 -27 1t-25 3l15 69q16 -3 33 -3q60 0 98 38.5t68 119t59 201t70 289.5h407l-64 -300h125q46 0 84.5 -10.5t67.5 -32.5t45 -57t16 -82q0 -51 -20 -94t-57.5 -74t-89 -47.5t-114.5 -16.5h-228l136 643h-246q-26 -114 -48 -206.5t-43.5 -164.5t-45.5 -124
t-54.5 -86t-69.5 -50t-92 -16zM720 71q34 0 66 8t60 26.5t44.5 49.5t16.5 75q0 33 -11.5 55t-32 35t-47 18t-56.5 5h-120l-57 -272h137z" />
    <glyph glyph-name="uni0459" unicode="&#x459;" horiz-adv-x="855" 
d="M19 -4q-11 0 -27 1t-27 3l14 65q8 -1 14.5 -1.5t17.5 -0.5q38 0 65 24t50 78t46 143t51 220h346l-43 -202h118q36 0 67 -8t53.5 -25t35.5 -44t13 -65q0 -43 -16.5 -76.5t-45.5 -57.5t-70 -37t-91 -13h-215l97 463h-186q-27 -125 -49 -210.5t-50 -143.5t-67.5 -85.5
t-100.5 -27.5zM595 65q24 0 47.5 6t43 19t31.5 35.5t12 53.5q0 24 -8.5 40.5t-23.5 25.5t-33.5 12.5t-40.5 3.5h-111l-41 -196h124z" />
    <glyph glyph-name="uni040A" unicode="&#x40a;" horiz-adv-x="1021" 
d="M199 714h84l-65 -306h337l65 306h84l-64 -306h129q45 0 83.5 -10.5t66.5 -32t44 -55.5t16 -81q0 -52 -20 -94t-56 -72t-87.5 -46.5t-113.5 -16.5h-233l71 337h-337l-71 -337h-84zM710 71q33 0 65 8t58.5 26t43 48t16.5 74q0 33 -11.5 54t-31 33.5t-46 17.5t-55.5 5h-124
l-56 -266h141z" />
    <glyph glyph-name="uni045A" unicode="&#x45a;" horiz-adv-x="859" 
d="M155 528h82l-46 -220h254l46 220h82l-47 -220h131q34 0 63.5 -7.5t51 -24t33.5 -41.5t12 -61q0 -39 -15.5 -72t-43 -55t-66.5 -34.5t-86 -12.5h-227l52 243h-254l-52 -243h-82zM611 65q23 0 44 5.5t38.5 17.5t28.5 32t11 49q0 21 -7.5 36t-20.5 23t-30 11.5t-38 3.5h-125
l-37 -178h136z" />
    <glyph glyph-name="uni0404" unicode="&#x404;" horiz-adv-x="570" 
d="M362 -12q-73 0 -127 22t-87.5 61t-49 91t-15.5 112q0 80 24.5 160.5t74 146t127 105.5t176.5 40q32 0 71 -6t68 -16l-24 -69q-27 10 -58 15t-63 5q-57 0 -106.5 -20.5t-86 -55.5t-62.5 -80.5t-39 -95.5h257l-15 -71h-256q-3 -27 -3 -54q0 -47 11.5 -87t36.5 -69.5t65 -46
t97 -16.5q15 0 32 1.5t34 4t31.5 6t25.5 7.5l1 -71q-26 -8 -63 -13.5t-77 -5.5z" />
    <glyph glyph-name="uni0454" unicode="&#x454;" horiz-adv-x="440" 
d="M280 -12q-55 0 -96 17t-68 46.5t-40.5 70t-13.5 87.5q0 64 20 124t58 106.5t94 73.5t122 27q25 0 52 -3.5t50 -11.5l-22 -65q-20 8 -41 11.5t-42 3.5q-37 0 -69 -13t-57 -36t-43 -54.5t-27 -66.5h192l-15 -65h-188q-1 -17 -1 -20.5v-7.5q0 -33 7.5 -61.5t25 -50.5
t44.5 -34.5t66 -12.5q22 0 47 3.5t48 10.5l1 -64q-25 -7 -51.5 -11t-52.5 -4z" />
    <glyph glyph-name="uni2116" unicode="&#x2116;" horiz-adv-x="1011" 
d="M199 714h124l168 -622h2l132 622h82l-151 -714h-121l-170 627h-2l-133 -627h-82zM731 352h257l-12 -59h-257zM876 394q-59 0 -93.5 34.5t-34.5 91.5q0 42 11.5 79t34 65.5t57 45t78.5 16.5q59 0 93.5 -33.5t34.5 -91.5q0 -42 -11.5 -79.5t-34 -66t-57 -45t-78.5 -16.5z
M883 446q26 0 46 14.5t32.5 36.5t19 49.5t6.5 53.5q0 36 -17 55t-48 19q-24 0 -43.5 -13t-33 -35.5t-20 -49.5t-6.5 -54q0 -36 16.5 -56t47.5 -20z" />
    <glyph glyph-name="uni040B" unicode="&#x40b;" horiz-adv-x="745" 
d="M300 643h-205l15 71h489l-15 -71h-200l-51 -241q32 12 74.5 22t84.5 10q33 0 65.5 -5.5t60 -21.5t43.5 -45.5t16 -75.5q0 -35 -9 -80l-43 -206h-82l44 211q3 16 5 30t2 27q0 50 -32 72.5t-101 22.5q-36 0 -77 -11.5t-67 -22.5l-69 -329h-84z" />
    <glyph glyph-name="uni0402" unicode="&#x402;" horiz-adv-x="746" 
d="M427 -5q-20 0 -36.5 1.5t-27.5 3.5l15 72q17 -4 43 -4q37 0 72.5 9t63 29.5t44 54t16.5 79.5q0 55 -38 89t-100 34q-45 0 -86.5 -9.5t-74.5 -23.5l-70 -330h-84l136 643h-205l15 71h489l-15 -71h-200l-50 -236q32 10 75.5 18.5t82.5 8.5q50 0 89.5 -14t66.5 -39t41.5 -60
t14.5 -77q0 -56 -21 -102.5t-58.5 -79t-87.5 -50t-110 -17.5z" />
    <glyph glyph-name="uni045B" unicode="&#x45b;" horiz-adv-x="588" 
d="M165 575h-94l14 65h94l20 95h82l-21 -95h150l-14 -65h-150l-33 -155h2q29 51 74 79.5t97 28.5q40 0 68.5 -11.5t47 -31t27.5 -46.5t9 -57q0 -14 -3 -35.5t-6 -35.5l-64 -311h-82l64 304q4 18 7 36.5t3 32.5q0 16 -4 31.5t-15 29.5t-29.5 21.5t-42.5 7.5q-31 0 -60 -13.5
t-54 -38.5t-43.5 -61.5t-28.5 -82.5l-55 -267h-82z" />
    <glyph glyph-name="uni0452" unicode="&#x452;" horiz-adv-x="588" 
d="M277 -195q-23 0 -42.5 3t-33.5 7l14 60q29 -8 61 -8q27 0 43.5 7.5t28 22t18.5 35t13 50.5l68 322q4 18 7 36.5t3 32.5q0 17 -4.5 32.5t-14.5 28.5t-28.5 21t-43.5 8q-31 0 -60 -13.5t-54 -38.5t-43.5 -61.5t-28.5 -82.5l-55 -267h-82l122 575h-94l14 65h94l20 95h82
l-21 -95h150l-14 -65h-150l-33 -155h2q31 53 76 80.5t95 27.5q40 0 69 -11.5t47 -31t27 -46.5t9 -57q0 -14 -3 -35.5t-6 -35.5l-70 -340q-8 -39 -20 -68t-32 -51t-52 -34.5t-78 -12.5z" />
    <glyph glyph-name="uni0401" unicode="&#x401;" horiz-adv-x="525" 
d="M345 790h-82l20 94h82zM522 790h-81l20 94h81zM199 714h357l-15 -71h-273l-51 -240h259l-15 -71h-259l-55 -261h298l-15 -71h-382z" />
    <glyph glyph-name="uni0451" unicode="&#x451;" horiz-adv-x="539" 
d="M319 626h-82l20 94h82zM496 626h-81l20 94h81zM413 7q-52 -19 -125 -19q-58 0 -101 16t-70.5 44t-41 66.5t-13.5 84.5q0 69 20 132t57 109.5t88 73t112 26.5q86 0 131.5 -46.5t45.5 -132.5q0 -20 -4 -51.5t-13 -68.5h-353q-1 -7 -1.5 -16.5t-0.5 -20.5q0 -72 40.5 -111.5
t116.5 -39.5q30 0 56.5 4t55.5 13v-63zM332 475q-35 0 -64.5 -13.5t-51.5 -37t-37 -53.5t-23 -63h280q6 25 6 48q0 57 -27.5 88t-82.5 31z" />
    <glyph glyph-name="uni0400" unicode="&#x400;" horiz-adv-x="525" 
d="M343 897l88 -134h-59l-120 134h91zM199 714h357l-15 -71h-273l-51 -240h259l-15 -71h-259l-55 -261h298l-15 -71h-382z" />
    <glyph glyph-name="uni0450" unicode="&#x450;" horiz-adv-x="539" 
d="M239 768h86l76 -164h-56zM413 7q-52 -19 -125 -19q-58 0 -101 16t-70.5 44t-41 66.5t-13.5 84.5q0 69 20 132t57 109.5t88 73t112 26.5q86 0 131.5 -46.5t45.5 -132.5q0 -20 -4 -51.5t-13 -68.5h-353q-1 -7 -1.5 -16.5t-0.5 -20.5q0 -72 40.5 -111.5t116.5 -39.5
q30 0 56.5 4t55.5 13v-63zM332 475q-35 0 -64.5 -13.5t-51.5 -37t-37 -53.5t-23 -63h280q6 25 6 48q0 57 -27.5 88t-82.5 31z" />
    <glyph glyph-name="uni040D" unicode="&#x40d;" horiz-adv-x="705" 
d="M199 714h84l-130 -614h2l446 614h124l-151 -714h-84l131 620h-2l-450 -620h-121zM393 897l88 -134h-59l-120 134h91z" />
    <glyph glyph-name="uni045D" unicode="&#x45d;" horiz-adv-x="609" 
d="M155 528h81l-93 -434h2l328 434h116l-112 -528h-81l93 438h-2l-331 -438h-113zM263 768h86l76 -164h-56z" />
    <glyph glyph-name="uni2010" unicode="&#x2010;" horiz-adv-x="400" 
d="M120 403h251l-15 -69h-251z" />
    <glyph glyph-name="tonos" unicode="&#x384;" horiz-adv-x="442" 
d="M243 604h-58l86 164h108z" />
    <glyph glyph-name="dieresistonos" unicode="&#x385;" horiz-adv-x="541" 
d="M266 626h-82l20 94h82zM519 626h-81l20 94h81zM343 604h-52l71 164h95z" />
    <glyph glyph-name="Alphatonos" unicode="&#x386;" horiz-adv-x="645" 
d="M137 550h-58l86 164h108zM58 0h-94l425 714h115l89 -714h-91l-24 214h-294zM222 287h250l-39 361z" />
    <glyph glyph-name="anoteleia" unicode="&#x387;" horiz-adv-x="279" 
d="M122 353h101l-22 -101h-101z" />
    <glyph glyph-name="Epsilontonos" unicode="&#x388;" horiz-adv-x="525" 
d="M-10 550h-58l86 164h108zM199 714h357l-15 -71h-273l-51 -240h259l-15 -71h-259l-55 -261h298l-15 -71h-382z" />
    <glyph glyph-name="Etatonos" unicode="&#x389;" horiz-adv-x="684" 
d="M-10 550h-58l86 164h108zM199 714h84l-66 -311h337l66 311h84l-151 -714h-84l70 332h-337l-70 -332h-84z" />
    <glyph glyph-name="Iotatonos" unicode="&#x38a;" horiz-adv-x="263" 
d="M-10 550h-58l86 164h108zM199 714h84l-151 -714h-84z" />
    <glyph glyph-name="Omicrontonos" unicode="&#x38c;" horiz-adv-x="733" 
d="M43 550h-58l86 164h108zM715 461q0 -53 -10 -108.5t-30 -108t-50.5 -99t-71.5 -81.5t-94 -55.5t-117 -20.5q-63 0 -112.5 19.5t-81.5 55t-48.5 83.5t-16.5 108q0 97 27 183t76.5 150.5t119.5 101.5t152 37q66 0 114.5 -20t80 -55t47 -83.5t15.5 -106.5zM348 59
q47 0 86.5 16.5t71.5 46t55 68t38.5 81.5t23 88.5t7.5 87.5q0 43 -10.5 81t-32 66t-55.5 44.5t-81 16.5q-64 0 -117 -33t-90 -88.5t-56.5 -125.5t-19.5 -142q0 -43 10.5 -80t33 -66.5t57.5 -45t79 -15.5z" />
    <glyph glyph-name="Upsilontonos" unicode="&#x38e;" horiz-adv-x="543" 
d="M-98 550h-58l86 164h108zM244 291l-144 423h91l109 -346l258 346h98l-328 -423l-61 -291h-84z" />
    <glyph glyph-name="Omegatonos" unicode="&#x38f;" horiz-adv-x="730" 
d="M444 653q-52 0 -92.5 -15t-69.5 -39.5t-49 -56t-32.5 -66t-18 -69t-5.5 -63.5q0 -73 34 -117t103 -65l-33 -162h-246l14 73h169l11 49q-72 32 -106.5 81.5t-34.5 131.5q0 41 8.5 86t27 89t47.5 82.5t69.5 68.5t95 47.5t121.5 17.5q65 0 113.5 -19t79 -52t45.5 -77.5
t15 -96.5q0 -72 -19 -132t-51 -104t-75 -75.5t-92 -47.5l-11 -49h179l-14 -73h-257l33 162q62 16 104 48t67.5 74.5t36 90.5t10.5 96q0 40 -10.5 73.5t-32 57.5t-55 37.5t-79.5 13.5zM28 550h-58l86 164h108z" />
    <glyph glyph-name="iotadieresistonos" unicode="&#x390;" horiz-adv-x="308" 
d="M153 528h80l-80 -382q-7 -31 -7 -47q0 -22 14.5 -31t45.5 -9q16 0 31.5 1t25.5 2l-11 -62q-11 -2 -33 -4t-48 -2q-53 0 -79.5 22t-26.5 68q0 17 3 36.5t7 38.5zM159 626h-82l20 94h82zM412 626h-81l20 94h81zM236 604h-52l71 164h95z" />
    <glyph glyph-name="Alpha" unicode="&#x391;" horiz-adv-x="645" 
d="M58 0h-94l425 714h115l89 -714h-91l-24 214h-294zM222 287h250l-39 361z" />
    <glyph glyph-name="Beta" unicode="&#x392;" horiz-adv-x="606" 
d="M199 714h219q42 0 77.5 -9.5t61 -29t40 -49t14.5 -70.5t-11.5 -72.5t-33.5 -54.5t-50.5 -37.5t-65.5 -23.5v-2q54 -12 86.5 -51.5t32.5 -93.5q0 -45 -17.5 -85t-52 -70.5t-84.5 -48t-116 -17.5h-251zM217 403h130q38 0 70.5 8.5t56.5 26t37.5 45t13.5 64.5
q0 26 -11.5 45.5t-31 30.5t-43.5 15.5t-49 4.5h-122zM147 71h153q38 0 70.5 8t57.5 25t40.5 45.5t15.5 69.5q0 54 -41.5 83.5t-110.5 29.5h-130z" />
    <glyph glyph-name="Gamma" unicode="&#x393;" horiz-adv-x="491" 
d="M132 0h-84l151 714h363l-15 -72h-279z" />
    <glyph glyph-name="Epsilon" unicode="&#x395;" horiz-adv-x="525" 
d="M199 714h357l-15 -71h-273l-51 -240h259l-15 -71h-259l-55 -261h298l-15 -71h-382z" />
    <glyph glyph-name="Zeta" unicode="&#x396;" horiz-adv-x="582" 
d="M507 643h-337l15 71h443l-15 -71l-486 -572h388l-15 -71h-493l15 73z" />
    <glyph glyph-name="Eta" unicode="&#x397;" horiz-adv-x="684" 
d="M199 714h84l-66 -311h337l66 311h84l-151 -714h-84l70 332h-337l-70 -332h-84z" />
    <glyph glyph-name="Theta" unicode="&#x398;" horiz-adv-x="733" 
d="M260 394h293l-16 -73h-293zM715 461q0 -53 -10 -108.5t-30 -108t-50.5 -99t-71.5 -81.5t-94 -55.5t-117 -20.5q-63 0 -112.5 19.5t-81.5 55t-48.5 83.5t-16.5 108q0 97 27 183t76.5 150.5t119.5 101.5t152 37q66 0 114.5 -20t80 -55t47 -83.5t15.5 -106.5zM348 59
q47 0 86.5 16.5t71.5 46t55 68t38.5 81.5t23 88.5t7.5 87.5q0 43 -10.5 81t-32 66t-55.5 44.5t-81 16.5q-64 0 -117 -33t-90 -88.5t-56.5 -125.5t-19.5 -142q0 -43 10.5 -80t33 -66.5t57.5 -45t79 -15.5z" />
    <glyph glyph-name="Iota" unicode="&#x399;" horiz-adv-x="263" 
d="M199 714h84l-151 -714h-84z" />
    <glyph glyph-name="Kappa" unicode="&#x39a;" horiz-adv-x="580" 
d="M659 714l-360 -347l241 -367h-100l-230 358h-2l-76 -358h-84l151 714h84l-71 -334h2l332 334h113z" />
    <glyph glyph-name="Lambda" unicode="&#x39b;" horiz-adv-x="625" 
d="M58 0h-94l415 714h115l79 -714h-91l-59 648z" />
    <glyph glyph-name="Mu" unicode="&#x39c;" horiz-adv-x="865" 
d="M402 79h2l335 635h146l-151 -714h-82l137 648h-2l-343 -648h-112l-65 648h-2l-137 -648h-80l151 714h143z" />
    <glyph glyph-name="Nu" unicode="&#x39d;" horiz-adv-x="687" 
d="M491 92h2l132 622h82l-151 -714h-121l-170 627h-2l-133 -627h-82l151 714h124z" />
    <glyph glyph-name="Xi" unicode="&#x39e;" horiz-adv-x="634" 
d="M63 75h478l-16 -75h-478zM163 405h413l-16 -75h-413zM194 714h471l-16 -75h-471z" />
    <glyph glyph-name="Omicron" unicode="&#x39f;" horiz-adv-x="733" 
d="M715 461q0 -53 -10 -108.5t-30 -108t-50.5 -99t-71.5 -81.5t-94 -55.5t-117 -20.5q-63 0 -112.5 19.5t-81.5 55t-48.5 83.5t-16.5 108q0 97 27 183t76.5 150.5t119.5 101.5t152 37q66 0 114.5 -20t80 -55t47 -83.5t15.5 -106.5zM348 59q47 0 86.5 16.5t71.5 46t55 68
t38.5 81.5t23 88.5t7.5 87.5q0 43 -10.5 81t-32 66t-55.5 44.5t-81 16.5q-64 0 -117 -33t-90 -88.5t-56.5 -125.5t-19.5 -142q0 -43 10.5 -80t33 -66.5t57.5 -45t79 -15.5z" />
    <glyph glyph-name="Pi" unicode="&#x3a0;" horiz-adv-x="679" 
d="M199 714h500l-151 -714h-84l136 643h-332l-136 -643h-84z" />
    <glyph glyph-name="Rho" unicode="&#x3a1;" horiz-adv-x="601" 
d="M199 714h204q46 0 85 -10.5t67.5 -31.5t44.5 -54.5t16 -77.5q0 -56 -20.5 -100.5t-57.5 -75.5t-89 -47.5t-114 -16.5h-140l-63 -300h-84zM211 371h132q34 0 66.5 8t60.5 27t44 50.5t16 73.5q0 33 -11.5 55t-32.5 35t-47 18t-56 5h-115z" />
    <glyph glyph-name="Sigma" unicode="&#x3a3;" horiz-adv-x="559" 
d="M25 73l276 289v2l-158 277l16 73h460l-15 -71h-370l161 -283l-276 -289h389l-15 -71h-483z" />
    <glyph glyph-name="Tau" unicode="&#x3a4;" horiz-adv-x="506" 
d="M300 643h-205l15 71h489l-15 -71h-200l-136 -643h-84z" />
    <glyph glyph-name="Upsilon" unicode="&#x3a5;" horiz-adv-x="543" 
d="M244 291l-144 423h91l109 -346l258 346h98l-328 -423l-61 -291h-84z" />
    <glyph glyph-name="Phi" unicode="&#x3a6;" horiz-adv-x="826" 
d="M808 421q0 -64 -21 -126.5t-67.5 -117t-121.5 -88t-176 -35.5l-15 -74h-84l16 75q-54 4 -98.5 18t-80 42t-56.5 73t-21 110q0 66 22 130.5t69 117.5t121 85.5t173 34.5l16 75h84l-16 -76q75 -6 125 -28t78.5 -55t40.5 -73.5t12 -87.5zM168 303q0 -86 48 -131t137 -47
l100 471q-84 -3 -139.5 -31t-87.5 -71.5t-45 -93t-13 -97.5zM723 419q0 38 -10 69.5t-32.5 55.5t-58 37.5t-85.5 15.5l-100 -472q75 2 131 27.5t90 67t49.5 93t15.5 106.5z" />
    <glyph glyph-name="Chi" unicode="&#x3a7;" horiz-adv-x="598" 
d="M390 367l160 -367h-96l-127 306l-259 -306h-105l324 377l-147 337h94l116 -281l233 281h104z" />
    <glyph glyph-name="Psi" unicode="&#x3a8;" horiz-adv-x="788" 
d="M338 122q-69 1 -117.5 16t-77 45.5t-36 79t7.5 116.5l71 335h84l-67 -316q-12 -54 -11 -91.5t17 -61.5t53 -36t91 -14l110 519h84l-110 -519q66 3 107 17.5t66.5 41t39 61.5t23.5 84l67 315h84l-71 -335q-15 -70 -43 -118t-69 -78t-96 -44.5t-123 -16.5l-26 -122h-84z
" />
    <glyph glyph-name="Iotadieresis" unicode="&#x3aa;" horiz-adv-x="263" 
d="M212 790h-82l20 94h82zM389 790h-81l20 94h81zM199 714h84l-151 -714h-84z" />
    <glyph glyph-name="Upsilondieresis" unicode="&#x3ab;" horiz-adv-x="543" 
d="M344 790h-82l20 94h82zM521 790h-81l20 94h81zM244 291l-144 423h91l109 -346l258 346h98l-328 -423l-61 -291h-84z" />
    <glyph glyph-name="alphatonos" unicode="&#x3ac;" horiz-adv-x="646" 
d="M249 53q29 0 54.5 14t48 39t42.5 59t37 72q0 10 0.5 19.5t0.5 17.5q0 61 -8.5 100t-23.5 61.5t-34 31t-41 8.5q-46 0 -81.5 -27.5t-57 -71t-31.5 -90.5t-10 -86q0 -30 4 -56t15.5 -47t32.5 -32.5t52 -11.5zM436 120q-39 -63 -87.5 -97.5t-110.5 -34.5q-53 0 -90 19.5
t-56 52t-24.5 66t-5.5 63.5q0 55 15 115t47.5 115t85 88t116.5 33q79 0 120 -45.5t47 -137.5h2q7 16 16 38t18 46t17 47t14 40h71q-12 -44 -28.5 -88.5t-34.5 -85t-35.5 -75.5t-31.5 -60q0 -49 2.5 -80t9 -48.5t17.5 -24.5t29 -7q7 0 15.5 0.5t15.5 1.5l-11 -62
q-8 -2 -21 -3.5t-23 -1.5q-55 0 -75 29.5t-22 96.5h-2zM389 604h-58l86 164h108z" />
    <glyph glyph-name="epsilontonos" unicode="&#x3ad;" horiz-adv-x="498" 
d="M186 281q-37 12 -54.5 38t-17.5 62q0 28 12 56.5t39 51.5t71 37t104 14q52 0 92 -10.5t61 -27.5l-32 -62q-18 13 -51 23t-85 10q-35 0 -60 -8t-41 -20.5t-23 -29t-7 -33.5q0 -36 28 -53t91 -17h12t37 1q3 0 26 1l-17 -71q-5 0 -30 1q-3 0 -19.5 0.5t-22.5 0.5
q-46 0 -79 -9.5t-50.5 -25t-24 -32.5t-6.5 -34t5.5 -32.5t20.5 -28.5t42 -20.5t69 -7.5q17 0 35.5 1.5t39.5 5t40 8.5t36 12v-67q-35 -15 -78 -21t-87 -6q-107 0 -157 34t-50 104q0 55 35 97t96 56v2zM371 604h-58l86 164h108z" />
    <glyph glyph-name="etatonos" unicode="&#x3ae;" horiz-adv-x="585" 
d="M216 433q29 51 75.5 79t99.5 28q72 0 110.5 -39t38.5 -108q0 -30 -9 -75l-107 -513h-82l108 511q4 18 6.5 37t2.5 33q0 16 -4 31.5t-13.5 28.5t-26 21t-40.5 8q-33 0 -64.5 -14.5t-57 -41t-43.5 -62t-27 -78.5l-58 -279h-82l87 411q5 25 9 56.5t5 60.5h80q1 -17 -1 -44
t-9 -51h2zM366 604h-58l86 164h108z" />
    <glyph glyph-name="iotatonos" unicode="&#x3af;" horiz-adv-x="308" 
d="M153 528h80l-80 -382q-7 -31 -7 -47q0 -22 14.5 -31t45.5 -9q16 0 31.5 1t25.5 2l-11 -62q-11 -2 -33 -4t-48 -2q-53 0 -79.5 22t-26.5 68q0 17 3 36.5t7 38.5zM237 604h-58l86 164h108z" />
    <glyph glyph-name="upsilondieresistonos" unicode="&#x3b0;" horiz-adv-x="547" 
d="M226 -12q-46 0 -77 12t-49.5 32t-26.5 46t-8 54q0 16 1.5 31.5t5.5 37t10.5 52.5t16.5 78l41 197h82l-62 -290q-5 -25 -8 -41.5t-4.5 -30.5t-1.5 -19v-10q0 -40 22 -62t62 -22q33 0 58.5 11t46.5 32q33 33 53.5 79.5t31 95t14 92.5t3.5 71q0 26 -2 49t-5 45h80
q3 -14 5 -37.5t2 -55.5q0 -47 -5 -97t-17 -98t-32.5 -91.5t-50.5 -77.5q-17 -19 -36 -34.5t-40 -26t-48.5 -16.5t-61.5 -6zM249 626h-82l20 94h82zM502 626h-81l20 94h81zM326 604h-52l71 164h95z" />
    <glyph glyph-name="alpha" unicode="&#x3b1;" horiz-adv-x="646" 
d="M249 53q29 0 54.5 14t48 39t42.5 59t37 72q0 10 0.5 19.5t0.5 17.5q0 61 -8.5 100t-23.5 61.5t-34 31t-41 8.5q-46 0 -81.5 -27.5t-57 -71t-31.5 -90.5t-10 -86q0 -30 4 -56t15.5 -47t32.5 -32.5t52 -11.5zM436 120q-39 -63 -87.5 -97.5t-110.5 -34.5q-53 0 -90 19.5
t-56 52t-24.5 66t-5.5 63.5q0 55 15 115t47.5 115t85 88t116.5 33q79 0 120 -45.5t47 -137.5h2q7 16 16 38t18 46t17 47t14 40h71q-12 -44 -28.5 -88.5t-34.5 -85t-35.5 -75.5t-31.5 -60q0 -49 2.5 -80t9 -48.5t17.5 -24.5t29 -7q7 0 15.5 0.5t15.5 1.5l-11 -62
q-8 -2 -21 -3.5t-23 -1.5q-55 0 -75 29.5t-22 96.5h-2z" />
    <glyph glyph-name="beta" unicode="&#x3b2;" horiz-adv-x="592" 
d="M147 496q26 120 83.5 179.5t154.5 59.5q45 0 78.5 -12t55.5 -33t32.5 -49t10.5 -60q0 -35 -12 -65t-31.5 -52.5t-44.5 -39t-53 -25.5v-2q55 -14 87.5 -55t32.5 -108q0 -39 -14 -81.5t-43 -79.5t-76 -61t-109 -24q-123 0 -160 82h-2l-56 -265h-81zM291 53q75 0 120 49
t45 132q0 25 -6.5 47t-22.5 39.5t-43 27.5t-65 10h-50l15 69q50 0 87 11.5t61 32t35.5 47.5t11.5 58q0 26 -8.5 44.5t-22 29t-31 15.5t-35.5 5q-62 0 -98 -39.5t-54 -124.5l-49 -230q-5 -21 -8.5 -46.5t-3.5 -41.5q0 -66 33 -100.5t89 -34.5z" />
    <glyph glyph-name="gamma" unicode="&#x3b3;" horiz-adv-x="500" 
d="M121 -195q9 43 16.5 93.5t7.5 89.5q0 72 -4 151.5t-11.5 153t-17.5 134.5t-22 101h82q4 -10 9 -35t10.5 -63.5t10 -84t8.5 -93.5t6 -96.5t2 -92.5h4q66 73 104 135.5t57.5 116.5t24.5 91.5t5 67.5q0 14 -1 26.5t-3 27.5h77q2 -15 3 -28t1 -26q0 -43 -11.5 -98
t-42.5 -123.5t-84.5 -142t-136.5 -150.5q0 -38 -6 -78.5t-18 -76.5h-70z" />
    <glyph glyph-name="delta" unicode="&#x3b4;" horiz-adv-x="556" 
d="M60 205q0 41 10.5 84.5t36.5 85.5t71.5 72.5t110.5 42.5v2q-31 24 -47.5 50.5t-16.5 59.5q0 25 9 48.5t28.5 42.5t50 30.5t73.5 11.5q46 0 91.5 -10t78.5 -33l-33 -66q-31 21 -64.5 30t-69.5 9q-15 0 -29 -3.5t-25 -10.5t-18 -18t-7 -27q0 -10 3 -18t12 -19t24.5 -25
t39.5 -34q26 -22 49 -46.5t40.5 -54t28 -67t10.5 -85.5q0 -24 -5 -52.5t-17 -59t-31 -58.5t-46 -50t-64.5 -35.5t-85.5 -13.5q-43 0 -80.5 13t-66 40t-45 68t-16.5 96zM434 262q0 61 -22.5 106.5t-61.5 77.5q-56 -5 -96 -26.5t-64 -54t-35 -73t-11 -83.5q0 -28 6 -56
t21 -50.5t41 -36t63 -13.5q34 0 63 14.5t50.5 41.5t33.5 65.5t12 87.5z" />
    <glyph glyph-name="epsilon" unicode="&#x3b5;" horiz-adv-x="498" 
d="M186 281q-37 12 -54.5 38t-17.5 62q0 28 12 56.5t39 51.5t71 37t104 14q52 0 92 -10.5t61 -27.5l-32 -62q-18 13 -51 23t-85 10q-35 0 -60 -8t-41 -20.5t-23 -29t-7 -33.5q0 -36 28 -53t91 -17h12t37 1q3 0 26 1l-17 -71q-5 0 -30 1q-3 0 -19.5 0.5t-22.5 0.5
q-46 0 -79 -9.5t-50.5 -25t-24 -32.5t-6.5 -34t5.5 -32.5t20.5 -28.5t42 -20.5t69 -7.5q17 0 35.5 1.5t39.5 5t40 8.5t36 12v-67q-35 -15 -78 -21t-87 -6q-107 0 -157 34t-50 104q0 55 35 97t96 56v2z" />
    <glyph glyph-name="zeta" unicode="&#x3b6;" horiz-adv-x="429" 
d="M143 231q0 -31 7.5 -53t22 -39t37 -31.5t53.5 -30.5q37 -19 61 -34t38.5 -30t20 -31t5.5 -39q0 -28 -17 -63t-40 -64h-79q20 29 36.5 59t17.5 55q0 12 -3 20.5t-12 17t-28.5 19.5t-49.5 26q-44 22 -73 43.5t-47 46t-25.5 53.5t-7.5 65q0 70 25.5 137.5t68 125.5
t96.5 104.5t112 76.5v2h-198l16 68h324v-66q-77 -32 -142.5 -78t-114.5 -102.5t-76.5 -122t-27.5 -135.5z" />
    <glyph glyph-name="eta" unicode="&#x3b7;" horiz-adv-x="585" 
d="M216 433q29 51 75.5 79t99.5 28q72 0 110.5 -39t38.5 -108q0 -30 -9 -75l-107 -513h-82l108 511q4 18 6.5 37t2.5 33q0 16 -4 31.5t-13.5 28.5t-26 21t-40.5 8q-33 0 -64.5 -14.5t-57 -41t-43.5 -62t-27 -78.5l-58 -279h-82l87 411q5 25 9 56.5t5 60.5h80q1 -17 -1 -44
t-9 -51h2z" />
    <glyph glyph-name="theta" unicode="&#x3b8;" horiz-adv-x="578" 
d="M253 -12q-88 0 -135.5 57.5t-47.5 165.5q0 50 7.5 108.5t23.5 117t41.5 112.5t60 95t82 66t104.5 25q51 0 87 -18.5t57 -49t30.5 -71t9.5 -84.5q0 -46 -7 -102.5t-22 -115t-39.5 -113t-61.5 -99.5t-85 -69.5t-105 -24.5zM381 670q-43 0 -79 -27.5t-60.5 -71.5
t-40.5 -91.5t-25 -86.5h302q6 28 8.5 56t2.5 54q0 33 -5 63.5t-17 53.5t-33 36.5t-53 13.5zM266 53q43 0 78 27.5t59 70.5t39 89t24 86h-302q-5 -24 -7.5 -53t-2.5 -48q0 -50 8 -83t23.5 -53t35.5 -28t45 -8z" />
    <glyph glyph-name="iota" unicode="&#x3b9;" horiz-adv-x="308" 
d="M153 528h80l-80 -382q-7 -31 -7 -47q0 -22 14.5 -31t45.5 -9q16 0 31.5 1t25.5 2l-11 -62q-11 -2 -33 -4t-48 -2q-53 0 -79.5 22t-26.5 68q0 17 3 36.5t7 38.5z" />
    <glyph glyph-name="kappa" unicode="&#x3ba;" horiz-adv-x="539" 
d="M268 263l-109 -99l-34 -164h-82l112 528h82l-52 -245h2l201 190q18 17 32.5 29.5t27.5 20t26 11t29 3.5q6 0 15.5 -1t20.5 -4l-18 -77q-5 1 -9.5 1.5t-8.5 0.5q-15 0 -28 -6.5t-33 -25.5l-116 -108l157 -317h-86z" />
    <glyph glyph-name="lambda" unicode="&#x3bb;" horiz-adv-x="544" 
d="M90 0h-90l323 501l-10 102q-2 28 -16.5 46t-43.5 18q-3 0 -9.5 -0.5t-15.5 -1.5v64q7 2 19 4t27 2q26 0 45 -5.5t33.5 -19.5t23.5 -38t13 -61l51 -505q3 -30 11 -38.5t23 -8.5h10t15 2l-11 -62q-11 -3 -19.5 -4t-18.5 -1q-26 0 -43.5 8.5t-27 23t-13.5 31.5t-6 37
l-26 296h-3z" />
    <glyph glyph-name="nu" unicode="&#x3bd;" horiz-adv-x="500" 
d="M145 0q0 57 -3.5 128.5t-10.5 146.5t-17.5 142t-23.5 111h82q9 -28 17 -82t14.5 -120.5t10.5 -133t4 -120.5h4q57 63 94.5 121t58.5 109t29.5 94t8.5 79q0 14 -1 28t-3 25h77q2 -15 3 -28t1 -26q0 -47 -14.5 -104t-44.5 -119t-76 -126t-108 -125h-102z" />
    <glyph glyph-name="xi" unicode="&#x3be;" horiz-adv-x="459" 
d="M387 -56q0 -23 -13 -55t-44 -73h-79q23 33 38.5 62t15.5 52q0 13 -4 22.5t-13 17.5t-25 16.5t-39 19.5q-41 18 -72.5 34.5t-54.5 36.5t-35 45.5t-12 61.5q0 29 9 58.5t28.5 56t51.5 49.5t76 38v2q-41 18 -62 46.5t-21 73.5q0 37 13 65t33.5 47.5t44.5 30.5t45 14v2h-114
l16 68h349l-16 -65q-82 0 -139 -13t-92.5 -34.5t-51.5 -48.5t-16 -55q0 -29 12 -47.5t36 -29t59.5 -14.5t83.5 -4h29l-15 -69q-83 0 -140 -16t-86.5 -41t-40 -50.5t-10.5 -47.5q0 -23 7 -39t22.5 -29.5t40 -26.5t58.5 -29q36 -17 60 -30.5t39 -28t21.5 -32t6.5 -41.5z" />
    <glyph glyph-name="omicron" unicode="&#x3bf;" horiz-adv-x="580" 
d="M543 335q0 -54 -16.5 -114.5t-50.5 -113.5t-89 -86t-123 -33q-53 0 -91 15.5t-63.5 43.5t-37.5 66t-12 84q0 70 20.5 132.5t57.5 109.5t89 74t112 27q52 0 91 -15t64 -42t37 -64.5t12 -83.5zM267 53q48 0 86.5 28t61.5 72t34 92t11 87q0 31 -6.5 57t-21 45t-38.5 30
t-58 11q-45 0 -81.5 -23.5t-61.5 -62.5t-37.5 -88t-12.5 -99q0 -31 7 -58.5t21.5 -47.5t38 -31.5t57.5 -11.5z" />
    <glyph glyph-name="rho" unicode="&#x3c1;" horiz-adv-x="587" 
d="M71 -195h-81l98 458q10 47 27 95t48.5 90t79 67t112.5 25q56 0 93.5 -17.5t60 -47t32 -66.5t9.5 -78q0 -70 -19 -132.5t-54.5 -109.5t-86 -74t-111.5 -27q-57 0 -95 22.5t-55 59.5h-2zM280 53q42 0 76.5 24.5t59 64t38 89t13.5 99.5q0 28 -6 54t-20 46.5t-37.5 32.5
t-58.5 12q-45 0 -80 -24.5t-58.5 -64.5t-35.5 -91t-12 -103q0 -64 30.5 -101.5t90.5 -37.5z" />
    <glyph glyph-name="sigma1" unicode="&#x3c2;" horiz-adv-x="464" 
d="M148 228q0 -30 7 -52t22 -39t36.5 -31t52.5 -29q37 -18 62 -32.5t39.5 -29.5t20.5 -32t6 -40q0 -28 -16.5 -62t-40.5 -65h-79q19 27 36.5 59t17.5 55q0 12 -3.5 21t-13 18t-28 19t-48.5 24q-44 20 -73.5 41.5t-47.5 47.5t-25.5 56.5t-7.5 68.5q0 66 22 123.5t61.5 99.5
t95 66.5t122.5 24.5q33 0 63 -6.5t53 -17.5l-23 -69q-23 12 -49 16.5t-52 4.5q-36 0 -73 -14t-68 -43.5t-50 -76t-19 -106.5z" />
    <glyph glyph-name="sigma" unicode="&#x3c3;" horiz-adv-x="600" 
d="M599 461h-120l-1 -2q32 -29 42.5 -65t10.5 -79q0 -72 -21.5 -132t-59 -103.5t-87 -67.5t-104.5 -24q-95 0 -148 56t-53 153q0 57 17 116t53 108t93 78t129 29h265zM261 53q48 0 83.5 25t58.5 64.5t34 86.5t11 90q0 28 -5.5 53.5t-19.5 45.5t-37 31.5t-57 11.5
q-48 0 -84.5 -28t-59 -68.5t-33.5 -86.5t-11 -81q0 -44 10.5 -72t28.5 -44t38.5 -22t42.5 -6z" />
    <glyph glyph-name="tau" unicode="&#x3c4;" horiz-adv-x="491" 
d="M96 528h415l-15 -67h-173l-66 -315q-7 -31 -7 -46q0 -20 12.5 -30.5t44.5 -10.5q11 0 24 0.5t32 2.5l-11 -62q-13 -2 -32 -4t-44 -2q-54 0 -80.5 21.5t-26.5 69.5q0 13 2.5 31.5t6.5 37.5l65 307h-163z" />
    <glyph glyph-name="upsilon" unicode="&#x3c5;" horiz-adv-x="547" 
d="M226 -12q-46 0 -77 12t-49.5 32t-26.5 46t-8 54q0 16 1.5 31.5t5.5 37t10.5 52.5t16.5 78l41 197h82l-62 -290q-5 -25 -8 -41.5t-4.5 -30.5t-1.5 -19v-10q0 -40 22 -62t62 -22q33 0 58.5 11t46.5 32q33 33 53.5 79.5t31 95t14 92.5t3.5 71q0 26 -2 49t-5 45h80
q3 -14 5 -37.5t2 -55.5q0 -47 -5 -97t-17 -98t-32.5 -91.5t-50.5 -77.5q-17 -19 -36 -34.5t-40 -26t-48.5 -16.5t-61.5 -6z" />
    <glyph glyph-name="phi" unicode="&#x3c6;" horiz-adv-x="728" 
d="M503 681l-29 -139q45 -3 83.5 -16t68.5 -38t47.5 -64.5t17.5 -92.5q0 -26 -4.5 -59.5t-17 -71t-35 -74.5t-59.5 -68t-91.5 -50.5t-127.5 -21.5l-38 -181h-81l38 181q-58 4 -100 22t-67.5 46t-37.5 64.5t-12 79.5q0 55 16.5 113.5t55 110.5t103 85.5t160.5 35.5l29 138h81
zM140 205q0 -31 8.5 -58t26.5 -47.5t45.5 -33t68.5 -15.5l90 426q-50 0 -88.5 -14.5t-65 -38.5t-43 -53t-26 -59.5t-13 -58t-3.5 -48.5zM370 51q65 0 111 24t73.5 63t40.5 88t13 105q0 38 -12.5 66t-34 44.5t-46 24.5t-55.5 10z" />
    <glyph glyph-name="chi" unicode="&#x3c7;" horiz-adv-x="553" 
d="M174 414q-7 30 -20 44.5t-36 14.5q-8 0 -12 -0.5t-13 -3.5l6 65q11 3 23 4.5t21 1.5q45 0 67 -20.5t34 -70.5l48 -192h2l203 271h91l-274 -362l61 -246q4 -16 8 -28t9.5 -18t12 -8t18.5 -2q9 0 13.5 0.5t8.5 1.5l-11 -62q-10 -2 -21 -3.5t-17 -1.5q-25 0 -40.5 6t-25 17
t-15 26.5t-10.5 36.5l-52 209h-2l-220 -289h-91l291 379z" />
    <glyph glyph-name="psi" unicode="&#x3c8;" horiz-adv-x="708" 
d="M359 53q51 0 95 22.5t76 69.5t50 119t18 171q0 24 -2 49t-5 44h80q4 -17 5.5 -41t1.5 -51q0 -35 -4.5 -82t-17.5 -97t-36 -97.5t-59 -86t-91 -62t-125 -23.5l-39 -183h-82l39 183q-60 4 -98.5 16.5t-60.5 32t-30.5 45.5t-8.5 57q0 12 2 27.5t6.5 40t11 56t16.5 78.5
l39 187h82l-64 -299q-8 -38 -10 -55t-2 -30q0 -45 29.5 -66.5t101.5 -24.5l133 628h82z" />
    <glyph glyph-name="omega" unicode="&#x3c9;" horiz-adv-x="766" 
d="M216 -12q-43 0 -73 15t-47.5 39.5t-25 55.5t-7.5 63q0 50 11.5 103.5t31 104t44 92t50.5 67.5h85q-40 -45 -67 -95.5t-43.5 -101t-23.5 -96t-7 -80.5q0 -49 21 -76.5t56 -27.5q90 0 118 131l46 215h81l-34 -161q-3 -14 -5.5 -28t-4.5 -28.5t-3 -25t-1 -17.5
q0 -45 18.5 -64.5t55.5 -19.5q28 0 55 19t48 56.5t34 94t13 130.5q0 13 -1 33t-3 43t-6.5 48.5t-10.5 50.5h79q13 -32 18 -78t5 -87q0 -87 -16.5 -156t-46.5 -118t-73.5 -75t-95.5 -26q-36 0 -59.5 9.5t-37.5 24t-21 32t-8 33.5h-1q-12 -25 -30 -44.5t-37.5 -31t-40.5 -17.5
t-40 -6z" />
    <glyph glyph-name="iotadieresis" unicode="&#x3ca;" horiz-adv-x="308" 
d="M153 528h80l-80 -382q-7 -31 -7 -47q0 -22 14.5 -31t45.5 -9q16 0 31.5 1t25.5 2l-11 -62q-11 -2 -33 -4t-48 -2q-53 0 -79.5 22t-26.5 68q0 17 3 36.5t7 38.5zM162 626h-82l20 94h82zM339 626h-81l20 94h81z" />
    <glyph glyph-name="upsilondieresis" unicode="&#x3cb;" horiz-adv-x="547" 
d="M226 -12q-46 0 -77 12t-49.5 32t-26.5 46t-8 54q0 16 1.5 31.5t5.5 37t10.5 52.5t16.5 78l41 197h82l-62 -290q-5 -25 -8 -41.5t-4.5 -30.5t-1.5 -19v-10q0 -40 22 -62t62 -22q33 0 58.5 11t46.5 32q33 33 53.5 79.5t31 95t14 92.5t3.5 71q0 26 -2 49t-5 45h80
q3 -14 5 -37.5t2 -55.5q0 -47 -5 -97t-17 -98t-32.5 -91.5t-50.5 -77.5q-17 -19 -36 -34.5t-40 -26t-48.5 -16.5t-61.5 -6zM278 626h-82l20 94h82zM455 626h-81l20 94h81z" />
    <glyph glyph-name="omicrontonos" unicode="&#x3cc;" horiz-adv-x="580" 
d="M391 604h-58l86 164h108zM543 335q0 -54 -16.5 -114.5t-50.5 -113.5t-89 -86t-123 -33q-53 0 -91 15.5t-63.5 43.5t-37.5 66t-12 84q0 70 20.5 132.5t57.5 109.5t89 74t112 27q52 0 91 -15t64 -42t37 -64.5t12 -83.5zM267 53q48 0 86.5 28t61.5 72t34 92t11 87
q0 31 -6.5 57t-21 45t-38.5 30t-58 11q-45 0 -81.5 -23.5t-61.5 -62.5t-37.5 -88t-12.5 -99q0 -31 7 -58.5t21.5 -47.5t38 -31.5t57.5 -11.5z" />
    <glyph glyph-name="upsilontonos" unicode="&#x3cd;" horiz-adv-x="547" 
d="M226 -12q-46 0 -77 12t-49.5 32t-26.5 46t-8 54q0 16 1.5 31.5t5.5 37t10.5 52.5t16.5 78l41 197h82l-62 -290q-5 -25 -8 -41.5t-4.5 -30.5t-1.5 -19v-10q0 -40 22 -62t62 -22q33 0 58.5 11t46.5 32q33 33 53.5 79.5t31 95t14 92.5t3.5 71q0 26 -2 49t-5 45h80
q3 -14 5 -37.5t2 -55.5q0 -47 -5 -97t-17 -98t-32.5 -91.5t-50.5 -77.5q-17 -19 -36 -34.5t-40 -26t-48.5 -16.5t-61.5 -6zM357 604h-58l86 164h108z" />
    <glyph glyph-name="omegatonos" unicode="&#x3ce;" horiz-adv-x="766" 
d="M216 -12q-43 0 -73 15t-47.5 39.5t-25 55.5t-7.5 63q0 50 11.5 103.5t31 104t44 92t50.5 67.5h85q-40 -45 -67 -95.5t-43.5 -101t-23.5 -96t-7 -80.5q0 -49 21 -76.5t56 -27.5q90 0 118 131l46 215h81l-34 -161q-3 -14 -5.5 -28t-4.5 -28.5t-3 -25t-1 -17.5
q0 -45 18.5 -64.5t55.5 -19.5q28 0 55 19t48 56.5t34 94t13 130.5q0 13 -1 33t-3 43t-6.5 48.5t-10.5 50.5h79q13 -32 18 -78t5 -87q0 -87 -16.5 -156t-46.5 -118t-73.5 -75t-95.5 -26q-36 0 -59.5 9.5t-37.5 24t-21 32t-8 33.5h-1q-12 -25 -30 -44.5t-37.5 -31t-40.5 -17.5
t-40 -6zM480 604h-58l86 164h108z" />
    <glyph glyph-name="tonos.cap" horiz-adv-x="442" 
d="M243 550h-58l86 164h108z" />
    <glyph glyph-name="uni2015" unicode="&#x2015;" horiz-adv-x="800" 
d="M787 273h-746l11 54h746z" />
    <glyph glyph-name="questiongreek" unicode="&#x37e;" horiz-adv-x="335" 
d="M189 528h101l-22 -100h-101zM104 97h93l-132 -238h-54z" />
    <glyph glyph-name="numeralsigngreek" unicode="&#x374;" horiz-adv-x="442" 
d="M241 531h-56l89 204h105z" />
    <glyph glyph-name="numeralsignlowergreek" unicode="&#x375;" horiz-adv-x="442" 
d="M323 21h56l-89 -204h-105z" />
    <glyph glyph-name="cyrbreve" horiz-adv-x="465" 
d="M318 607q-63 0 -96.5 28t-33.5 79q0 16 3 34h58q-3 -15 -3 -28q0 -29 18.5 -43.5t56.5 -14.5q46 0 71 20.5t33 65.5h60q-6 -31 -17 -55.5t-30 -44t-49.5 -30.5t-70.5 -11z" />
    <glyph glyph-name="cyrbreve.cap" horiz-adv-x="465" 
d="M343 767q-63 0 -96.5 28t-33.5 79q0 16 3 34h58q-3 -15 -3 -28q0 -29 18.5 -43.5t56.5 -14.5q45 0 70.5 20t33.5 66h60q-6 -32 -17.5 -56.5t-30.5 -43.5t-48.5 -30t-70.5 -11z" />
    <glyph glyph-name="hyphen.cap" horiz-adv-x="400" 
d="M117 403h251l-15 -69h-251z" />
    <glyph glyph-name="endash.cap" horiz-adv-x="500" 
d="M512 341h-446l11 54h446z" />
    <glyph glyph-name="emdash.cap" horiz-adv-x="800" 
d="M812 341h-746l11 54h746z" />
    <glyph glyph-name="colon.cap" horiz-adv-x="335" 
d="M118 194h101l-21 -101h-101zM209 621h101l-22 -100h-101z" />
    <glyph glyph-name="registered.alt1" horiz-adv-x="800" 
d="M128 355q0 -64 22.5 -121t63 -99t97.5 -66.5t125 -24.5q67 0 123.5 24.5t96.5 66.5t62.5 99t22.5 121q0 65 -22.5 122.5t-62.5 100.5t-96.5 68t-123.5 25q-68 0 -125 -25t-97.5 -68t-63 -100.5t-22.5 -122.5zM69 355q0 77 27 144t76 117t116.5 78.5t147.5 28.5
q78 0 146 -28.5t116 -79t74.5 -117t26.5 -143.5q0 -76 -27 -142.5t-74.5 -115.5t-115 -77.5t-146.5 -28.5q-80 0 -148 28.5t-116.5 78t-75.5 116t-27 141.5zM294 574h151q30 0 57 -6t47.5 -19.5t33 -36t12.5 -56.5q0 -39 -19 -65.5t-53 -37.5v-2q21 -8 32 -24.5t22 -54.5
q10 -33 19.5 -65t20.5 -65h-80q-3 12 -7 27t-8 30.5t-8 30t-7 25.5q-5 18 -10 30t-14 20t-23.5 11.5t-37.5 3.5h-58v-178h-70v432zM364 378h68q46 0 69.5 17.5t23.5 54.5q0 20 -8 32.5t-21 19t-29 9t-34 2.5h-69v-135z" />
    <glyph glyph-name="zero.slash" horiz-adv-x="582" 
d="M395 726q48 0 83 -16.5t58 -47t34 -73.5t11 -95q0 -47 -8 -103t-24 -112t-41 -108t-59.5 -93.5t-80 -65.5t-98.5 -24q-52 0 -88 16.5t-58 46.5t-32 72.5t-10 95.5q0 45 7 99.5t23 112.5t40.5 110t60 94.5t81 66.5t101.5 24zM390 655q-38 0 -70.5 -21.5t-57 -57t-42.5 -80
t-30 -93.5t-17.5 -95t-5.5 -83v-30l320 377q-10 39 -33 61t-64 22zM496 488q0 8 -0.5 14.5t-0.5 14.5l-320 -376q10 -40 34 -61t66 -21q37 0 68.5 21.5t56 57.5t42.5 81t30 93t18 94t6 82z" />
    <glyph glyph-name="zero.tnum" horiz-adv-x="582" 
d="M395 726q47 0 82.5 -16.5t58.5 -47.5t34 -73.5t11 -94.5q0 -48 -8 -104.5t-24 -111.5t-41 -107.5t-60 -93.5t-80 -65t-98 -24q-52 0 -88 16.5t-58 46.5t-32 72.5t-10 95.5q0 45 7 99.5t23 112.5t40.5 110t59.5 94t81 66.5t102 24.5zM390 655q-38 0 -70.5 -21.5t-57 -57
t-42.5 -80t-30 -93t-17.5 -95t-5.5 -83.5t5 -67.5t17 -52t33 -34t53 -12.5q36 0 68 21.5t56.5 57.5t42.5 81t30 93t18 94t6 82q0 84 -25.5 125.5t-80.5 41.5z" />
    <glyph glyph-name="one.tnum" horiz-adv-x="582" 
d="M333 0h-86l133 629l-173 -102l-31 65l211 122h97z" />
    <glyph glyph-name="two.tnum" horiz-adv-x="582" 
d="M479 0h-448l16 79q89 65 155.5 117t114.5 94.5t79.5 76.5t50.5 65t26 57.5t7 53.5q0 54 -34.5 83t-92.5 29q-35 0 -75.5 -9.5t-85.5 -32.5l-20 64q42 23 90.5 36t94.5 13q52 0 91.5 -13t65.5 -36.5t39 -56t13 -72.5q0 -59 -27.5 -113t-81.5 -110t-131 -117t-176 -134v-3
h344z" />
    <glyph glyph-name="three.tnum" horiz-adv-x="582" 
d="M205 403h58q43 0 81 7.5t69.5 25t50 47.5t18.5 73q0 47 -32.5 73t-89.5 26q-33 0 -71 -7t-81 -26l-14 67q44 20 88 28.5t87 8.5q42 0 77 -10t62 -30.5t42 -51.5t15 -72q0 -79 -47 -128t-129 -66v-2q62 -13 94.5 -54.5t32.5 -98.5t-21 -100t-57 -70.5t-83.5 -41
t-100.5 -13.5q-56 0 -106 10t-90 29l28 70q34 -18 77 -28t84 -10q37 0 69.5 8.5t58 26t41 46.5t15.5 69q0 33 -15 57.5t-42 39t-59 20.5t-67 6h-58z" />
    <glyph glyph-name="four.tnum" horiz-adv-x="582" 
d="M471 244h98l-15 -73h-98l-36 -171h-84l36 171h-342l19 89l390 454h132zM472 643h-2l-342 -399h259z" />
    <glyph glyph-name="five.tnum" horiz-adv-x="582" 
d="M240 59q40 0 76.5 10t64 31.5t43.5 54.5t16 78q0 37 -13 63t-35.5 43t-53.5 25t-66 8q-29 0 -60.5 -3t-76.5 -11l91 356h353l-15 -71h-277l-55 -206q25 3 40 4t28 1q45 0 86 -12t72 -36.5t49 -62t18 -89.5q0 -62 -21 -109.5t-59 -79.5t-90.5 -48.5t-114.5 -16.5
q-52 0 -101 9t-91 29l24 71q77 -38 168 -38z" />
    <glyph glyph-name="six.tnum" horiz-adv-x="582" 
d="M348 399q-38 0 -72 -14.5t-59 -39.5t-39.5 -59t-14.5 -74q0 -27 5.5 -54t20 -49.5t39.5 -36t61 -13.5q45 0 79.5 18t56 47.5t32.5 67t11 78.5q0 25 -7 48.5t-21.5 41.5t-37 28.5t-54.5 10.5zM187 383q32 41 78 63t95 22t85.5 -15.5t59.5 -42t34 -60t11 -71.5
q0 -56 -17 -108t-50 -93t-82.5 -65.5t-115.5 -24.5q-57 0 -97.5 19t-64 52.5t-33 74t-9.5 82.5q0 55 10.5 114.5t31 115.5t51.5 107t72.5 89.5t94.5 61t114 22.5q71 0 122 -22l-24 -67q-42 18 -99 18q-52 0 -96 -23.5t-78 -62t-58.5 -87t-36.5 -99.5h2z" />
    <glyph glyph-name="seven.tnum" horiz-adv-x="582" 
d="M192 714h432l-15 -72q-71 -80 -130.5 -163.5t-106.5 -166.5t-81.5 -162.5t-55.5 -149.5h-86q22 72 59 155t84.5 167t104.5 166.5t120 154.5h-340z" />
    <glyph glyph-name="eight.tnum" horiz-adv-x="582" 
d="M319 334q-32 0 -64.5 -9t-58.5 -27.5t-42.5 -46.5t-16.5 -65q0 -32 12.5 -56t32.5 -40t46.5 -23.5t53.5 -7.5q36 0 69.5 9.5t59 28t41 46t15.5 63.5q0 32 -14 56t-35.5 40t-47.5 24t-51 8zM385 726q39 0 77 -9.5t67 -30.5t47 -54.5t18 -81.5q0 -41 -12.5 -72t-33.5 -53.5
t-49 -36.5t-59 -21v-2q21 -8 41 -21t35.5 -32.5t25.5 -45.5t10 -59q0 -57 -23.5 -98t-61.5 -68t-87 -40t-101 -13q-45 0 -86.5 11t-72.5 34.5t-49.5 58.5t-18.5 83q0 45 17 79.5t43 60t58.5 41t63.5 22.5v2q-43 17 -69 53t-26 84q0 49 21 88t55.5 66t79 41t90.5 14zM350 404
q23 0 51 8t52 24.5t40 42.5t16 63q0 52 -36 82.5t-93 30.5q-33 0 -61.5 -9.5t-49.5 -27t-33 -43t-12 -56.5q0 -29 10.5 -50.5t28 -36t40 -21.5t47.5 -7z" />
    <glyph glyph-name="nine.tnum" horiz-adv-x="582" 
d="M307 315q38 0 72 14.5t59 39.5t39.5 59t14.5 74q0 27 -5.5 54.5t-20 49.5t-39 35.5t-61.5 13.5q-45 0 -79 -18t-56 -47t-33 -67.5t-11 -78.5q0 -25 7 -48.5t21.5 -41.5t37 -28.5t54.5 -10.5zM468 331q-31 -41 -77.5 -63t-95.5 -22t-85.5 15.5t-59 41.5t-34 60t-11.5 72
q0 57 17 108.5t50 92.5t83 65.5t115 24.5q58 0 98.5 -19.5t64 -53t32.5 -73.5t9 -82q0 -55 -9.5 -114t-29 -115.5t-49.5 -107.5t-71.5 -89.5t-94.5 -61t-118 -22.5q-73 0 -124 22l24 67q21 -9 47 -13.5t54 -4.5q55 0 99.5 22.5t77.5 61t55.5 87.5t34.5 101h-2z" />
    <glyph glyph-name="dollar.tnum" horiz-adv-x="582" 
d="M436 701q67 -5 116 -26l-20 -67q-26 11 -52.5 18t-57.5 9l-53 -251q62 -45 93 -87.5t31 -99.5q0 -46 -17 -80t-45.5 -57t-65.5 -35.5t-76 -15.5l-18 -87h-63l18 87q-36 2 -76.5 11.5t-74.5 25.5l22 67q35 -17 73 -26.5t70 -11.5l57 265q-59 40 -89.5 83.5t-30.5 98.5
q0 43 16.5 76.5t44 55t62.5 33.5t73 15l18 81h63zM413 190q0 30 -15 57t-47 54l-47 -222q49 8 79 36.5t30 74.5zM257 529q0 -30 13 -54.5t45 -50.5l44 209q-20 -3 -39 -11t-33 -20.5t-22 -30.5t-8 -42z" />
    <glyph glyph-name="currency.tnum" horiz-adv-x="582" 
d="M506 354q0 -39 -14 -74t-38 -62l63 -80l-56 -41l-62 78q-47 -25 -102 -25q-53 0 -94 30l-80 -65l-43 54l80 64q-13 26 -13 60q0 39 13.5 74t38.5 62l-63 81l56 41l62 -79q46 26 102 26q54 0 93 -30l81 65l43 -54l-80 -65q13 -29 13 -60zM305 222q24 0 46 9.5t39 26
t27 38.5t10 48q0 35 -21 58.5t-58 23.5q-25 0 -47.5 -10t-39 -27t-26 -39.5t-9.5 -47.5q0 -35 21.5 -57.5t57.5 -22.5z" />
    <glyph glyph-name="Euro.tnum" horiz-adv-x="582" 
d="M148 319q2 20 7 45.5t12 47.5h-78l25 55h71q22 53 55.5 100t79.5 83t104 56t125 20q12 0 31.5 -1t38.5 -5l-25 -67q-10 1 -23 1.5t-24 0.5q-51 0 -94.5 -14t-78 -39.5t-60.5 -60t-43 -74.5h272l-24 -55h-268q-15 -43 -20 -93h258l-25 -55h-235q0 -42 11.5 -79t35.5 -65
t63 -44.5t93 -16.5q50 0 79 7l9 -68q-18 -5 -45 -7.5t-56 -2.5q-67 0 -119 21t-86 58.5t-51 88t-17 108.5h-88l26 55h64z" />
    <glyph glyph-name="cent.tnum" horiz-adv-x="582" 
d="M529 458q-33 15 -75 15l-89 -418q27 1 49 5.5t51 16.5v-67q-61 -21 -114 -22l-12 -55h-64l13 59q-41 6 -73 25t-52.5 47.5t-30.5 63.5t-10 74q0 66 21.5 124.5t59 103t88.5 72.5t112 34l14 64h64l-13 -60q26 -1 44 -4t39 -11zM390 468q-45 -8 -79.5 -33t-58 -61.5
t-35.5 -79.5t-12 -88q0 -27 5.5 -51.5t17 -44t30.5 -33t45 -18.5z" />
    <glyph glyph-name="sterling.tnum" horiz-adv-x="582" 
d="M591 635q-17 8 -42 14t-55 6q-39 0 -66.5 -13t-47 -34t-31.5 -49t-18 -57l-21 -98h160l-12 -57h-160l-58 -275h284l-15 -72h-473l15 72h105l58 275h-98l12 57h98l22 104q9 43 27 82.5t45.5 69t71 48t101.5 18.5q39 0 70.5 -6.5t53.5 -16.5z" />
    <glyph glyph-name="florin.tnum" horiz-adv-x="582" 
d="M506 339h-137l-88 -317q-9 -33 -23 -61.5t-34.5 -50t-50.5 -33.5t-70 -12q-20 0 -42.5 4t-41.5 12l15 68q17 -6 35.5 -9.5t34.5 -3.5q40 0 61.5 23t35.5 77l82 303h-126l17 65h127l47 167q9 32 22 58.5t34 48.5t54 35t79 13q26 0 48.5 -3.5t36.5 -8.5l-21 -68
q-29 9 -63 9q-28 0 -47 -8t-31 -21.5t-20 -32.5t-14 -42l-41 -147h138z" />
    <glyph glyph-name="yen.tnum" horiz-adv-x="582" 
d="M251 205l20 93h-164l12 55h148l-137 361h89l112 -335l249 335h92l-284 -361h146l-12 -55h-170l-20 -93h170l-11 -55h-170l-32 -150h-81l32 150h-164l11 55h164z" />
    <glyph glyph-name="phi.alt" horiz-adv-x="711" 
d="M512 535q38 0 67.5 -13.5t50 -38t31 -59t10.5 -75.5q0 -61 -16.5 -125t-54.5 -116.5t-100 -86.5t-152 -35l-38 -181h-81l38 181q-52 4 -91 22.5t-64.5 48t-38.5 69t-13 86.5q0 57 15 109t40.5 95t60.5 75t74 49l42 -51q-69 -40 -109 -113.5t-40 -165.5q0 -79 35.5 -115
t102.5 -44l62 295q20 92 58 140.5t111 48.5zM362 51q65 4 108.5 32t69.5 69.5t37 92t11 99.5q0 24 -4 47t-13 40.5t-24 28t-36 10.5t-35.5 -11t-24.5 -30t-17 -46t-14 -58z" />
    <glyph glyph-name="beta.alt" horiz-adv-x="562" 
d="M279 53q40 0 70 17.5t49 45t28.5 60.5t9.5 64q0 48 -11.5 82.5t-33.5 52.5q-23 -9 -51 -17t-58 -13.5t-60 -8.5t-57 -4q-7 -32 -9 -59t-2 -40q0 -41 5.5 -74.5t20 -57t38.5 -36t61 -12.5zM557 600q0 -53 -26.5 -101.5t-82.5 -87.5v-2q34 -30 49.5 -71t15.5 -87
q0 -56 -17.5 -104.5t-48.5 -83.5t-74.5 -55t-94.5 -20q-31 0 -66.5 8t-66 33t-50.5 72t-20 126q0 44 6.5 90.5t18 91t27.5 86t35 74.5q44 78 102 122t146 44q70 0 108.5 -37.5t38.5 -97.5zM395 669q-36 0 -68.5 -19t-59.5 -54t-49.5 -85t-39.5 -111q70 0 125 16t93 42
t58.5 59t20.5 68q0 39 -19.5 61.5t-60.5 22.5z" />
    <glyph glyph-name="theta.alt" horiz-adv-x="558" 
d="M226 56q46 0 82 24.5t63 65.5t46.5 93.5t32.5 109.5q-81 0 -137.5 13t-91 37.5t-50 59.5t-15.5 79q0 9 2 27t8.5 40t19.5 45t35.5 42t55.5 31t80 12q45 0 81 -11.5t61.5 -37t39.5 -66t14 -98.5q0 -36 -7 -89.5t-23 -113t-41.5 -118.5t-62 -106.5t-85 -77t-110.5 -29.5
q-81 0 -125 38.5t-44 105.5q0 26 6 61.5t20 97.5l12 56h81l-14 -65q-10 -46 -17 -80.5t-7 -60.5q0 -14 3 -29t12.5 -27.5t27 -20.5t47.5 -8zM238 540q0 -63 43.5 -91.5t150.5 -28.5h33q2 12 3.5 25.5l3 27t2 26t0.5 20.5q0 45 -9.5 74.5t-26 46.5t-38 23.5t-45.5 6.5
q-31 0 -53 -10t-36.5 -28t-21 -41.5t-6.5 -50.5z" />
    <glyph glyph-name="uni2011" unicode="&#x2011;" horiz-adv-x="400" 
d="M101 335h251l-15 -69h-251z" />
    <glyph glyph-name="uniFEFF" unicode="&#xfeff;" horiz-adv-x="0" 
 />
    </font>
</defs>
</svg>
